<mxfile host="65bd71144e">
    <diagram id="rgk9fNFLR9RUVl60PSr0" name="RAG">
        <mxGraphModel dx="978" dy="506" grid="0" gridSize="10" guides="1" tooltips="1" connect="1" arrows="1" fold="1" page="1" pageScale="1" pageWidth="1100" pageHeight="850" math="0" shadow="0">
            <root>
                <mxCell id="0"/>
                <mxCell id="1" parent="0"/>
                <mxCell id="8_lOqyAqj8u2YSckU1qC-1" value="" style="rounded=0;whiteSpace=wrap;html=1;sketch=1;curveFitting=1;jiggle=2;sketchStyle=comic;fillColor=#fbf4f4;strokeColor=#b85450;gradientColor=#FFFFFF;" parent="1" vertex="1">
                    <mxGeometry x="93" y="656" width="944" height="160" as="geometry"/>
                </mxCell>
                <mxCell id="8_lOqyAqj8u2YSckU1qC-2" value="" style="rounded=0;whiteSpace=wrap;html=1;sketch=1;curveFitting=1;jiggle=2;sketchStyle=comic;fillColor=#fbf9f4;strokeColor=#d6b656;gradientColor=#FFFFFF;gradientDirection=north;" parent="1" vertex="1">
                    <mxGeometry x="93" y="473" width="943" height="160" as="geometry"/>
                </mxCell>
                <mxCell id="8_lOqyAqj8u2YSckU1qC-3" value="" style="rounded=0;whiteSpace=wrap;html=1;sketch=1;curveFitting=1;jiggle=2;sketchStyle=comic;fillColor=#fbfefb;strokeColor=#82b366;gradientColor=#FFFFFF;gradientDirection=north;" parent="1" vertex="1">
                    <mxGeometry x="93" y="294" width="941" height="150" as="geometry"/>
                </mxCell>
                <mxCell id="8_lOqyAqj8u2YSckU1qC-4" value="" style="rounded=0;whiteSpace=wrap;html=1;sketch=1;curveFitting=1;jiggle=2;sketchStyle=comic;fillColor=#f2f6fd;strokeColor=#6c8ebf;gradientColor=#FFFFFF;gradientDirection=north;" parent="1" vertex="1">
                    <mxGeometry x="93" y="34" width="940" height="230" as="geometry"/>
                </mxCell>
                <mxCell id="7" style="edgeStyle=none;html=1;entryX=0;entryY=0.5;entryDx=0;entryDy=0;flowAnimation=1;" edge="1" parent="1" source="8_lOqyAqj8u2YSckU1qC-11" target="4">
                    <mxGeometry relative="1" as="geometry"/>
                </mxCell>
                <mxCell id="8_lOqyAqj8u2YSckU1qC-11" value="&lt;b&gt;&lt;font style=&quot;font-size: 12px;&quot;&gt;Read Data and Preprocess&lt;/font&gt;&lt;/b&gt;" style="shape=process;whiteSpace=wrap;html=1;backgroundOutline=1;rounded=1;fillColor=#d5e8d4;strokeColor=#1c3c3c;sketch=1;curveFitting=1;jiggle=2;sketchStyle=rough;" parent="1" vertex="1">
                    <mxGeometry x="353" y="136.50000000000003" width="120" height="60" as="geometry"/>
                </mxCell>
                <mxCell id="8_lOqyAqj8u2YSckU1qC-13" style="edgeStyle=none;html=1;fontSize=25;flowAnimation=1;fillColor=#008a00;strokeColor=#1c3c3c;entryX=0.5;entryY=0;entryDx=0;entryDy=0;exitX=0.425;exitY=0.978;exitDx=0;exitDy=0;exitPerimeter=0;" parent="1" source="aUIbM6phszjy0wtiQAA0-1" target="8_lOqyAqj8u2YSckU1qC-32" edge="1">
                    <mxGeometry relative="1" as="geometry">
                        <mxPoint x="442.489779388859" y="561.8899999999999" as="sourcePoint"/>
                        <mxPoint x="444.6400000000001" y="738.5" as="targetPoint"/>
                    </mxGeometry>
                </mxCell>
                <mxCell id="8_lOqyAqj8u2YSckU1qC-14" style="edgeStyle=none;html=1;fontSize=13;flowAnimation=1;fillColor=#008a00;strokeColor=#005700;exitX=0;exitY=0.5;exitDx=0;exitDy=0;" parent="1" source="aUIbM6phszjy0wtiQAA0-1" target="8_lOqyAqj8u2YSckU1qC-20" edge="1">
                    <mxGeometry relative="1" as="geometry">
                        <mxPoint x="342.27" y="541.4430295948628" as="sourcePoint"/>
                    </mxGeometry>
                </mxCell>
                <mxCell id="8_lOqyAqj8u2YSckU1qC-15" style="edgeStyle=none;html=1;entryX=0.425;entryY=0.999;entryDx=0;entryDy=0;fontSize=12;entryPerimeter=0;flowAnimation=1;fillColor=#f0a30a;strokeColor=#BD7000;exitX=0.642;exitY=-0.002;exitDx=0;exitDy=0;exitPerimeter=0;" parent="1" source="aUIbM6phszjy0wtiQAA0-1" target="8_lOqyAqj8u2YSckU1qC-3" edge="1">
                    <mxGeometry relative="1" as="geometry">
                        <mxPoint x="493" y="515" as="sourcePoint"/>
                        <mxPoint x="473.0799999999999" y="424.6" as="targetPoint"/>
                    </mxGeometry>
                </mxCell>
                <mxCell id="8_lOqyAqj8u2YSckU1qC-16" value="Query" style="edgeLabel;html=1;align=center;verticalAlign=middle;resizable=0;points=[];fontSize=12;" parent="8_lOqyAqj8u2YSckU1qC-15" vertex="1" connectable="0">
                    <mxGeometry x="-0.181" y="1" relative="1" as="geometry">
                        <mxPoint y="2" as="offset"/>
                    </mxGeometry>
                </mxCell>
                <mxCell id="8_lOqyAqj8u2YSckU1qC-18" style="edgeStyle=none;html=1;entryX=0;entryY=0.5;entryDx=0;entryDy=0;fontSize=25;flowAnimation=1;fillColor=#f0a30a;strokeColor=#BD7000;" parent="1" source="8_lOqyAqj8u2YSckU1qC-20" target="aUIbM6phszjy0wtiQAA0-1" edge="1">
                    <mxGeometry relative="1" as="geometry">
                        <mxPoint x="342.27" y="541.4450000000002" as="targetPoint"/>
                    </mxGeometry>
                </mxCell>
                <mxCell id="8_lOqyAqj8u2YSckU1qC-19" style="edgeStyle=none;html=1;entryX=0.5;entryY=1;entryDx=0;entryDy=0;fontSize=12;flowAnimation=1;fillColor=#f0a30a;strokeColor=#BD7000;" parent="1" source="8_lOqyAqj8u2YSckU1qC-20" target="8_lOqyAqj8u2YSckU1qC-44" edge="1">
                    <mxGeometry relative="1" as="geometry"/>
                </mxCell>
                <mxCell id="8_lOqyAqj8u2YSckU1qC-20" value="&lt;b&gt;GoogleGenerativeAI&lt;/b&gt;" style="text;html=1;align=center;verticalAlign=middle;resizable=0;points=[];autosize=1;strokeColor=#d6b656;fillColor=#fff2cc;rounded=1;strokeWidth=2;sketch=1;curveFitting=1;jiggle=2;sketchStyle=rough;" parent="1" vertex="1">
                    <mxGeometry x="122" y="522.0300000000001" width="133" height="26" as="geometry"/>
                </mxCell>
                <mxCell id="8_lOqyAqj8u2YSckU1qC-21" style="edgeStyle=none;html=1;entryX=1;entryY=0.5;entryDx=0;entryDy=0;fontSize=13;flowAnimation=1;" parent="1" source="8_lOqyAqj8u2YSckU1qC-22" target="8_lOqyAqj8u2YSckU1qC-32" edge="1">
                    <mxGeometry relative="1" as="geometry"/>
                </mxCell>
                <mxCell id="8_lOqyAqj8u2YSckU1qC-22" value="RAG FrontEnd" style="html=1;verticalLabelPosition=bottom;align=center;labelBackgroundColor=#ffffff;verticalAlign=top;strokeWidth=2;strokeColor=#0080F0;shadow=0;dashed=0;shape=mxgraph.ios7.icons.chat;sketch=1;curveFitting=1;jiggle=2;sketchStyle=comic;" parent="1" vertex="1">
                    <mxGeometry x="829.9999999999999" y="730.0000000000001" width="90.66" height="60" as="geometry"/>
                </mxCell>
                <mxCell id="8_lOqyAqj8u2YSckU1qC-25" value="" style="edgeStyle=none;html=1;fontSize=18;flowAnimation=1;fillColor=#f0a30a;strokeColor=#BD7000;" parent="1" source="8_lOqyAqj8u2YSckU1qC-26" target="8_lOqyAqj8u2YSckU1qC-20" edge="1">
                    <mxGeometry relative="1" as="geometry"/>
                </mxCell>
                <mxCell id="8_lOqyAqj8u2YSckU1qC-26" value="&lt;font style=&quot;font-size: 12px;&quot;&gt;&lt;b&gt;Gemini Pro&lt;/b&gt;&lt;/font&gt;" style="text;html=1;strokeColor=#d79b00;fillColor=#ffe6cc;align=center;verticalAlign=middle;whiteSpace=wrap;rounded=1;strokeWidth=2;fontSize=18;fillStyle=solid;glass=0;shadow=0;sketch=1;curveFitting=1;jiggle=2;sketchStyle=rough;" parent="1" vertex="1">
                    <mxGeometry x="113" y="592" width="150" height="30" as="geometry"/>
                </mxCell>
                <mxCell id="8_lOqyAqj8u2YSckU1qC-27" style="edgeStyle=none;html=1;entryX=0.75;entryY=1;entryDx=0;entryDy=0;fontSize=12;flowAnimation=1;" parent="1" source="8_lOqyAqj8u2YSckU1qC-28" target="aUIbM6phszjy0wtiQAA0-1" edge="1">
                    <mxGeometry relative="1" as="geometry">
                        <mxPoint x="542.94" y="541.4450000000002" as="targetPoint"/>
                        <Array as="points">
                            <mxPoint x="521" y="597"/>
                        </Array>
                    </mxGeometry>
                </mxCell>
                <mxCell id="8_lOqyAqj8u2YSckU1qC-28" value="&lt;b&gt;LLM&lt;br&gt;Config&lt;/b&gt;" style="shape=cylinder3;whiteSpace=wrap;html=1;boundedLbl=1;backgroundOutline=1;size=15;fillColor=#dae8fc;strokeColor=#6c8ebf;sketch=1;curveFitting=1;jiggle=2;sketchStyle=rough;" parent="1" vertex="1">
                    <mxGeometry x="601" y="564" width="47" height="65" as="geometry"/>
                </mxCell>
                <mxCell id="8_lOqyAqj8u2YSckU1qC-32" value="" style="shape=image;verticalLabelPosition=bottom;labelBackgroundColor=default;verticalAlign=top;aspect=fixed;imageAspect=0;image=data:image/png,iVBORw0KGgoAAAANSUhEUgAACIUAAAT8CAMAAAAgpVJRAAAB+1BMVEUAAAC7QEC9QEK+QEO9QEO9QEO+QES9QEO8QEO9QEK9QEOvQEC9QEO/QEC8QES+QEO/QEO9QEK3QEC7QEK6QEW/QES9QES/QEKAODj/Skr/S0v/S0v/S0v/QEBwMEB+Njp9NTt9NTt8NTt+Nzl4MDj/Skr/S0v/S0v/SEh9NDt9NTt8Mz3/Skp+Njv/S0t9NTt6NTp9NTp9NTp8NDj/TEx6Mjr/Skr/SEh8NDp9NTt8Mzn/S0t9Njv/S0v/UFD/Skp8Nj3/TEz/Skp+Njr/SUl/NTt+NTl9NDp8NDz/RUV9Njp6NTX/TEz/SUnfRUe5P0P3SkrWREaZOT7SREW5P0KFNjzvSEnFQUStPUHmR0jeRUfaREbNQkWJNzzzSUmxPkKdOj//SkrBQUSNOD21P0KBNjyhOz/7SkqlPECROT6pPEDiRkd8NTp7NDnJQUTqR0iHODq9QEK/QEC9QEL/TEz/S0u8QEO8QEP/TEzeRUj/UFAgIDAjIzAnJzAlJzAlJjAlJzAmJjAlJTAkJDAmJzAmJzAmJzAmJzAlJTAmJjAmJjAgKDAgIDAlJjAoKDAkKDAmJjAhITEmKDAnJzAlKDAmJjAnJzAlJTAjJjAmJzAmJzAlKjAmJjAlJzAnJzAnJzAkJzAmJjAmKDAmKDAnJzAnJzAnJzAlJTAmKDAmf25zAAAAqXRSTlMAQJ/f7//Pn1Bg3xCvEM+/b3AggDB/j48gYL/v/xAQf7//z28gMM+fIO/fUH9f3+8wYN9AUGCAQICfUI/fcBCQUECvgKCPb69AMLAwr3C/z///////////////////////3/////////////+QcP//YN8g75CgkKCAoCAQUHCPn7+AMEDf/++vYH+fICDPIEBfH59vYFCvkFCwzzCgkN+QcM+AoL+PwI9/4Yz3EwAAP0dJREFUeAHs2UEyA1EYBsA/zJ/IRISA+99UvYUqZD3vW+i+RhcAAAAAAAAAAAAAAAAAAAAAAAAAAAAAAAAAAAAAAAAAAAAAAAAAAAAAAAAAAAAAAAAAAAAAAAAAAAAAAAAAAAAAAAAAAAAAAAAAAAAAAAAAAAAAAAAAAAAAAAAAAAAAAAAAAAAAAAAAAAAAAAAAAAAAAAAAAAAAAAAAAAAAAAAAAAAAAAAAAAAAAAAAAAAAAAAAAAAAAAAAAAAAAAAAAAAAAAAAAAAAAAAAAAAAAAAAAAAAAAAAAAAAAAAAAAAAAAAAAAAAAAAAAAAAAAAAAAAAAAAAAAAAAAAAAAAAAAAAAAAAAAAAAAAAAAAAAAAAAAAAAAAAAAAAAAAAAAAAAAAAAAAA/xoAAAAAAAAAAAAAAAAAAAAAAAAAAAAAAAAAAAAAAAAAAAAAAAAAAAAAAAAAAAAAAAAAAAAAAAAAAAAAAAAAAAAAAAAAAAAAAAAAAAAAAAAAAAAAAAAAAAAAAAAAAAAAAAAAAAAAAAAAAAAAAAAAAAAAAAAAAAAAAAAAAAAAAAAAAAAAAAAAAAAAAAAAAAAAAAAAAAAAAAAAAAAAAAAAAAAAAAAAAAAAAAAAAAAAAAAAAAAAAAAAAAAAAAAAAAAAAAAAAAAAAAAAAAAAAAAAAAAAAAAAAAAAAAAAAAAAAAAAAAAAAAAAAAAAAAAAAAAAAAAAAAAAAAAAAMDu7n7p3h8eCgBgnuPS39ZjAQDMcXrsnw7nmgAA4PTUv+3PtT0AgEP/danNAQA8962X2hgAwHXpW8u1tgUAcOkhcTIAgI/JnAwA4GOCJwMA+Jj8yQAAPmZ4LQCACR9z660AAGZ/zLCvTQAAvPcw+WQAAK49zD4ZAIC1h8TJAAA+JnIyAICPiZ4MAOBj8icDAPiY/MkAAD5m2BUAwOyPGdZzAQDM/pjhowAAJnxM4GQAAB8TOBkAwMcETgYA8DGBkwEAfEzgZAAAHxM4GQDAx0RPBgDwMfmTAQB8jJMJAAAf42QCAMDHOJkAAPAxTiYAAHyMkwkAAB/jZAIAwMc4mQAA8DFOBgCY4LT24GQAgMk+e3AyAMBkux6cTB4A+BgnkwcAPsbJ5AGAj3EyeQDgY5xMHgD4GCeTAwA+xsnAF3t32R3HkUYBuHSOJ5xoDYGRKoraK5jsattrWMsohxnMYWb4/1+XK5yM1PLo7al+nl9xz7m33mIPAI7csT5GJ/NYAoA9GS8t5+Wl8eNpmO4e3Qk6mZUnVpumOf7ntbRLALC+kf9vc5IG6N7RnXbPMDPIk83//OWvCQB2ZX05/2hroo/Zv0MPDjSDFH9LALALkzb/VLulj9m/BwaaQYoTf08AMN1m/oV2rI/ZE53MyVPNL6wmAJhqkotOOUQfo5M5far5tZUEANOcybl7DtHH6GROrza/5R8JAKY5m3/b0rY+Riez9wxSnEsdASCFTH+2q4/RyayVDCKFdAHAOOcuOUQfo5NZO9/8vgupAwCsU6fnEH2MTqY8zv0djyUAmGop/6GLE31MR4eODC+DFJcSAEx3Of+xdksf09Hi8DJIcTJNBwA7y3mKdqyP6eZwqtLJkkEUMgDs05VcTM8h+hidzFOnmqnOJwDYjafzLrRjfYxOphwIKbyQmS0A+9Si3dbH7N3hijOIbersAdinFs9M9DGRnUz/M0jxbOoOAPvUfZ4P0ccUiwM4Umab2h0Az+Vd25wMso/Ryaw83+zaauoAAPvUqBwS38foZLofCOl+LAQANvIetFsTfcweLNafQWxTuwPgbN6TdjygPkYn88LUDNL9WAgA7OQ9ascD6WN0MidPNYVtKgAhJ0M65BB9TLFY4+Nc29QAAPapRbutj9mlw9VnENvU7gBYzh0sTfQxAZ1MPzNIcWIldQeAfWrdz3YXR7ugk1l7sSlsUwMA2KfWmEP+NIpwuJIjZdO9lPYIAJbyMHLIkUOjQifT/UCIYyGxAOxTi+WtiT5mmsWKM4htagAA+9SiHetjpjlccwZxLCQAgH1q0Y71MRGdTPyRMtvU/QNgPefYHBLfx+hkTpcMYpsaD8A+df85RB9THK7zQIht6v4BcDnv29LL+piwTiY+g9imAtDVznL+UZXPdu8b/R6dzNpqU9imAnDwruRcdQ55ePQ7dDJr55s74ZUEdAZOhtScQ46MCp1Mp8e5011IQBSwTy22JvqY37RYcwaxTQ0FYJ9atFv6mN90uN4M4lhINAD71KId62N+y7HUKydLBrFNjQdgnzqbHKKPKe7q/5GyrlYTEALsU6fkEH1McbTHB0IcC6kAgH1qsbStjymKY3VmENvUOAC+tJvybFcfU9xVZQaxTY0EYJ86JYfoY4qj/T9S1sWraV8A4LU8A5uTHvUxOpmV55sZOJ4AoFf71OLiRB/zo7v6fyDENhWAAMt5JtotfcyPjlaXQRwLAaCP+9SiHYf3MTqZF0oGsU0FoId28sy0Y33M/933YApw8lQzMy+lfQOApTw77Vgf8z+PRD/OdSxkMADsU4t2Wx/zXwthGWRw21QA7FOLZyYD72NKJxOTQQa5TQXAPrXYnMT3MYPqZNZebIqBbFMBsE+NzyFHRv21EHCkrOfbVABYyvE5JLiPCehk4g+ExG9TAeBMPgDt1mSofUzxyNxnkOLZFAAAX9p1146H2scUCwEZpN/bVAC4kg9GO66/jwnsZMqRsplbTfEAcDKkVzmk9DHD7GROH2+KwrEQAOxTD+aM2cKo/xYCDoT0epsKAJfzAVqapFm4v/Qx/e5kIjKIYyEA2KfO9Nnuo6NiaJ3M2mpT2KYCYJ968Dmk9DGD62TWzjeFbSoA9qkBOaT0MfV3Ml0f59qmAmCfWixvTQbVxxSPzGkGKU6sJACY231q0b4+qD6mWIjLILapANinFu24lj4moJM5+WQT4dUEAHfYazlEO66hjwnoZE6fan7GsRAA7FMjcsi9o/myEHAgpMfbVADYyFGWttO+HCl9TAWdTEAGCT8WAgBnczfxz3bvHs2bRwIySH+3qQCwkyNtTgbRxxQLsUfKunspAcAMLOX4HNL/Pia2k1l5oilsUwGwT71ztib19zHFIwEHQvq7TQWA5Rys3aq/jykWepFBbFMBsE8t2nH/+5igTuaFJ5twryQAqHCfWrTj/vcxAZ3MyVNND1xIAFDlPrVox3X3McU9vXmca5sKgH1qsbFdcx9THHqwPxnEsRAA7FOLzUnFfUzxQHwGsU0FwD61Qw4pfUzdnczai01vrCYAmJ313CObk/g+JriTWXm+mcKxEADsUyNyyN2jefdAwIGQnm5TAeBy7pV26/E6+5jinoAM0s9tKgDsLOd+accBfUxAJxOdQeK3qQBwJfdNO66xjyke6HCkLMbxFA8AJ0Pic0jpYyrtZE4fbwrbVADsU2O129X1McWhIx0OhERYSQAwrH1qsTSprY8pFnuaQWxTAbBPLTYnlfUxxeH0o7XVpqdeSuEAsE+NzyGlj6muk1k730RyLAQA+9TpOeTuUU0WAx7n9nKbCgAbub/arUnpYypyeGoGcSwEAF/axWvHpY+pqZPpcwaxTQXAPrVo3xjV5s2SQWxTAXAypN+uXhtV5npT2KYCYJ/ab1dvjKpy81bTZ8+mAwIAy7n/br81qsnbTe+3qQBgn1q885ZO5mCspoMCADs5yyE6GcdCALBPnZJDdDK2qQDYp0Z49y2djGMhANinhrj6nk7GNhUA+9Q5PB+ik7FNBcA+VQ65bpsKAGWfKofoZE6kgwUAZ/K8uf2+TsY2FQBf2tXzbFcn82o6YABwJecsh+hkjicAcDJkdjlEJ2ObCoB9qjNm1x0LAYDLeU5dfVcnY5sKgH3qnD/b1cm8lADAPnWmOUQn4yM7AOxT5ZCbH9imAmCfmufah++P5tNHtqkxALBP9Wz346YnXkkAMKx9qhzSl07mQgoCAK/lEHLIR7apMQCwT5VDPh76sRAA+CTX4Oq7n+pk5mybCgBnc5T4Z7s6mdUEAHF2chA55GPHQgBwMkQOifGZbSoA9qnVuPr+aI58/oVtKgDDtpxrcvut0fz40jYVAPvUGJ7tfmabCoB9qhwywE7mZAIA+9SAHKKTObGSAMA+dQZnzN7SydimAuBLu14+29XJvJQAwD41IIfoZC4lAIi3nuPIIZ/ZpgJgn1qjq+/rZPp8LAQALuc4zph9aZsKgH1qDM92P7NNBWDAruRcfw7RydimAuBkiBwS3sk8mwDAPvVgfPXuWzoZ21QA7FNDXH1PJ+MjOwDsU50Pie1kHAsBwD5VDik+s00FwD5VDhlAJ3M+9QgAbOSBuP2+TuaxBAC+tPNst/jMNhUA+1Q5JKyTsU0FwMkQOSTAl7apANinDkP/zph9ZpsKwFAt52G5+u5AO5lX088AgH2qZ7tfNwfheOobANjJweSQb2xTAbBPlUNC3PzCsRAA7FNDOGP2rW0qAPapnu3W2sm8lADAPlUOCehkLqU+AoBJjiaHfGubCoB96uB891ZvOxnb1PoBcCYP2dV3P62+k3kl/Q4A8KWdZ7tvNzN0IfUUAFzJ4eSQ67apADgZIoeEuHmrmZXvU28BwFLm6vvxnYxtKgDDcznnzO236uxkVhMA2Kc6HxLRyZxMAGCfKofss5OxTQXgX+zdxbIkNxBAUW1Ma281jBszMzN1NFUNMzw009eb2fOooVJdOucrMiKvUvrUpTCHDH1kB4A+te4zZk3cTiakTQUAfapnu602FQB9qjkkxlCbCkB9Ps6LZw6J38k8djgBgD51xQxG8TsZbSoAVVjCSsYZs/idzPsJAIr3bKaEZ7vjiWMhANTm1UwRc0irTQXAyRBi5pChYyEA6FP53fkmZCejTQVAn8rgQuxORpsKgD7V+ZD4nYw2FQB9qjmk/J3MVgIAfao55EBabSoAlXk6s6vpxZXayXyYAMCXdp7tBuxkHAsBQJ9qDplBq00FoC6ncinMIUPHQgDQp4Zwxmx8SZsKQFVeyezH4Px9S3fl2HyOJgDQp3q2O5Or2lQAqvJaLoY55JI2FQBf2oUwh1zRpgKgT2UHly8Wu5P5KAGAPtWz3YCdzPE0OwDQp5pDrmhTAdCnEjOHXHUsBAB9KjFzyI2K2lQAOJ1n4IzZ9fuW4uatY7N4PwGAL+08253P7XqOhQDAq7kk5pAb2tS9AeBkiDkkZiejTQVAn8rgYuBOZvXbVACY42QI0yZ+J/NiAgB9qme7ATsZbSoA+lRzSMxO5q0EAPpUc0jXOxltKgD6VGfMmqidzNEEAPpUz3YX5bZjIQDoU4mZQ25U0qYCwKlcFnPIzVsHORYCAPpUBqNOdzKr36YCwNOZBZlud7iTWf02FQBeLa1P9Wz35q062lQAeC0TN4fMvpN57HACgAVzMsQcckObCoA+lRmcb7rYybyfAGDlvZIXzTnV+XcyjoUAoE8N4XzIDW0qAPrUEOaQm7ccCwFAnxrCHHJbmwqAPpWZTS/Ot5PRpgKgTw3g2e7NW9pUAPSpIcwhd7WpANTg41wec8jafG0qAOhT2ZhtDhnvuJP5MPUGAFjJlHjGbP3YDl5MvQEAz+YCeba71v82FQBezQUyh4xvORYCgJMhIcwh64toUwFAn8rg4iJ2MkcTAOhTOajPm9l3Mo6FAKBP7ZDzIa02FQB9agxzyFCbCoA+NYQ5ZDw59m8fpZ4BgKdzh5wxa2bdyRxPAOBLu254tjvUpgKgTw1gDvnvTuZwAgAnQzpiDmm1qQDoU0M4Y/bPncz7qYcA4JVM56bNPncyjoUAoE8N4Nlu2/M2FQBey4Uyhwx9ZAeAPjWEOWQ80aYCoE9lGe7sdcas1aYCoE+N4dnuUJsKgD41gDnk953MW6m3AODtXCpzSKtNBUCfGsMcMjyaegwATmdiTbd33Ml8kQDAl3YBPNv9MgGAPjWCOeSrBAAe6wYwhzycAMDlMjpwvrGPAaA2p+xkyjA4f98/fG0fA4CdTAjPdh9KAFCBb3JpzCGiEAAq8W0uiznkuwQAxhC6Nr143/cJAKrxQy4HPyYAkKgS4JUEAFU5+2guAY/+zK6d3MgNA2EYVRqkZo4SJwCBN0HgvZNgDl4ZvbuMPnnf3ct7UXz4q9oEAI9m1yFX4HieHg8AvHhS/d+yIQSAR/ViD/mf1jQBwANrr/9LiDAXOwgAtD3PT/xL8yk9TwEAWLZayin3J/6evp5KKTVtYwIAPjPatteSV+vInzL3XI49tX+aHgCgR7SHywsA/IbRWqrHSZB8zxw3l5rSoj0A4O8ESS05d0VyEeVx1LRJDwD4Z8bS0h4bycM9tfaeS6m78gCAK0mSLe21xEzS7/HUEt1RU2pjTADAdUdJS6l+rJK195uLjp4v1bG1cdN7BwAwoktiLalHlEnuV5Imvfc1iqPUukdzLA+ydQCANhntLKW01+iTsxx6mP9IZYQ1n5Wzo0ZsRG1EbnyrNwAAxsXSfsS4cEYBAAAAAAAAAAAAAAAAAAAAAAAAAAAAAAAAAAAAAAAAAAAAAAAAAAAAAAAAAAAAAAAAAAAAAAAAAAAAAAAAAAAAAAAAAAAAAAAAAAAAAAAAAAAAAAAAAAAAAAAAAAAAAAAAAAAAAAAAAAAAAAAAAAAAAAAAAAAAAAAAAAAAAAAAAAAAAAAAAAAAAAAAAAAAAAAAAAAAAAAAAAAAAAAAAAAAAAAAAAAAAAAAAAAAAAAAAAAAAAAAAAAAAAAAAAAAAAAAAAAAAAAAAAAAAAAAAAAAAAAAAAAAAAAAAAAAAAAAAAAAAAAAAAAAAAAAAAAAAAAAAAAAAAAAAAAAAAAAAAAAAAAAAAAAAAAAAAAAAAAAAAAAAAAAAAAAAAAAAAAAAAAAAAAAAAAAAOADe/eB0LayBWB49q0IjbGObMdgp4d3udxCFvp6IVGKBoQz8vu+DaTQfnTOaOrQvGgvui533erFZToNAID1RR8PDJttk54ZAECzG2Ls5T4BAJy0QXQIAHAC6z6+bZfg/8nVAwmAZ3YR39XvE5y3q/W2vejydT/EF4b+Om8uVtv1ZZMAmNvhOn6gP6bzBFcv2m7TxyRD3sx6eAyAQx8/9iqdG7jaXuQhyl2/bNfpVABEiAw5LzTrXR7iKfLFiyY9CQBNH9NcpvMA612OWVxfrNPZA+gneJ0e5U2Mne2KKjTbbogZDZvtPp01gJjgcRXyNibLadmgaXM8gyxEABUy81LIWJuWC5ptjmeTt00qA6BC3kSBoUkLBeuLIZ7Xy3UqAKBCDlFklcAk5pt6kxlAhZQ/Cjn/hyG4JOkkBtcuTQWokEMUatPCwHoTJ6VDpgFUyLsolNOiwDrHSA0dAqBCNlGqSaBBnt4hACpkiFLv01LA4UOMVNIhACrkMop9TGAndYpd+g4AFXITxf6SFgHeDvGT9dv0TQAqZBXFfkkLALc5yhjL1A9QIX2qHjS7qMOwS18HoEJ+VSGco9s+Ts9V1IAKKXOnQjhDu6jJ0KblAjCRgQKHHGPVbYcAqJA2iuVUM7gZYiamMgBO6kKBi6hSm74AoEIa3005K02OSu0SgAr5wm9R6phqBYc+qpX36TMAKuTufJZT4XaIAme3HPJ7/2NtqgegQo5R6GV6srb/sY8JSr2KcueUIb/Gj60SQD0VkobTD2RW8WNdKgS7qN1wqUIAFfLQKor0SYUgQmbJEBUCqJBmiBJbFYIImSdDVAigQtIfUaBPKgQRMlOGqBBAhaQ/Y7q9CkGEzJAhKgRQIcWnG+9TjRUCb2M+Q59z13V3q7/rum6Tcz/MfFJGhQAqpHwmk1ONFQI3MYPhz659d/uNRNgfb1ZdHubOEBUCqJB0X/7Ns54KgcMQT9Nv2psmTdAc200fT3XdqBBAhfzPp/IIUSGcx2vb++7dPhU53Hzq40k6FQKokAfuyyOkkgqB63i03O7Toxze5XiCVoUAKqQkQ3KTzqpCcDwmt00aOVGIHFUIoEIeuO2Lf3eroELgXTzKcL9PT3Z418+woapCABWSmrv4pnybVAhntJmab9JMjpt4lKxCABXymcOn+Kp8TKnOCoE+yuVjKlDwdVOiVSGACvncYbz7P+RjSpVWCOxmapDTd8iwVyGACvnScZWH+I8/726alGqtEDjM1iCn75CsQgAV8jXN8fju3bvjPpVTIdQ8jxna9Ewu+yjVqhBAhRRYdoVgHnPXpOdzP5TPZOqsEAAVAjOfj+mP6Vkd/owym0VUCIAKGYM3UeJDk57bfZQ51l4hACoEZlhNbdMJ3PZRIi+gQgBUyBjk+acxp57KbKuvEAAVMgbvTvHC9HJ3UaCvvkIAVMgY9DHZ9T6dzn0U2FZeIQAqZAzeFURIk1KlGdJXXiEAKmQMcnmE1Jghx6orBECFjME6puqblOrNkFx1hQCokDF4M8NiahUrqseKKwRAhYzBISYa9pXPiz5WXCEAKmQMVjHRTfopmj4mGpr6KwRAhUD5Md37+u+4aeuvEAAVAsW7qX36af6IiXL9FQKgQqB4N3W/hKPEr2utEAAVMgZDwTym+pnMqtIKAVAhY3BTMI+pfyaT664QABUC5QOZ7UJe79rUXiEAKgTKTsjk9JMdY5q29goBUCFQdkLmuJS7broqKwRAhYxBW/QopP6HIUPFFQKgQqD8EcN2MX/TeF1jhQCokDEoPCBT/8OQbeUVAqBCoGQt5OWCXmzSVV4hACoEStZC9gu6de+XCisEQIWMwWbaD/YqHGKSCisEQIWMwZ8xwcdFbdK+rq9CAFTIGBS/LKT+kcy2ugoBUCFjcFn+Co7qT8msqq4QABUCBVfZ5WVd/9tVVyEAKmQM2tM9XDhVGkSurkIAVMgY3MUE75cVTX3VFQKgQqDgoO5lqsVx1jUWFXL1D00CTkuFQMHZ11SNJqZQId939aK92Fz3QzzU9/11zrnr/sbevWinbithHJ/3Vgwy1ggbbdtZiZtNS+k6geY85zlZvV9SBmzNiPT7vcDGF7b+kSVTJ9Llvmyatm2r+l3Vtg9No1ZGBt3X/Haw70fbNs3mC316P13jXw7a7Aq7L83D7z7Hg925R4X8BOAHviwW/nnl311UyJd21cdC9mW7Tbta94H/Xu/X9UPj6FNw7+G39iHyR4LfrqpmQ5/Opq3//iLH3q+qxqnda/Xah49Off2wQYWgQsBGnPPmVANbVMjNXLuOLDCqxJCPLBH9ymCEWDa1toHFeoMR0TJ5ud+2eY/XNdU68GV+9ZBQIagQKDLIPZVjWguky+PxZT/yZS/ttR7oGkN70YFkXOVZaMw8KHQ+8nWir5s7HYX5FtHXBrNAB/HdJuCaVWCpsHtwlMVPN5vBBzGukKEVIJH2she+7Mf2agT/Co4FvqXPZmAr4brm4ovq+QmiWCFfKh/5Rr7a3FOBVNvIs6iXV73Y5J9rrj943zqFuT8B36b7r5CGBUiEzRD8Kwz86efSUCHDKjIXUCHNKvA8YdeQneXnAQR/mt9hhTSryLeIS15d1/jIt9o+oEJQIYAKWQYqpPHMbF8hTRcXGpg3VDTX+sjLibuH+6qQyfPt+pYWsVlFniU8J1QIKgRQIQKoEEGDmFeIqzwvJ7SJStX4yEsLu3QvFeJmt2Zol7gIvICZZx0VggoBVAgqZPDM9hUin6EXW3Du3v5ABXx7FxXyU4MYd8gUeCG7VESFoEIAFeLpHqFC3IrZvkIazwJmc/e2ByoX2uIrpAm8jJAUGkSkSwVUCCoEUCHf0R1Chewj21fI5A3GZQOui5xZaIuukMEzs/UsRBOsTzoqJEOFACok0N1BhQye2bxCpmA5Lhs0iH2HWFXIc7Q/1IPn5W0TKgQVAua/y+LozqBC9pHNK6TxluOyQYPceYfUCs0r9+boOm7FWcQKFYIKgYxYYkP3BRWyYraukINnDSEV1CAKdqnACnmO9le2CQbnHBUyGyoEIgu0dE9QIUPP1hXiVgbjsoUmsK5YFVchuSYh2lLut5BQIagQMP2N2q90R1Ahh8DWFTJF1hNasjJ41ueTZYXMb165joSG3iT9UCHzoULAf7atuqiQx8jGFTJ4g3HZgOvYRGgLqpAhcD5vJPIYObcOFYIKgTy+/2TLU1Ehz8zGFfIcWVusbB7GWHkrpkIOgXNak4BKDHaoEFQIZHHkT7UwBBXSsXGFOM8GDFaHrNhQSGVUyCFyXr2jC9wLq1ijQlAhkEOV4QtoBxXSsU2F2E8QhJE0DT2bCsmqQhQiRJAhBhdijQpBhUAGe5aIju4BKqRj4wrp2E5Heh4jG4t7+woZovngPwRW84YKQYWA2Xhc0R1AhTyybYU4z5Z2zuBpjJ3KokIMCmCtECEyHSoEFQLLiyzhqXyokAPbVsgQ+P4fU9jHllhnUSEGl7sr5o6rUCGoEFiczzIyGUCFDMG2QvaRralkyBC4EJ1phXjW8ljMlRhRIXoIsEnmviZDUCHB9n/aZy5A3FNuh8jFeDSskI7VxE0pORgTKgQVAgubcgxNBlAhKzatkK6wgdlgXaqBvVmFTKwoOPor17O+3qFCUCGwLMefYjIEFTLZzjrvuBRd3gjhosSNQYUYzENs6a9e2MIbKkQLAX5J5o62yaBChmBaITsuR2cWIQZCsqkQb74hqGMbIypECQEWhsifiJpDhTyZ/je745JUZhFioDepkMl8QcaejQSHCkGFwKJGvv9nMqiQiS0rZMdleTSLEANvBhVisC7UF7NR6Q0VggqBRbnId/9MBhUSLCtkx6XZm71o2MBev0KezGe4AtsZUSGoEFiUn//tM4YK6Sz/k91xceLGaouugZi0K2RjfpgdGwqoEBUE2Kt7L0tDUCFDMKyQjgsUUrEvK4vBr9d1XU3v6vq49j7wLF67QgJb2Op8gQUqVIgGAjySkf/fbgsV8sRLGlUjJL6uj9U0puToXUqHcV8dt6+qawgFXOC5XtfVPjn6O4exmnHIlW6FTCwS/bqaDinR/7l0GKd67eMyN2ZgsbBd19P488egtMTn4OhQIagQWNL3Fu/sMeXGy7Z82Xm81iFHhQx8gxh+MrNCnvl20R/3iT5y2B/npMiWlvXCc8RtdXCXb8sbjzg61QoJfFFcT+mDq3q++ar6K8s3+tPefXiua883q/9FFTJedubL/jtejQC7ZC5lCNqspryEFdJdN/VQT2Ny9Bv30+yDjzdUyIFv5atRkIv7c7B/bcjcKR9/GklqmDxfb6dZIRNfEE+j5Biv114xlRmOI10ynoPdZEj5FSJWz/xlZAB6Zbk+UWFQIYFlXo9Ton/gxv3RRx7zr5Xwk5OHzjGY//IY7WfUlqPrDDeMjaNihQT+J/E4imIr3P6Y7YnfiT6EIESsJkNQIb8BqOav+7ODCplYIK6lA//gSMoFnXF5PEeLvSPzayueNnSLq8dor1chzT8fsCOhyd84+G/4Ar93JDdMwWQyBBXyGwAX7zhDUCFe9KdhDiu+3m4kmflDhc+5m13At45k5nfIqFYhXtYgAqO/fvC/PHXrx/zRN/+rjwoBkNxF5b++DBUSQ1jq8YfCb/nH03LjskBluSjEjzTLSbu4ZBUyLHlxp3D9FZ1ynPVT5OtEVAgqBOwmQ5jfyBAqRGHuQWKY2SAKHbIx29jtR+XHQKPGWNKv1z1/wKf8rcVhvQ78sXhzdw5n7ZU4qBAA+W10t09lUCEzxv3FF4XsEs11MnlrSOBrxYqWcFKdDKl5hrjP3VoCL45uN0WdySdUCIBgMkSgI3OoEPm4b78opB9JbrE/WWuTB09HR8sYA4uNlhXiE93KnXkZsVJdguxQIagQWNJ/mDEd8skqxI82n00+Qig8ltno748Jo8lr471hhVTLT/kY/IfktpqBiwoBmDvrbD8dggqZP+7rjM0+0WKGV91Vm0+qEyEzzvPGqkLiaFnboqcxGXoooEJQIbCoka8XWioUKsQnyurJcFPVSfPf3uiOyDMypDaqkJAK+Lnio/6tNaJCUCGwqDPfIDRUIlRIVdAnCyMtbB9ZLDrNScLe8Ld8ozOpkN4RmWfIyaBwa1QIKgQW5aL939xyqBD5uG+8P6ZPts+DasVLcHa0vCHq/HFe20UI0aQSIQJHrUcyqBCApX4qY9uQJVSIwW/9dCx2tF6WEpPaVMjJ9mmpN6iQ3pmtj8903l9ZZkYjoEIA5H8FiPiWyoEKOTvKbDAfmMm9stRO6wqcjL+Z0alXSO/s//vhs1HgVqgQVAjoTLMLhDZRGVAhR8pua7A+ZUaGjDpTISfzX71utSskOIMLOutDCIw6+69QIQDLLhGLuw0ZQIUIxkK7jzURFZAhXuUCnOx3sHnlCgnJYP1L/hcXHVWWA6NCAOTPZoV6+wkRVMippHfLTIXM3Y0KUyGnAp6WRqdaITGV8N9Pa3djjagQVAgs7cjzbB/IEirkSPlNBhEy7wm+n3mk9vXnYv5hsTbfDu4LeQA55jkBqBAAgS3PFHd2IYIKeaH8hlDMtMwQ875WNJRTfzVLfFWskAzHPFosCpmRQx4VggoBg4ftohBxZAAVEhzl19lHiPwEzRqdN5GF+kJe5/OdYoWE/KO/QGu5DieSHCoEQPeHtr3+GhFUSEgF3SBHms98D+u0tTjxMxrB6VVIst0C/pMd5eGzvjEEFQKgkCHM/aohTaiQlsqZCulJh8/8AtVh8pLlGPk5lvhGrUJO+S+nQLLdlNRaVggqBJAhAr7akBJUyLGguyMk0jHE7HPnQxWEA7J9b33VqpBQxI9q7ozr9qtxhaBCABkiELYqD2dQIYE0TCxyKG13+Tc0x+EcLE+8fID2WhWyzz/6CyTKpWKJb+0rBBUCyBCJPv96VVRIIg1hxnS95bjlaabxHAUn3np9alSqkF3+0V9gZ70aONhXCCoEkCFSvm4oH1TIrqCpEE+KhihcSDjbtDUtru8zH2ZdQvK6yHLJPG6dfYWgQgAbduXitt1QFqiQUNBUSEykqc6wPlW+VjWQlinzesm6iOT1LObtv3sbVEiuCgE4ch5h95BocaiQljQ0M14paZ1GdA35WtWWtLjM6yXrIiYhqkLueZfzI6BCAAROLGe9hxcVEkjFEwt4UjZmeLu5dK2qJz2veddL1kU8/XOl3PM+Z3CjQgAE9oHlbPfwokJa0jCY/KFssIlVvlY1FTY/GTQqJFFGP9i3kPx0rO0rBBUCWKNqv4cXFRIKWoFxInUjC0Ra1rQVjITqt0NUqBCv8MUTGAu4qb61rxBUCOCpjP0eXlRIW84CjGBRlt5k1Bomn0jRIB+4/sfeHe8mbgQBGN/33iysza4xONiNRO4SCJESdOprVkX3Z0XxkdkZO9/3BGkvsn8Zz9qiCnk28UvfWFjDOegrBIUQT2XUz/CikKazs5vaOoWG4o9kVGpET21UNgZvdb6tVyfcu+z/CxRCdFP9OZcobe94OINCtnZ2U5NTKer98WxsPbUVV8hWYQahwd03gTs5Chkf0T7lMsXwhxBBIbWdk6KtUynIPJKZoIyDuEJqhRmExi99JeoEFEJkbBxyabeo3ehQSLKzHJmcTr7R/+eycUjmp7RCksJcS2WytTevEBRCjEMESqMhgkJ+2nnq0Vq+QUc38YLo1b4y8tv2ZmMtxNUC8zUUQiRwWEYAIp0bEQqpzZzQSE6rQfirHybaj6CWmEIGBVCqDLZ6+wpBIcRjGaniZVkVhVh8IDN+FMKkpuAhpYOwQhoj3wV6duLJ7kGhEKKR9TEXbbtyN4VCtmZu8413alXf4KxuLWrSysiTkGBlAPhuXyEohFgPkSy1HQox8xe+v8NDPDAq99/YCCsk2NgKzQ6FoBDCISYGIiikdiV6kf++iPwjGT9/hWRhhQxKClEAZRRAGQohmppDUotCrteYeWXZwWlWzX8xxBtQiLOhkGhEIVVphaAQon0s7pAOheifP03W7/HDN1gMyTfkRRVyMKKQ1++rEBRCNJxLO+TvDoUo31lr0w9kLjUm7qHqCnkSVcirEYUsJ38JQCFEd9Sfiy+IdChEdQIR7L8UbC2/GIJCKiMKqVAICiEWRMq26VCI4tdRov2liyC8yauf11fIMwpBIUYUQjScm1yytEEh/9WTlccdndNtED5nql+vr5DaiEKCQyEohMjvo/p5GRRi5a2dB6ecn/21cKWvEG9EIS0K+TcUQtR/pqIO6VCIykHdMIXzJx9zX08N+gpxoqEQFDI+ouM56a2popBkZfNzcNq96ZpNvrW6QhIKQSEohAw2nJPSYxkUcrCyFjKNUcHT9NdCNBVyQCEoBIWQzY6nj1yo2KGQwudja4GfQ+cl889uuu31FRJRCApBIWS2vtSyahOcfChk3P29msasILjJ1icUgkKuhkKI/Ms5KYxDUIhwJ/NrIZfmfTH8kf83FIJCUAjRMUSF7RAUIlmcxltJ3+d8SGaTDSjkFYVcQiEohBiJbFBIOYU0OodPBLCU3DTz22xBIUsUgkJQCDESkX93CAoZu3ARnYHeZvslmVXKKASFoBAiUyORVLtLKES61US+mX+a6VHdVcwZhaAQFEJkbSQSUEgRhYSJnD2p5nhU93GTckYhKASFEBkciWwcCrFxOR6m8kKN1k0ov1qkfAmFoBAUQmRwJLJEITa2Pp+mopBqMgAJy4tAUAgKQSFEdkciO49CeH/7715mcTV8fAiLdcqXUAgKQSFEtkciO49C9D+Z30zmy/evZpX++NBWy914fqAQFIJCiBRHIjuPQtRv7ofJKORgDh+rtlquU5N/h0JQCAoRjui4jwIMQSF6DzriZBSSnI0e6zYs1rsr+EAhKASFyEU0nJMAQ1CIzkHdJlpol2/I6XYZfcSURUIhKASFkEJsiaxRiGSnPKe8U8nXbViOWDpFISgEhchH1O/X+Qv6hUIEW+c59aRw5uX60ikKQSEohEgv/xUQ2aAQuSIKucMfTZYPhaAQFEK6AZG/UIhY73lODa5EdbsQ8AcKQSEoRCai/s5jM02HQqTKs+rZCfcoABAUgkJQiHRE/V2nZpJHITL5PKtaJ9gqrGUAgkJQCAqRj+iegcgvFCJTj0Juqg5RWyAoBIWgEFKLgUhAIUrvAkMh/mEhLxAUgkJQiHxE/T6JrYagEBRSfT1BFIYgKEQsFIJCiP7QIRGFSPSCQq4TJOuHQlAICiH9cEhAIUV/ChSyUpiCoBAUgkJsRjik8Sik2GdkUIjf6BEEhQiHQlAI0WejeE4GhVy/xqCQVczyoRAUgkKI1OrPii/GRCEoxJJBUAgKQSH2Ix7LRBTy5Z1QiL5BUAgKQSFECvmTwDAEhYzqDYVYMAgKQSEoxH7EOCSikBGhkPEdtQyCQlAICiFSqP+QGYagEBQyPr/IejUoBIWgkPIRfUoMQ1AIChnfKmW90hGFoBAUYj2CIQMKGREKGZHfZsVO3qEQFIJCiDTa59vbopDxoRDjg5Dm1DmHQlAICiHS6dgIvEAVhaCQEW2yWjF451AICkEhNIVgSIVCvjIUcsn/yDo1Mfgid65/2LsX9cRxpAHDdd+KE2GrhIMD3szQEzoZ+pmQZw93+Z//7HlXEFGU7e+7giZtrBdJllEICkEhNSIWZSIKKQ+FlLVLeovicQwigkJQCAohunW/1d2fikJQSHlvSa3L6+ZTICgEhaCQm0d0rD/OoBAUUr4eaFZaHw+DfIZCUAgKIfLQu5aVUEhBvM3OIULy+8PnDAgKQSEohMhVu6xltSikXijkLdvMfzTjIJ+hEBSCQqYasTWkQSEFoRAPG1Pzf/Pjc/0FhaAQFOI4oqhFRRRSsf2yFbJL19LHw2r/9skPFIJCUIj7iEYtKgcUYvuv2K4m0yjnlWrv/FgfmwJ9oBAUgkL8RbTWokYUUq+Dwb/Cb/c1N34chiAFoRAUgkJ8RrTTolYopF7dkhWyr3Lyx3H/FuQzFIJCUAjRvHeGRBRiK7/XRT2WVV6Onyd/oBAUgkKIlrIzJKMQW4WkBaG3XCDNKPVCISgEhRA56IeW9IxC6nU++1iPSX/5AhgUgkJQyFwiWmlJ31CILfzEf3avsEunUcpDISgEhRDNbX9qg0JsT85/lhn2k15QPhYQBIWgEBQy54glmQcUYvt4dLsA8JYUmyAFoRAUgkLmHPFq3VcUYns3/sZUiKrGUcpDISgEhRDNdcdgQiG2W3F6pkIKDIJCUAgKIVrG4IBCbP8Zq8VPhaSD1A+FoBAUQuStrAU9o5BqtYu8yez0rI5B6odCUAgKIXLXu159tyQK4fDUlZ5RGqVCKASFoBD/Ef2qBY0opF55iceWJS3vIwgKQSGloRCiBfxI7VGI7exTkHnVaXknMQiFoBAU4iKiRgtCIca343a5e1P3gkJQCApBIcSjuijkhrNPjcyrbIAQFIJCUAjRTBWyQiG2/44XmVWdP4SgEBSCQoj8DxAohIdkKnS8yZ4QFIJCUAgRCkEhPCTzrmUdxSAUgkJQiJ+IDloQCrEek9slHlmW5KqhEBSCQojYF4JCjkvbnnrQsgZ7G6EQFIJCiFDIshSyX9pt5uhjPQaFoBAUQsSpZSik1YVtDIlaUhrEtHYeCkEhKIRok4pa+f+dikLcnJ7RLu60kF5s61AIClmAQohXsXi/ctZa0DcUUrO4rI0hweVUiBxQCApBIbSo94W+TvchyhGFWF8wcWlnlm3EuGYeCkEhKISo0aKSeExLalFIzUb99+WwsO/HIMYdUQgKQSG0rAcRg/ir1ZICCjFfouhlLq18zhTGeSgEhaAQolbLaicrKEEh5gPgw7L2Tb2IdXkeCkEhKIQoaFnNVB+ReUUh9rMDOSzqQd3R/luLQlAICqFlvbf8YaqbUyMKsd8Yot8W9RYZsa5DISgEhdDCXtaVpvqGjxcUcgO3RplJP1x+2BUKQSELUwhxYIg+T/P8dm1QyC2umCDzyOe2kDgXhaAQFELUTHZjyFpLGlGI/7f3+M3lVyMoCkEhc1EI0ahlxYnuq21RyC3+8FnmkctNMIfFKQSFoBDiIZkcJrkgkwWF+H9uxG3B5Uf9CYWgkPkohOiHltVP8mWnEYVUr9HF7E/duTxLJy1PISgEhRDbU+MUn5DRFxRyo+mzcTEKeRbbOkUhKGQ+CiHaq90h7vaz0t9sbkEPS1KIxFuqFYX85F8hKASFFN8YiHZa2GqK/+qAQurXOJ8MCZ3UyqFCdrpEhaAQFEJsDMlhelMhr4JC6hey78mQvaZ1P8xVIftFKgSFoBBiY4iupjcV8mL09/nuXyG+jmoxOA94e9/NUiFpwgpBISgkycURG0NymNpUiH4zugXFZSlk9LCfueDGm788JfLDnbb2ikJQyKwUQhR0cpMhBy0sGN2C0rIUIllLOngg6nbTXVkhvViWpqwQFIJCVIj+rji5yZCkZUWrW1BemEJWWlIKTlbrYtNe8bvRuJkK8a8QFIJCghD9bY2W9ntx0aMW1tu9vW1ZCglOrpfy1bq0uQtX+s9/cQNw/wpBISikFaLyIcXnUVRvWtpgppB2WQqRtdvrZaefVZgSOTr7w+/VuUJQCAo5f7MeUdTSUpCbt0taWBQzhfQLU8ioRW2Ds43LadMPtecJs5tr379CUAgKaYSo/Fbrck3mFy2tt1PIyoFCPMr19w6f4Y73Xd2BsLUnln+FoBAUUnzpEIU8oTWZRzXeTHvUgr4vTSGj0+slaUm5VEetqx93nTpWCApBIftLj5IkOmpxeZCb9rMWtzH0fV6aQuRdi0qDy8tjU3PPVBSbQpq8QlAICtEgRAU/bL1uDem0vNZyvep5aQrZa1nR5Z6hser7DYLVeoxnhaAQFHK4+MtHFLW8tdyut6zFvZoOt83SFCLJ4VaiqGWluruCGqN5HtcKQSEopLv4vRpEBz2j308CIdqb/m3i4hSy18Ie/e0ZWklpjZuV7l32rRAUgkJ2l98ribKe0eMUEJJsv1k5LE0hkrSw33l7570OlRcrR5PFJt8KQSEoJFx+ZRKt1D9Dfpf1jHrjb1a/OIWMWto43YNkgpdfd1t1rhAUgkIkXzwVSRSyGi7KGCyLJ6nWDy0pulWIgxcQtWLQ9ipCjT6ctVH3CkEhKORdjZ4oJCZDdB3EuHs9q958sB0Xp5BRPTFko6Wl+l+MZHD1e1cICkEhv5rdK4nJEOtzIHZbPatkf5rKZnEKkbWWlg9+TrPT/grUWhl8OOcKQSEopPnCkijRb3pe6SB2dVnPq7/BwyDj4hSyy1pc4wYhKVxj43brazkGhZSHQnwcqUyU9Mwexahwr2eWpGKtlhUdK8TBOt6jE4ToqeYQZHCaX9joJBSCQlBIsDr7kjhA1XRVpkt6boebPMbcOFaIA7pugottE2m4zvdi7WMxEoXUD4UU98Pq+QbiAFW76ZDwk57d5jZ/mDwsTiGjB7WGqNebCpGQb/pleEs6FYWgEBTyq7ImQzar/J+lTq7bY9azy8ON1h1SWJpC5KhnlBuDc0Kq/x8db2nyn7NORiEoBIXszX6SEBtUP9sMcr0OSS+oudkP/m1YmkJCqnC1GB5mp/0V//sf7beEoBAU4kkhQWHIl6J3deWQLuolpRueb78dPCvEwXai1N9253K66tfi9/Y7olBIhVBItSIMIaMXtRg4ZB/1ovJwy2WHNCxMIXLU83odbjlOt3J+jdortBhYKKRKKMT+sbnUClHhmkxBm1aqFh6zXlhz29/7uVmYQsL7zdC6+8Vk33LItzhG5+esU1MICkEhuy8+3UAU9dK2fZBadeusl7a5+SuHU+dbIQ52Nf9+sJNqhZmqlb2xilcjUUiFUEi94tcWaIl2SS8ubzqpUPeY9fLS4OAtO7H3rRAHM2ib4RazZb3F6w1Sb28QFIJCnCik0bNKfRCi0sWHgtKm+ypBkn6pQa5Re/4f4i7IPy50zZ/mpRA56gVtOmuD6MZIoakzNggKqR8KqUH2gvKmH/75vfJBaHmd9GvldX+hBEL/kPWLNY5Wqrbr5q59ks+e2rvmfp1UVYOBQvw/XJUuvVK6tfE8WchqNRsWznQ4CqkdCrH/TbJdr+66v7xXPt31/3evfBZaXh/65dK6aeWs2v4h6dc7eZwiSv+T/mWjf4XYLOTFfrBbsXuTi1vZECt0MZdoakAhKMSrQtq698peaHmFd61SvG+6IP+2p66532at0i8utu0W1NgrxP4Z78LiqjtjlL5PNyFqyNcnVrgrnAvsa45cKASFuL5XPgixQ/VL5e36ftV37dPf4eOp65v7dZk/HLyocdSafZ+bQmSvXyjH1d3wb7l6dx/rEtXg88WmK+TVY9TCkqAQFOJYIaPWLAnxQpla5fRZ1vIslv3NgZ/9K8R6P5HmeN/ctUH+rvB019zHfGOixq8Qq5V/Xmj78z5dj0JQiBeFGEyGBCHOULXPHiHWwH+enULkpHVK2xgf/q913CaDq8OA5tv1fXPXtU/hk1ZP3V2/elgnPbONoBAU4lohO63ZNyEYAkLqA7+fn0LkpI57szkVxaABhaAQ3wqRo1bsRQiGgJD661QPM1SIfKjb9jYMNegkKASFOFdIyFqvKARDQEj9H8PJUiEw5GTDUIOioBAU4l0hcqi/iY5gCAip+2M42CkEhpxsbq0GpQGFoBD/CpG11qsV4oFd922HyT079M1MIewNOc3n0x1kAgpBISgkJK1WIwRDvBeDs9e2FfRipRAYcpJqrb18FBSCQlwrREbOLasR7d51Ch3FrKPWKhopBIY05ucKG1zpKASF+FaInDi3jKxGXf+jjMtRKM9VIXLI6qi8n8/84DZMRSEoBIXImnPLyMEahEHpbaKrVK2BQljJS2/z+XBpMBi5UAgKcfeTrRdicwhbQurvUG2urxBW8tIwny9EGgxGLhSCQrx9VTi3jHYfrMZc4wnmh6srhM0hH2E+Lk/D9UYuFIJCPDOEc8vot8xqTH2GpDkrRPZpvkbdpVsiBIXUVwgK8c2QHIRcxrMyxzDp89yer6oQVvLSOKPPlgaDkQuFoBCfX5VRyGFMh2zHiY+w/TUVwqrML2FGLN8Gg5ELhaAQp/fKRshd7A7Jp8n/0H+5nkKYDsnNnB5hP9qOXCgEhfgS+3chMl3pLygOctPCWr/c69UUwnRIHOb0CHtjPHKhEBTiS+xZ/ieiU1IfxXEWA2yYvUJkt/a/I8T7TE8arUcuFIJCnIn9WYgcLcukXjw0JsMtV+UKYQotn4JYFI720zooBIX4U4iB2HshN+GQ3Mzmb9FcQSFMocVhTsLKjf3IhUJQiDexvwg5CYekJsznd/736grhkonjrD5ZHOxHLhSCQtxNHb8KuQiHxF58tfsS8XNlhXDJxHFWzwHlxmTkQiEoxKBTxU10RLt9muGeVPvx9bm+Qvw6JM30Atkn+1P5UAgKMVSI/b2yYBMd0T7633Jo0xj10vqlKMSArnkzzmvjS3wzHrlQCApx4JDyPy/R7pj8T4OYNH7oZb34V4h/ujpA6u6UrK94FIJC7BVi65CCuxvR+JEsCGK/I9VoveF1AQoxoGtejzN7IDmOhiMXCkEh/u+VWf5JRIePZECQmS5RZf8K8U/X2IR5TfTkY2s/cqEQFGLWfq1nl1v5pxGNx3e9SvlhH2Q67c4bh3LcB/8K8Q2R7Aqpu2MyQBUKQSEGCnF2r/xP9uxAQ2IYCAPwg8fIDLkGoQODEIPcveix6N1xt223dTT9vzeYmj/5d7OWCoDZcjq5gfC7XvE7bLxfu+u9Y9WI3w5KrmGwfpWWpQcYW6gffWPO67acAzTL/ax3frrwHT1X5+lZqOJjOgjq/HoDsTDaX4PHezfAWGdl3ttAAILKsSoysVsZoZIpeeaevgZLnaNTLT9CBUrrv4gu1+Jm2z+U3XIxAIKS/HpWtlcjARDUnHd3kZSdahnxc6wNBa1K5LTaUHsUu8zJFKpw2lG8AeDUIAAUreKZ0/S8fPQcxR71A7AxJB6ZOS065xiFTEu4ZiGX/FcZmf6jeAMAQGmq1YxkQWamWu7yPAFIQDX7tv3asPuf7cGBDAAAAMAgf+t7fNUVAAAAAAAAAAAAAAAAAAAAAAAAAAAAAAAAAAAAAAAAAAAAAAAAAAAAAAAAAAAAAAAAAAAAAAAAAAAAAAAAAAAAAAAAAAAAAAAAAAAAAAAAAAAAAAAAAAAAAAAAAAAAAAAAAAAAAAAAAAAAAAAAAAAAAAAAAAAAAAAAAAAAAAAAAAAAAAAAAAAAAAAAAAAAAAAAAAAAAAAAAAAAAAAAAAAAAAAAAAAAAAAAAAAAAAAAAAAAAAAAAAAAAAAAAAAAAAAAAAAAAAAAAAAAAAAAAAAAAAAAAAAAAAAAAAAAAAAAAAAAAAAAAAAAAAAAAAAAAAAAAAAAAAAAAAAAAAAAAAAAAAAAAAAAAAAAAAAAAAAAAAAAAAAAAAAAAAAAAAAAAAAAAAAAAAAAAAAAAAAAAAAAAAAAAAAAAAAAAAAAAAAAAAAAAAAAAAAAAAAAAAAAAAAAAAAAAAAAAAAAAAAAAAAAAAAAAAAAAAAAAAAAAAAAAAAAAAAAAAAAAAAAAAAAAAAAAAAAAAAAAAAAAAAAAAAAAAAAAAAAAAAAAAAAAAAAAAAAAAAAAAAAAAAAAAAAAAAAAAAAAAAAAAAAAAAAAAAAAAAAAAAAAAAAAAAAAAAAAAAAAAAAAAAAAAAAAAAAAAAAAAAAAAAAAAAAAAAAAAAAAAAAAAAAAAAAAAAAQNItiUftwSrPAAAAAElFTkSuQmCC;imageBorder=default;sketchStyle=rough;sketch=1;curveFitting=1;jiggle=2;" parent="1" vertex="1">
                    <mxGeometry x="384.9999999999999" y="725" width="119.65" height="70" as="geometry"/>
                </mxCell>
                <mxCell id="8_lOqyAqj8u2YSckU1qC-35" value="&lt;span style=&quot;&quot;&gt;&lt;b&gt;Self&lt;br&gt;Query Retreiver&lt;br&gt;&lt;/b&gt;&lt;/span&gt;" style="shape=process;whiteSpace=wrap;html=1;backgroundOutline=1;rounded=1;fillColor=#d5e8d4;strokeColor=#1c3c3c;sketch=1;curveFitting=1;jiggle=2;sketchStyle=rough;" parent="1" vertex="1">
                    <mxGeometry x="710" y="323.66" width="120" height="60" as="geometry"/>
                </mxCell>
                <mxCell id="8_lOqyAqj8u2YSckU1qC-36" value="" style="edgeStyle=none;html=1;fontSize=12;flowAnimation=1;fillColor=#d80073;strokeColor=#A50040;exitX=0;exitY=0.5;exitDx=0;exitDy=0;" parent="1" source="8_lOqyAqj8u2YSckU1qC-35" target="8_lOqyAqj8u2YSckU1qC-41" edge="1">
                    <mxGeometry relative="1" as="geometry">
                        <mxPoint x="547.55" y="353.6600000000001" as="sourcePoint"/>
                    </mxGeometry>
                </mxCell>
                <mxCell id="8_lOqyAqj8u2YSckU1qC-37" value="Relevant &lt;br&gt;Docs N" style="edgeLabel;html=1;align=center;verticalAlign=middle;resizable=0;points=[];fontSize=12;" parent="8_lOqyAqj8u2YSckU1qC-36" vertex="1" connectable="0">
                    <mxGeometry x="-0.1422" y="1" relative="1" as="geometry">
                        <mxPoint x="-6" y="-1" as="offset"/>
                    </mxGeometry>
                </mxCell>
                <mxCell id="8_lOqyAqj8u2YSckU1qC-39" style="edgeStyle=none;html=1;fontSize=12;flowAnimation=1;entryX=0.213;entryY=0.005;entryDx=0;entryDy=0;entryPerimeter=0;" parent="1" source="8_lOqyAqj8u2YSckU1qC-41" target="aUIbM6phszjy0wtiQAA0-1" edge="1">
                    <mxGeometry relative="1" as="geometry">
                        <mxPoint x="395" y="525" as="targetPoint"/>
                    </mxGeometry>
                </mxCell>
                <mxCell id="8_lOqyAqj8u2YSckU1qC-40" value="Relevant Docs&lt;br&gt;N * 2" style="edgeLabel;html=1;align=center;verticalAlign=middle;resizable=0;points=[];fontSize=12;" parent="8_lOqyAqj8u2YSckU1qC-39" vertex="1" connectable="0">
                    <mxGeometry x="-0.0683" y="1" relative="1" as="geometry">
                        <mxPoint x="-4" y="-23" as="offset"/>
                    </mxGeometry>
                </mxCell>
                <mxCell id="8_lOqyAqj8u2YSckU1qC-41" value="&lt;b style=&quot;&quot;&gt;&lt;font style=&quot;font-size: 12px;&quot;&gt;Multi Query Retreival&lt;/font&gt;&lt;/b&gt;" style="shape=process;whiteSpace=wrap;html=1;backgroundOutline=1;rounded=1;fillColor=#d5e8d4;strokeColor=#1c3c3c;sketch=1;curveFitting=1;jiggle=2;sketchStyle=rough;" parent="1" vertex="1">
                    <mxGeometry x="334.99999999999994" y="323.66" width="120" height="60" as="geometry"/>
                </mxCell>
                <mxCell id="8_lOqyAqj8u2YSckU1qC-42" value="Query*2" style="edgeStyle=none;html=1;entryX=0;entryY=0.5;entryDx=0;entryDy=0;fontSize=12;flowAnimation=1;" parent="1" source="8_lOqyAqj8u2YSckU1qC-44" target="8_lOqyAqj8u2YSckU1qC-41" edge="1">
                    <mxGeometry relative="1" as="geometry">
                        <Array as="points"/>
                    </mxGeometry>
                </mxCell>
                <mxCell id="8_lOqyAqj8u2YSckU1qC-44" value="&lt;b style=&quot;&quot;&gt;&lt;font style=&quot;font-size: 12px;&quot;&gt;Query Augmentor Chain&lt;/font&gt;&lt;/b&gt;" style="shape=process;whiteSpace=wrap;html=1;backgroundOutline=1;rounded=1;fillColor=#d5e8d4;strokeColor=#1c3c3c;sketch=1;curveFitting=1;jiggle=2;sketchStyle=rough;" parent="1" vertex="1">
                    <mxGeometry x="128" y="323.66" width="120" height="60" as="geometry"/>
                </mxCell>
                <mxCell id="8_lOqyAqj8u2YSckU1qC-46" value="" style="edgeStyle=none;html=1;fontSize=12;entryX=0.188;entryY=0.998;entryDx=0;entryDy=0;flowAnimation=1;exitX=0.5;exitY=0;exitDx=0;exitDy=0;entryPerimeter=0;" parent="1" source="8_lOqyAqj8u2YSckU1qC-80" target="aUIbM6phszjy0wtiQAA0-1" edge="1">
                    <mxGeometry relative="1" as="geometry">
                        <mxPoint x="393" y="588" as="sourcePoint"/>
                        <mxPoint x="392.4374999999998" y="561.8899999999999" as="targetPoint"/>
                    </mxGeometry>
                </mxCell>
                <mxCell id="8_lOqyAqj8u2YSckU1qC-48" value="&lt;b&gt;Vector Store&lt;/b&gt;" style="rounded=0;whiteSpace=wrap;html=1;fontSize=12;fillColor=#dae8fc;horizontal=0;sketch=1;curveFitting=1;jiggle=2;sketchStyle=comic;strokeColor=#6c8ebf;" parent="1" vertex="1">
                    <mxGeometry x="63" y="34" width="30" height="230" as="geometry"/>
                </mxCell>
                <mxCell id="8_lOqyAqj8u2YSckU1qC-49" value="&lt;b&gt;Custom Retreriver&lt;/b&gt;" style="rounded=0;whiteSpace=wrap;html=1;fontSize=12;fillColor=#d5e8d4;horizontal=0;sketch=1;curveFitting=1;jiggle=2;sketchStyle=comic;strokeColor=#82b366;" parent="1" vertex="1">
                    <mxGeometry x="63" y="294" width="30" height="150" as="geometry"/>
                </mxCell>
                <mxCell id="8_lOqyAqj8u2YSckU1qC-50" value="&lt;b&gt;Generation&lt;br&gt;&lt;/b&gt;" style="rounded=0;whiteSpace=wrap;html=1;fontSize=12;fillColor=#fff2cc;horizontal=0;sketch=1;curveFitting=1;jiggle=2;sketchStyle=comic;strokeColor=#d6b656;" parent="1" vertex="1">
                    <mxGeometry x="63" y="473" width="30" height="160" as="geometry"/>
                </mxCell>
                <mxCell id="8_lOqyAqj8u2YSckU1qC-51" value="&lt;b&gt;Deployment&lt;br&gt;&lt;/b&gt;" style="rounded=0;whiteSpace=wrap;html=1;fontSize=12;fillColor=#f8cecc;horizontal=0;sketch=1;curveFitting=1;jiggle=2;sketchStyle=comic;strokeColor=#b85450;" parent="1" vertex="1">
                    <mxGeometry x="63" y="656" width="30" height="160" as="geometry"/>
                </mxCell>
                <mxCell id="8_lOqyAqj8u2YSckU1qC-74" style="edgeStyle=none;html=1;flowAnimation=1;fillColor=#0050ef;strokeColor=#001DBC;" parent="1" source="8_lOqyAqj8u2YSckU1qC-59" edge="1">
                    <mxGeometry relative="1" as="geometry">
                        <mxPoint x="871" y="164" as="targetPoint"/>
                    </mxGeometry>
                </mxCell>
                <mxCell id="8_lOqyAqj8u2YSckU1qC-75" style="edgeStyle=none;html=1;entryX=0.5;entryY=0;entryDx=0;entryDy=0;flowAnimation=1;fillColor=#d80073;strokeColor=#A50040;" parent="1" source="8_lOqyAqj8u2YSckU1qC-59" target="8_lOqyAqj8u2YSckU1qC-35" edge="1">
                    <mxGeometry relative="1" as="geometry"/>
                </mxCell>
                <mxCell id="8_lOqyAqj8u2YSckU1qC-59" value="&lt;b&gt;AstraDB&amp;nbsp;&lt;br&gt;Langchain Retreriver&lt;br&gt;&lt;/b&gt;" style="shape=process;whiteSpace=wrap;html=1;backgroundOutline=1;rounded=1;fillColor=#d5e8d4;strokeColor=#1c3c3c;sketch=1;curveFitting=1;jiggle=2;sketchStyle=rough;" parent="1" vertex="1">
                    <mxGeometry x="710" y="134.00000000000003" width="120" height="60" as="geometry"/>
                </mxCell>
                <mxCell id="3" style="edgeStyle=none;html=1;entryX=0;entryY=0.5;entryDx=0;entryDy=0;flowAnimation=1;" edge="1" parent="1" source="8_lOqyAqj8u2YSckU1qC-62" target="8_lOqyAqj8u2YSckU1qC-11">
                    <mxGeometry relative="1" as="geometry"/>
                </mxCell>
                <mxCell id="8_lOqyAqj8u2YSckU1qC-62" value="&lt;b&gt;&lt;font style=&quot;font-size: 12px;&quot;&gt;Philosopher quotes Dataset&lt;/font&gt;&lt;/b&gt;" style="shape=process;whiteSpace=wrap;html=1;backgroundOutline=1;rounded=1;fillColor=#d5e8d4;strokeColor=#1c3c3c;sketch=1;curveFitting=1;jiggle=2;sketchStyle=rough;" parent="1" vertex="1">
                    <mxGeometry x="148" y="136.5" width="120" height="60" as="geometry"/>
                </mxCell>
                <mxCell id="8_lOqyAqj8u2YSckU1qC-73" value="" style="group;sketch=1;curveFitting=1;jiggle=2;shadow=0;" parent="1" vertex="1" connectable="0">
                    <mxGeometry x="869" y="131.5" width="150.41" height="65" as="geometry"/>
                </mxCell>
                <mxCell id="8_lOqyAqj8u2YSckU1qC-71" value="" style="rounded=1;whiteSpace=wrap;html=1;sketch=1;sketchStyle=rough;fillColor=#f8cecc;strokeColor=#b85450;" parent="8_lOqyAqj8u2YSckU1qC-73" vertex="1">
                    <mxGeometry width="136" height="65" as="geometry"/>
                </mxCell>
                <mxCell id="79ct5cszZ5DgS55_GiBG-1" value="" style="shape=image;aspect=fixed;image=data:image/jpg,/9j/4AAQSkZJRgABAQAASABIAAD/4QCMRXhpZgAATU0AKgAAAAgABQESAAMAAAABAAEAAAEaAAUAAAABAAAASgEbAAUAAAABAAAAUgEoAAMAAAABAAIAAIdpAAQAAAABAAAAWgAAAAAAAABIAAAAAQAAAEgAAAABAAOgAQADAAAAAQABAACgAgAEAAAAAQAAAnSgAwAEAAAAAQAAAQUAAAAA/+0AOFBob3Rvc2hvcCAzLjAAOEJJTQQEAAAAAAAAOEJJTQQlAAAAAAAQ1B2M2Y8AsgTpgAmY7PhCfv/AABEIAQUCdAMBIgACEQEDEQH/xAAfAAABBQEBAQEBAQAAAAAAAAAAAQIDBAUGBwgJCgv/xAC1EAACAQMDAgQDBQUEBAAAAX0BAgMABBEFEiExQQYTUWEHInEUMoGRoQgjQrHBFVLR8CQzYnKCCQoWFxgZGiUmJygpKjQ1Njc4OTpDREVGR0hJSlNUVVZXWFlaY2RlZmdoaWpzdHV2d3h5eoOEhYaHiImKkpOUlZaXmJmaoqOkpaanqKmqsrO0tba3uLm6wsPExcbHyMnK0tPU1dbX2Nna4eLj5OXm5+jp6vHy8/T19vf4+fr/xAAfAQADAQEBAQEBAQEBAAAAAAAAAQIDBAUGBwgJCgv/xAC1EQACAQIEBAMEBwUEBAABAncAAQIDEQQFITEGEkFRB2FxEyIygQgUQpGhscEJIzNS8BVictEKFiQ04SXxFxgZGiYnKCkqNTY3ODk6Q0RFRkdISUpTVFVWV1hZWmNkZWZnaGlqc3R1dnd4eXqCg4SFhoeIiYqSk5SVlpeYmZqio6Slpqeoqaqys7S1tre4ubrCw8TFxsfIycrS09TV1tfY2dri4+Tl5ufo6ery8/T19vf4+fr/2wBDAAICAgICAgQCAgQGBAQEBggGBgYGCAoICAgICAoMCgoKCgoKDAwMDAwMDAwODg4ODg4QEBAQEBISEhISEhISEhL/2wBDAQMDAwUEBQgEBAgTDQsNExMTExMTExMTExMTExMTExMTExMTExMTExMTExMTExMTExMTExMTExMTExMTExMTExP/3QAEACj/2gAMAwEAAhEDEQA/AP38ooooAKKKKACiiigAooooAKKKKACiiigAooooAKKKKACiiigAooooAKKKKACiiigAooooAKKKKACiiigAooooAKKKKACiiigAooooAKKKKACiiigAooooAKKKKACiiigAooooAKKKKACiiigAooooAKKKKACiiigAooooAKKKKACiiigAooooAKKKKACiiigAooooAKKKKACiiigAooooA//Q/fyiiigAooooAKKKKACiiigAooooAKKKKACiiigAooooAKKKKACiiigAooooAKKKKACiiigAooooAKKKKACiiigAooooAKKKKACiiigAooooAKKKKACiiigAooooAKKKKACiiigAooooAKKKKACiiigAooooAKKKKACiiigAooooAKKKKACiiigAooooAKKKKACiiigAooooAKKKKACiiigD/9H9/KKKKACiiigAooooAKK/ED/gs/8AEHx74D0v4dt4H1vUNGN1LqnnGxuZbfzNi2u3f5TLu27jjOcZOOtfhF/w0L8ff+h48Qf+DO6/+OUAf3OUV/DH/wANC/H3/oePEH/gzuv/AI5R/wANC/H3/oePEH/gzuv/AI5QB/c5RX8Mf/DQvx9/6HjxB/4M7r/45R/w0L8ff+h48Qf+DO6/+OUAf3OUV/Pz+w7/AMFX2gFn8Kf2qLosgCw2fiJslh6Lf8knsBOBnvIPvSV+/wBaXdrf2sV9YypNBMiyRyRsGR0YZVlYZBBHII4IoAsUUUUAFFFeY/GX4seFfgd8MNa+KvjOUR2GjWzTMucNK/3YoUz/AByyFUX/AGmGeKAPTqK/iQ8fftaftDeP/GuqeNbzxdq9i+qXMlx9ms765ht4Q7ErFFGsmFRBhVHXA5JOTX7j/wDBJL9r7VPiX4ev/gD8TdTlvtd0rfe6Zc3UjSTXNo7ZljaRyWd4HORk5KPgDEZoA/aiiiigAorwv9qDUdQ0j9mj4iatpM8lrdWvhnV5oZoWKSRyJZSsroykFWUgEEHIPIr+Nf8A4aF+Pv8A0PHiD/wZ3X/xygD+5yiv4Y/+Ghfj7/0PHiD/AMGd1/8AHKP+Ghfj7/0PHiD/AMGd1/8AHKAP7nKK/hj/AOGhfj7/ANDx4g/8Gd1/8co/4aF+Pv8A0PHiD/wZ3X/xygD+5yiv4Y/+Ghfj7/0PHiD/AMGd1/8AHK/QT/gmB8X/AIteLv2xvD+h+K/FGr6nZS2t+Xt7u9nmiYrayFSUkcqcEZGRwaAP6mKKKKACiqOp6np2i6bcazq86W1paRPNPNKwVI44wWd2Y8BVUEknoK/j4/an/bg+LPxq+NuseNPBPiPV9E0HeLfTbO1u57ZEtovlV2SNwPMlOZHzzlsZwAAAf2K0V/N9/wAEqv20/Fdl8V5vgf8AF7XLvVLPxQwOm3F/PJO8N+gwIg8hJCzoNoGceYqgDLGv6QaACiiigAoorwL9ob9pf4TfsxeCm8Z/FG/EO/K2tnDh7q7kH8EMRIzj+JiQi5+ZhkUAe+0V/Hp+0p/wUO/aD/aC8XnVdO1e78KaNbEiz03S7mSEID/FNLGUaaQjqWwo/hVcnPzd/wANC/H3/oePEH/gzuv/AI5QB/c5RX8Mf/DQvx9/6HjxB/4M7r/45R/w0L8ff+h48Qf+DO6/+OUAf3OUV/DH/wANC/H3/oePEH/gzuv/AI5X6X/8Envix8U/Gf7Vy6N4w8S6rq1n/Y95J5F5eTzx71MeG2SOy5GTg4zQB/TbRRXxr/wUG13W/DP7HPjjXPDl5Pp97b2sBiuLaRopUJuoQSroQy5BI4PQ0AfZVFfwx/8ADQvx9/6HjxB/4M7r/wCOUf8ADQvx9/6HjxB/4M7r/wCOUAf3OUV/DH/w0L8ff+h48Qf+DO6/+OUf8NC/H3/oePEH/gzuv/jlAH9zlFfwx/8ADQvx9/6HjxB/4M7r/wCOUf8ADQvx9/6HjxB/4M7r/wCOUAf3OUV/N7/wR8+KfxO8b/tL65pPjTxHqmr2sfhm5mSG9vJriNZBe2ShwsjsAwDEA4zgkd6/pCoAKKK5Px3428OfDbwZqnj7xfcC10zR7aS7uZTjiOJSxABxljjCr1ZiAOTQB1lFfxZfGj9sv48fFn4oa18QLXxNq+jW2o3LPbWFnfTxQ20A+WKILGyqSqABm2jc2WPWv1i/4JIftja/4n1nUP2dvixq9zqV7db77Rbm9laaRiik3FsZHJc4UebGDnAEnPQUAfvXRRRQAUUUUAFFfzt/8FYvBvxs+DPxDs/jL8PfFOt2XhrxMRDPb2+oXSRWuoIpJVVWTaqTou9QONyycAYrm/8AglZ+2n4r074uS/BL4v63eapZeKyo064v7h52gv0B2xhpWJC3C/KBn/WKgA+YmgD+kiiiigAooooAKK/nH/4Ktfto+K5vinB8CvhHrV5pNv4YJfVLmwuHgae8lRSIi8TAlYEOCM48xmBGUGJf+CUfg/43/G74m3Xxd8feKtbvPC/hVgiQXGoXMkV3qDrlEZGcqyQofMcH+IxjBBOAD+jOiiigAooooAKKKKACiiigD//S/fyiiigAooooAKKKKAPwR/4Llf8AIK+Gn/XXVv8A0Gzr5q/4JEfCH4XfF34jeL9O+KGgWOvwWemwSQR30KzLG7TEFlDA4JHGa+lf+C5X/IK+Gn/XXVv/AEGzrzD/AIIh/wDJU/HH/YKt/wD0eaAP2e/4Yp/ZH/6Jx4f/APAGL/4mj/hin9kf/onHh/8A8AYv/ia+n6KAPmD/AIYp/ZH/AOiceH//AABi/wDiaP8Ahin9kf8A6Jx4f/8AAGL/AOJr6fooA/kD/wCCmngDwT8M/wBrDVPCfw90q10bTIrGydLW0jWKJWeEMxCrgZJ5NftX/wAEedT1HUf2QzDfzyTpaa3eQwCRiwjj2QvsTP3V3MxwOMknvX5B/wDBWz/k9HWP+wfp/wD6IFfrf/wRt/5NHuf+xgvf/RVvQB+r1FFFABX813/BYD9qdvG3ju3/AGbfB9znSvDkguNWKfdm1Bl+SInuLdGOQDjzHIYbkGP2i/bQ/aT079lz4Eap8Qg0bavMBZ6Tbvg+beS8Kdp6rEuZH/2Vx1Ir+Ozwv4c8afGP4i2fhnRxLqeveI75Y1Lks8txcP8AM8jHJ+8Szuegyx70AfVH7KH7DvxA/ap8F+MvGPhxjbw+HrNhYEgYvNSG2QWoz0zDuy2Rtd488E18z/Cn4l+L/gd8TtJ+JXhKRrbVdCuhKqtld23KyRSDrtkQtG4/ukiv7Qf2cfgb4c/Zz+Dmi/Cbw2FddOhBuZwNpubpwDPMR1G98kAk7VwvQV/PL/wVo/ZZ/wCFSfF1fjZ4Ttymg+MpXe4CJhLfUgN0qkjgfaBmVc8lvM7CgD+j74N/Ffwt8cPhjo3xV8GSb9P1m3WdFJBaN/uyRPjjfG4ZG9wa9Nr+az/gkD+1SPA3ju4/Zv8AGNyE0rxHIZ9KeRsCLUAADCM8AXCDgf8APRVAGXNf0p0AZeuaJpHiXRbzw54gto7yw1CCS2ubeZQ0csMqlJI3U8FWUkEHqDXzp/wxT+yP/wBE48P/APgDF/8AE19P0UAfMH/DFP7I/wD0Tjw//wCAMX/xNfGv/BQP9lv9nL4ffsgeMvGHgfwTo2larZxWhgura0jjljL3sCNtYDIyrEH2Jr9aa+EP+Cmn/Jjnjz/rlY/+l9tQB/MN+x34a8P+Mv2ovAvhbxVZxahp19q0EVxbTqHjlRjyrqeCD3Br+sn/AIYp/ZH/AOiceH//AABi/wDia/lS/YW/5PA+Hf8A2Grf+df2mUAfMH/DFP7I/wD0Tjw//wCAMX/xNdZ4I/Zl/Z7+GviKHxd8P/BmkaPqkCusd1aWscUqiRSrAMoBG5SQfavc6KACiivOfi58UPC3wW+Gus/FLxnIY9O0W2e4kC43yEcJEmSAXkchEBIBZhyKAPyb/wCCwH7Uy+CfAdv+zd4QugNU8SILjVih+aGwVvkjJ7G4dTkA58tGBGHGfxi/Y1/ZU1/9rb4r/wDCCWMz2GmWltLc6hfqm8W67GEIwcBmkl2qFyDt3Efdrxr4x/FXxb8dfilrPxS8YOZtR1u5aUoCWEafdihTvsiQLGnfCjvX9YH/AAT3/Zbh/Zh+A1pp+tW4j8T6/svtYcj5lkIPlW/fiBG246by5H3qAP5K/GXhPxl8GviNf+D9eD6frnh29aF2jYq0c0D/ACyRvwcZAdHGMghh1r+wX9iP9pew/aj+A2m+OZXRdbsx9i1eBSMpdxAZfaOiTLiRew3Fckqa/NX/AILGfssNqWnWn7Uvg+3ZprNY7DXEjHWHO23ujjn5GIic88GPoFJr86v+Ccf7Up/Zo+PVvH4hufJ8LeJtlhqu77kRyfIuT6eS7Hcf+ebPwTjAB/X1RSAhgGU5B6GloAK/kD/4Kg6vqupftt+MrXUbmWeKyNlDbpI5ZYozZQOUjBOFUszMQMAsSepJr+vyv5V/+CrXwC+KfhT9o7XfjZqWmO/hfxHJbfZb+H95GrxWsMLRTY/1TlkJUNgOPuk4YAA/Qn/gmX+zR+z78TP2TtL8WfEHwbpOs6nNfXqPdXlrHLKypMVUFmBOAOBX6Af8MU/sj/8AROPD/wD4Axf/ABNfiv8AsQ/8FL/gx+zL+z/YfCbxpoutXt/a3V1O0tlHbtCVnkLqAZJ42yAefl619c/8Pr/2bf8AoWvEv/fmz/8AkugD7v8A+GKf2R/+iceH/wDwBi/+Jo/4Yp/ZH/6Jx4f/APAGL/4mvhD/AIfX/s2/9C14l/782f8A8l0f8Pr/ANm3/oWvEv8A35s//kugD7v/AOGKf2R/+iceH/8AwBi/+JrtPAX7OHwE+Fuvf8JR8OPCGk6JqPltD9ps7WOKXy3xuXcoBwcDIr8/vCP/AAWU/Zd8SeJLPQdU03XdGgu5BG17dwW5gh3dGl8q4kcLnqVRsdcYzX6t6Rq+leINKt9c0K5ivbK8jWaCeBxJHLG4yro6khlYHIIOCKANGuc8W+EPC/j3w7deEfGlhBqml3qhZ7W5QSRSBWDAMrcHDAH6iujooA+YP+GKf2R/+iceH/8AwBi/+Jo/4Yp/ZH/6Jx4f/wDAGL/4mvp+igD8Rv8AgqR+zf8AAT4W/suN4o+HPhDSdE1H+1rOH7TZ2scUvluJNy7lAODgZFflB/wTh8C+DviR+2B4Y8IePdMt9X0u5jvzLa3UYlicx2U7puRuDtYBh6EA1+5X/BYX/kz9v+w1Y/ylr8YP+CVn/J8fhH/rlqX/AKQXFAH9J3/DFP7I/wD0Tjw//wCAMX/xNH/DFP7I/wD0Tjw//wCAMX/xNfT9FAHjfw8/Z5+Bnwl1qXxH8MvCel6DfzwNbSXFlbJDI0LMrmMsoBKlkUkeoHpXslFFABX8+/8AwWM/aoM89p+yv4NuRsiMd9rzIed2A9tanBxgAiZwQckxYIwQf2O/aZ+O+gfs2/BbWvi1rwWQ2EWy0t2ODcXUnywxDHPzNyxHRAzdAa/i21bVfHHxk+I02q6g0ur+IvEt/k4AMk91dSYCqBgDc7AKowBwBgUAfTX7HH7F/jT9rzUvEUOhz/2dZ6Hp8kq3ci5jkvnB+y2xPYSMCzsAdiKTjJUH5k0XWPGvwd+IkGsaeZdJ8QeG78MAwKyQXNrJgq6+qspVlPXkGv7Jf2Pv2c9J/Zf+BWk/DS2Eb6kV+1arcR9J76UDzWBwCVTAjQkA7EXIzmvxa/4LBfsrnwj4zt/2l/BtsRp2vOttrCoBtivVXEcxA6CdBhjjHmJknMgoA/cz9mj47+Hv2kfgxo3xY8PlUN9Fsu7dTk213HxNCe/ytyueShVuhr3iv5Y/+CUP7VA+DHxiPwi8WXPl+HfGciRRl/uwalwkD57LKP3T+5QkgKa/qcoAKKKKAPHfj78GPDP7QXwj1v4TeKwBb6rAUjmwC0E6/NDMmf4o3Ab3GQeCa/ik8c+DfGfwX+JGoeC/EKyafrfh68MTlCVZJYWykkbcHB4dGHUEEV/d7X4Q/wDBYr9lj+1dHtf2o/Btrm4sAllroTq0BIS2uCPWNj5Tnk7WTshNAH6O/sO/tNWP7UnwF03xpcSINesQLHWYVwCl3GozIF4wky4kXHAyVySpr7Br+P8A/wCCdP7UrfszfHm2PiC5aLwt4k2WOrL/AAx5J8i5Of8Ani7fMf8Anmz8E4r+v8EMAynIPQ0ALXyX+2r+0tp37LfwI1Lx8rxtrNz/AKHpFu/Pm3coO1tvdYlzI+eCF25ywz9aV/Ib/wAFIv2pz+0p8eJ7Pw5cNJ4W8LmSw0wA/JM4IFxdAAkfvXUBD3jVCQCSKAPi/wAJeF/Gfxi+Ill4U0JX1HXfEN6Ik3sS0s875Lux9yWdj0GSa/tX/Z4+CHhr9nX4PaL8JPC+JItLhxPcbQrXNy/zTTMOeXckgEnauFzhRX4+f8Ec/wBlgWtndftTeMbb95OJLLQA4PyoC0d1cgf7R/cofQSeor97qACiiigAooooAKKKKACiiigD/9P9/KKKKACiiigAooooA/BH/guV/wAgr4af9ddW/wDQbOvMP+CIf/JU/HH/AGCrf/0ea9P/AOC5X/IK+Gn/AF11b/0GzrzD/giH/wAlT8cf9gq3/wDR5oA/o9ooooAKKKKAP5Mv+Ctn/J6Osf8AYP0//wBECv1v/wCCNv8AyaPc/wDYwXv/AKKt6/JD/grZ/wAno6x/2D9P/wDRAr9b/wDgjb/yaPc/9jBe/wDoq3oA/V6iivzF/wCCov7VH/Cg/gg3gXwtceX4n8YrJa25Rhvt7QYFzOe4LKfKjPHzMWB+QigD8Tf+Ck37VH/DSXx2m07w1c+d4V8LGSy0wr92Zzt+0XHv5jqAh7xop4JNfe//AARy/ZX8mC7/AGp/GVsweTzLDQFkAxs+5c3Q4zyQYUIIxiXIOVI/HL9mb4Ea/wDtJfGnRfhLoJaMX8u+7uFGRb2sfzTSnPHyrwoPVyq9SK/td8G+EPDvw/8ACmneCPCNqtlpek28drawJ0SKJQqjJ5JwOSSSTkkkmgDpa8R/aL+B/hr9ov4O618JfE4Cx6lD+4nx81vcx/NDMvf5HAJH8S5U8E17dRQB/CB4m8O+Nvgv8SLrw5q4k0zX/Dd8UYocNFcW75V0bvyAyMOowRX9h/7Fv7SenftR/AbS/iCHUavbj7Fq8KgL5d7Eo8whR0SUESpjOFbHUED8u/8AgsZ+ywJre0/an8H243xeXYa6iA5Kn5ba6PbjiFz7x+hNfBP/AATW/anP7N/x4g0vxLc+V4W8VGOw1He2I4JCf9HujnAHlOxVyTxG7nkgUAf11UUUUAFfCH/BTT/kxzx5/wBcrH/0vtq+76+EP+Cmn/Jjnjz/AK5WP/pfbUAfzRfsLf8AJ4Hw7/7DVv8Azr+0yv4s/wBhb/k8D4d/9hq3/nX9plABRRRQAV/N5/wWD/ao/wCEu8YW37NHg643aboTrdaw8bHEt8QfLgOOCsCHcw5BdsEAxiv2e/bH/aN0v9l/4D6t8Rp2U6nIps9JhYZ82+mRvKyD1VNpkf8A2VI6kV/HHo2keOPjP8SINH05ZNW8ReJtQ2jcRvnurqTJZmPA3OxZmOABknAoA/Sf/gk/+ywfjJ8Yz8YPFdqX8O+DJElj3rmO41EjdDHkjDeSMTOAcg+WDw1f1NV4R+zT8CPDv7N3wY0X4TeHsP8AYIt93cDrcXcnzTzHPOGfO0H7qBV6Cvd6AOf8V+FtB8ceGNQ8HeKbZLzTdUt5LW5gcZWSKVSrqfqD16jrX8VH7UvwB139mj426z8KNZLSRWsnnWNwR/x8WcuWhk9M7flfHAdWHav7d6/LP/gql+ywfjl8FD8TPCtv5niTwZHJcosa5e5sTg3EPHJMYHmoOeQygZegB/8AwSu/anPxz+CQ+G3iq4MniTwWkdq7OQXuLE/LbTepZAPKkPJyqsxy9fqTX8RP7LPx+1z9mf43aN8V9HBlhtXMN9bg4+0WcvyzR9Rzj5kzwHVSc4r+1fwr4o0Dxv4asPGHhW6S903VLeO6tZ4zlZIpVDIw+oPQ8joaAN+sTxJ4a8PeMdCuvDHiuxg1LTr6MxXFtcxrLFKh6q6MCCPqK26KAP54/wBpX/gjd4pfxidc/ZjvbY6PeFmfTtTnZJLRic7YpQjeZF2UN869CX6183f8Oev2wP7ui/8Agcf/AI1X9VtFAH8qX/Dnr9sD+7ov/gcf/jVH/Dnr9sD+7ov/AIHH/wCNV/VbRQB/Kl/w56/bA/u6L/4HH/41Xlv7Hn7e/wAU/wBkbWv+EbuN2ueEZJj9q0mR8GNicNLayEExvxkr9x+4Bww/r/r+BPVv+Qrc/wDXV/8A0I0Af3oeGPEFj4s8N6f4p0wOLbU7aK7hEgAcJMgddwBIBwRkZPNbleYfBH/ki/hD/sC6f/6TR16fQAUUUUAflj/wWF/5M/b/ALDVj/KWvxg/4JWf8nx+Ef8ArlqX/pBcV+z/APwWF/5M/b/sNWP8pa/GD/glZ/yfH4R/65al/wCkFxQB/XbRRRQAUUV8Hf8ABQ39qSP9mL4C3V5odwIvFHiDdY6Oo+8jEDzrj2ECNkH/AJ6FB0NAH4nf8FW/2ph8afjMPhR4UuVl8OeDJHi3xNlLm/YATycHBEWPKT0Icg4avZf+CPP7LP8AwlPi+6/ab8YQZsNDZrTR0kXIlvGXEs4z2gRtq8HLvkEGPn8kvg18KfFfx3+Kej/Czwipk1HW7kRB2BYRry0sz452xoGdj6A1/bP8J/hj4W+DPw30b4W+CojFpmiWy28O7G58cvI5AALyOWdyAMsxOKAPQ684+Lvwt8K/Gr4a6x8LfGsPnabrNu0En95G+9HIno8bhXU/3lFej0UAfwp/GD4WeLfgT8UtX+GHi1TFqWh3JiLpkB1GGimjPXbIhV1PXBHev6vv+Cen7UcX7TvwDtL7Wp/M8TeHtmn6wrEF5JFX91cnvi4QbicAeYJAOFzXyJ/wV+/ZWPjnwJb/ALSHg62L6r4cjEGqpGuTLp5JImOOSbdzyf8AnmzEnCCvx6/YR/acuv2XPj5p/iq/lYeH9UxYazHyR9mkYYmCjOWgbEgwCSoZR940Af2XUVWs7y01Gzi1CwlWaCdFkjkQhldGGVZSOCCDkEVZoAK/NH/gqT+0dpXwV/ZzvvAtt5c+t+OIptMt4XAbZauu26nZT2VG2Keod1I+6a/RvWtZ0rw5o134h12dLWxsIZLi4nkOEjiiUu7sewVQST6Cv4vP2yP2jdT/AGoPjxq3xHmZhpkbGz0mFuPKsYWbysjszljI47M5HQCgDgv2evgj4n/aJ+L2jfCXwoNk+pzYmnKkpb26DdNM+OyICQDjc2FHJFf26eFfDem+DfDGneEdG8z7JpdrFaQea5kfy4UCJuduWOAMk9TX5Tf8ElP2V1+FPwmf45eLrYpr/jCNWtVkA3W+mg5jx3BuD+9bnlBHwCDn9eKAMXxJoGn+KvDt/wCF9W3/AGXUraW1m8p2jfy5kKNtdSGVsE4YEEHkc1/Ef+0f8DPEf7OXxl1v4S+I8yNp02ba4I2i4tZPmgmHb50I3AE7WDLnINf3FV+S/wDwVj/ZY/4XF8IF+MnhO2aXxD4NjZ5FjXL3GnMd0ynHJMBzKvPC+ZwSwoA6n/glX+0dpXxj/Z5tvhzdiK31vwQkdhLDGFTzbTH+jzhRjqAUc93Xcfviv0/r+J39kP8AaI1j9mH466R8TbEs9iG+y6pAOfOsZmXzlA7suBIn+2q54yK/tL0DXtG8VaFZeJvDtwl5p+owR3NtPGcpLFKodHU+jKQRQBr0UUUAFFFFABRRRQAUUUUAf//U/fyiiigAooooAKKKKAPwR/4Llf8AIK+Gn/XXVv8A0Gzr8Pvhn8Zvip8Gb661P4V69eaDcXsYinks5DG0iKdwViOoB5r+zz41/s1fBH9oqLToPjNoSa2ukmVrQNPPD5Zn2CTHkSR53bF+9nGOO9eB/wDDsv8AYc/6ESL/AMDr/wD+SaAP5ov+G6v2wP8Aoomtf+BB/wAKP+G6v2wP+iia1/4EH/Cv6Xf+HZf7Dn/QiRf+B1//APJNH/Dsv9hz/oRIv/A6/wD/AJJoA/mi/wCG6v2wP+iia1/4EH/Cj/hur9sD/oomtf8AgQf8K/pd/wCHZf7Dn/QiRf8Agdf/APyTR/w7L/Yc/wChEi/8Dr//AOSaAP57/gP+zV+0l/wUI+I8nizxDf3MtjGY4dR8RajukVFjAAij6GaUL0RSAON7KCCf6kP2ev2f/AH7NHwztfhd8OUm+xwO00s1w++aeeQAPK54UFtoGFVVAAAFeneFPCfhnwL4ds/CPg6xh03TLCMRW9tboEjjRegAH6nqTyea6GgDF8R+ItD8IeH77xX4muUstO02CS6uriQ4SKGJS7ux9FUE1/Fd+1l+0Nrf7Tvxx1j4pamGitJX+z6dbMf+PeyhJEKdT8xGXkxwZGYjAwK/sz+I/wAOPBvxb8GXvw++IFob/R9RCrc24llh8xUYOFLwuj43KMgNg9DkcV8mwf8ABNH9h+3mS4j8BwFkYMA15fMuQc8q1wQR6ggg96APDv8AglH+yy/wW+DTfFfxZbGHxF4zRJQkq4e3sFJMEfIyplz5rjuCgPK1+rdNREjQRxgKqjAA4AAp1ABRRRQBzfjHwloPj3wnqXgnxTALrTdWtpbS5ibo8UylGHscHg9jzX8Un7TnwF8Q/s1/GrWvhPrwd0spfMsrhxj7TZyEmCYY4yy8MBwrhl6qa/t/r55+NH7KP7Pn7Q2p2WtfGLw3DrN3p0TQW8zTTwOsbNuKEwSRlhu5AbOCTjGTkA+Sv+CXH7U4+PXwOTwH4puRJ4m8HJHZzBid89kBttpzn7xABjc8ncoY/fFfp3XzF8Iv2Nf2bfgN4rPjb4SeGxouptA9s00d3eSBonILIySzOjAlQeVOCARyK+naACvhD/gpp/yY548/65WP/pfbV931w/xI+G/gr4u+Cr74d/ESxGpaNqQRbm2Z5Iw4jkWVfmiZHGHRTww6elAH8df7C3/J4Hw7/wCw1b/zr+0yvjnwT+wB+yH8OfFun+OvBfg6Ox1XSpluLW4F3euY5E+62152U49CCK+xqACiis3WdJsdf0i70LVFZ7a9hkgmVHaNjHIpVgHQq6nBOGUhh1BBoA/k2/4KaftTf8ND/HeXw74ZuTJ4Y8JGSxs9jZjnnDYuLkYJBDsAiMOCiAj7xr7Y/wCCOf7K++S7/an8ZW/CeZYaCkinrjbcXS/gTCh5/wCWnHCmv0U/4dl/sOf9CJF/4HX/AP8AJNfZfg/wh4a8AeFtP8E+DrNLDStKgS2tbePO2OKMbVGSSScdWYlickkkk0AdJRRRQAUhAYFWGQeopaKAP5Av+CjP7LJ/Zm+PVx/wj1uYvC3iXff6UR92LLfv7UH/AKYuw2jn92yZJOa/Rv8A4I6ftTHU9Lu/2XPGFyTPZCS+0NnOd0JO64thn+4x81B6F+yiv2D+MnwE+EX7QWgW3hj4w6JFrVlZz/aYUd5Imjl2lcrJC6OMhiCN2DxkHAx4v4K/4J//ALI3w58WWHjnwR4RGnatpcyz2tzFfX26ORehwbggg9CrAqwJBBBIoA+x6/Gb/gr38cfi78FtO8Ay/CnxDe6A2oyamLk2chj80RC12bsddu9sfU1+zNeGfGv9mr4I/tFRadB8ZtCTW10kytaBp54fLM+wSY8iSPO7Yv3s4xx3oA/km/4bq/bA/wCiia1/4EH/AAo/4bq/bA/6KJrX/gQf8K/pd/4dl/sOf9CJF/4HX/8A8k0f8Oy/2HP+hEi/8Dr/AP8AkmgD+aL/AIbq/bA/6KJrX/gQf8KP+G6v2wP+iia1/wCBB/wr+l3/AIdl/sOf9CJF/wCB1/8A/JNH/Dsv9hz/AKESL/wOv/8A5JoA/mi/4bq/bA/6KJrX/gQf8K+zf2I/+CX/AIw+OMtp8VPjyk+i+FJSJ4bQ5jvNRU8gjvDC3XeRvdfuAAiQfth4V/4J5fsaeC/EVp4q0DwLaLe2Eglgaee6uUVx0YxTzSRsR1G5Tg4I5ANfZ9AGdpGk6doOk2uhaREILSyhSCCMZISONQqKM5PCgDmtGiigAooooA/LH/gsL/yZ+3/Yasf5S1+MH/BKz/k+Pwj/ANctS/8ASC4r+p74t/Br4afHbwl/wgvxX0xdX0rzkuPIaWWIeZHna26F0bjJ4zivH/hf+w7+yz8GPGtp8RPhn4Tj0vWbESLBcrdXcpQSxtE/yyzOhyjEcqevHNAH1fRRRQBXu7u1sLWW+vpUhghRpJJJGCoiKMszMcAADkk8AV/Gr+3V+05dftSfHrUPF1k7DQNNzY6PE3a2jPMpHGGnbMhHUAhcnbmv7CvGvgzw58RPCeoeBvF9ubrS9Vga2uoBJJF5kTjDoXiZHAYcHDDIyDwTXxx/w7L/AGHP+hEi/wDA6/8A/kmgD5I/4JAfstL4H+H9x+0d4uth/aniZDDpYkX5oLBGIeQZ5BuHAP8AuIpBw5z+01U9O0+x0nT4NK0yFLe2tY1ihijAVERAFVVA4AAAAHpVygAooooAz9W0rTdd0q50PWYUubO8ieCeGQZSSORSrow7hlJBHpX8Yf7aX7Nmo/sufHnVPh9sY6RcH7bpEzEt5llKx2AserxEGJ89WXPQgn+0yvC/jV+zT8Dv2iYtPh+Mvh+LW/7KMhtGeSaF4vN27wHgeNiG2rkEkZAOM0Afnh/wSO/anb4o/C6X4DeLrkya54QiU2TOfmm0zIRAO5NuxEZ/2Gj681+wdfJ/wx/Yd/Zb+DXjK1+IPwy8LDSdYsw6xXEd5esQsilHUo87IwKk5DKR36gV9YUAfiT/AMFgv2qD4O8HWv7NXg65KalryLdau8ZH7uwywSA45DTuuWH/ADzXBGHFfkj+wP8AswTftRfHyx8N6rCz+HNI26hrL5Kg26MNsG4EENO+E4IYLuYfdr+mn4hfsH/so/Ffxje+P/iH4TGqaxqLh7i5lvb4FyAFGFS4VVAUABVAAAwBXqXwX/Z3+DH7PGmXuj/BvQYdEg1GVZrnY8sryui7V3STPI+FGdq7toJYgAsSQD2O3t7e0t0tLRFiiiUIiIAqqqjAAA4AA4AFTUUUAFRzQxXETQTqHRwVZWGQQeCCD1BqSigD+On/AIKCfsvSfswfHu70jRoCnhrXN1/o7dVWJm/eW+fWBztwTnYUJ61+qH/BHj9qdvE3he7/AGY/GVyWvtGRrzRXkbmSzLZmtwT1MLtvQZJ2OQMLHX6xfGb9n74O/tCaNaaB8YtDi1u1sZjPbh3liaOQqVJWSF43AIPK7tpwCRkDHkfgL9gj9kz4X+MLDx/4B8JLpmsaZJ5ttcx3t8WRsFTw1wysCpIZWBBBIIINAH2BRRRQAUUUUAFFFFABRRRQB//V/fyiiigAooooAKKKKACiiigAooooAKKKKACiiigAooooAKKKKACiiigAooooAKKKKACiiigAooooAKKKKACiiigAooooAKKKKACiiigAooooAKKKKACiiigAooooAKKKKACiiigAooooAKKKKACiiigAooooAKKKKACiiigAooooAKKKKACiiigAooooAKKKKACiiigAooooAKKKKACiiigD/9b9/KKKKACiiigAooooAKKKKACiiigAooooAKKKKACiiigAooooAKKKKACiiigAooooAKKKKACiiigAooooAKKKKACiiigAooooAKKKKACiiigAooooAKKKKACiiigAooooAKKKKACiiigAooooAKKKKACiiigAooooAKKKKACiiigAooooAKKKKACiiigAooooAKKKKACiiigAooooAKKKKAP/1/2U+L37Q/wW+An9n/8AC3/EFvoX9reb9k88OfN8jZ5m3Yrfd8xM5x1rxj/h4f8AsXf9FA0//vmf/wCNV+aH/Bc7/ml3/cb/APbCvwBoA/st/wCHh/7F3/RQNP8A++Z//jVH/Dw/9i7/AKKBp/8A3zP/APGq/jSooA/st/4eH/sXf9FA0/8A75n/APjVH/Dw/wDYu/6KBp//AHzP/wDGq/jSooA/st/4eH/sXf8ARQNP/wC+Z/8A41R/w8P/AGLv+igaf/3zP/8AGq/jSooA/st/4eH/ALF3/RQNP/75n/8AjVH/AA8P/Yu/6KBp/wD3zP8A/Gq/jSooA/st/wCHh/7F3/RQNP8A++Z//jVH/Dw/9i7/AKKBp/8A3zP/APGq/jSooA/st/4eH/sXf9FA0/8A75n/APjVH/Dw/wDYu/6KBp//AHzP/wDGq/jSooA/st/4eH/sXf8ARQNP/wC+Z/8A41R/w8P/AGLv+igaf/3zP/8AGq/jSooA/st/4eH/ALF3/RQNP/75n/8AjVH/AA8P/Yu/6KBp/wD3zP8A/Gq/jSooA/st/wCHh/7F3/RQNP8A++Z//jVH/Dw/9i7/AKKBp/8A3zP/APGq/jSooA/st/4eH/sXf9FA0/8A75n/APjVH/Dw/wDYu/6KBp//AHzP/wDGq/jSooA/st/4eH/sXf8ARQNP/wC+Z/8A41R/w8P/AGLv+igaf/3zP/8AGq/jSooA/st/4eH/ALF3/RQNP/75n/8AjVH/AA8P/Yu/6KBp/wD3zP8A/Gq/jSooA/st/wCHh/7F3/RQNP8A++Z//jVH/Dw/9i7/AKKBp/8A3zP/APGq/jSooA/st/4eH/sXf9FA0/8A75n/APjVH/Dw/wDYu/6KBp//AHzP/wDGq/jSooA/st/4eH/sXf8ARQNP/wC+Z/8A41R/w8P/AGLv+igaf/3zP/8AGq/jSooA/st/4eH/ALF3/RQNP/75n/8AjVH/AA8P/Yu/6KBp/wD3zP8A/Gq/jSooA/st/wCHh/7F3/RQNP8A++Z//jVH/Dw/9i7/AKKBp/8A3zP/APGq/jSooA/st/4eH/sXf9FA0/8A75n/APjVH/Dw/wDYu/6KBp//AHzP/wDGq/jSooA/st/4eH/sXf8ARQNP/wC+Z/8A41R/w8P/AGLv+igaf/3zP/8AGq/jSooA/st/4eH/ALF3/RQNP/75n/8AjVH/AA8P/Yu/6KBp/wD3zP8A/Gq/jSooA/st/wCHh/7F3/RQNP8A++Z//jVH/Dw/9i7/AKKBp/8A3zP/APGq/jSooA/st/4eH/sXf9FA0/8A75n/APjVH/Dw/wDYu/6KBp//AHzP/wDGq/jSooA/st/4eH/sXf8ARQNP/wC+Z/8A41R/w8P/AGLv+igaf/3zP/8AGq/jSooA/st/4eH/ALF3/RQNP/75n/8AjVH/AA8P/Yu/6KBp/wD3zP8A/Gq/jSooA/st/wCHh/7F3/RQNP8A++Z//jVH/Dw/9i7/AKKBp/8A3zP/APGq/jSooA/st/4eH/sXf9FA0/8A75n/APjVH/Dw/wDYu/6KBp//AHzP/wDGq/jSooA/st/4eH/sXf8ARQNP/wC+Z/8A41R/w8P/AGLv+igaf/3zP/8AGq/jSooA/st/4eH/ALF3/RQNP/75n/8AjVH/AA8P/Yu/6KBp/wD3zP8A/Gq/jSooA/st/wCHh/7F3/RQNP8A++Z//jVH/Dw/9i7/AKKBp/8A3zP/APGq/jSooA/st/4eH/sXf9FA0/8A75n/APjVH/Dw/wDYu/6KBp//AHzP/wDGq/jSooA/st/4eH/sXf8ARQNP/wC+Z/8A41R/w8P/AGLv+igaf/3zP/8AGq/jSooA/st/4eHfsW/9FA0//vmf/wCNUf8ADw79i3/ooGn/APfM/wD8ar+NKigD+y3/AIeHfsW/9FA0/wD75n/+NUf8PDv2Lf8AooGn/wDfM/8A8ar+NKigD+y3/h4d+xb/ANFA0/8A75n/APjVH/Dw79i3/ooGn/8AfM//AMar+NKigD+y3/h4d+xb/wBFA0//AL5n/wDjVH/Dw/8AYu/6KBp//fM//wAar+NKigD+y3/h4f8AsXf9FA0//vmf/wCNUf8ADw/9i7/ooGn/APfM/wD8ar+NKigD+y3/AIeH/sXf9FA0/wD75n/+NUf8PD/2Lv8AooGn/wDfM/8A8ar+NKigD+y3/h4f+xd/0UDT/wDvmf8A+NVteG/27f2SPF/iKw8J+G/HFjd6jqlzFaWsCLNulmncRxoMxgZZmAGSBzX8XFfQH7J3/J0/w0/7GrRv/S6GgD+3yiiigD//0G/8Fzv+aXf9xv8A9sK/AGv3+/4Lnf8ANLv+43/7YV+ANABRRRQAUUUUAFFFFABRRRQAUUUUAFFFFABRRRQAUUUUAFFFFABRRRQAUUUUAFFFFABRRRQAUUUUAFFFFABRRRQAUUUUAFFFFABRRRQAUUUUAFFFFABRRRQAUUUUAFFFFABRRRQAUUUUAFFFFABRRRQAUUUUAFFFFABRRRQAUUUUAFFFFABRRRQAUUUUAFFFFABRRRQAV9Afsnf8nT/DT/satG/9Loa+f6+gP2Tv+Tp/hp/2NWjf+l0NAH9vlFFFAH//0W/8Fzv+aXf9xv8A9sK/AGv3+/4Lnf8ANLv+43/7YV+ANABRRRQAUUUUAFFFFABRRRQAUUUUAFFFFABRRRQAUUUUAFFFFABRRRQAUUUUAFFFej/CD4bav8YfiloHwu0MlbnXb6GzVwu7y1kYB5SMjIjTLtyOAaAPOKK/oO/4cbaT/wBFLl/8FK//ACXX4N+OfB2t/Dzxpq3gPxLH5WoaNdzWVwvOBJA5RsZAJBIyD3HNAHK0UUUAFFFeg/C74WePPjP44sfh18NtPk1PVtQbbFCmAAAMs7s2FRFHLMxAAoA8+or9/wDwh/wSD+DHw+8MQ+Iv2p/iF9gkdcyLaTW9jaxt3UXF4rmQDudifTueltf+Cb//AATp+JUn9gfCr4nNPqz5EUdnrOnXzFjwMwqm9hkcBWXPrQB/O3RX6A/te/8ABO/4v/sowN4sklTxF4TaQRjVLVCjQljhFuoSWMRY8BgzxkkDcGIWvz+oAKKK/YP9lD/glhp37THwK0f4zT+N5NGfVXuVNounicJ9nuJIM+YbiPO7Zu+6MZxz1oA/Hyiv6Dv+HG2k/wDRS5f/AAUr/wDJdH/DjbSf+ily/wDgpX/5LoA/nxor+g7/AIcbaT/0UuX/AMFK/wDyXX4+/tX/AAGh/Zn+OusfBmDVDrKaUlswu2h8gv8AaLeOfHlh5Mbd+37xzjPHSgD5zoor6y/Yw/Zqsv2rfjMPhVqGrvosZsZ7z7THCJ2zCVG3YXQc7uue3SgD5Nor+ga6/wCCLnw1sbhrW++Kbwypjcj2UKsMjIyDc56c1XP/AARa+H+oKbXRPirvuWHyD7DFJz7qt0CfwNAH4A0V+iP7Tv8AwTR+P/7Nui3HjbEHibw5agtNfafuD26ZwGnt3G9F7lkLov8AEwr87qACiiigAoor9Dv2GP2CNQ/bJtvEGsXmuP4c03RGghS4FqLnz55QzNGAZYseWoUscn760AfnjRX64ftef8Esr/8AZn+DNz8XvD3imTxJHp9xCl3bmx+zeXBKSnnBlmlztkKAggDDE54wfyPoAKKKKACiiigAooooAKKKKACiiigAooooAKKKKACiiigAooooAKKKKACiiigAr6A/ZO/5On+Gn/Y1aN/6XQ18/wBfQH7J3/J0/wANP+xq0b/0uhoA/t8ooooA/9Jv/Bc7/ml3/cb/APbCvwBr9/v+C53/ADS7/uN/+2FfgDQAUUUUAFFFFABRRRQAUUUUAFFFFABRRRQAUUUUAFFFFABRRRQAUUUUAFFFFABX7S/8EYvgsPEXxY13466vHi08L2v2S0duB9rvFIdgf+mcAcN/11Ffi1X9HF1GP2Hv+CUpt5FFn4n8awbWHCyfatXXnPQh4LJcdyHjoA+NPhf+2nLcf8FOJvjTd3P/ABIPEWovoJIOF/s2QrbWrnjgKyQzPxnhvXNWf+CxHwQPgH9oGy+LGlQBNP8AGdrulK9BfWYWObIHA3RmFs/xMXPY1+RQJUhlOCOhr+k74teX+3N/wS3s/iHF/pPiPwtai+m/ik+16WrRXmec/voN8qryTuTgnFAH82FFFFABX9EX/BHnwN4X8D/A3xt+0lrFuJL1Z57MSYBdLOxgjuZFTPTzHf5vXy19K/ndr9+v+CO/xo8D6p4J8UfsreNZoo7jU55b6yhlbb9rhuIFhuoUORlkWMPtHzFWYjhTgA/Gv48/Hf4g/tFfEa++JHxEvHuLi5dvIg3ExWsGcpBCvRUUegyxyzZYk142jvG4kjJVlOQRwQRX6LftEf8ABMz9pP4P+L72DwToN54u8PmRmsrzTIzcTGI8qssEeZVkUcNhSpI+UnIr4z174K/GPwtG0vibwnrOnKn3jdWFxCBj1LoMUAf0K/8ABMX413/7VnwC8V/s/fHFjri6LFFaGW5O6SfT71JEVHY5LPC0bYkPzAFO65r+crx74UufAnjnWvA94/mTaNf3Ni7Yxua3laInHOMlelc1BdXNqS1tI0ZPXaSM/lUTu8jmSQlmY5JPJJNADaKKKANDSf8AkK23/XVP/QhX9D3/AAXB/wCRA8A/9hC9/wDRUdfzw6T/AMhW2/66p/6EK/oe/wCC4P8AyIHgH/sIXv8A6KjoA/nRooooAK/U/wD4I9f8ngL/ANgS+/nFX5YV+p//AAR6/wCTwF/7Al9/OKgDy/8A4Kj/APJ9fjn/ALhn/pstK+BIZpbeVZ4GKOhDKynBBHIII6EV99/8FR/+T6/HP/cM/wDTZaV8AUAf0Qf8EnP2vvGfxRvdS/Zp+L92+trBYPd6Zc3hM0rQoypNayu5YyLtcNHuzhQykldoH5A/tpfB7TPgP+094u+GehL5enWl2s9kgyQlvdxpcxRgnkiNZBHk8nbX23/wRo+HOv6/+0fqPxFhhcaX4f0qaOaf+Az3bKkUWe5KCR/YL7ivnz/gp34o07xV+2v4xn0tg8Vk1pZMwIOZLe1iSUcf3ZAyn6UAfAtFFFABX9G2v7v2If8AglFFo6t9l8S+NYAjBvlcXOsLulGOSrwWSlM9nQHIJFfjd+xb8FX+Pv7S/hb4ezw+dp7Xa3mog52iztf3swYgHHmBfLB/vOB3r7u/4LL/ABpj8W/GrR/gvpUgNr4RtPOuQv8Az+XwV9p/3IFiI9N7CgD6T/4JWeM9F+Pn7L/jP9knx1J5kVikyQggFlsNTDbtgI+9Dcb3BzwZF9K/ATx34M1z4deNdW8A+Jo/K1DRbyayuFGcCSByjYJ6gkZB7jBr6s/4J7fG4fAn9qrw34hvpTHperS/2RqHOF8i8IRXYn+GKby5W9kNfUX/AAWK+CCeAfj9Y/FjSYRHY+M7UtMVGB9uswscvTpvjaJu25tx5OaAPyGooooAKKKKACiiigAooooAKKKKACiiigAooooAKKKKACiiigAooooAKKKKACvoD9k7/k6f4af9jVo3/pdDXz/X0B+yd/ydP8NP+xq0b/0uhoA/t8ooooA//9Nv/Bc7/ml3/cb/APbCvwBr9/v+C53/ADS7/uN/+2FfgDQAUUUUAFFFFABRRRQAUUUUAFFFFABRRRQAUUUUAFFFFABRRRQAUUUUAFFFFAH03+x18FT+0B+0h4W+GtxEZbC4uxcahjoLO2HnTgntvRSgP95hX7wf8FM/2YP2m/2oNc8M+GvhJp9rL4b0O3kncy3UcBe8mbYRsZuVjiRdhwMF3FfPn/BHb4baR4H8C+Of2rPGRENpawyWEEpGTHbWqC6vZPcHEQGO6MK+BfFn/BTP9sTWvFOpaxoPjG502xurqaW2tEgtWW3hdy0cQYwkkIpC5JJOMnmgDsv+HSX7aP8A0B9P/wDBhB/jX60/8Ez/ANm/9pH9mqx8T/D/AOM+nWsfh/VfLvLUxXUdwFuQPKlUopPEse3Jxj93g9a/EX/h5B+21/0P13/4D2n/AMYrrPAX/BTb9rnQfG+ka14u8XXGq6Va3kMt5ZvBbATwK4MseUiRhuTIBDDmgD59/aw+C837P/7Qnif4W7GS0sbxpLEtn5rOf97bnJJziNlUnP3ge9fO1fvp/wAFk/hRpnifw94M/ak8HAXFrdQrpt3PHyrwTKbmyl47HdKCx67kHpX4F0AFX9L1XU9D1KDWdFuZbO8tZFlhngdo5I5EOVdHUhlYHkEEEGqFfsF8Yv2BfhJof7COk/tS/Cu41a81abT9Nv76GeaKSBEuAi3WxEhVx5Urd3O1VJJOM0Aee/DX/grl+1t4C0+HStcn03xRDCAofU7dvP2jpmW3eEsf9pwxPck19JeHP+C4HjqCSMeLfAVhdJkeYbO8ltzjuVEkc35E/jX4W0UAf056XpP7EH/BU3wZqY8P6YPDfjezhLvKIUh1C3JOFmfyj5d3AWO0hiSAcfu2ZTX86vxg+Ffin4JfE3WfhT40RU1LRLgwSlM7HGA0ciZwdkiMrrkA7WGQK+3P+CTlh4puv209AuvD+8WltaX76iVBK/ZjbSIofHYzmLGf4sdehvf8Fb7zRbr9s7VYtKKma306wju9vXzvK3DPv5TR/higD8zKKKKANDSf+Qrbf9dU/wDQhX9D3/BcH/kQPAP/AGEL3/0VHX88Ok/8hW2/66p/6EK/oe/4Lg/8iB4B/wCwhe/+io6AP50aKKKACv1P/wCCPX/J4C/9gS+/nFX5YV+p/wDwR6/5PAX/ALAl9/OKgD9L/wBqP9kT9gX4ofHbXfHXxr+J/wDwjvie++y/bNP/ALa0u08nyrWKKL9xcwvKm+JEf5mOd2RwQK434Z/8Eu/+CffxBvZrj4f+OtQ8XLYbTcw2WsaddIm/OzzfsluHTdtOPmGcHHSvyy/4Kj/8n1+Of+4Z/wCmy0r5/wD2Zv2iPGn7MPxZsPih4NbzPKPk3toxwl3aOwMsLHnGcAq2DtcBsHGCAfuT8d/26f2ev2IvB2ofs7fso6EE8QWDywSK0EsVvZXBG1pp3uB5t1MAFI+8rADMmAFP84up6nqOtalcazq873N3dyvNPNKxZ5JJCWd2Y8lmYkknqa/on/bm/Z18F/ts/BHT/wBsb9m9PtmsxWYkuYIlHnXttEMPE6KT/pVqQy45LAFAWxHX85VABRRVi0tLm/uorGzQyTTOscaLyWZjgAe5PFAH9CP/AARV+Cv2Dw74o/aB1W2JlvHGj6c5ABMUWJbkrnHDv5Sg5xlGHrXyt8V/+Ca37dfxb+Jeu/E3xDpNg15rl9NeODqMJCea5KxrljhUXCKOygCvvL9qj4g67/wT0/Yb8FfCH4X3o07xTeGK1W5iVHKtH/pOoTqHV0O6ZwnIOBLkcivx8/4eQfttf9D9d/8AgPaf/GKAPUh/wSU/bSUhl0jTwR0P9oQf41+vf7YfwP8AiH8Y/wDgnrFa/Ey1WPxv4RsYdVmCSLMHnsI2S5YOrEN50HmOBk/MQMZFfhl/w8g/ba/6H67/APAe0/8AjFfqJ/wS7/bc+KPxs+JWufB74861/bct/Y/a9Ne4jhQ7oDieECNUD74334IOBG3bNAH87lFfRf7WXwWm/Z+/aF8T/C4RtHZ2V40lgWyd1lP+9tzuP3sRsFY/3gR1FfOlABRRRQAUUUUAFFFFABRRRQAUUUUAFFFFABRRRQAUUUUAFFFFABRRRQAV9Afsnf8AJ0/w0/7GrRv/AEuhr5/r6A/ZO/5On+Gn/Y1aN/6XQ0Af2+UUUUAf/9Rv/Bc7/ml3/cb/APbCvwBr9/v+C53/ADS7/uN/+2FfgDQAUUUUAFFFFABRRRQAUUUUAFFFFABRRRQAUUUUAFFFFABRRRQAUUUUAFSwQS3M6W0A3PIwVR6knAFRUUAf0Tftc+K/DH7Kv/BOPQP2dPBepWk2sa1FDpt59jmjkb583Woy/KzfLJJmI9flkwD0r+dmiigAooooA/o0/ZT8XeFf2tf+CcWsfs8eNNVtYNc0W3l0u1a9lSMgxfv9MkBc/cjIWLjnbGR3zX86E8E1tO9tcKUkjYqynggg4IP0NRUUAFfsj/wTs/b48FfDHwpN+zR+0YqyeD77zks7uaMzRWwucma2uIwGzbyszHcAdrM24bGyn43UUAf0P+PP+CQnwW+Lbjx/+zN45jsdHv8A95FAQupWgzziG4jlVwvTh/MI5+boK860H/gh94ukvV/4Sjx/ZwWwPzG1spJXI9BvkjA+vP0r8QtB8UeJvC1w134Y1G606VsZe1meFjjpkoQeK6PWPiz8VPENobDX/E2q30DLtMdxezyoVxjG13IxjjFAH9EN58SP2Lf+CXXw+1Pw78LLmPxP46vE2yx+clxdyyr9wXcsQCW0KE58sBWI5Cs3zV/Oh8QvHvif4peONV+InjO4N1qmsXL3VzJ0BdznCjsqjCqvQKAB0rjaKACiiigC/pRC6pbMxwBKmT/wIV/QL/wWr8SeHde8B+BI9Dv7a9aO/vC4glSQqDFHjO0nGa/nrooAKKKKACv0/wD+CRmraVov7W63usXMVpD/AGNer5kzrGuSYsDLEDNfmBRQB95/8FN9R0/Vv24PG+oaXPHcwSf2btkiYOjY0y1Bwykg4IIPvXwZRRQB+lH/AATj/bVuP2YPiKfB/jSdm8E+IpkW8B5FncH5Uu0GeABhZgOSgBwSig+of8FPf2VPBHgjxK37QfwUvLG40HXJgdSs7SeJ/sl3KciaNEPEE55OMhJDjhXUD8h6KACvvv8A4JqfDLRfiH+1boeqeKbi3ttK8LhtZna5kWNWktyBbqpZgC3nsjY5yqtxivgSigD9Lv8Agqt8crf4v/tQXOgaHdLc6R4St002Bo2DRtOf3ty6kdfnYRnn/lmMV+aNFFABXr3wD+K2pfA74zeG/ixpe4vol9HPIq8GSAnZPH1H+siZ0PPQ15DRQB+7X/BYbwh4G8caT4P/AGkPAGo2l8Zohpl55Equ7QSqbi0lKLyAMyqxbn5kFfhLRRQAUUUUAFFFFABRRRQAUUUUAFFFFABRRRQAUUUUAFFFFABRRRQAUUUUAFfQH7J3/J0/w0/7GrRv/S6Gvn+voD9k7/k6f4af9jVo3/pdDQB/b5RRRQB//9Vv/Bc7/ml3/cb/APbCvwBr9/v+C53/ADS7/uN/+2FfgDQAUUUUAFFFFABRRRQAUUUUAFFFFABRRRQAUUUUAFFFFABRRRQAUUUUAFFFFABRRRQAUUUUAFFFFABRRRQAUUUUAFFFFABRRRQAUUUUAFFFFABRRRQAUUUUAFFFFABRRRQAUUUUAFFFFABRRRQAUUUUAFFFFABRRRQAUUUUAFFFFABRRRQAUUUUAFFFFABRRRQAUUUUAFfQH7J3/J0/w0/7GrRv/S6Gvn+voD9k7/k6f4af9jVo3/pdDQB/b5RRRQB//9Zv/Bc7/ml3/cb/APbCvwBr9/v+C53/ADS7/uN/+2FfgDQAUUUUAFFFFABRRRQAUUUUAFFFFABRRRQAUUUUAFFFFABRRRQAUUUUAFFFFABRRRQAUUUUAFFFFABRRRQAUUUUAFFFFABRRRQAUUUUAFFFFABRRRQAUUUUAFFFFABRRRQAUUUUAFFFFABRRRQAUUUUAFFFFABRRRQAUUUUAFFFFABRRRQAUUUUAFFFFABRRRQAUUUUAFfQH7J3/J0/w0/7GrRv/S6Gvn+voD9k7/k6f4af9jVo3/pdDQB/b5RRRQB//9f9vfHXwn+FnxQ+y/8ACy/DWleIvsO/7N/adnBd+T5u3zPL85H2b9i7tuM7RnoK8/8A+GT/ANln/omnhX/wTWP/AMZr3+igDwD/AIZP/ZZ/6Jp4V/8ABNY//GaP+GT/ANln/omnhX/wTWP/AMZr3+igDwD/AIZP/ZZ/6Jp4V/8ABNY//GaP+GT/ANln/omnhX/wTWP/AMZr3+igDwD/AIZP/ZZ/6Jp4V/8ABNY//GaP+GT/ANln/omnhX/wTWP/AMZr3+igDwD/AIZP/ZZ/6Jp4V/8ABNY//GaP+GT/ANln/omnhX/wTWP/AMZr3+igDwD/AIZP/ZZ/6Jp4V/8ABNY//GaP+GT/ANln/omnhX/wTWP/AMZr3+igDwD/AIZP/ZZ/6Jp4V/8ABNY//GaP+GT/ANln/omnhX/wTWP/AMZr3+igDwD/AIZP/ZZ/6Jp4V/8ABNY//GaP+GT/ANln/omnhX/wTWP/AMZr3+igDwD/AIZP/ZZ/6Jp4V/8ABNY//GaP+GT/ANln/omnhX/wTWP/AMZr3+igDwD/AIZP/ZZ/6Jp4V/8ABNY//GaP+GT/ANln/omnhX/wTWP/AMZr3+igDwD/AIZP/ZZ/6Jp4V/8ABNY//GaP+GT/ANln/omnhX/wTWP/AMZr3+igDwD/AIZP/ZZ/6Jp4V/8ABNY//GaP+GT/ANln/omnhX/wTWP/AMZr3+igDwD/AIZP/ZZ/6Jp4V/8ABNY//GaP+GT/ANln/omnhX/wTWP/AMZr3+igDwD/AIZP/ZZ/6Jp4V/8ABNY//GaP+GT/ANln/omnhX/wTWP/AMZr3+igDwD/AIZP/ZZ/6Jp4V/8ABNY//GaP+GT/ANln/omnhX/wTWP/AMZr3+igDwD/AIZP/ZZ/6Jp4V/8ABNY//GaP+GT/ANln/omnhX/wTWP/AMZr3+igDwD/AIZP/ZZ/6Jp4V/8ABNY//GaP+GT/ANln/omnhX/wTWP/AMZr3+igDwD/AIZP/ZZ/6Jp4V/8ABNY//GaP+GT/ANln/omnhX/wTWP/AMZr3+igDwD/AIZP/ZZ/6Jp4V/8ABNY//GaP+GT/ANln/omnhX/wTWP/AMZr3+igDwD/AIZP/ZZ/6Jp4V/8ABNY//GaP+GT/ANln/omnhX/wTWP/AMZr3+igDwD/AIZP/ZZ/6Jp4V/8ABNY//GaP+GT/ANln/omnhX/wTWP/AMZr3+igDwD/AIZP/ZZ/6Jp4V/8ABNY//GaP+GT/ANln/omnhX/wTWP/AMZr3+igDwD/AIZP/ZZ/6Jp4V/8ABNY//GaP+GT/ANln/omnhX/wTWP/AMZr3+igDwD/AIZP/ZZ/6Jp4V/8ABNY//GaP+GT/ANln/omnhX/wTWP/AMZr3+igDwD/AIZP/ZZ/6Jp4V/8ABNY//GaP+GT/ANln/omnhX/wTWP/AMZr3+igDwD/AIZP/ZZ/6Jp4V/8ABNY//GaP+GT/ANln/omnhX/wTWP/AMZr3+igDwD/AIZP/ZZ/6Jp4V/8ABNY//GaP+GT/ANln/omnhX/wTWP/AMZr3+igDwD/AIZP/ZZ/6Jp4V/8ABNY//GaP+GT/ANln/omnhX/wTWP/AMZr3+igDwD/AIZP/ZZ/6Jp4V/8ABNY//GaP+GT/ANln/omnhX/wTWP/AMZr3+igDwD/AIZP/ZZ/6Jp4V/8ABNY//GaP+GT/ANln/omnhX/wTWP/AMZr3+igDwD/AIZP/ZZ/6Jp4V/8ABNY//GaP+GT/ANln/omnhX/wTWP/AMZr3+igDwD/AIZP/ZZ/6Jp4V/8ABNY//GaP+GT/ANln/omnhX/wTWP/AMZr3+igDwD/AIZP/ZZ/6Jp4V/8ABNY//GaP+GT/ANln/omnhX/wTWP/AMZr3+igDwD/AIZP/ZZ/6Jp4V/8ABNY//GaP+GT/ANln/omnhX/wTWP/AMZr3+igDwD/AIZP/ZZ/6Jp4V/8ABNY//GaP+GT/ANln/omnhX/wTWP/AMZr3+igDwD/AIZP/ZZ/6Jp4V/8ABNY//GaP+GT/ANln/omnhX/wTWP/AMZr3+igDwD/AIZP/ZZ/6Jp4V/8ABNY//GaP+GT/ANln/omnhX/wTWP/AMZr3+igDwD/AIZP/ZZ/6Jp4V/8ABNY//GaP+GT/ANln/omnhX/wTWP/AMZr3+igDwD/AIZP/ZZ/6Jp4V/8ABNY//Ga0NJ/Zl/Zu0DVbbXdC+H3hqyvrKVJ7e4g0mzjliljYMkkbrEGV1YAqwIIIBHNe30UAFFFFAH//2Q==;" parent="8_lOqyAqj8u2YSckU1qC-73" vertex="1">
                    <mxGeometry x="7.8500000000000005" y="7.51" width="120.29" height="49.99" as="geometry"/>
                </mxCell>
                <mxCell id="8_lOqyAqj8u2YSckU1qC-80" value="&lt;b&gt;Prompt Template&lt;/b&gt;" style="rounded=0;whiteSpace=wrap;html=1;sketch=1;sketchStyle=rough;" parent="1" vertex="1">
                    <mxGeometry x="346" y="592" width="83" height="33" as="geometry"/>
                </mxCell>
                <mxCell id="aUIbM6phszjy0wtiQAA0-10" style="edgeStyle=none;html=1;entryX=0;entryY=0.5;entryDx=0;entryDy=0;flowAnimation=1;strokeColor=#1c3c3c;" parent="1" source="aUIbM6phszjy0wtiQAA0-1" target="aUIbM6phszjy0wtiQAA0-8" edge="1">
                    <mxGeometry relative="1" as="geometry"/>
                </mxCell>
                <mxCell id="aUIbM6phszjy0wtiQAA0-1" value="" style="shape=image;verticalLabelPosition=bottom;labelBackgroundColor=default;verticalAlign=top;aspect=fixed;imageAspect=0;image=data:image/png,iVBORw0KGgoAAAANSUhEUgAABmQAAAEuCAYAAACQ432pAAABX2lDQ1BJQ0MgUHJvZmlsZQAAKJFtkM9LAlEQx7+rhv2QEIkO4cFbBJvEJlp0Mg8ReBBN+kFg69PWQu2xuxVBh44dO0T/QNE5OmTHoGu3oCA6dAzqFuylZJvnVqvVDI/vh+H7ZoYBPN0q51UfgFrd1LMz05GFxaWI/xkehDGIAEIqM3gyk0mTBd/aGdYdJKG3o6LXy9bKIdsbKkw8nZ3L+97jv/6O6C2VDUb6QS/KuG4Ckkyc2Ta54F3iAZ2WIj4QrDl8Irjo8GXLM5dNEd8QB1lFLRE/EsvFtrrWxrXqJvvaQWwfKNfzOdIQvTDSyEFBAknEMUaZp/v874+1/ClsgGMHOtagoQITEfrLKasoE8+iDoYoZGKF+imIiTv/vp9bMzRgMk6jetza8hRwUQD6X93aMM0PrgPXCa7q6s9VJctnrI4rDvc1gK4j236bB/wjQPPett8btt08BbwPwJX1CTGYYREdmBRPAAAAimVYSWZNTQAqAAAACAAEARoABQAAAAEAAAA+ARsABQAAAAEAAABGASgAAwAAAAEAAgAAh2kABAAAAAEAAABOAAAAAAAAAJAAAAABAAAAkAAAAAEAA5KGAAcAAAASAAAAeKACAAQAAAABAAAGZKADAAQAAAABAAABLgAAAABBU0NJSQAAAFNjcmVlbnNob3SJ67v0AAAACXBIWXMAABYlAAAWJQFJUiTwAAAB12lUWHRYTUw6Y29tLmFkb2JlLnhtcAAAAAAAPHg6eG1wbWV0YSB4bWxuczp4PSJhZG9iZTpuczptZXRhLyIgeDp4bXB0az0iWE1QIENvcmUgNi4wLjAiPgogICA8cmRmOlJERiB4bWxuczpyZGY9Imh0dHA6Ly93d3cudzMub3JnLzE5OTkvMDIvMjItcmRmLXN5bnRheC1ucyMiPgogICAgICA8cmRmOkRlc2NyaXB0aW9uIHJkZjphYm91dD0iIgogICAgICAgICAgICB4bWxuczpleGlmPSJodHRwOi8vbnMuYWRvYmUuY29tL2V4aWYvMS4wLyI+CiAgICAgICAgIDxleGlmOlBpeGVsWURpbWVuc2lvbj4zMDI8L2V4aWY6UGl4ZWxZRGltZW5zaW9uPgogICAgICAgICA8ZXhpZjpQaXhlbFhEaW1lbnNpb24+MTYzNjwvZXhpZjpQaXhlbFhEaW1lbnNpb24+CiAgICAgICAgIDxleGlmOlVzZXJDb21tZW50PlNjcmVlbnNob3Q8L2V4aWY6VXNlckNvbW1lbnQ+CiAgICAgIDwvcmRmOkRlc2NyaXB0aW9uPgogICA8L3JkZjpSREY+CjwveDp4bXBtZXRhPgrHKlgeAAAAHGlET1QAAAACAAAAAAAAAJcAAAAoAAAAlwAAAJcAAEtsLBn2gQAAQABJREFUeAHs3Qn8VFP/wPHvP3vbI/uaPJZUCFGeUvJkF+1alIqypYiSnciWXVIqaZNIKksLlUiptFizhGR5RHaV6MH/nh/3MU0z87szc8655977ua9Xzfzucs73vM/dvzN3/u/ndb//IQwIIIAAAggggAACCCCAAAIIIIAAAggggAACCCCAAALGBP6PhIwxWwpGAAEEEEAAAQQQQAABBBBAAAEEEEAAAQQQQAABBEoESMiwIiCAAAIIIIAAAggggAACCCCAAAIIIIAAAggggAAChgVIyBgGpngEEEAAAQQQQAABBBBAAAEEEEAAAQQQQAABBBBAgIQM6wACCCCAAAIIIIAAAggggAACCCCAAAIIIIAAAgggYFiAhIxhYIpHAAEEEEAAAQQQQAABBBBAAAEEEEAAAQQQQAABBEjIsA4ggAACCCCAAAIIIIAAAggggAACCCCAAAIIIIAAAoYFSMgYBqZ4BBBAAAEEEEAAAQQQQAABBBBAAAEEEEAAAQQQQICEDOsAAggggAACCCCAAAIIIIAAAggggAACCCCAAAIIIGBYgISMYWCKRwABBBBAAAEEEEAAAQQQQAABBBBAAAEEEEAAAQRIyLAOIIAAAggggAACCCCAAAIIIIAAAggggAACCCCAAAKGBUjIGAameAQQQAABBBBAAAEEEEAAAQQQQAABBBBAAAEEEECAhAzrAAIIIIAAAggggAACCCCAAAIIIIAAAggggAACCCBgWICEjGFgikcAAQQQQAABBBBAAAEEEEAAAQQQQAABBBBAAAEESMiwDiCAAAIIIIAAAggggAACCCCAAAIIIIAAAggggAAChgVIyBgGpngEEEAAAQQQQAABBBBAAAEEEEAAAQQQQAABBBBAgIQM60BeAr/9/rusXbdWflqzRtZ4r2vWev+817Xe60/+qxrn/Vv787o/p3vvf93wa171MDMCCCRDYLPNNpNyZctJ+bJlvX/ea7ly3t/ee+9V/V3y3nutUL68lN2mrFQomV5Ottl662QA0UoEEEAAAQQQQAABBBBAAAEEEEAAgdgIkJCJTVfqbciKTz8R9W/lZ5/Ix59+Kiu81xWffCKrVn+ptyJKQwABBAoQ2HqrrWTvPfeSKntW9l4rS5U99vzf+20r/qOAElkEAQQQQAABBBBAAAEEEEAAAQQQQAABswIkZMz6Ol36qtVflSRdVny6siTpsvIzP/Gy0um4CQ4BBBDIJaASMntX9pI1Kknj/StJ2Hh/771HZVGJHAYEEEAAAQQQQAABBBBAAAEEEEAAAQTCECAhE4Z6SHV+vuoLmb9kkcx5dYG87P374ccfQoqEahFAAIFwBA48oLrUP6KOHOX9O/zgQ6RMmTLhBEKtCCCAAAIIIIAAAggggAACCCCAAAKJEyAhE+Mu/95LuCx64zVZ+NrSkgTM8hUfxri1NA0BBBDIT2DLLbeU+ofXkXq160itg2pK9f2q5lcAcyOAAAIIIIAAAggggAACCCCAAAIIIJCHAAmZPLBcn3XDhg2y6M3XZYn379XXl8rcRQtdD5n4EEAAAWcEdt91N6lXq7aXnDm4JEGzl/e4MwYEEEAAAQQQQAABBBBAAAEEEEAAAQR0CZCQ0SUZUjn/+XKVzJz7kixYukQWe4mYr7/9JqRIqBYBBBCIl8BB3uPN1GPNjq7zL6nnPeKMAQEEEEAAAQQQQAABBBBAAAEEEEAAgWIESMgUoxfSsmvWrZNZXhJm5tw5MmveHFm/fn1IkVAtAgggkAyBat7jzP5dr74c6/07sGq1ZDSaViKAAAIIIIAAAggggAACCCCAAAIIaBUgIaOV02xhLy6YJ7NeniMzvGTMV1+vNlsZpSOAAAIIZBQ48rDDpZGXmPl33fpSefc9Ms7DSAQQQAABBBBAAAEEEEAAAQQQQAABBNIFSMikizj292vL3pKZL3vfhvH+Lf/4I8eiIxwEEEAguQKbb7aZ962ZBtLoqAZyrPevYvkKycWg5QgggAACCCCAAAIIIIAAAggggAACpQqQkCmVyP4MH32y8s9Hks17WRa9vtR+ANSIAAIIIJCXwPaVtit5pJn65kwjL0nDgAACCCCAAAIIIIAAAggggAACCCCAQLoACZl0kRD/XvLWG/LElKdl/DOTQ4yCqhFAAAEEihGosf8Bcnrj0+T0U5uJ+hYNAwIIIIAAAggggAACCCCAAAIIIIAAAkqAhIwD68ErSxbJ+Gefkqefn+ZANISAAAIIIKBD4IB99pNWKjHTuKlsvdVWOoqkDAQQQAABBBBAAAEEEEAAAQQQQACBCAuQkAmx81545WUvEfO0PP/SCyFGQdUIIIAAAiYF9qmyt7Ru3MRLzjSV8mXLmqyKshFAAAEEEEAAAQQQQAABBBBAAAEEHBYgIRNC50ybPVOe8BIxLy6YF0LtVIkAAgggEIZAlT0ry+mnnCatT2smFctXCCME6kQAAQQQQAABBBBAAAEEEEAAAQQQCFGAhIxF/MnPTS15NNmCpYst1kpVCCCAAAIuCeyx2+4liZnTvW/NbF9pO5dCIxYEEEAAAQQQQAABBBBAAAEEEEAAAYMCJGQM4vpFP/bMpJJvxLz29pv+KF4RQAABBBIusMuOO0vrU5vIGc1aSqV/bJtwDZqPAAIIIIAAAggggAACCCCAAAIIxF+AhIzBPp776gIZOm6MqFcGBBBAAAEEMgn8s/Je0rVtB2npPc6MAQEEEEAAAQQQQAABBBBAAAEEEEAgvgIkZAz07RdffSlDx46W0U8+bqB0ikQAAQQQiKNAo3oNpGu7DlLroJpxbB5tQgABBBBAAAEEEEAAAQQQQAABBBIvQEJG8yqgkjAqGaOSMgwIIIAAAgjkK9C13ZneN2ba8xizfOGYHwEEEEAAAQQQQAABBBBAAAEEEHBcgISMpg7i8WSaICkGAQQQQEB4jBkrAQIIIIAAAggggAACCCCAAAIIIBA/ARIyRfYpjycrEpDFEUAAAQSyCvAYs6w0TEAAAQQQQAABBBBAAAEEEEAAAQQiJ0BCpogu4/FkReCxKAIIIIBAYAEeYxaYihkRQAABBBBAAAEEEEAAAQQQQAABZwVIyBTQNYvffF0GjBgm6jFlDAgggAACCNgQUI8xO79DZ2l6wsk2qqMOBBBAAAEEEEAAAQQQQAABBBBAAAHNAiRk8gRV34q5ffD98vP69XkuyewIIIAAAggUL9D59HZy2fndZfPNNiu+MEpAAAEEEEAAAQQQQAABBBBAAAEEELAmQEImIPX3P/4g/b1EzPhnJgdcgtkQQAABBBAwI1Dn0FrSx0vKHHRAdTMVUCoCCCCAAAIIIIAAAggggAACCCCAgHYBEjIBSOcuWljyrZi33383wNzMggACCCCAgHmBCuUreN+UuVDanNrMfGXUgAACCCCAAAIIIIAAAggggAACCCBQtAAJmVIIHxo3Rm4bNED++OOPUuZkMgIIIIAAAvYF2jVpIb29b8uUL1vWfuXUiAACCCCAAAIIIIAAAggggAACCCAQWICETBaqVau/KnlE2dPPT8syB6MRQAABBBBwQ6Bm9QNLHmF2RM1D3QiIKBBAAAEEEEAAAQQQQAABBBBAAAEENhEgIbMJicjMeXPkDu/3Yj74eEWGqYxCAAEEEEDAPYEtt9xSep93oXRq2ca94IgIAQQQQAABBBBAAAEEEEAAAQQQQEBIyKStBANHPiT3PPRg2lj+RAABBBBAIBoCzU9q7P22THfZfttK0QiYKBFAAAEEEEAAAQQQQAABBBBAAIGECJCQ+aujf16/XnrfdL1Mf3FWQrqeZiKAAAIIxFWg2r77yw2X9pFDahwU1ybSLgQQQAABBBBAAAEEEEAAAQQQQCByAiRkvC77+ttvpOcN18j8JYsi14EEjAACCCCAQCaB7SttJ/16XyHHHnV0psmMQwABBBBAAAEEEEAAAQQQQAABBBCwLJD4hMyKTz+RHtdeIe9+uNwyPdUhgAACCCBgXqDfZVdK68ZNzVdEDQgggAACCCCAAAIIIIAAAggggAACOQUSnZB567135PyrLpNVX32ZE4mJCCCAAAIIRFmg59nnygUdz45yE4gdAQQQQAABBBBAAAEEEEAAAQQQiLxAYhMy6vFkXfv0lPW//BL5TqQBCCCAAAIIlCbQofnpcu3FvUqbjekIIIAAAggggAACCCCAAAIIIIAAAoYEEpmQmfHyi3L+lb0NkVIsAggggAACbgqcdMyxcl/fm90MjqgQQAABBBBAAAEEEEAAAQQQQACBmAskLiEzafoU6X3T9THvVpqHAAIIIIBAZoHahxwmj9w3OPNExiKAAAIIIIAAAggggAACCCCAAAIIGBNIVEJmzMTx0vfu241hUjACCCCAAAJRENhnryoybfTjUQiVGBFAAAEEEEAAAQQQQAABBBBAAIHYCCQmITN4zAi5c8gDsek4GoIAAggggEAxAhUrVJTFz84opgiWRQABBBBAAAEEEEAAAQQQQAABBBDIQyARCZmHH3tEbh54bx4szIoAAggggED8Bbbeemt587mX4t9QWogAAggggAACCCCAAAIIIIAAAgg4IBD7hMyUF2bIRddd6QA1ISCAAAIIIOCewP577yPPjnzUvcCICAEEEEAAAQQQQAABBBBAAAEEEIiZQKwTMq++vlTadT83Zl1GcxBAAAEEENArcOxRR8ugm/mNNb2qlIYAAggggAACCCCAAAIIIIAAAghsLBDbhMyb7y6T5ud02ri1/GVEQH26utr+VaXybrtvVP5vv/8ua9askZ/Wev/+el22/H3v/U8bzccfCCCAAALhC5zV+gy5ottF4QdCBAgggAACCCCAAAIIIIAAAggggEBMBWKZkHl/xYdySse2Me2ycJu1+eabS62DakrdWkdIgzr/kgP23V8232yzvIL6fNUX8s7y92TZB8tl1tw58vb77+a1PDMjgAACCJgRuKrHJdKpZRszhVMqAggggAACCCCAAAIIIIAAAgggkHCB2CVkPvn8M2ncuZ38vH59wrtWb/NrVK0mbU5rKo3q1pcdt99Ba+EqQTN7/lxZ+NpSmf3Ky7Lu55+1lk9hCCCAAALBBW69/BppcfKpwRdgTgQQQAABBBBAAAEEEEAAAQQQQACBQAKxSsh8ufor6dCzm6z4ZGWgxjNT6QJ+IqbNqc1Kn1nDHCo5M/WFGTLlhZmiHjvHgAACCCBgX2DADbfIiQ0b2a+YGhFAAAEEEEAAAQQQQAABBBBAAIEYC8QmIfPDTz9Kt6v7yIKli2PcXXab1r1zV+nh/QtrmDlvjox5cry8vHB+WCFQLwIIIJBYgYfvuE+Oqn1kYttPwxFAAAEEEEAAAQQQQAABBBBAAAHdArFIyKz/5Re50EvGvLhgnm6fxJY35t5BUufQWk60/6nnp8mYiU/I0rfecCIegkAAAQSSIFChfAV56PZ75NAaByWhubQRAQQQQAABBBBAAAEEEEAAAQQQMC4Qi4SM+mbMcy+9YBwrKRUsf2mhk00d9uhouW3QACdjIygEEEAgjgJV9qwsA/vdJvvvvU8cm0ebEEAAAQQQQAABBBBAAAEEEEAAAasCkU/I9B98vwwdO8oqWpwrG+Z9GvroOnWdbeLs+XPllvvvkY/4nSBn+4jAEEAgXgL1a/9Lht9xb7waRWsQQAABBBBAAAEEEEAAAQQQQACBEAQinZB5ZsZ06XnDNSGwxbPKPud3ly5tOzjfuM9XfSE3eUmZ5/lWlPN9RYAIIBAPgXPbd5Je51wQj8bQCgQQQAABBBBAAAEEEEAAAQQQQCAkgcgmZD5c+bF0vrS7fPHVlyHRxavaM1u0lmsuujRSjbrlgftk+LgxkYqZYBFAAIGoCtzX92Y56Zhjoxo+cSOAAAIIIIAAAggggAACCCCAAAKhC0Q2IXP+Fb1kxtyXQgeMQwB77ra7jLt/iOy0w46Ra859Dw+VAd4/BgQQiKdA2W22ke22rSSV/rFtSQO/+/EH+e7772TtunXxbLDDrdp9l13l4TsHyN7e78owIIAAAggggAACCCCAAAIIIIAAAgjkLxDJhMy9w4fI/SOG5d9alsgo0O+yK6V146YZp0Vh5I333imjJjwWhVCJEQEE0gS23mor+Xe9BnJQ1QNKEi/bVaok23sJGD8JoxIymYb1v/wi3/3wvXzrJWfUv+9++KHkdeVnn8lzc2bLV1+vzrQY44oUOLZ+Qxl0U/8iS2FxBBBAAAEEEEAAAQQQQAABBNwTUPcaXlowT5a89ab49yMmTntWypQpI02OP6kk4DL/939y6IEHS73Da7vXACKKhEDkEjIzvBtt5191WSRwoxBkgzp15aHb74lCqDljPLNnN3ll8as552EiAgi4IbDLTjtL3VpHyHH1j5ZjjzraSFBL3npDpr34gsx7dYG899EHRupIaqEXnXWOXNipS1KbT7sRQAABBBBAAAEEEEAAAQRiJvDOB+/L6CfHi0q+/Pe//83Zuu6du5Y8rWfbiv+QZieeIh2atxL19CEGBIIKRCoho37MvXOvHrLik5VB28d8pQhcdt6F0rXdmaXMFY3JTbt2lLffeycawRIlAgkTOGCf/aSu9+mRo2rXkfpHHGm19Wq/8OKCV2TuooWy8LUlVuuOa2WDb7lDGnnfbGJAAAEEEEAAAQQQQAABBBBAIMoC6ucQ/CHfn0U4o2lL2cZ7ssdW3tM/LvY+vMiAQBCBSCVkLrr+Kpky6/kg7WKegAITh46UA6tWCzi327O98+Fy6XDRBfKD9xsTDAgg4IZAy1NOkzanNpWa1Q90IqAVn34ik56bKmO8T778+NOPTsQUxSD22atKye/J7Op924kBAQQQQAABBBBAAAEEgguk3vwNvlSwOesccpjUObRWsJmZC4GEC3zkfeD/mZnPaftt6gvOPEvaNmkuu+y4U8JlaX5pApFJyDz4yEi548GBpbWH6XkIqE+sP/3wI3ks4f6sYyaOl7533+5+oESIQMwFTjrmWGnfrKXU9i4IXBxWfvapjJn4hDzi7TM2lPJ1ZBfjdyGmxseeIHdfe6MLoRADAggggAACCCCAAAKREdivgbnfnVDJmDH3DoqMBYEiEJaASow+/vQk+fJrvb8/u/eelUVdK/fwHmvGgEA2gUgkZOa8Ol/OurRHtjYwvkCBTq3aylXdexa4tLuL9bzhGnlmxnR3AyQyBGIs0KD2v+QM7/mp/657VCRauWz5eyWJmfHPTI5EvK4FGafHXrpmSzwIIIAAAggggAAC8RQgIRPPfqVV0RH47ofv5eHx42TQqOFGgla/MdO1bQfZZuutjZRPodEXcD4h8/P69dKmW1dRN80Y9AoMu/0eObpOXb2FOlCa+uT7mT27yX++XOVANISAQDIEah18iHTwvhFzSqPjI9ngRW+8VpKYedb7ujJDfgKPDnhQDq95aH4LMTcCCCCAAAIIIIAAAgkVICGT0I6n2c4IXHjN5TL9xVlG42ly/Elyx9V9jdZB4dEVcD4ho35MyeTzNaPbdcVFPu7+IaJuoMZ1UJ92v7L/TXFtHu1CwBmBSv/YVi499wJp3bipMzEVE8js+XNl4Mjh8trbbxZTTKKWVYl9leBnQAABBBBAAAEEEEAAgdIFSMiUbsQcCJgSmOz9pmyvfteZKn6jcgfccIuc2LDRRuP4AwEl4HRCRn0rRn07Rn1LhkGfwNwnn5WddthRX4GOlnROn0vkhVdedjQ6wkIg+gK1DqopV/e4RA6sWi36jUlpwU9rfpJ+A+6WJ6c+kzKWt7kErr24l3RofnquWZiGAAIIIIAAAggggAACngAJGVYDBMITUB/6Vx/+tzGoR5fxWzI2pKNXh9MJmYv7Xi08PkbfSrXj9jvIvIlT9BXoeEkLli6W9hed73iUhIdANAVannKa9xtUl0j5smWj2YAAUQ8eM0LuHPJAgDmZRSX51aPLKu++BxgIIIAAAggggAACCCCQQ4CETA4cJiFgUEA9EeONd5ZZTcgcVuMgOar2kQZbRdFRFHA2IaMSMSohw6BH4DDvk+yPDbSTAdYTsZ5S+t13l4x8YpyewigFAQRKBJL0Q+7PvfSCdLu6Dz0fQKBV4yZy82VXBZiTWRBAAAEEEEAAAQQQSK4ACZnk9j0tD1dA/bTB77//LhOmPG0lkI4t28ivv/4qN/S63Ep9VBIdAScTMuoRZepRZeqRZQzFC+yx2+7ywriJxRcUwRK++OpLaXFuZ1n9zdcRjJ6QEXBPYPAtd0ijeg3cC8xgRMs//khOPrONwRriU/TAfrfJ8Q2OiU+DaAkCCCCAAAIIIIAAApoFSMhoBqU4BAIKNDy9iXy+6ouAc+uZrcqeleX5R57QUxilxEbAyYSMepafeqYfQ/EC21faTmY/Plm23mqr4guLaAn3DB8iA0cMi2j0hI2AOwLTx4yXf1bey52ALEbym/cpmpPPbC0ffbLSYq3Rq+rAA6qXPLosycec6PUaESOAAAIIIIAAAgjYFCAhY1ObuhD4U+Cb776VI5ucaJ1D/Y5Mp1ZtpGL5CtbrpkJ3BZxLyKhvxahvx6hvyTAUJ1B2m21kWP975IiahxZXUMSXVtnvpl3OlO9//CHiLSF8BMIRKFOmjLw3e344lTtW60leUuaDj1c4FpVb4XTr1EUuPusct4IiGgQQQAABBBBAAAEEHBEgIeNIRxBGogSWvPWGtL6gSyhtVkmZHt4/BgR8AecSMup3Y9TvxzAUL/DATf3luPoNiy8oBiXc/uBAGfLIyBi0hCYgYFdgi803l2Wz5tmt1PHaqjeqJxs2bHA8yvDC23yzzeRR7zfLDql+YHhBUDMCCCCAAAIIIIAAAo4KkJBxtGMIK9YC6klM6olMYQzqA4vqg4sMCPgCTiVkVCJGJWQYihc4q017ueKCHsUXFJMSPv7sU2nW9UxZs3ZtTFpEMxAwL7CV96jDt56fY76iiNXw9nvvSNOuHSMWtd1w1e8Mqd8bYkAAAQQQQAABBBCIn8CCpYs3adSC15ZsMk6NqHPIYRuNr3NorY3+TuIfJGSS2Ou0OWyBMBMyfEMm7N53r35nEjLqEWXqUWXqkWUMxQnssdvu8rj36eQdt9+huIJitvTN998jDz8+NmatojkImBFQjzx8ffqLZgqPQakjxj8qNw24OwYtMdeEvpf2kXZNWpirgJIRQAABBBBAAAEEjAn4SReVaFmYkmzxx+uqWCVoav+VtFHJmyQkbEjI6Fp7KAeB4AIkZIJbMad5AWcSMuprY2rjYChe4LqevaV9s1bFFxSzEpZ//FHJb8n8+uuvMWsZzUFAr0D5cuVk6dQX9BYaw9JuuOcOGf3k4zFsmZ4m7bbzLvLE4OF8OEAPp1OlqBsx2T4FqyPQpNyM0WFFGQgggAACCOgS8BMtA0YMKynS/1tX+fmUE/ckDQmZfNYG5kVAj0BYCRn17Zjj6h8t1fbdX09DKCUWAk4kZL757ltp4v3o+perv4oFapiN2HWnnWXq6MelnPfpdoZNBfrefbuMmTh+0wmMQQCBEoGKFSrK4mdnoBFQ4MJrLpfpL84KOHfyZrv47HOlW8ezk9fwmLfY9MUMX+mP+QpE8xBAAAEEnBFQSRcXEjBBQNT5gRri8MPYJGSC9DjzIKBX4Psff5AjGh+nt9CApS3xPvBawfvgKwMCvoATCZlBo4bLXcMG+zHxWoRAp1Zt5aruPYsoId6LvvPB+9Lk7A7yxx9/xLuhtA6BAgS227aSLHhqegFLml0k/dN5Lj3GQD1us+MlF8rSt94wixDR0tWHBCYNGyVq3WKIjwAJmfj0JS1BAAEEEEiegJ+EST/HjpJE1JMzJGSitLYRa5wEjj+jpaz49BOrTdq3yt4yddRjVuukMvcFQk/IqAxlM+/HkT/74j/ua0UgwrEDHpQjah4agUjDC/G6O2+TsZMnhBcANSPgoMAO220vr0yaGnpk/gWiCqS0i8TURxmE+Um5Ze+/K83P7Sy//fZb6H4uBnDpORfIee07uRgaMRUoQEKmQDgWQwABBBBAIEQB/zy7tHPsEEMsqOooJmdIyBTU1SyEQNEC19/VX7arVEnUz2bYGNT+6ceffpKre1xiozrqiJBA6AmZIY+MlNsfHBghMndDrVG1mkwaOtLdAB2J7P0VH0qLczrJ+l9+cSQiwkAgXIGdd9xJXp7wTGhB6Lo49BM0YSRn+t13l4x8Ylxohi5XvOduu8tk71syFcpXcDlMYstDgIRMHljMigACCCCAQMgCpo/bITfvf9WHeS3wvyACviEhExCK2RDQLPDKkkXy6utLrSZk6tY6Qg4/+BDNLaG4qAuEmpBZs3atNO16pqz87NOoOzoR/zlndJTe53ZzIhbXg7h10AB56NHRrodJfAgYF1A/vP7i+KeM15OpApMXh+qTKDYTM+przy28b8n8tOanTE1N/Lg+53eXLm07JN4hLgAmt11lZHv7jUu/0A4EEEAAAQR8AV0fePLLi9JrFL4xQ0ImSmsUscZNwPS1TKoX1zWpGrxPFQg1IfPwY4/IzQPvTY2H90UIjLjrfql3eO0iSkjOouoReerm6bfff5ecRtNSBNIE9th1N3nhsUlpY83/GdcToLu930J7wPtNNIZNBfbes7JMHDpKypUtu+lExkROwPQ2zIVL5FYJAkYAAQQQcEig/UXnl/roX4fCNRaKy+cTJGSMdTsFI1CqwIw5s2XZB8uNf0tG7YNqVq8hR9epW2pMzJA8gdASMuqHkJt53475cOXHyVM31OLlLy00VHI8izV9QymearQqLgJ77bGnzBhr97eUwvykno0LstXffC3Nz+ksq1Z/GZfVRGs7rureUzq1aqu1TAoLR8D08dPG9hqOHLUigAACCCBgTkCda6tkDMPGAi6eV5CQ2biP+AsB2wJ9brlBnpxq9rHtZzRtKddfcpntplFfRARCS8iMnPCY9Lv3zogwuR9mxQoVZfGzM9wP1KEI1bdjWpx3lnz2n88diopQEDAvsM9eVWTa6MfNV5RSgwsXiDYuxh70fhftDn4XLaXn/3673977eN+SGSlbbbnl3yN5F0kBEjKR7DaCRgABBBCIqUCYH3qKEqmNa4GgHiRkgkoxHwJmBDZs2CCDxoww9i2Zbh3PlovPPtdM8JQaC4FQEjL//e9/pWmXM+W9jz6IBaILjVA/mjxr3EQXQolUDA+NGyO3PnBfpGImWASKEVA3xaeMfLSYIvJe1vTN23wCMn0htmbdOml1Xmf54OMV+YSVmHmvvbiXdGh+emLaG9eGmt6mTW+nce0X2oUAAgggkDwB08fkuIm6co5BQiZuaxbtiaKA2n9Onz1L3l/xodbwD67mPabsyLpWf9NWawMozIpAKAmZRyY9Idff1d9KA5NSSY2q1WSS98ljhvwE1v/yi7Q4p5P2HXB+UTA3AnYEDthnP3n64UfsVPZXLS5eJNY5tJaMuXeQMYcxE8dL37tvN1Z+lAuutu/+MnHYKNmsTJkoNyPxsZverl25WZL4jgYAAQQQQMBpAX4rprDuceE8g4RMYX3HUgjoFhg0+mH5xfu2zHrvZzXUB7aLGdS+xR96pLz3x/GKQKqA9YTMH3/8UfLtmGXL30uNg/dFCtQ6qKaMGzi0yFKSufjYyRPkujtvS2bjaXViBKrvV1UmPzTaantN37QtpjGmkzLHtmshKz/7tJgQY7ts30v7SLsmLWLbviQ0zPS27cKNkiT0I21EAAEEEIimAI8o09Nv6gNa6pogjIGETBjq1IlAdgGVmLn3oQflt99/zz5TjikVypWXi7qcKx1btM4xF5MQ+FvAekJm0vQp0vum6/+OgHdaBPatsrdMHfWYlrKSWMi5l18qs+bNSWLTaXMCBA48oLpMHDLCaktN37DV0RiTN33VN2TUN2UYNhVQX+Ge8ODDm05gTGQETG/fJrfNyCATKAIIIIAAAhkETB+DM1QZ61FhnXOQkIn1akXjIirw5eqvZPTEJ2TLLbYoaYF6DPnUFzL/VvfZbdpL2W22KZlPzX9Gs1ZSoVy5iLacsMMQsJ6Q6X7tFTJt9sww2hrrOnfYbnt5ZdLUWLfRZOPeeOdtadfjPPnFe4QZAwJxEqhZ/UB5YvBwq02K0oWiqYswleBViV6GzAKP3DdYah9yWOaJjHVewPQ2bmq7dB6WABFAAAEEEMghYPr4m6PqWE8K47yDhEysVykaFwOBxW++Lq+9/aZ8sPJj2XWnneXlhfPl/7zHbv+r1hHy448/yn7//KccduDBUvWf+8agtTQhDAGrCZnPV30hx53RUjZ4z+dj0Cuwxeaby7JZ87IW+s3338n221bKOp0JIuorincNNfe7EhgjYFsgjEcZRvFC0cTjCtRx7l/NTpYffvzBdrdHor6zvE8UXXFBj0jESpCbCpjezsO4MbJpKxmDAAIIIICAOwKmj73utDScSGyfe5CQCaefqRWBQgXUPnibrbaSru3OLLQIlkNgIwGrCZmREx6TfvfeuVEA/KFPYNrox2WfvapsUuDX334jl/a7To6pe5R0atlmk+mM+Fugw8UXyPwli/4ewTsEIipwhPftg7HetxBsDlG9UDT1ezKX33qjTJjytM0uiExdVfasLNO9Y1YZ71NGDNETML2t274pEr0eIGIEEEAAgSQJmD7uJskyV1ttnn+QkMnVE0xDAAEE4i9gNSHT8ZILZd6ihfFXDamFd1zdV5ocf9ImtV/Z/yYZ/8zkkvHqE/Nd23WQRvUabDIfI0Te/egD6dq7p6xa/SUcCERWYL+995EpIx+1Gn/ULxRNfEtGPZ5TPaaTIbPAoJv6y7H1G2aeyFinBUxv7zZviDgNTXAIIIAAAokXMH3MTTxwGoCtcxASMmnw/IkAAggkTMBaQubt99+Vpl34apfJ9auj9+2Xq3tcslEV6jmHnXtt+liYlqecJo28b8w0qFNXttxyy42WyfWHeobi2p9/lnqH1841W6SnLXnrDWl9QZdIt4Hgkyuw0w47ytwnn7UKEIcLRRPfklmzbp0cemJDq30RpcpanHyq3Hr5NVEKmVj/EjC9zdu6GUKHIoAAAggg4LKA6eOty20PMzYTH9RKbw8JmXQR/kYAAQSSJWAtIcPJhPkV68ADqsvEISM2qqj3TdfLpOlTNhqX+keF8hVE3Yhs+K+6crz3SeVK/9g2dXLJ+7net5qenjG95N+vv/4qNapWk0lDR24yX5xGZEtkxamNtCV+AuXLlZPxg4bLvlX2tta4OO3bTVx8db2sp8yeP9daf0Spom0r/kOeH/uEqFeGaAmY3u5JyERrfSBaBBBAAAH9AqaPtfojjleJJq4LUoVIyKRq8B4BBBBInoC1hIz6doz6lgyDWYHUx5at9T6dfYihT2ff2PsKaXNqM7ONCbn0hx8fKzfff0/IUVA9AsEENttsMxnY7zarjyOM24WiiW/JPPrUk3LtHbcG68QEzqW+IaO+KcMQLQHT2z4JmWitD0SLAAIIIKBXwPRxVm+08S1t+UvmHrdPQia+6w0tQwABBIIIWEnIzFv8qnTs2S1IPMxTpIB6lNiIu+4vKWXlZ5/Kse1aFFli5sUrVqgoM7xPNmf6Rk3mJaI5tv/g+2Xo2FHRDJ6oEyVw9UWXSscWra21Oa4XirovvN58d5k0P6eTtX6JWkXqN2TUb8kwREvA9PZPQiZa6wPRIoAAAgjoEzB9jNUXafxLMvFhLV+NhIwvwSsCCCCQTAErCZl+990lI58Yl0zhEFr9gHdz6zjvJtei15dK2+7nGouga7sz5bLzLjRWvisFX39Xf3lk0hOuhEMcCGwicPK/j5N7r79pk/GmRsT5QlH34wk+X/WFNDy9iamuiHy5ZcqUkeljxkuVPfaMfFuS1ADT+wASMklam2grAggggIAvsGDpYml/0fn+n5F5VYmL1KH2IYel/ikLX1uy0d+qnVEZdF8b+O0mIeNL8IoAAggkU8B4QmbDhg1yXPtW8vkX/0mmcAit3r7SdjL5odGy5M3Xpcd1VxqNYNzAoVLroJpG63Ch8F7eb/FMzvFbPC7ESAzJFNh5x51k1N0D5Z+V97ICYPpGrJVG5KhE9yfh1v38s9Q84egcNTLpigt6yFlt2gMRIQHT+wESMhFaGQgVAQQQQECbgMmb9LqCVOfKKuFS56+kS3oyJp96VGJmwV/JGpW0cTFRo/vawPcx2demYvZj5xUBBBBAoHgB4wmZabNnSvdrryg+UkrIS6BG1WrS/MST5cZ778xruXxnblSvgQy+5Y58F4vk/Odd0Utmzn0pkrETdHwFbulztbQ85TQrDTR9E9ZKIwJUovuxZSohoxIzDJkF1EX9I/cNzjyRsU4KmN4XkJBxstsJCgEEEEDAoIDpY2uhoaub+907dSlZvJjkS9D6lYNryRkT5yUkZIKuEcyHAAIIxFPAeEKmt/fNgkl8syCUtUc9m3/GnNnG67Z5Q9h4Y0qpoMPFF8j8JYtKmYvJCNgRsPmoMlcvEk1I6340wTGtm8pnfEs0Z1dNePBhObhajZzzMNEdAdP7AxM3PtzRIxIEEEAAAQQ2FjB9XN24tmB/+YkYG0mYbBG55KL7+oCETLZeZzwCCCCQDAGjCZn//vabNGh5qqz+5utkaCa0lXUPry0j77o/Ma1v5v1A91veD3UzIBCmwBZbbCGPPzBMDvS+DWd6cOliyHRbVfm6L7iae/uMN9ln5Oy6K7tdJJ1bn5FzHia6I2B6n0BCxp2+JhIEEEAAAbMCLv1ujAtJmEzaps87MtWZPk7ZqGsEXQMJGV2SlIMAAghEU8BoQmbe4lelY89u0ZQh6rwEkvbp5hO830X66JOVeRkxMwI6Bc7v0Fku6Wr+Rz9duADS6RakLN0Jma6X9ZTZ8+cGqTqx85xw9L/l/htvTWz7o9Zw0/sFEjJRWyOIFwEEEECgUAHTx9SgcUXh2Bu2lU4jEjJB10zmQwABBOIpYDQhc+/wIXL/iGHxlKNVGwmc590cvtTCzeGNKg35j3rNT5Gvvl4dchRUn0SBfavsLY95346pWL6C0eaHfdFjtHE5Ctd5saWqufzWG2XClKdz1MikHbffQeZNnAJERARM7xt0b4MRYSVMBBBAAIGECZg+ngbhjNoxN+xvFOn6rUkSMkHWTuZBAAEE4itgNCHD723Ed8VJb9k+e1WRaaMfTx8d+78PPekYWbN2bezbSQPdEuh7aR9p16SF0aBcuEA02sAcheu+ML1t0AAZ9ujoHDUySQmMGzhUah1UE4wICJjeP+jeBiNASogIIIAAAgkUMHlTvjROVx9PVlrc/vT2F50vKjlje9B1jmKy73U/Xs22MfUhgAACSRAwlpD54acfpc5pJ8hv3u/IMCRD4IGb+stx9Rsmo7EprTR5MpVSDW8RKBGovPse8tRDY6Rc2bLGREzfbDUWuKaCdV1o+eGQkPElcr/2PrebnHNGx9wzMdUJAdP7CN3boBNoBKFFIP3mm7rpxIAAAghEUcD0sTSXSVxu2IdhqMvO5D0EXTHmWoeYhgACCCBQnICxhMzU2TOlx7VXFBcdS0dKoNmJp0j/K6+LVMy6gq3eqJ5s2LBBV3GUg0BWgR6du4q6WWlqCOPCxlRbCi1X983gPt4jy57kkWWldsexRx0tg26+vdT5mCF8AdP7Cd3bYPhiRBBEQCVbFry2RBZ6//whPQHjj8/2mpqgqX3IYSWz1fFeU8dnW5bxZgRS+1D1rz+k9rMa5/eXP131mz/Qf76E3Vd/m0ytNb3f/Gmp/Zfad2o6/ecr/f1q+jj6d02bvovbMTYMSx2/NxnFhIy/P0/dl6s1LNN+wd8npO4P2Bdsuj3qHlNIH/kx0Fe+BK+6BPz10S/P33fk2mf48/rrY5z3G8YSMtfdeZuMnTzBt+Q1AQLly5UreWzZzjvsmIDWbtpEHl+2qQlj9Aqob8Wob8eob8mYGMK4oDHRjmLL1H2heu7ll8qseXOKDSv2y2+3bSVZ8NT02LczDg00va/QvQ3GwTxubfBv9PoXZOkXbCbaqy7o/BtE6sMNDPoF/H4c8NdviPp/66rJ70N1kR7nC3RdXvmUo/bralDbpIl+U2V379RFvdB3noHp42gJdIb/4np8te2p9j8qKVPM4HpCRu0H/JunA/7aPxTT3tRl/f03+4RUlfze+/tp1Ucmz6XUPkMNHHfz65+kzu3vN0ycSyhTf32My3m8sYTMyR3byvIVHyZ1PUxsu6/r2VvaN2uV2PYf0fg4+f7HHxLbfhpuVkD9boz6/RgTg+0LGRNt0FWmjk+9pcbS8ryz5PVlb6WO4n0WgQkPPiwHV6uRZSqjXREwvb+I6w0jV/ovrDjURZq6Ue/fRAgrjtR6o3Zhp7Y9/8ZLajt0vC/k5qLfl6YSMKW1y+8/bhSVJrXpdLUuqUH3jdZNa8o8Rt2QLfZmrKntQcXl3zDOHH1xY00fQ7NFF/djq+3flCn2esHFhIy/Tfn79mzrku7x/vZmetvTHbft8lw4j4rTcdf3NNWPutdnk/EWGmtqTOq97cFfH6OaoDGSkPl81RfS8PQmtvuC+hwQ4JEzIvWanyJffb3agd4ghLgIqB86P75BQzmr9RlGmqQOnuoihuFPgWIvsNId/92mmXz6n8/TR/N3BoE+53eXLm07ZJjCKJcETN9MivtNI5f60nQs/oVaGBdp+bRN3QxS355x/YLO5A3H5S8tDEzmar+y78jdhWrfrYawkjDZovOTM/5N2WzzpY83tT3oPg9Mj9v0MTS9PvV3ErYN29czan0tJJHt948rCRkX9wuF7hN82zi9unq89Y2jvG8xvc/QbWMy3nyOeyoO/5tZ6r0rg9pvROFcPtXLSELm8WcmyVX9b06th/cJEVCPLXt5wrNGf3A8CpQNWzeVz7/4TxRCJUZHBXbZaWc5ocExclz9o41+Sk81P9sFgX9gdvFE3WS35XNTKkgch510jPy0dm2QWRM/z7/r1pcHb70z8Q6uA5i+maT7AsZ1zzjGpy7QXPs2TFBnl9c/UzeglU2QY19U+lX1oRpcT7CVBGnhP9P7bJ1NUH0X9BtPprYH//xXZ7v8ssLoC5f3ab6Lrle1j1Lrha2hmHUl2/WXjtiDJIvCWBfzbVtSEzNROdam9mcU9zOm9xe6TUzGGyTWKK2XQdqTuv6G9d5IQubivlfLszOfC6tN1BuywAM39fduIjcMOYrwqz+hfSv56JOV4QdCBJESqFG1mrQ5rak0bnSClPd+M8b0kO1kPNtBLNv8puO0VX62dhda/6+//io1jj2q0MUTt1zFChVl8bMzEtfuqDXY9H5A93YYNd8oxxuli7XSnF1cD03dgFYW2RIyUe5T1YdqSGpixvS+ugTX0H9BbsSauqFdzE320jhs94mL+7HSjIqdbnI/mR5bMb6m1l8VY7aEjFr/1ODat+RKgsrxX5D9QY7FIzMpysdbHzlKx13lbTKBW8z+wfdMfTUZb65Yo7xe5mpXqm1Y740kZOqcdoJ8+/13YbWJekMW6ND8dLn24l4hR+FG9Y07tZP3PvrAjWCIwmkBPxHT5tRmVuPMdDEQ5MBl+4LSFkqQtucTy6rVX0n9Fo3zWSTx805+aLRU369q4h1cBjC9/eveDl22jEtsUb5YK60PXFofTd5ozJSQMb2tl2ava7rqQzUkJTETl35TfZbtxrKalukcVo0vdjCVkDF5My1Tm3PZZZo/LuNsOhdjbGr9Vf2YKa647BdcOibr3GZMHt91xplPWab2pfnEkGte0/sK3euqyXgzxarqi+q33dP7PVP70ucJ42/tCZl3Plwup3U28zsHYQBRZ/4C+1X5p0wZNS7/BWO6RLNzOslb7y6LaetoVrEC1fbdX9o1ayG2EzEq7mwn5pluymRrZ7Yyss3v+vh82h6kLe988L6cdlb7ILMyz18CV3XvKZ1atcXDYQHT272rJ80Od0moocXxJkI6qCvrpEnr1ONfnC7CU/vSlX5MjUnne9P7Zp2x5ltWpht7pm5oZ6or33gzzW+7f1K36UzxxHmcTetC1xdT66/q19SEjE0Lm+tUoe42YwxSV1z7x2+7y8ddkwkO1X7dbTcZb3qscV0v09vpr6dhvWpPyEx+bqr06nddWO2hXkcEZj76pFTefQ9Hogk/jNYXdJElb70RfiBE4JRA+2at5OIu58o/vMc0hTFkuhAo5CBl8uTApkvqxYuueqfNnindr71CV3GJKKfFyafKrZdfk4i2RrWRpk/SC9kPRdUyynHH9aZ9rj4Je920kZAxWUcuW1vTTBzrbcWerR61Laof2I3aY4iytSfb+PS+y3Qem23ZfMabutFrKt5MbQt7X5UpJtvjbO3L0tfLoO00uT74MZk+XwvaVlPzRXk9T9I5lKv9ZPoehu52m4zXj9VkHab2A/mW67c13+VMzK89IXPP8CEycMQwE7FSZoQE+l7aR9o1aRGhiM2Hauuk0HxLqKFYgSp7VpaLzzpHTml0fLFFFbx8phP0Yg9OmcosOMAQFiy2/ZlCvtT7gMJT3gcVGIILHHRAdXlyyIjgCzCndQHT27qJbdE6UswrNL0OuMwX5vpp8lxS3YRW5SdlCLMfdRoncVtU66oaTK2vJhIyNvspLut2sduJzRuLhXwbyWRCpli7KC0fxfXd5v7Apb50ra9M7yN0t9dkvCqJqwZVRxIG3X1TqJn2hMxF118lU2Y9X2g8LBcTgeMaHCMP9LstJq3R1wyTF9L6oqQkkwLq0/8Xn32u7LLjTiarKbXsTBcBOg5MUT7BLORiqjTomiccLet+/rm02ZieIlB2m23k9ekvpozhrWsCprdzHfsi18ziFA/nMvofQxF0/cA+qFSw+aK+rzG9Lw6mGM5c6uaRqRtHJhIyNrddE+ez4fRy8bVmut4pvtRNSyhknbEV26bRxm+M2h9079Sl5FFtrrfO5r7ARQuXjrsmExzKXndbTcfr4vpiMiYX9hvaEzJNu5wpb7//rkk3yo6AwA7bbS+vTOJT4Zm6KukH4UwmSRnnym9jZDuY67yAi9p6rvuESa3TLy6YJ116X5yU1VtrO2c/Pll232VXrWVSmD4B0zcBTWyP+lqf3JLUsSMuP+6poxfDWE+jdmzV4Wy6jDD6UUebWBd0KGYuo5Cb65lL+nusrZvvUV2f/5bS+87WdlKIu611Qq+o26WZ2HZ1tZhzqL8lC9le/l5a37ts90R01aC7nabj1dXuqJWju5/yab/2hMwhJzaUtevW5RMD88ZUYM6EZ0L/FoCrtLZODl1tfxLjGnRTfzm2fkMnmp7pZqqJA1GmepwASAtCfTpCncDrHq6/+3Z5ZOJ43cUmoryh/e+WhkfWS0Rbo9hI09u2if1RFJ1di5mbR5v2iO11lfPHTftAxxhT5wE6Yksvgxsy6SL6/9Z9U9f0MTNVQOeHq1LLjep7k9tLsZ+u5phqZq2yfVwO0gqT62GQ+l2cx4V+Mt0vuttoOl4X1xNbMenuq6Bxa03IfPX1aqnX/JSgdTNfzAUe8G5AH+fIDWgXqbmodrFXzMT01PAxUm3f/c0UXkCpmS4MdV98+mFlqsuf5sqrqQNw3WYny+pvvnalmZGKo8/53aVL2w6RijlJwZrerk1tk0nqI91t5Zwlu6jN9ZV+yN4PxU6x2Y+FxsrNmELl8ltO9zmxrRvvUViH8+sJPXPr3m8Wm4jxW2VrvfDrS9Kr7m24GDv229n1wt5nme4b3e0zHW/2nkrGlDD2G1oTMqwgyVhRg7by/A6d5ZKuyflx0KAuqfPpPkFMLZv3bggsmTJTKpSv4EYwf0WR6QLA5CfqTN+8LQZX94mSHwuPK/MlCntVv7V06+XXFLYwSxkXML1Nm9oujcPEtALOVUrvWFsXcfRF6X1RzBwu73u4zi6mZ/NbVvf2nOm8O7+Igs1t8lw+WARuzqVr29GViPGVbK0Xfn1Je3Vhe9C17sW573Tvb/OxMt0/us8pTMebj10c5w3j29JaEzLjnp4o19x+Sxz7hjYVIFDviDoy4s4BBSyZrEW4uI5vf7twIpium+lAbuPgY/oGbno7g/yt+yQptc4b771TRk14LHUU7/MQOOiA6vLkkBF5LMGsNgVMb88mt02bTnGoi3OU4L1o46YC/RG8Pwqd00Y/5htbpnO3fMtg/uACOtcB08dLv1UcN32JTV+L3X50J2L8CEnI+BJmXm1c35YWOX1cmtCf03Xuc4PV+Odcxe4bSqtL937ZdLyltScJ023vN7QmZG4dNEAeenR0EvqJNgYQqFihoix+dkaAOZmFC+z4rQMuJmOUcqYDua0Dj0vruek2H9uuhaz87NP4rdiWWlR2m23k9ekvWqqNavIVMH2DSfcFTL7tY/4/BUz3c9ycTR9XlJdLx9G49V9qe8K6OZQag/8+03mbP41XMwI6+9/WftTV6w4zPZR/qYXsO9U+vXunLqJeTQzcrDehunGZYZ5PFrLObRx9sv4KYx9m+viqe/0zHW+y1rjsrdXdb9lrEtGakDnvil4yc+5LuepjWsIEZoydIHvtsWfCWl1YczloF+bm4lJhnFAEdch0ILd50HFlPTfZR2Mmjpe+d98etEuYL4vA7Mcny+677JplKqPDFDB9g8nmPilMR5frNt3HLre9mNh03sjNFIcrx9BMscVpnI3kWlAv+jyolL75dG7HNm66c8wsve8zXf9kW8p0Isav18a64deV5Ncwtg/OofJf48Lop3z2C/m3SER3m0zHW0gb47qM7r7L5qQ1IXNih9Plw5UfZ6uL8QkUuOe6fnJKo+MT2PLCmsxFV2FuLi1l8ka/jnZmOpDbOuCo+DPVr6Nd+ZSh80I7vd4169ZJq/M6ywcfr0ifxN95Cgztf7c0PLJenksxuw0B0xeaNvdJNryiVocL++momfnxmr6Rz3miL23+1XRfBmmB6X1tkBiSOI+u80Rb/ccxs/S1NMhxzbYjCZnS+03XHDb71tZ2r8vGpXJ07XuDtinIfiFoWZnm073emY43UxuSPM7G+qg1IVO14ZHy+++/J7nPaHuaQOfWZ8iV3S5KG8ufuQRO7XyGvPvh8lyzMM1RAdeTMYot04Fc98lCad2TKYbSltE13fSB9cFHRsodDw7UFW6iy+lzfnfp0rZDog1cbbzpi03b+yRXncOKi5v+xcmbXH/pm+L6Jt+lTZ8z5IrH9H42V91Jn6ar3231YRSuP1xYpzLtP1XitfYhh0mPzl2th0hCxh65zQQ7/Vp4v9rsJxWl6XsSus8HTcdbeM/Fc0kb66O2hMwnn38mjdo2j2dP0KqCBY7wTnDG3je44OWTuuChJx0ja9auTWrzI9nuqFwMZTqQ6z5ZCNKBti5SU2PRdYGdWmbq+9XffC3Nz+ksq1Z/mTqa9wUKtDj5VLn18msKXJrFTAqY3n7D2CeZ9IpS2ab7NkoWxcRq6pwg0w3FYuJk2dwCNi7GM0WQ6Vwt03yMMyOg63zRxvbK8TL4OpC6Xalt2+TvwwSJihv3QZT0zWNjW+Ecqvj+0rX/DRJJ6j4hyPz5zqN7nTMdb77tS8L8ptdHbQmZeYtflY49uyWhT2hjHgJbb7WVvPn8nDyWYFYl8M1338qRTU4EIyICpm68mGh+pgN5WDccbFyo+oamD6aqnruHDZYHRg33q+S1SIHDax4qjw54sMhSWNyEgOkLTt0XMCYM4lhmpuNDHNtpo02m1mGbx00bTlGow8b5Q7oD/ZwuYvdvXX1u44a7rljtCodTmzrGDRgxLPREjN96G+uHXxevfwqYvGY3fW6clD60eV/C9Hmv7nNB0/EmZR3Lp52m10dtCZnn58yWC666LJ+2MW9CBKaMGif7VflnQlqrr5kvL5wvnXv10FcgJRkRMHliZyLgTAdy0weabO3IFEu2eYsZb+NidcWnn0iLczvLT2t+KiZUlk0ROPCA6jJxyIiUMbx1RcD0RafuCxhX3ALbOdIAAAssSURBVFyPw3S/FtJ+dXzyB/VYmWzDwteWlExSxxVXBhPHHm7U2+9d2+dILm6H9tXDrVHHtmvrHDdq1yHh9qxbtccpIZN6rFbKLh2LU3vd5PllnPoz1SyM9zr2wUHiNr2f1r2+mY43iFkS5zG5PmpLyDw59Rnpc8sNSewf2lyKwG1XXCvNT2pcylxMziTw0LgxcusD92WaxDgHBKJ6EZTthFH3SUOQLjJ948HkATS1ff3uu0tGPjEudRTvixTYb+99ZMrIR4sshcVNCJjebsPYF5lwilKZrlzkqZs66jEyaki/wRPUU7VlgZegUUka9T6swcTxJ4oJGb8f/X5V/eGPS+8bv79U/6lhwMND02cJ5W8TfZmpIa5sh+mxqf7yE6J1UhKj6f3o959a3t8GS96HuB2mtyXI3zr62/RxUrWDY2WQ3nR3nmzXY+5G/Oc6p+JT+4H07T9b3Gq/oL6ZpIbUfUS2+U2PN3H9bmN7D+ri94vaZ/v7a39cpjL8PnHpuKviVfth04NquzqvMjXo3kebjteUg+rP1HNAVU+mdTJ9XQz7PN73MLk+akvIjJrwmNx4751+zLwi8D+B9s1ayXU9e//vb97kJ3DdXf1l7KQn8luIuY0LmDiZMx70XxWUdkNH98lDae0qLZ7Sls82XccFdbayU8cve/9dae59O+a3335LHc37IgX23G13mTVuYpGlsLgJAdMXnrb3QSaMolam6T7N5ZF6oZbpAi3XsqVNU+1SQxg39k1cwJk6XpbmmO90nX2qLtDVjaIw+tBvt4m+9MtOfXWpf9V+WA06fuxc9aFLN2RTzTO913H+aGOfyrEyU+9FZ1wUEjI69wN+z9jYNvy6Mr2a2G7C7kv/mKtedQ1h95ONey2mExy61zXT8epad9R66CcEdayTYZ7L+yY6zgv8slJftSVkBnnPzb/Le34+AwLpAgdXqyETHnw4fTR/5yHQ/dorZNrsmXkswawmBWycIJiMP+gFv+6TiGxtMnFyYeqgmd6GNevWSdc+PWXR60vTJ/F3kQI7bLe9vDJpapGlsLgJAdMXabb2PSZsolpmGDcTTNxAyObv3xBWrzYH3ecLQY/fNtuYWpfadvP55HTqskHem9735IrB9HmFiXOhXO3JNM2/iaIjCZOpfDUurG0xWzyZxuvoaxvbqo44M7WfcXYEwjjuBm2Z2perweS+IMz9uc5jc5jtsHG+HFb7bOzfTB93dfeP6XiD7h+yzWf6vF6ti2oI4wM6qm1qndQ9aEvI9B98vwwdO0p3fJQXA4EyZcrIe7Pnx6Al4TbhjB7nlTx+I9woqF3nCVwQTXXg0X0ynM/BXPeJRLY267xwtXEC57fjspv7ysRpz/p/8qpRoEK58rJk6iyNJVKULgHTF2e29ju6PKJejun+zOQTVh/bbqvu45HOY2WmfilknI2b+Olx2e5HVb+pi3G/bWH3re1t0uXEjI7t1sbNdtvXJP66yqseARvrSL6Rqv2AyaR6pnjC2J/r2Mb9toTRj6ZvfPttS3213U+mj7mqbfncE0m1CPpe93HVdLxB25U+n+310fa66LfXxDFXW0Lmujtvk7GTJ/ix8orARgKTho6UGlWrbTSOP/IT+Oa7b6X9xRfIBys+ym9B5tYmYGInnCs4/2Cj86TRry+fk8conRCZsPLN0l/vHT5E7v/rmcjp0/i7eIEttthCls2cW3xBlKBdwN83aS/4rwJ1X8CYijMu5eZzPNDRZpv76Uzxml5/U+vUffwM+6Z9atvUe93tSy8/1982+9F0W8O8yRL2/tZ2P+Zap/xpOvZRpverYW57vhOvxQmYXkfyjS7MfYHt/YCuttqOW/Wpjv1TvuuGP7/N9trYx5k+9upaz3x/0/H69eTzGtb6GIaFibZqS8hccuO18vTz0/LpO+ZNkMANvS6Xtqc1T1CLzTR16dtvynlX9JJvv//OTAWUmlUgrGSMCkj3wVyVWchNHRMHIRWLPxR7YWI6Pj9O9TphytNy+a03po7ivQGBd71vV27mfcuSwS0B0xdkJvZ5bgm6E43pvkxtqbq4Vj/qqV7DHmy1W/cNhUKO3aasXdhObfWjb2jqPCOsfjXVHt8r6Ku6saJ+Y0a9ujAU62LjRpEL258LfRXlGIq97tHVdt3HqULjsrk/19Vmm32oYnbhHMpmPxW7Ly5tXTS9r9a9nzYdb2leqdN1bUOpZRby3ub5k4k2a0vIqJvEM+e+VIghyyRAoFXjJnLzZVcloKXmm6i2M7W9MdgTCDMZo1ppYudf6AHd5IlRMSd4JuNKX9PmL1kk51x+ify8fn36JP7WLLB02mwpX7as5lIprliBYrbVIHXrvoAJUmdS57F1M8HEcazYPrN1Eafz+GQr5ly2qi9duCnkx2h6f+TXo1519qVfbqHnY/7yhby6uD2qdriwfqs4iu1nG+skx0nVU9EebB1/cym5th7Z2HZ8j2Kv723G6to+29a+uth9sd/X2V5NH391b1+m483mlD5ed7vSy8/3b1v7UhPbobaEDL9vke9qk6z5q+27vzw1fEyyGm2wtYPHjJA7hzxgsAaK9gWKPVnzywn6mu3kzkQchZxMmTgQ+TaFnmSYPlnz41Ovn6/6Qrr06cmjA1NRDL6f/9R02X7bSgZroOhCBLLtpwopK9Myrp3oZ4oxDuNM92Oqkc39dGq9ud4XeszJVWamaTrbXshxO1NMhY4zeQ5QaExqOVsuJtpvcztUVibaoMrVNdjqy1zxFrvN2ujTYmPM1X6m2RGwdRMxW2tcPdeytQ8otv02tnPVd67us22sv6bbbvo8sNh1LH3bNR1ven2Z/tbdpkx15DvOpovuY6+2hEyTszvIsuXv5WvH/AkSUL8FoH4TgEGPwAVX95HnX3pBT2GUklHARBIkY0V/jcx1Yqd756+qLPTgZfLkKN+TcBMuufqo62U9ZfZ8ftckl5HOabMfnyy777KrziIpS4NArn2VhuKNPKZRR1xxK8N0P/petvfTfr1BXvM95gQpM30enRevNuJNj9//2+Sx36+j0NdCz2cKqU/3uaHNPnW5D1P7wqZJar3++2L3WTb2rbrXQ7/tvNoTsHFDO1trdB6XstVR6Hhb+/NiDWz1n6vbuo39nFqHTLbf9LpW7DqWvg2Zjje9vvS/dbcnvfxi/ra1PhZ7fpDeRm0JmUZtm8snn3+WXj5/I/A/gcceGCaHHXjw//7mTXECH678WDpecqF8ufqr4gpi6YwCJg/+mSos7SBi6iK60IteUwfkfE40dB8QM/VL6rh7hg+Rgd4zzhnsCUwd9ZjsW2VvexVSUyCB0vZXgQrJMZOp/UuOKhM5ycbNBNf7Mp9jTqEric7jd6HH7EJjT13O9nlRat1B3pveL/kx6Dz3sLH++XHrXA/9Mk2+2tg/ZYu/2D62sZ26vj1ms2X83wJhreOuH5eVkK39eaHbka34XO8rG+twoX3095aW/Z3pY7Du/jMdb3YpM79pnKu+QqbZOPbqPpfSlpCpc9oJ/NB4IWtNgpa5qscl0qllmwS12HxTJ057Vi67ua/5ihJWg8kDfybKICd1unf+fhzFHNiLvWD1Y0h/DXJyZ6ru9Fj8v9UjAtWjAhnsCkwaNkpq7H+A3UqprVSBIPusUgvJMYPuC5gcVSV2UjH7/nzQbB9P84nNn9f0BZzO47fpWH2T9Ffbx9z0+oP+HeT8IWhZ2ebTaWGzP3XGnc1G53jTx5lcsRZrZbpfde5TcjkwzayAjf1VeguitO7Y8Cl0Wze9jat+i8K5sA0Hk+eRps+Fdfeh6XjT9xf+37rb4Zer+9XWeYPOdfL/AQAA//831GoYAABAAElEQVTtnQn8D/X2/8+/fm2iknYpbvuiPYrSpttGC21EKESiRZK0h0iSJIQsaaGEiCjKkkLRnq6rkvZue0rL7f7nfGo0Pj7z+cxyznveM5/XPB7MfGbe836f8zznvZ7vzPy/n3/6438ksO1X/yj69ddfBXJCFlklcMY/T6E7r78lq+olptct/fvS2ImPJVZ+1gpePneRUZXuGTmMBjr/gmxjBwym2gcfGiRpqDRhZPBmzLKwTNJbs8vb08Klr/hmq8XBr8A+gwfS8Ece9LuM84oEHh00jA6teaBiCcg6CoGobUbQsjq2akOdnH/Y9Alo2jItdtRkwBaU7CtL9Y8aHpMWO7LuJvhI2nOPerU0TLZenmmyoVd47brpLct7HHecqW1XSR/06o1jswS0/aSQNqbnuYVkCHrORP2P2jaakC0NtuL5Ove7mlvc9riYbNryR/UvP5m15S1UrrQOhcqQOmeKj6RP/j8EZKTMj3xKEfjHLrvSjLEIHJTiFPb6jz/9RC2u7ECvv/NW2FuRPo/AoikzqfKWW+Wd1fsZdjCnOQGLuogh2SG5pIt1phrlueUW2ve6924aOf7hQpdwzgABBGQMQI5QRNi2K2wRaRr8h9XNxvQa9kyTDYv1OVL2klpYidpXR9UjTXZkHU3YUmosZkJWZiIlL+eVxJbEonXcsaa2zGmrl0n4TRrK1PaTfAZp8xuNsYk0Ey0Z02QrbT+O2x7n29z7W7sflrajtrxeNu6xtA5uvlp7E+NkSZ8UC8jUPv0k+vrbb7S4It+MEHhl2izaomKljGhjjxoLXlmcC8rYI1H6JDG98Bt1ACe1qFPIQlE6MI2Jvt9gQ7LzK6R//rnbBvSjMRPG5Z/Gb4MEJg0fQ/vtubfBElFUEAJR268geXOatA3+g+plczppm6bNhtoLClJ9d5R+Oo7fSckdR4aw92ozkhr3aMvpcjM9dnLLldpLt01B5IrLTLs9SVv7GoR5OabR9hMvU6l2y5uniWNtRhJ1SaONSlPfq92XxW2Pi/mp35pDsXvCXJPwL2952vJ6y+Jjafnz89f4bYKRpE+KBWROaNKIPvz4Iw2myDNDBAbc3JNOPf7EDGlkjypDxo6ifvffZ49AKZLknlt60SnH1TcmcZyBm2QHkK9w1A5MQ6b8AbhGGfn6e3/f1K8PPTx5gvcUjhMgMH3MONq9eo0ESkaRxQjEacOK5eteS+MEwJU97XsJ26bRfvl9jrQdpRZXtBc+vHqn0Y4svwlGEvY0IWdaF2G9fsjH2vUzv7y4Y05tedNaN/M5l/tvbT/x8o3r0968TB5rt5NSbWTUOXQhlmmr3xLjxkIc3HOaPCTt5srr3UvLri2vV3Y+lhjr5Odp4rd22yppV7GAzBkXN6e3l79rgi/KSDGBcxqcQb2u6Z5iDewW/dLru9Izc5+zW0jLpOvb/WY686RTjUkVd9AiNXAspnDYwa+GTK4MnHfHlq1Vvp3jx6D7Hb1o/NRJfpdx3iCB58dPpqo77GiwRBQVhEDcdqxUGZID3VJl4fr6BOLaN432c/uc9WnInJFaDNOW06ttWifiJhYs4rIxISPbUsrvvH6RxHHcNimszHG5pWkxKCwbpJcjoO0nrqQa8zQ3b+29dt2XZiMhb9z+Rdsm+flL6Jyfp/e35phSuy+Wll1bXlPcveVoHGuPlSXtKhaQuaBTO1r06hINnsgzQwR23G57mvv4lAxpZJcqK1Z+QC2uuow+//ILuwSzVJqW5zSh7h2vNCad1IAl7kQxiMJhZJUezLJ8POAYOGp4bjEhiLxSabr2vo2emIY2Sopn3HxeenIGVdmqctxscL8wgTDtQ5SiJQe6UcrHPfG+xZG2xQS2t/bkTarf1pbT9f0010ETCxZx7WlCRo2xmesfSexNLV6zbnHtqy1rmutnEr5ja5nafuLqHdef3XyS2GuPN1kn6TFLHJnTWLe1+zPNvkxbdml7asvrrePS9cKbt/ax9lhZ0ifFAjLtul1Ns16Yq80W+WeAwMRho2n/vfbJgCZ2qvD4U09Stz497BTOIqkOP+gQGt1vIG200UZGpIozOMsXULITyM/b+zuMzGke7Ls6X93zZpo8Y5r7E3sLCCx9+nmqWKGCBZJABC+BMG2D976gx9ITmKDlIt36BMLaOq220568SfWR2nK6HiAlr5uf6b32QmdcPibsGFdG0zYrVV7YtqhUfsWux2FnYsEsjnzF9MY1swS02ylXmzQvrLIO2pw0+HA7wH9YyPswm4YsYcqPkla7zdNc99CWXXpMrC2va39pud18Te21OUn6pFhA5qrbbqQpzzxtijHKSTGBru07UusmzVOsgf2id3BeXTYTry7zNdTmzgLvKCcYc9B+NX3TSF7QmESamoxxh7bQefpx4MhhRZGYkqeoEDEuXn5zd5o2+5kYOeBWDQLLnn+JNtxgA42skWcMAhptmlectE8EvLpk4TiMvdO4mMA20l4gl+ojteV0/TWtdnTl1+YU157a8jGHtNvQtaW7115gccvhfRz7mpAzjnxePXGcLAHtQANrJ7lwmBQtbU6abWWY8VNax77abZ6mD2vLLm1TbXndOi4tt5uvqb02J0mfFAvI4APIptwr/eUce0RdGnZH//QrYrEGbyx7m86/rC39+uuvFkuZnGid215K7Zq1NCJAmIFYGIEkO4Kg5RbTJQl5gspdKt1lN1xLM+bMLpUM1w0T4KfX3p71guFSUVwQAsXagiD3l0qT9olAKf3SeJ0nN6X+2jPNdtNeIJdaQNWWk30zzXZ065Y2p7j21F5gTPOYzLVhob22Xd0y49hXeyGIZYwjn6sj9skT0G4HWMMs+Io2J21GQcfMpvpebqPcjf/okjfvpye81910Se41+zPt9lraptryunbWDFK6ZWjutTlJ+qRYQOaOIffSsIfHaHJF3hkhwIts85zvyFSpvHVGNLJTjQEP3E/3Oo/KYluXwD6770njB4+gTTfZZN0LCr+CDsCiFi3dyQeVo5Bekh1TUDkk0rW/rgs9O3+ORFbIQ5hApc0r0pLpCJQJYxXJrlAbIJLxX5kk1bZJ6pDVvIrZPq1244lbqWBTXHtKLfiYWJBOqx29NtLmFIeR9kIBc5DyNy9TG46LtT+S8sXhB/tKWiLbeWkHGphe2hdWWQft9jxOfWf5gm6l9JC2FbdFvHHQxQ24uOeCymxDOs01Bu32Os5YoRB7bXm5TE3ehXTSOGeCk1R9FQvIDB7zAN01fIgGT+SZQQK9r72BGp/aMIOa2aPSml9+yT0l89a779gjlAWS9Ol2IzU6pYG6JGmYNMaBUGhQKdUxxZErzL1tu15Fz704P8wtSGuQwDZbV6EXJ003WCKKCkpAu32TnsAE1QvpghHws38a+gCepCWxOCG14FOo7w1mteCp0mDHUtr4+Wip+4Jej9NGpWmhICgPU+m07erqEae+mrBvHPlcHbFPnoB2QCYLC6tsJe1+z2R98mvD4vQpridz28N/XMIbH2dl0/Rj7fZawq5eO2rLy2VJy+yV3+SxdvsqNVYWC8iMmTCObhvQzyRjlJViAkfVOoJG3nlPijVIh+hPPz+LOt7YLR3CGpCyXu06NKLv3eol+Q22NArWHKQUk7fQ4FiqYypWrtS1i66+nOYtelEqO+SjQKDaTlVp9qMTFXJGlnEJaLdxWZkMxOVs+/3efsA2m7mLEbYsTkgt+HiZa/hHUmMKaV1sbqNgw3jW1l5kYeni1FcTC2Zx5ItHH3dLEtD2Zdv65ajstNtM0/WpUP8URQZua2wZ40S1bZD7NMcl2u21dB3UlpftEcUXg9jRdBrt9lVq3UssIPPE9KnU9fZbTXNGeSkm8NA9Q6jWQYekWIN0iM71kusnNqKhfe6i4488ShVFoUGWaoFO5tKdfRB5C+mZlg78wis70IuvLA6iJtIkSGCPGrvRtNGPJCgBivYjUKj++6WNcj6JNi2KnLiHyPWFpNp/npzylsRTL2HsL8VHe2EqK3XP9cswNgqTNg4nbRtqLl6FYaSVVnuRheWOW1+1ZYwrn5ZtkG84AvCTYLy028yk6pPbT4Vps90gjDv2CUYwG6ni9Lt+BLQDHNIya8vLnKQCDX7MTZ3Xbl+lOIkFZJ6Z9zxd2v0aU3xRTgYIND2jMd3SuWsGNLFbhRUrP6Aml7Wlb7771m5BlaU7oW49GnL7naqluAMr1UJ8Mjc9mCykq2kZfFAUPa09qC9aOC6GIrD/3vvSxPtHhboHic0QKFT/JUuWnsBIyoa81ifA/tCpVZv1Lwif4Ymo7YEXP5Wl+kftPiwrdc/mNgo29Kslwc5r25aliFtftReCslJPg1k8u6m0/SSuH9tCXrvOJ8mJdeOt2BjKO/bh43LfuP3jrRizoIy0AxzSbbW2vMxNKtAQ1AZa6bTbVylOYgGZBc5fG7dw/uoYGwgEJcAfbH7K+evnHbfbPugtSBeRwAPjHqLbBw2IeHc2btN+OkZ7sBjECiYHlIX0leqYgugaJY32IkgUmXCPP4HDDjyYHhk41D8BriRGoFD9lxRGegIjKRvyMkMgawsQUv2zdj+WlbpncxulvUgg5Wtmanr4UrRtyxLFZaht46zU0/DWz9Yd2n4S149toa1d523lxOMgfiUZ77EVJhC3LdQOcMSVL19rbXm5PNvXc/KZ+P3Wbl+lOIkFZD78+CM6oUkjPx44DwIFCXRt35FaN2le8BpOyhLQnsTLSiubm/bTMdoDxaA0wjzyHDRPv3SFdJbqmPzKjHO+nP0/Drck7218akPqfe0NSYqAsn0IFKr/PkkjnZaewEQSAjcZI+AuNmT5XehSCz7afZmUnMacx6cgm9uotCwS+KBN/LSJBam49UDbxugjE3dDEQG0/cTmeVkYgNrtedz6HkaXIGm5jUMgJgipv9NEbRO1+5Oocv2t2bpH2vKaXEtaVzP5X2lpX8UCMoxwr2OPoD/++EOeJnLMLIF999iLJo94MLP62aTYvMUv0UWdO9kkkjFZ+t94GzWof5JKedqDxLBCm+pICy0K2TrwLyRrWK5Ib54AAvbmmQctUbvdk57ABNUL6cwRKLcFB6kFH+3+TEpOc55UuCRb2ygsphS2V5iz2gxZlrj1QHshyNRYP4xdkDY8AW0/sXVeFpaUdnset76H1ccvfbmNi/w4xDnP8wfegr7OTLs/kZ7PaMubpb4lLe2raEDm5ObnEn+vAhsIhCFw72296aRjjg9zC9JGJHDjnb3pkSefiHh3Om/bbpttacbYx6hihQriCmh3ilEFNtGZ5ndyJsqMwkN78SqKTLgnGIFhd/SnY4+oGywxUhkloD05lp7AGIWDwnwJlPNig9SCj3afJiWnrxMYumBrG6U9brR1LCZt9vwxqHT+ceuBtnzlYmdpu9qWn7afICATzOJx63uwUvxTlfPYyJ9KvCtB5xHafXJQOYJqmzZ5g+qlkS4t7atoQKZdt6tp1gtzNXgizwwTqHNYLRp9170Z1tAe1ZatWE6NL2lFv/76qz1CKUtyfsOz6LYu3VRK0W7o4wgtPQDwylJoMKBZnrfsMMfnXdqalrz5ephbkNYiAs+Pn0xVd9jRIokgikvA1sVOVz7s7SGAhYY/bSG14KMdkMECXrC6E3XMU2j8FKzEYKnKZaFee/wdt75q19NysXMwr09vKk0/zpKPaI8549b3OB6orVsc2bJwb6m+WrtPLlV+WMZpkzesfpLpNdtXllNqvCwakOk9eCCNeASvn5J0pHLJ67oOl1Or8y4oF3UT1bPnwP406rFHEpXBZOFD+9xFxx95lHiRaRhAaQ3GC+kuPeCIY7Bvv/+OmnZsR8vfXxEnG9ybIIEKm21Gr82Yk6AEKLoYgUJtQLH0Ya/Z1J6ElR3pKfcBWrz/fF1PkFrw0V7olZpgrqu9+V+2tlHaiyla4z7zFixeovZCS9z6ql1PmU5W6mpxS2f7qqYfZ6kt0G7P49b3qF5qop2IKlvW7vObV2j3yX7lRuWbNnmj6ilxn2b7yvJJ9cGiAZlHp0ykG/reLsEPeZQZgcpbbkWP3Hs/7bZr9TLT3Ly6H3y0ihq1aUE/rP7RfOGGS9x+2+1o/oSp4qVqDwwlBdYYkBcaQEp1SnF1f/tfy6it87Tm519+ETcr3J8ggZp770tP3D8qQQlQdDEC2m2g9ASmmC64JkeAJ4oIxBTmKbXgU6j/LVxitLO29OXRpP/7LlvbKO3FFI0x399U7TnSXmiJW1+1/Y8tkZW6ao9XmZdE04+z1BZo16e49T2s52j3A2HlKZf0heYW2rYoVGYc3mmTN46uce/VbF9ZNqk+WDQgo+0gcY2C++0mcNbJp9Ed191kt5AZka7fsME05MGRGdHGX40T6x1H9/Xo458g4hXtgWFEsYreJjUg8NNdqlMqqkSJizPnPkfX9LqFVv/0U4mUuGw7gcanNqTe195gu5hlK59fOyAFRKq9kpIH+RQnwON/BGKKM5Ja8EFApjhn96qtbZStcrnc0rLXrgdx66u2ndlOcWVMi62zLKfmgiECMsE9x2RdMtE2BNe8PFN67a29fi09n0mbvEl6mGb7ynpJrX2JBmS++M+XVLfRaUlyR9kpJzDg5p506vEnplwL+8X/9IvPqVHblvSfr7+yX9gYEnZueym1a9YyRg7r35rmgZTEoKCQ/hL5rk863Jm7nCDj4DIIMoajkt7UXdt3pNZNmqdXgYxLXqgdkFTZhjZFUp+s5oVATHDLehcAgt+1fkrthWipCeb6kps9Y2sbZatcZq0TvzTtehC3vmovmjHBuDLGtwJyiEtAc8EQAZng1jFVl7Tb/+AaI6U7z9Buq91ypIinTV4pvaPko9m+sjxS42XRgAwLdtDJx+KvkxkEtkgE9tl9T3rYeXVZxQoVIt2Pm4ITGDR6BN09YmjwG1KYcnT/QVTn0MNFJddu3EWFLZAZD9A7tmxNvA+7+Q0kTQ1kC8n79vJ3qe/QQTR/0UuFLuNcSgkMu6M/HXtE3ZRKn32x/doCKc2lJzBSciGfvwlo+8DfJWXjSKqf1F6IlppgJm01bf+M2kbZKlfS9gpbvnY9iFtftRfNmFeWFtzD2j8r6TXnlFnyD+12M259D+KP2m1WEBmQZl0C3I/XPugQYttobVHHCn7yaPct0vL66WHivGb7yvJLjZfFAzJntr6Q3nLe4Y8NBKISaNe8FXVuo9cwRpUra/d989231OiSVvTRJx9nTbW1+ix9+nnx4J52475WeOWDKB1uId2j5COl2ripk6jvkEH03fffSWWJfCwh8Pz4yVR1hx0tkQZi5BPQnhwn2a7k64rf6xLgySBeT7YukyC/pBZ8tBd1pCaYQZhoprG1jbJVLk1baOStXQ8k6muhMbMkiywtuEtySVNemj6SJf/Qbjcl6nsxv9Nur4qVjWvJEpCezyAgE9yemu0rSyE1XhYPyFx+c3eaNvuZ4KSQEgQKEBjVbyDVPbx2gSs4JUlg+CMPUp/BAyWztCavajtVpdmPThSVR3tAKCpswMyCDhT8dJfqjAKKm0s2+8X5NP7JSTTrhblhbkPalBCosNlm9NqMOSmRtjzF9GsPpGgEbZekykM+wQho2z2YFOlMJbXgo72wk0SfrmFRbV+N2kbZKpeGDTTz1K4HEvVVezGI+Walvmr6is15a/oIAjLBLS9R3/1K026r/MrFeTsIRB0r+EmPgIwfmfXPa7avXJpU/ysekLn7gftp0Kjh6xPBGRAIQYBfXTbqroG09VaVQ9yFpGEJ/PTzz9S4XSv69/vvhb3V+vT1jzqGBvfqKyqn9kRaVNiQmRUbMPjpXeyekMUHSo5ATCBMqU9Uc+996Yn7R6Vejywr4NcmSOlsum2Rkjur+eCpmPiWlVrw0V7ckZpgxicWLwdb2yhb5YpH2/zd2vVAor5qy8jUJeQ0bz2U6BLQXDBEQMalXHqvVY+02/vSmiFF0gSk5zMIyAS3qGb7ylJIjZfFAzKTZ06nq3vcFJwUUoKAD4FGpzakPtfe4HMVp6UIPPjEeLr17julsrMmn0tbXExXXnyJqDzaDbuosBEzyx84FBtMSnVEpUR9atZMmvLsTDwRUwpURq43dtr+3mj7rbZmsXZBQvD8dkgiT+QRjYD25C+aVOm7S2rBR3uR11S/rm1BW9soW+XStod0/tr1QKK+asvITCXklLYN8gtOQHNeiYBMcDto1CPttj64dkiZJAHp+Yz2mFxa3iTZa7avrJfUeFk8IPPOiuV0eqsLkmSPsjNE4PrLO1OLxudlSCP7VPnjjz9y35J569137BMuhkQDbulFpx5XP0YO696q3QGuW1ryv7hDXvTqEmK9C23aHTb744TpT9Gz8+fQp198XkgEnMsoge4dr6SW5zTJqHbZUEt7oqndvmTDCvpalFu/p0lUasFHe5FXaoKpyTJI3ra2Udp1KkuLsMXsrL3QIlFftW3NfMrF3sV8Ico1d27D/JLcNP04S76h3Z5L1HevH2nL6y0Lx3YTkJ7PaPcr0vImaR3N9pX1khoviwdkWLjap59EX3/7DR9iA4FYBDbeeGPi78kcfuDBsfLBzcUJjJ4wjnoM6Fc8Ucqujh88gg7er6aY1Bhc/Y1Ss7NmzrMXzKesBQj/poejUgQmj3iQ9t1jr1LJcD1BAtrtoWYbkyC2VBWtPelLFQwBYaUWfBCQCWYMW9so7XqVpUXYYpbWXmiRqK/atnb5SC0KufmVw97rP0mON7xySHPPUlug3Z5L1HfXfqbqvVse9nYTkG5ftP1LWt4kraPZvrJeUn2vSkDmiluuJ37FDDYQkCBw4L7754IyFTffXCI75FGAwPc/fE8NL2pGn3z+WYGr6Tw1fcw42r16DTHhtQeDYoIqZ6Q9wD/gn/Xo5zVrlLVA9rYS2KLSFvTKU8/aKh7k+ouAdnuYpQlBGp1Ge8KXRiZxZZZa8EFAJpglbG2jtOuW9hgtGH39VNoLLVL1VVtOJi0lq77V7CjBr23gcQdvnf7am5BW0z+y1Bb42UzKRpJ1SLuPltIZ+ZghID2f0R5DSMtrhnLhUjTbVy7R6oDM+KmTqPsdvQqTwVkQiECgyemN6Narr41wJ24JSqD/8CF035gHgia3Pt28CVNph223E5NTezAoJqhyRlKdTyExJ0ybQtf2vq3QJZwrEwLH1zmahvbO1tN6WTSddnuYpQlB2uyvPdlLGw8peaUWfLQXezT7eCmWQfKxtY3Srl9ZWoT1s7M2Qy43LfWVZS0Hm7OeUluQtsHUGERzwTBLfhHEZnH8Q6q+a8sZR0fcmwwB6bZEu/+TljcZ6n+Wqtm+cglS42WVJ2Q+/uxTOvbcM5Lkj7IzSKB981Z0VZv2GdTMDpXe+3AlnX5xM/rll1/sECimFEunP0eST1VpL4LEVNfI7VIDVj9hz2x9Ib31r2V+l3G+DAh0bd+RWjdpXgaapltF7UlnliYEabO09gTGFh68WMVbx5atc/uBo4b7fjMtlyDmf1L9p/ZYRGqCGRNX7NttbqO061hWbOjnBNoLUlxuWuqryyjrNnf1lNiHqX/cT9Q66BC1p2bCyBJWdwRkghOTqu+a9gyuTbiU7liI72Jf5632X/vcj7z/vOn5ErfH+dtC5xu0vPG3aHkrlCZ3oQz+k57PaPd/0vImaWLt+ijV76oEZBj8qS2a0PL3VyRpA5SdQQItzj6fru90VQY1s0Ol6/veTuOmTLRDmJhSSDWSrhjaiyBuObbupQarfvrNnPscdbi+q99lnC8TAhOGjqQD9tmvTLRNr5o2L3aml2rykmvbNSkN3UU1d5Ehf0GB5dLu46X6UG05pcdOSdlc25fjLFpoLxJI+VpStitVrvaCFJcvxdCErJLylmKf9utx2gWu87xJvtJMsy3gfo79OAtbHLsF0V+ivmvLGESPYmnccQ8HXYqNhYrlEfcat4dusGag883YctjijBUK8dHuU6TlLaSDqXOa7SvrIDVeVgvI3NSvDz08eYIp3iinjAhc2Pg8uuHyzmWksTlVX379VWpyWVtzBSqWhCdk5OBKDFRLSXPJtZ1p9oJ5pZLheoYJbL1VZVr45IwMa5gd1bQnnlmaEKTJ6tqTF20W+QsO7u8g5WoHOqT6UW05pSaYQZhrprG5jdKuZ1lvP7XrAPulVH3lvLTtzWVkafGd9dHapNoFqTqm6RtZ8gkpu/n5Vdz6rr1I7id3sfPu+IefAnaPi6VP6hrblresBmik2grXPtq+Ji2vK3cSe832lfWRGi+rBWSmPz+LOt3YLQn2KLMMCGSpsbDNXO2v60LPzp9jm1ih5ZH+hoyJCWBoJQ3cEHeQGkTEJ6ZPpa633xokKdJkmED9o46hwb36ZljD7KimPTlGH2/eV7RtKq0RLzBI/qWndh8v1Zdqyyk1wZS2d9j8tP05ThulbcM4soXlnER6bX6sk1R95bxMyCstM+eXxU16gY7rGm9Rn5qRlsdrMwRkvDSKH8et79r9TXHp/77qBl5sD8L8LfG6R8yRtywFZ6T7YwRk1vWZYr8021cuV2q8rBaQ+e6H76n26SfRf//732KccA0EIhM4sd5xdF+PPpHvx42FCcyYM5suu+HawhdTdHbamEdpj+r/EJPYlsGWmEIBMoo7QA1QBP24ejWd2/5iWv7Be0GSI02GCXS5pAO1vaBFhjXMjmra7aH0BCY75HU00bZnXKm9iwycl/s7br7e+7UXTaX6U205pSaYXrZJHGv7dJw2Slu2LC3EFvId7UUWLlOqvnJe2gtoXAZvcXzyzxyy/b92vWP+/CqoMP2Tpi9nqR3Qtl3c+q5pxyC1km2d1iCMn37aNvcrV/q8dLus3Z9IyyvNM0x+2vVSarysFpBhWM2vuJReWvJyGG5ICwKhCOxSdWea9cgToe5B4tIEzr20NS198/XSCS1OMX7wCDp4v5piEmZlYBAUSNzBadBy7n7gfhrkfEwZGwg8OmgYHVrzQIBIAQHt9jBLE4IUmNPIK3XCcHAXtEwuMGgHOqT6VG05pSaYYeytkdbmNkpbNuaZFTvm+4b2YpRbnlR95fxMycxlZdXurFvczUS9YxnDjF80FwwRkAnuMXHquym/KqRNFgMx+Xoy30WvLsm1o/nX0vA7THsQRB/t/kRa3iA6aaXRbF9ZZqn+VjUgM8BZaLsXC21aPoZ8PQQ4KMPBGWwyBPj7T/wdqDRvA27pRaceV19MBe0OUExQgYziDEzDFP/28nfpvA5taM2aNWFuQ9oMEti2yja0YOK0DGqWTZW0J6BZmhDY7gHatgyqfxJBGK9s2oEOqX5VW06pCaaXbRLH2n4dp40yMZ6U8rckbFesTBPsuHxpftr11mUWxy/dPLK6116cc7mFaUM1ZUJAxrVI6X2c+q5pQz/JyyEQk6+7dp+eX57Ub+k2WbsPlJZXimOUfLTrZpi2vpj8qgGZBa8sphZXdihWPq6BgBiBOJ2pmBAZyWj1zz9Tw1ZNadUnH6dWo0tbXExXXnyJqPzaDbuosBEzM1mPLu5yBc1duCCipLgtSwROOuZ4uve23llSKdO6aE+MsjQhsN0RtG1ZSn9bFha0F0yl+lZtOaUmmKXsrn1d26/jtlHa48m48mnbJ2r+2v7vyiVVX938TMnN5WWlDrvsJPba7YErY9h6p9kOICDjWqX0Pmp9N+VXXg3C+pj3Xs1jZpG/8Sv83I39UWJLgnkcuaXthYBMcGtotq8shVRfqxqQ+d35fky9sxvSl1/9Jzg5pASBGASG972bjqldJ0YOuNUlkLYOz5Xb3Wt8INzkhMrVw+Q+6oA0ioz97r+PhowdFeVW3JNBAtd1uJxanXdBBjXLpkra/YP0BCabVpDRSnvC4ielbTbW7t+l+ldtOaUmmH52N3Xe9jbKRL3Lii29PmOCG5cnVV9d2bUX0dxyeG9b2+qVLaljU34Tlr2mXAjIBPe2qPVdu5/J1yCsf+Xfr/U7aPvGPlnrryBN2O8t5cuuPRbKLy/qb2mbBWVti7xR5ZC4T7N9ZfmkxliqARkWtEvPm2nSDLyGhFlgM0OgT7cbqdEpDcwUluFSVn60ihpedAH9nNLXSVXbqSrNfnSiqIW0O0FRYUNmFnUwGrKYXPKnn59FHW/sFuVW3JNRAhOGjqQD9tkvo9plTy3tSaj0BCZ7FpDRSNuOhaS01bbak3upPlZbTqkJZiHbmzyn7dtx/Vjbjsw6rowm7RWkLJNjcKn66tXLhM3d8jTkd/NO2167LfDyCNt+ai4YIiDjtUzx46j1RdN++RLb3J7HaZtZL946/bXP17vYb5N1u5gcxa5J2y0O62Jyutek5XXzTWKvXT/Dtvd+DNQDMlh480OP85oEurbvSK2bNNcsoizyvr7v7TRuimxQwyS4pU8/TxUrVBArUrsTFBM0ZEZRB6Ihi8kl//cH71Pba69K9evwouiNe/wJ8F9LPXTPEP8EuGIdAe1JUJYmBNYZzyOQth09RREvDnVs2Tq395635Vh7sVSqn9WWU2qCmbRdtX07bhulLR/zjytj0jbML1/b973lSdVXb54m5xBZWoz3MoxyrL0o58oUpb5pypYlH9BuL6PUd5P1OYpvuX5pYi/FIoqe2r4Rl18UnYqVKcXarwxpef3KMXFes31l+aXGy+oBmd9++41ObHYOffzpJya4owwQWEugxzXX0XkNzlz7GwfhCSx+bSk17Sj7HZbwUkS/Y3T/QVTn0MOjZ1DgTpMTwgLFi5+KMgiNKsRX33xNza/oQMvfXxE1C9yXQQLdLu1EF53fLIOaZVcl7QlQliYENnuB9mTF1T0NC0PafbtUX6stp9QE07V9Unvb2yht+VzuWbGn9iKUy8vdS9VXNz93b6rN5fLQjxKZqmdReWv6Qxr6XbdelNpr2zFKfdeWyWWShnoszSKszqb7B9c2QfZhdSmVp7au0vKW0kfzumb7ynJLja/UAzIsbI977qLRjz/Kh9hAwBiByltuRaPvHkT77LaHsTKzWFCaP7zeue2l1K5ZS1GzaHeEosKWyCzKALRElkUvn9qiCYIxRQmV38UNNtiAZox9jKrvXK38lE+xxtKTr3wUWZoQ5Otm02/tyQrrmhZbarOQ6m8RkAlWg9LQRmn7XJrqXymravt9fvlS9TU/36zoka+Xrb9N1DFX9yiLc5ryISDjWqb0Pkp9N1WXo/hVaY1lU2j1t2HGj7w+M3DUcOK9TVsYHYLIrb0OJS1vEJ200mi2ryyzVN00EpBZ8MpianFlBy3WyBcEfAmcdsI/6e6bevhex4XSBIY9PIbuGHJv6YQWpjix3nF0X48+4pKZGoSJC+7JMMrg03N76EMEY0IjK4sb6h99LA3ueUdZ6JolJbUmXy6jLE0IXJ1s22tP6lx9pSYsbn4aexMspPpc7fFHGuwVxAfS0EZpy+hyyoJNtRdWXFbuXqq+uvm5exNtjVsW77O0KO/VK8ixqfrFskQds2j6dZZsr23LKPVd03auf0f1K/d+U3tN+zCD2s6rrdmfg2zaY6QgMnjTSNtQuw+RltfLwvSxdh2VGlsZCcgw/DNbX0hv/WuZaTugPBAQi16WK8o3332HzmrTIpXqb7/tdjR/wlRx2bU7Q3GB8zKMMvDMyyLUT9sGR6GER2JVAr2vvYEan9pQtQxkLk9Ac/LF0mZpQiBPXyZHE/1YWuyo7c9sMal+V7s/lZpgynhp9Fy0bSrh29oyuvQkZHXzSmJvipNXN6n66s3TPdauw2457j7t9nf1CLM37TNR203NBUMEZIJ7TJT6rmk7V/KofuXeb2qvzSKML5sY24bhKt3+ausnLW8YVtJptf1Sqn4aC8iY7hilDYr80ktAqrKkl0B8yRu2uoCWrVgeP6MEchjSux+dUOdo8ZJNT6ikFIgy6IxTdlo5xdEZ9wYjsNUWW9IzDz9OvMeWLgLaY7osTQhstay2DVnvtIy/tCdtzEKq79XuU9NiM2ZabNP2b6k2yoTvMScpeYsx17imvfjkJ7NUfS2UfxI6pdX+hfiVOmeabxy2mvU/zCJ2KaZJX9duz8PWdxM+FsevTNpL2zasS1hfNmGfoIyl7aitm7S8QTlppNNsX1leqfGysYAMPx3DT8lgAwHTBKQqi2m5bSqv58D+NOqxR2wSKbAs5zc8i27r0i1w+qAJtTvEoHKESRd2wBkm70JptReOCpWJc+khwE/G8BMy2NJHQHsClqUJga3WhQ3/tIw2B9f+Uv2vdr+alTGztl2l2ijtBQPX/3ifRttq+7uXj/dYqr568/QeJ6GXlM969bDx2GSdYv3j+IqmrGEXsW20pSuTdnse1oYm1gDCyuSyMr3X9GFXlyi+rO0zrmyl9tLtrrbvSctbio/mdW3flBpTGQvIMOwWV11GC15epMkdeYPAegSkKst6GZfRiTR/B2rbKtvQzIcep4oVKohbTLtTlBTY9MAuicmmJC/kpU+Avx3D35DBlj4C2hOdLE0IbLUubEikzcBre6k+WLtvzcqYWdu2Um2UtpxeH5SS2Zun5rFJNvl6SNXX/Hzd30nNH9LmAy6voHvt9jFfjrg8NRcMoyxi5+tny2/ttiBsfdeWh7mnoS82wYFZRPVlU/KxjH5b3DYiP1/tvkNa3nz5Tf7WbF9ZD6k6ajQgM3rCOOoxoJ9JO6AsEBCrLOWOsvElrej1d95KJYb+N95GDeqfpCK7DZ19KcXCDjRL5VfquukJUSl5cN0+AtWr7UIzHhxPG2ywgX3CQaKSBLTbvSxNCErCTCiBdjttut+JglF7suaVSYqHtt2kJphe3ZM4TlMbZdIP09K2ai86lfJJqfparBztuuxXdlp8wE9+v/NJ8IzLUrPuR13E9uOb5Hnt9jxsfdeWJw22M9lGx+GRRLvgrStx2whvXnyszV1a3nz5Tf7WbF9ZD6nxstGAzMeffUonXnA2/fbbbyZtgbLKnIBUZSlzjDRk7Cjqd/99qcRwQt16NOT2O9Vk1x6YxRE87CAzTll8b9IDn7jy434zBC46vxl1u7STmcJQijgB7TYvSxMCcfhCGWq31bbbUNuH880k1Rdr2y0rY2Zt+0r6t7as+b4oKXt+3hK/tRecgsgoVV+LlZWknrb7QDFu+deY48BRw3MLlfnXtH/HbS81FwzjLGJrcwubv3YbGba+a8uTBttpj0W8PhKHR5LtLOsg3dZq6yMtr9eOpo8121fWJW777/IwGpDhQjve2I2efn6WWz72IKBO4O1ZL9BGG22kXk7WC1ix8gM6ufm5qVVzaJ+76Pgjj1KTX3twFlZwHrx0bNk695hv2Hujpjc5OIsqI+6zg8BD9wyhWgcdYocwkCI0Ae32LksTgtBwDd2gbcM4E2htBEn0VWEXfPwYaMsuNcH0k9/UeW3/lmyjtGUtxFxS/kL5Rz2nvdgUVC6p+lqqPO36XKx8W32gmMz515L0Fwl+mguGNvfB+XYs9Vu7jQxb37Xlsd12ptutuDy07VXMfyXaCW/+2m2etLxe2U0fa7avrIvUeNl4QGbSjGnUpefNpu2B8sqYwCvTZtEWFSuJEeCGkDuGctyS7NDi8tZ+Sobls4VP3IFLFNamB2dRZMQ9dhA4YJ/9aMLQkXYIAykiEdBu67I0IYgE2MBN2jZMoh8Kgi2pvirsgo+fLtryS00w/eQ3dV7bv6XbKO2Fg0LcpXUoVEaYc9oLTWFkkaqvpcq0QWfb/KAUM/e6dh13yym0l+rfNOu9lIyF9Dd9TtvWYeu7iXobViZTNtEegxTSQ8KXNetaIZndc9Ltq7bvScvrckhir21zqfGy8YDM//73Pzqz9YX09vJ3k7ALyixDAnMfn0I7bre9mOY8KOjUqo1YfmnLKImOWIqR9lMyLKf2oLEUiyQ60jT7RCmeuC5P4JbOXanpGY3lM0aOxghot3NJtGPG4FlSkPakjtW0aUGB9U3qtTaSLLT7W6kJZtJunrY2SlteP3vY0tYmpb8fF5Ntlw262+IHfvbwnk+6LWdZpHhpLhhKLGJ7uSd5rF1HwtZ3E+MnKR+TsluS9U7Cl03YrBBraTtq6yEtbyEmps5ptq+sg9R42XhAhoV/aNLjdPNdd/AhNhBQJzB9zDjavXoNsXJ4Mqz5KihuaLnjsXXT7gg09a5Xuw6N6Hu3ZhG5vJnRwleX0EAneGdqY5/R9Es/PbQXh/zKxfl0Ethn9z1p4vAxtOEGG6RTAUidI6A9Oc7ShMBWlzHRl0tMoiX4aftrEBnDLvj45and50pNMP3kN3Ve2+YabZT24kEx9lL+WayMQteSGC8XkiP/nGke2vU6Xz+/3xp+7VdWlPM2cJJkpFnnbel/o9g5/x7t9jxKfde0nau/Lf2xNn9XX7+9lC8n0X5IthfMR3vsLi2vn01NnNeuo1L1M5GAzO+//557Subd9/5twhYoo8wJTBw2mvbfax8xCly5pTqGQkJxQ9u5x03UvNE51Oysc2jzChUKJUv0HAcauHNO49an243U6JQGRkQ3NYBJqvNMYmBjxHAoRI3AjVdc7bRt6f0WlRqYlGWs3bYl1aalzAyxxNWe1LnCaY6X3DL89qZ09Cvfez7Kgo/3fvdYu9+VmmC68ia1T2MbpS1zKVtwXTX5hz1J61uMh1R9LVaG95pNbRXLZVsfbJOvSLaRmguGSfa9Xt+WONa2f5T6rt0XM7ekbcjtUpJPFru+I8UhiXZWui3V1kFaXteGSew121fWR6ovSCQgwwqMnjCOegzox4fYQECVQJRO1k8gbyMoma+3PG8Zm26yKZ3b4Axq3vhcqr5zNW+yxI+HjB1F/e6/L3E5wgrAf6E/fvAI2nSTTcLeGjm91kAyyU7TxEA0MnDcaCWBPWrsRhwg32Tjja2UD0IFJ6DVprkSJNm2uTKUw157suJlaMqmPIayYQHBqzsfS40ZtfteqQlmvv6mf6e1jTJZJ/1sohmY4fpp+glyPz2LnZeqr8XKyL+m7bP55QX5ze02b0m8qtvGtly6H9Os71KL2EH8RDuNdt2IUt+1+2KXaRJ2tK3uSTLQrHOuzbx76TaDbcO+p7VJy6slZ5B8tW0tNV5OLCDz85o1dFabC2nFyg+C8EQaEIhMoMslHajtBS0i3++90TsgkOwcvGX4NbQNTzyZzm94JtU66BBv8kSPR457iHoNGpCoDFEK79z2UmrXrGWUW2Pdw7bliegi5x8fh93Y53gz+ReMhWQ0NQgtVDbOpZdA945XUstzmqRXAUi+loC3L1x7UvDAbesEsyybrHhhIehmui3XWtxz+1MbAzGuLaIs+Lj3evfaNpOaYHplTuJYu43SWrTQljusLbgt5jEnb1HbZXfsa/I1vmH1zE8vVV/z8y31W7t+lyq/2HWt9ttbJvuKre24Rp3XXDDk+hpmPOC1g23H2u1ilPrOvsr11dSm4X9e2W1upyV9WduXvEz5WNpu2n4nLW8+D5O/NdtX1kNqvJxYQIaVSOtiLsuOLT0E6h99LA3uKfPNovxGXKoiemmWamiPPaKu88qt0+iU4+p7b0vseOzEx+iW/n0TKz9KwfwauFH9BtJB+9WMcrvYPexP7sZBGt7Y/t5JrxuAq+0E4rzn3ftM722eLJpmgfKCE6hRbRfn6ZgxVr6CMbgWSOkSyO8L3fPYJ08gzLik1HhDUxue9Llb0L++ZnndLc4fN7h5mNxHWfApJJ92HxzGfwrJZ8s57TZKc9FCW/aoNsofg3rHp5wn10l3845p3XNp2kvV17A6J9kmh5GVfcFr/3zfCJKX255zAIY393eQe5NIo9E2ai4Ysk0QkAnmKVHqe1J11R07BR03+RFw61sa6p+kL5u2m/RYQVt+aXn9/M/Eec32leWX6hMSDcj8uHo1nek8JbPyo1UmbIIyypTAtlW2oQUTp4lon1+xo3TgpQQJ2tAeWvPAXGDmtOP/mfgi58OTJ9BN/fqUUs2q64c7AY7RTlBmo402skoum4XRXgiyWXfIFo9A1/YdqXWT5vEywd3WELB1wdAaQAkKEnaCkD+uSVD0tUV7F/fcRYO1F1N6IDVe1O6Hw/qPrebQbqO0Fy1srJe22lpDLqn6GkW2oPPAKHmbuMfbfnvLS3NbrlXfNeu55CK2145JHGu351Hru6b9gnJmO7vBUfce/iNO3goFyXPnPX/ckkto+X/Svqw9jvLilG47tPsHaXm9LEwfa9dPqfFyogEZNsr9D42mvkMHmbYPyiszAlNGPkR777ZHbK3zK7Z0B8ECzlm4gFp3uSKwrDttvwOdfOwJdNIxx9Eh+x8Q+D7phGl84o1fn8SvUcJWmoDJwUtpaZAiTQSq7VSVJg8fQ5UqVkqT2JC1CAHtyXGRonGpBIGwEwS07SWACl2OuuCTX7y2vcL6T758tvzWbqO0Fy205bfFTrbKIVVfo+oH+0clJ3+fZl3PX1eQlF5jjUJSvjB5adeHqPVduz8OwyjLaaV9WTuo4bWFdPuhLbu0vF4Wpo8121fWRWq8nHhA5tvvv3O+JdOCPvr0E9M2QnllRKBn1+507mlnxNLYbzAQtRP3E2bac8/S5Tdd53e56Pk6h9XKBWZOPuZ42nqrykXTalwcNHoE3T1iqEbWann27X4znXnSqWr5ZyFjDDizYMXkdEjqm03JaZz9kv36w+xrbr+GYScI2pM7+4mZkVBqrKjdH4f1HzP0wpei3UaZWLTQtnV4quVzh1R9jUNM24fjyFYu92rXc80FQ+lF7CRtrl0XotZ3jJ/MeIWGL2vWPS8V6TZE2+ek5fWyMH2sbWOp8XLiARk2zOAxD9Bdw4eYthHKKyMC/L2Ve27pFUtjv8GAdCfx2NTJdN0dPWPJut0229IFZzamZmedTVtU2iJWXmFv7nDDtTRzzuywtyWann3Dlm/yJAqiQOFYECgABacCE9hxu+1pkvN0TBIB4sBCImFoAn79YeiMcIM4gSgTBO1Ji7iSKcww6oJPvqrafXIU/8mX0Ybf2m2UqUUL1M1kvEmqvsaVXru+x5Uvy/ebqOOa9Vt6fSJJW2u353HqO+qovmdo+LIpu0m3IwjIBPc3zfaVpZAaL1sRkPnqm6/pjNYX0udffhGcMFKCQEgC08eMo92r1wh519/Ji1XqOB353yX8eTTqsUeo58D++acj/d5152q5wMwFZ55NG2+8caQ8otzUtFM7Wuz5uGeUPEzf8+igYcTf5cH2NwFTg5W/S8RR1ghccfEl1KHFxVlTq+z10Z4clz3gGACiTBBgzxjAA94qNU7U7pej+E9ABEaTafu09CKLHxxtPfzKLffzUvVVgqN2nZeQMWt5aCwAF2JUbG2hUPow50zpEEamqGm128E49V17gTwqsyzdp+HLpuwmPVbQllta3iT9ULN9Zb2kxstWBGRYIe2GlsvAVt4EOrVqQ9zIRNlK+adkR3Gf88RYf+Enxvj7OU3PakxNTm8URf3Q9/y8Zg01uawtvfWvZaHvTfKGRVNmUuUtt0pSBGvKxgTQGlOkVhD+vtXjQx6gbatsk1odIHhhAqX6xMJ34awJAlEnCGjzda0TZ8HHK5m2naL6j1dGG4612yiTixbauthgL9tkkKqvUnpp13spObOQj+ScvhQPzQVDk3qU0jPude02MG59R/2Ma+Hi92v4snZgw9VIeqygLbe0vC6HJPaa7SvrIzVetiYgwwu453doQ28vfzcJe6HMMiCw2aabEj8Fse8ee4XWNshAQKoB69LzZpo0Y1poGYPcMKR3PzqhztFBksZOw3X5jIubx87HdAYIylCuLX7ljddMo0d5GSNwS+eu1PSMxhnTCuowgSB9IkglQyDqBEF7kpcMDXtKjbvg42qivfAT1X9c+WzZa7dRUmP+oLy09QkqR7mkk6qvkry0676krGnOy2QbqLlgqLGInZRdtdu/uPUd4yddz9DyZRNtqvRYQdvXpOXV9YziuWu2r1yyVF9hTUCGlXpq1ky64pbr+RAbCKgQOO2Ef9LdN/UIlXeYQUDcDp0Fa9jqAlq2YnkoGYMm5r9Yf+L+UVSl8tZBb4mVrvsdvWj81Emx8kji5nJ9fRm/PvKUC8+nb777NgnsKDNDBE6oW4+G3H5nhjSCKl4CYfpF73041icQZ4JgYnKqT8DOEiTGh6yZto3i+I9N5LXbqCQWLbR1ssl+ScsiVV+l9YAPSBP9Oz9e9O3YsjXx3tSmuWCotYhtio23HG2/l6jv2n2zl0e5HWv5sgmbSY8VEJAJ7v2a7StLITVetiogw4pxQIYDM9hAQIvAkw+MpX123zNw9mEb6ziVc9l7/6aGLZsGli1KwkanNqQ+194Q5dbQ91x6fVd6Zu5zoe+z4Ybbu15PZ592ug2iGJFh8WtLqWnHS4yUhUKyTeD/NtyQHnGeRjxo3/2zrWgZa6c9OS5jtLFVjzMG0Z7oxVYuxRlILPiw+mHHpGGRxfGfsGVpptduo6QXWYKy0NYrqBxZTydVXzU4wQfkqWot+JaSVHPBMCmdSukc5bq2z0vVd017RuGWlXu0fNnEmFd6rKAts7S8Sfqgdn2UGi9bF5Dh1xzxq8v4FWbYQECDQPeOV1LLc5oEyjrKACBOp9F78EAa8ciDgWSLk+imK7tQs7POiZNFoHsnz5xOV/e4KVBaGxO1aXohXdPuMhtFE5VpnPMU0/XO00zYQECCQAfnLwyvuKitRFbIw1ICUfpGS1XJnFhxJwiwrY5LSC34ICATzD7afpzkooW2bsEIZzuVVH3VogQfkCObZF3WXDCMsx4hR1cmJ21/l6rv2ovlMjTTl4uWL5uwl3T7oi2ztLxJeptm+8p6xZ1vuWysC8iwYNqNrqs89uVJIGhDE8cPo3Qcn3z+GTW6pBV99fVX6obZ0PkL9ntv6031jzpGvazRE8ZRjwH91MvRKoBfvXR9p6to5x130ioi0Xx7DRpAI8c9lKgMKDw7BPbfe196ZOBQ2nSTTbKjFDRZj0Cc/nG9zHBClIDEBAH2FTVJLjOpBR8EZILZRtuHg84lgkkbPpW2fuElytYdUvVVk4r2wpym7LbknbSdNRcMo6xF2GKXfDm02ztJP9CWNZ9NOfzW9GXNOsi2kR4raLf70vIm6Z/atpWYbzEfKwMy/HQMPyXDT8tgAwFpAqU+NM0N3cBRw4n3cbawnceNd/amR558Ik6Roe6tuPnmNKb/IKrpLKBqbyPHP0x3jxhKP/38s3ZRKvn/Y5ddqbsTlKlX60iV/JPIdOVHq6jnwP703IvzkygeZWaUwKAefeif9Y7LqHZQyyWACadLwr691AQBNpa1rdSCDwIyweyi7b82LFpo6xiMdDZTSdVXE3TgB+Ep8xzd9PdiCkmpuWAYdh2ikHy2nNP2cen6ri2vLXYxJYemL2uPqaTHCgjIBPc6zfaVpZCab1kZkGEF+Tsy/D0ZbCAgSWC7bbal2Y9OpE023nidbN0gDJ+MG4hZJ2PnR5CGeNrsZ+jym7vn36r+e5utq9C8CVOJv/mgvb329pvU3wnKvLB4oXZRavnza94uOOts2r16DbUytDP+cfVqGjvxMeff4/T5l19oF4f8y4jAOQ3OoF7XmG/HygixNapismmNKdYTRGqCwBnDzuvhjXxCasFHe/FA0n8iwxK4Udt3g4ztBdQomYX24kxJATKaQKq+msKj7e+m9DBRjubiblj5NRcMbdIzLJf89Nr+rVHftWXOZ5Tl35q+rD2mkh4raPf50vIm6Zea7SvrJTVetjYgw0pyQIYDM9hAQIrAPbf0olOOq79edtqNcbGOPulXeu28U1V6zglSmdrSPkDhJ4sucAIzzZzAzA7bbmcKW+xy/vjjj1wg5iEnEPPehytj54cMQMBLgIPd/KqyXaru7D2N44wSSHs7nlGz5NSSmiC4jMrN1jzx5036j3OKjQNd1kH2SY5Xg8hnSxptv7Vt0ULbL2yxqyk5pOqrKXndcrT93i0njXtu2214KsbLiXUifQAAIKdJREFUTnPBUHMR26uDiWNtv9aq79pym2BvQxmavqxtI+mxAgIywT1Ss31lKaTmW1YHZPiVZfzqMn6FGbbyILDlFlvS3rvtnlP2199+y/0F/+f/+ZL++9//xgZww+Wd6cLG5xXMR7sx9quw2o1qQWULnNTs6AoUR7fefSc9+MT4QpdSc27bKtvkgjLNG51DlSpWslruJ6ZPpQedQMyby962Wk4Il14CN15xNTVvdG56FYDkoQho95mhhEHidQj4jTfWSRTyR7nY2504a+grteCjvfAuJWdIFxNPrmFDr5Cur3jPJX1sy5xCk4PLHfXAn7K27/uXbO8V129sk1BzwdD03F6TrbZPa/Z72rJrcg+bN/scBz25fZbcNH1Z2z7SbY92Py8tr6QfhM1Ls31lWaTmW1YHZFhR7UrCZWBLngA3tOc6r7s5/cSTCwrz1Tdf54Iz7/x7OS1Y8nLutVd8Lsh25KGH022dr6Vdd67mm1yzcSvWsGmW66uszwW2Ab9uKOpfuH/82adUdYcdfXJf//TVPW+myTOmrX8hZWdqON+X4deY8evMNtxgA6uknzFndu7VZC85dQYbCGgROKZ2HRre926t7JGvhQQwNrPQKH+JJDVBKKRhVu3uLiLwnjcNPaUWfLAQXcgz1z+nYUNvKcXG9t50SRxr656ETvm8tRdapOprEqzcMrPoB65uQff5fhP0PlPpNP2Y+zP24yxs2r6sXd+15U/axvljKGm/1vRl7bU46TYobfIm6ZvSfpivi9R8y/qADD8dw0/J8NMy2LJBoM5htWh75/U2O++401qFOrVqs/Y46MG/3l9BC15ZTB+sWkWfffE5/fjT6tytm22yKfEiebWddqKqThnHH3lUoCwLdZbu5LzWQYfQwJHDAuWTn6hYZdVuVPNlKfWbXzt0fsMz6fzTzyJ+AiR/e+WN1+gL54mlg/c/YJ3XdXW66Tr68JOP6ULnaZFGpzTIv63gb/6ofP2mjQteS+PJfffcm449og4dechhdITzL6ntnRXL6cWXFzlBy8U0d9GCpMRAuWVEgF9VdtiBB5eRxlC1UH8JKnYQKDbmkJAwS7bPX0Rw+WiMzaQWfBCQca1UfK/tp9KLLMW1CX+VfXjgqOHir94LL0n8O/JZa9TPfCm129H88jR/a9cFTdmj5u3XtkfNT+s+zQVDzUVsLR5++Wr7sFT/7Ce/e15bD7cck/v89pnLlvZrTV/W7k8K8Yljn7TJG0fXuPdK+2G+PFLjBOsDMqz4vMUv0UWdO+UzwO8UEuDvt/B3XGzfuLHjxj9/CzsRDtLBt+zc0boP3XNghgNZdQ47fJ1v7rTrdjXNemFuDkvlLbeinZwnYlY5gZjvf/h+LarGpzakE+sdSyfUOXrtuUIH2h1KoTJNnatebReqc8jhdGydunRcwIBgHNlef+ctembenFyAko+xgYApAte0u4zaNL3QVHEoxxICWZxUWoI2thhSE4RSgqTZB3h8x39o4/fHQBrjkyDjwVLM+XrYcWiQPL1ppOT05pnEsbZ/Si+yaDFiX05rYMaPsUb9zOdvqh3NL1fzt3ad0JQ9aN7cttv2nZhismsuGGouYhfTSeOatu+a7PdYl0WvLkl9sLxYXZP2a01f1u5P/PqxqPUkbfJG1VPiPmk/zJdJapyQioAMKz/0odF059BB+RzwO0UENBtTUxiCNoLFOql8WV97+006u91F+aet+r3N1lVoO+eJmTBPqvETNicedQxV2XrrtbrwE2/vOx+U56dpVn36Ma0pg+9D8XeR6tU+kk4+5jj6Z73j1rKIe7D4taU0c+7zNHvBPPrw44/iZof7QSA0gQb1T6L+N94W+j7ckH4C2pPj9BNKTgOpCUJQDdLkC0HHZkHHekEZcTqpBR/tgIz04kEYRpJptf0ybZzYpzkwwxsf27oxV978gqV8TaN+cr7uloX5qqtLoT3XDd6ivvmhUJ5Jngvaricpo1/ZmguGWfJj7fZcqn/2s3Oh89o6FSoz7jn2Kd5KBT2l/VrTl7X7E+mxQtrkjetzce6X9sN8WaTmW6kJyDCAy2/uTtNmP5PPAr9TQiCJzk4DTbEONOqgcOT4h2nI2NH09bffaIiMPC0isPVWlalK5a1p6622cv5Vzv2rwseVnWPnqSM+981339LX/O+bb5zj7+grxy/43Dfffps7Zj/5/fffLdIKopQbgd12rU4j+w2kHbfbvtxUh74OgWL9IAAlS0BqghBWC/YJG//qM8q4TGPCKzUGRkAmmGdqt1HSiyzBtJJJxf5t01MzXEeLPbGWr7W2bTUX//J1Sfq3re12KS5sI95KLQyXyifp65oLhlnyY+06L9U/R/En1o03mwOk7Eth6pq0X2v6ssZ4z+sH0mOFtMnrZWH6WNoP8+WXmm+lKiDDHw1vdXWn3F/Y5wPBb7sJeBujz778gpa++Tp99+MPue+UlHq1lY2auZ2nK1tt59UXvLkDRPd8mP2PP/1Ebyx7m1596w16wfkGSLGNF+bfW7USi/LFIOEaCICAGoEht99JJ9Stp5Y/MrabgPbk2G7t7ZZOaoIQVUueLC50XseRZHCGx2K8wMtjsyjjMo0Jr9SCDwIywTxTu43yzmuCSWRnqiTqq1s/mUiUOqpdB1g+rq/ltCXhB2H5um15mIXhsGWYTq+5YJglP9Zuz6X657j+o61nGPnYf7iu8ebWvaD3S/u1pi9rjPe8nKTHCmmT18vC9LG0H+bLLzXfSlVAhiE8O+95at/9mnwe+G0xgZ133ImeGzcpJ+F9o0dQ/xFD10qr2cByIfzh+PkvL6Tpz82iT7/4nDgYVGHTzWh75xsp/3D+wvuEukfTYQccRFWdb6GkcePvt/Arz559YR49NWtmGlWAzCAAAikjcPlFbemyvwbpKRMd4goRcBdvhLJDNoIEir3qR7CYwFm5vqIVoHEXCqIuHARWxJKEvGCjudnmP1F1df0u6v2l7osSSCiVpw3XmRtvblA1dxzjFWdu/YwTIM0J5PlPe5FFegHNI3pqDt36o9VuBwHBviPpN0HKNJ0G7Xkw4q4/BksdPpVt7bnrFybrn7e+MUG37Q5P88+n6KPc53ePpn3S5ltpk9fPpibOu/VIqyyp8XLqAjIMdMAD99O9f70HVwsw8pUlwH95MOzhB2nOwgXrZXzPLb3W+XD8eglCnnh/1Yc05dkZ9JIzgVjs/JVmkO3U40+kds1b0j677REkuZVpJs2YRl163mylbBAKBEAgGwTqH30sDe55RzaUgRYgAALGCfBkkjde8PVuvPDgbpwmfzGAF+bcjSfnvOWnca9jDwIgIE/ArbvenN167NZJvqZZL1kGfkJGc7Plr+U1dQybt2t7195SC8X5vlIugfWw/JEeBNzF5bh1z1vnUN/gVyCQPIFUBmQYW/tuVztPBcxNniAkCESg0uYV6YfVP/qmPdR5SoWjjHUOPdw3TakL/JovDsTwv19//bVUctpp+x1yf3mz35570T6777k2PZ+vtlPVtb+DHHz06SfEr9TL37ydXv41jd/Tn3uWOt10nUbWyBMEQKDMCfCThPzdmBrVdilzElAfBEAABEAABEDANAHt15WxPgjIhLeqG7Dx3ukGb7zBOr5uem7slQnHIJBFAoXqn1dP1DkvDRyDgF0EUhuQWbHyA2rVuWPuNVR2IYU0UQl4n5SZu+hFmjb7Wbq67aW0zdZVimbJ310Z/uhDTvpniqZzL25eoQJd074jNax/EnGgKOr26JSJzjvSl+a+h8MBGd5OOuZ4anbW2XTEIYdFzTb2ffWbNs69qi12RsgABEAABDwEvG205zQOQQAEQAAEQAAEQECdgPbrylgBqffCq8NAASAAAiAAAiAAAqkmkNqADFOf6jwJceWtN6TaABD+bwLzJkylHbbdjuYtfoku6twpd6Fe7Tp05/U3U+Utt/o74V9H/Gqyx6dNoQceHUu///e/610vdGKXqjvTHd1uJH4iJ+rGgZhHn5xEb737zjpZ3HHdTXTWyaetc67Uj7eXv0tzXlpA05+fTe84x7zt5nzbhl8LVMcJ6hx+4MG00UYbFc2G5Zk4/Sla8ubrRdPhIgiAAAhEJXBJs5a5AHnU+3EfCIAACIAACIAACEQlYOJ1ZfyX5PyEDDYQAAEQAAEQAAEQ0CaQ6oAMw7ljyL3Ot0nGaHNC/gYI8F8kLVuxnBq2umCd0v6xy67U+JQGtPs/dqPNN92Mlr33b3pm7vNU6vHMdTL564f7GDrnMfHpafTK66/Sa2+/mbt6Qt16dHzdo+jcBmcWupX8AjGc+Jp2l1GbphcWvK/Qye9++J5GOE/1PDD+Yfrll18KJcmd46eD6hxWi46pfSQdc0Qd2rLSFmvTrvrkY7rz/vsCPxm09kYcgAAIgEAIAkfXOpIeuHNAiDuQFARAAARAAARAwDQB9zsDA0cOy9yTHiZeV9bReX221Id6Tdse5YEACIAACIAACKSLQOoDMoy7w/Vdaebc59JFHtKuR4CDJd379lJ93RaX8ZzzRMrYJ8b7BkI4AHJh43PpgL33pe9++IHmOa9Pm/zMjPWeiHEVaHxqQ+p9bfAntcZNneQ81fMQvffhSjeLQPuKm29O++25N/G7ePm9vG/9axn9uHp1oHuRCARAAASiEKjufC9mUI8+tGeN3aLcjntAAARAAARAAASUCPAfp/GcoNCHnt0/QlMq2mi2Jp6OYYWyxMyogVAYCIAACIAACIBAaAKZCMiscZ4wuMwJysxZuCA0ANxgDwF+TDzKUy9hNKjiPHHy1ddfhbmlaNqdd9wpN3jnj12X2l5a8jINdZ7mmr/opVJJcR0EQAAEEidQqWIlGtH3bjp4v5qJywIBQAAEQAAEQAAEiLxPwRTjkaWnPUw8HcMs8f2YYh6FayAAAiAAAiAAApIEMhGQYSD8Cih+UkZ7QV8SPvJKP4Hbu15PZ592elFFfl6zhu57cCQNcf5hAwEQAIG0EBh55z10VK0j0iIu5AQBEAABEACBTBIIGoTxKp+V76Gw7vwKNu0tK7y0OSF/EAABEAABEAABGQKZCcgwjs+//IKaX9mB3g/5KigZlMil3AjwN2eG3H5nUbWfnT+HBo0ZSW8ue7toOlwEARAAAZsIDLz1djr52BNsEgmygAAIgAAIgEDZEOBARKFXkYUBkPYnPky9qoyZ4nVlYTwLaUEABEAABEAABOISyFRAhmF8+PFH1KBVU+KnErCBgCaBRwcNo0NrHrheEex7Tz77NE2e+TQtdt7rjA0EQAAE0kSAv4nF38bCBgIgAAIgAAIgYIYABx/4ezCST4Ok/bVle9SrZQa+U0rag1fGQKEgEAABEAABEAABEQKZC8gwlX+9v4JOa9FEBBAyAYFCBPInOO+sWE7/fm8Fvf/RKnrymadppbPHBgIgAAJpI9C901XU8uzz0yY25AUBEAABEACB1BGI8iqysErmz1nC3p9UelPfjWH98LqypKyMckEABEAABECgfAlkMiDD5nzDeUVUo7Yty9ey0FyVwO41/kF71tiNlr//Hn2waiX99vvvquUhcxAAARDQJnDReRdQtw6XaxeD/EEABEAABECg7AmYeh1XGoMNJoMx7Ih4XVnZV0cAAAEQAAEQAAHjBDIbkGGSi19bSk07XmIcKgoEARAAARAAgTQRqH/UMTS4V980iQxZQQAEQAAEQCDVBEy9kitNT8nwU0OSr20L4iB4XVkQSkgDAiAAAiAAAiAgSSDTARkGNe25Z+nym66TZIa8QAAEQAAEQCAzBPhpv6dGP5IZfaAICIAACIAACKSBgMngg+1BGVNPDOX7RRqfIMrXAb9BAARAAARAAATSRyDzARk2ychxD1GvQQPSZx1IDAIgAAIgAAKKBDbddFN6Y+ZcxRKQNQiAAAiAAAiAQCECJgMyXD4HHzq2bJ3bF5InqXOmOXj1xOvKvDRwDAIgAAIgAAIgYIpAWQRkGOaQsaOo3/33meKKckAABEAABEDAagJbVNqCXnnqWatlhHAgAAIgAAIgkGUCpl5b5mVoy9MyHIjhzfQrylwWeDrGJYE9CIAACIAACICAaQJlE5BhsGMnPka39Mc78k07GcoDARAAARCwi8Buu1anpx8cb5dQkAYEQAAEQAAEyoyA6Q/Yu3iTfFomySdiXP15j6djvDRwDAIgAAIgAAIgYJJAWQVkGOykGdOoS8+bTTJGWSAAAiAAAiBgDYFaBx1CD90zxBp5IAgIgAAIgAAIlCsBG4ITJoIz/I2Yha8uSexpmHz/wtMx+UTwGwRAAARAAARAwCSBsgvIMNxn58+h9td1MckZZYEACIAACIBA4gROOa4+3XNLr8TlgAAgAAIgAAIgAAJ/EkjitWV+7DlQwX+4Udv5xxv/jrK5AZhFThCGj23b8HSMbRaBPCAAAiAAAiBQXgTKMiDDJn5pycvUpuuVtOaXX8rL4tAWBEAABECgLAk0b3Qu3XjF1WWpO5QGARAAARAAAVsJ2PCUTCk2QQIzNgZeCullyzd0CsmGcyAAAiAAAiAAAuVBoGwDMmzeN999h9p3v4Y+++Lz8rA2tAQBEAABEChLAldefAld2uListQdSoMACIAACICA7QRsekrGdlZx5MOryuLQw70gAAIgAAIgAAJSBMo6IMMQ31/1IXW6sRstW7FciinyAQEQAAEQAAFrCPS45jo6r8GZ1sgDQUAABEAABEAABNYlkIanZNaVOJ2/8KqydNoNUoMACIAACIBA1giUfUCGDfqfr7+iK2+9Ifcas6wZGPqAAAiAAAiUJ4EqlbemHl26Uf2jjilPANAaBEAABEAABFJEAE/J6BoLryrT5YvcQQAEQAAEQAAEghNAQOYvVj+vWUNdet5MM+bMDk4PKUEABEAABEDAQgL77L4n3dq5Kx20X00LpYNIIAACIAACIAAC+QTwlEw+EbnfeFWZHEvkBAIgAAIgAAIgEJ8AAjJ5DAeNHkF3jxiadxY/QQAEQAAEQCAdBBqd0oCuad+RqmxVOR0CQ0oQAAEQAAEQAIEcgWaXt6eFS18BDWECy+cuEs4R2YEACIAACIAACIBAdAIIyBRgN2vBPLpzyL307w/eL3AVp0AABEAABEDAPgIbb7wxdWl3GbU8+3z7hINEIAACIAACIAACgQjg1WWBMAVOhO/GBEaFhCAAAiAAAiAAAoYIICDjA/qzL7+gO5ygzJRnnvZJgdMgAAIgAAIgYAeBA/fdn7o6T8UcfuDBdggEKUAABEAABEAABCIR4Cdk+EkZbPEJIBgTnyFyAAEQAAEQAAEQkCeAgEwJpiMeHUt9Bg+k//3vfyVS4jIIgAAIgAAImCfQ9IzG1MUJxlSsUMF84SgRBEAABEAABEBAnAC+JxMfKYIx8RkiBxAAARAAARAAAR0CCMgE4PrCy4uor/O0zFv/WhYgNZKAAAiAAAiAgD6BShUrOd+KuYzOb3iWfmEoAQRAAARAAARAwCgBBGWi4+7Yqg11cv5hAwEQAAEQAAEQAAEbCSAgE9Aq337/Xe4VZo9NnRzwDiQDARAAARAAAR0CtQ8+NPeKspp776tTAHIFARAAARAAARBInACCMuFNgCdjwjPDHSAAAiAAAiAAAmYJICATkveDT4zPPS3z85o1Ie9EchAAARAAARCIT6DVuU2dJ2M60v9tuGH8zJADCIAACIAACICA1QQQlAlmHv5jFQ7GYAMBEAABEAABEAAB2wkgIBPBQq+88RoNHDWcXli8MMLduAUEQAAEQAAEwhP4xy67UvvmrejMk04NfzPuAAEQAAEQAAEQSC2BhUtfyc0/eY9tfQJ4Rdn6THAGBEAABEAABEDAXgIIyMSwDT8tM+zhB+nTLz6PkQtuBQEQAAEQAIHiBNo0vZDaNGlGlbfcqnhCXAUBEAABEAABEMgsgWaXtycEZdY1L4Ix6/LALxAAARAAARAAAfsJICAT00YcjOGgDAdnsIEACIAACICAJIET6tajNk2b06E1D5TMFnmBAAiAAAiAAAiklABeYfan4RCISakDQ2wQAAEQAAEQAAFCQEbICfj1ZcMeHYvXmAnxRDYgAAIgUM4E+PVkbZo0p7NPO72cMUB3EAABEAABEACBAgTK/RVmCMYUcAqcAgEQAAEQAAEQSA0BBGSETYXXmAkDRXYgAAIgUGYE8HqyMjM41AUBEAABEACBiATKLTCDQExER8FtIAACIAACIAACVhFAQEbBHHiNmQJUZAkCIAACGSeA15Nl3MBQDwRAAARAAASUCGQ9MINAjJLjIFsQAAEQAAEQAIFECCAgo4gdrzFThIusQQAEQCAjBPB6sowYEmqAAAiAAAiAQMIEshSY4SAMb53+2ieMFsWDAAiAAAiAAAiAgBgBBGTEUPpnNG7qJHr8qSn06ltv+CfCFRAAARAAgbIisMO229N5Dc+gC846mypvuVVZ6Q5lQQAEQAAEQAAEdAmkMThT++BDqdZBhyAIo+sayB0EQAAEQAAEQCBhAgjIGDTA5JnT6bGnniQeHGMDARAAARAoTwI771SVzj3tdDq3wRlUpfLW5QkBWoMACIAACIAACBgjYHNwBk/CGHMDFAQCIAACIAACIGAJAQRkEjDE08/Pyj0xM2fhggRKR5EgAAIgAAJJEKhebZdcIOa808+iLSpWSkIElAkCIAACIAACIFDmBNw/Dhw4aniOhPvbBBb3CRguq7bzJAz/xgYCIAACIAACIAAC5UYAAZkELf7ci/OdJ2am0DNzn0tQChQNAiAAAiCgSWC36jXoPOdpmHManEkVK1TQLAp5gwAIgAAIgAAIgEBoAm5QZuGrS2iR8y9/c6/nny/02xt04esceMntEXzJccB/IAACIAACIAACIICAjAU+8OKSl3OvMpvyzNMWSAMRQAAEQAAEJAjsvdseThCGX012Jm26ySYSWSIPEAABEAABEAABEAABEAABEAABEAABEACBFBNAQMYi4y1583V6fNoUemzqZIukgiggAAIgAAJhCOy3595OEMYJxDQ8i/5vww3D3Iq0IAACIAACIAACIAACIAACIAACIAACIAACGSaAgIyFxn3vw5U0+4W5NGvBfHr5taUWSgiRQAAEQAAEvASqVN6ajq97NJ2Q+1fPewnHIAACIAACIAACIAACIAACIAACIAACIAACIJAjgICM5Y7w6ttv0qz5TnDG+bf8g/cslxbigQAIgED5EOCnX46vW49OOKoe1Xf+bVGxUvkoD01BAARAAARAAARAAARAAARAAARAAARAAARCE0BAJjSy5G6Ys3ABzZ4/j551np754j9fJicISgYBEACBMiZwxCGH5Z6EOb7O0bRL1Z3LmARUBwEQAAEQAAEQAAEQAAEQAAEQAAEQAAEQCEMAAZkwtCxJ++NPP/35SrMX5tHsBfNozZo1lkgGMUAABEAgmwT22WOv3CvJ6juvJNt/r32yqSS0AgEQAAEQAAEQAAEQAAEQAAEQAAEQAAEQUCWAgIwqXv3MP/n8M5rlPDGzcOkSeuWN1+g/X3+lXyhKAAEQAIEyIFBz733psAMOomNqH0l1D69dBhpDRRAAARAAARAAARAAARAAARAAARAAARAAAU0CCMho0jWc92+//UYvO0GZJc6/xa8tpRdeXmRYAhQHAiAAAuklUHXHnajuobXo0JoHOP8OpF13rpZeZSA5CIAACIAACIAACIAACIAACIAACIAACICAdQQQkLHOJHICffv9d/Ty66/SoleX0vzFC2n5+yvkMkdOIAACIJByAhtvvDEdfVhtqlurdi4As6/zWjJsIAACIAACIAACIAACIAACIAACIAACIAACIKBFAAEZLbIW5vvxZ5/SS0tepnlOcIYDNN85ARtsIAACIFBOBGrusx8d7bx+rO5htXKvI9tggw3KSX3oCgIgAAIgAAIgAAIgAAIgAAIgAAIgAAIgkCABBGQShJ900Z99+QW9v+pD599K+mDVKlr50Sp6/yPn94crkxYN5YMACIBAZAJbbbEl1dhlV6ruvHKM/9WotgtVd37X2HkX2nSTTSLnixtBAARAAARAAARAAARAAARAAARAAARAAARAIA4BBGTi0MvwvX8Gaj50gjQf5oI1fwZqPqTPvvw8w1pDNRAAgbQQ4MBKjWpO0MUJtuQCLhx8+euYAzLYQAAEQAAEQAAEQAAEQAAEQAAEQAAEQAAEQMA2AgjI2GYRy+X57x9/0OqfVtMPP/5IPzr7H1c7/5z9amf/g7vnc86/1T//9Od15/jX3361XDOIBwIgkASBDTfckDavsDlVrFDB+efsN9/c+e0cO3v+nTt29pUqVqQKm1WgSrnrm9Nmm26ahLgoEwRAAARAAARAAARAAARAAARAAARAAARAAAQiE0BAJjI63AgCIAACIAACIAACIAACIAACIAACIAACIAACIAACIAACIAACwQggIBOME1KBAAiAAAiAAAiAAAiAAAiAAAiAAAiAAAiAAAiAAAiAAAiAQGQCCMhERocbQQAEQAAEQAAEQAAEQAAEQAAEQAAEQAAEQAAEQAAEQAAEQCAYAQRkgnFCKhAAARAAARAAARAAARAAARAAARAAARAAARAAARAAARAAARCITAABmcjocCMIgAAIgAAIgAAIgAAIgAAIgAAIgAAIgAAIgAAIgAAIgAAIBCOAgEwwTkgFAiAAAiAAAiAAAiAAAiAAAiAAAiAAAiAAAiAAAiAAAiAAApEJICATGR1uBAEQAAEQAAEQAAEQAAEQAAEQAAEQAAEQAAEQAAEQAAEQAIFgBBCQCcYJqUAABEAABEAABEAABEAABEAABEAABEAABEAABEAABEAABEAgMgEEZCKjw40gAAIgAAIgAAIgAAIgAAIgAAIgAAIgAAIgAAIgAAIgAAIgEIwAAjLBOCEVCIAACIAACIAACIAACIAACIAACIAACIAACIAACIAACIAACEQmgIBMZHS4EQRAAARAAARAAARAAARAAARAAARAAARAAARAAARAAARAAASCEUBAJhgnpAIBEAABEAABEAABEAABEAABEAABEAABEAABEAABEAABEACByAQQkImMDjeCAAiAAAiAAAiAAAiAAAiAAAiAAAiAAAiAAAiAAAiAAAiAQDACCMgE44RUIAACIAACIAACIAACIAACIAACIAACIAACIAACIAACIAACIBCZwP8HBDclVUZhHGsAAAAASUVORK5CYII=;imageBorder=default;imageBackground=none;sketch=1;curveFitting=1;jiggle=2;sketchStyle=rough;" parent="1" vertex="1">
                    <mxGeometry x="344" y="513" width="235.34" height="43.44" as="geometry"/>
                </mxCell>
                <mxCell id="aUIbM6phszjy0wtiQAA0-8" value="Logging" style="shape=image;verticalLabelPosition=bottom;labelBackgroundColor=default;verticalAlign=top;aspect=fixed;imageAspect=0;image=data:image/png,iVBORw0KGgoAAAANSUhEUgAABngAAAEiCAYAAADas9y0AAABX2lDQ1BJQ0MgUHJvZmlsZQAAKJFtkM9LAlEQx7+rhv2QEIkO4cFbBJvEJlp0Mg8ReBBN+kFg69PWQu2xuxVBh44dO0T/QNE5OmTHoGu3oCA6dAzqFuylZJvnVqvVDI/vh+H7ZoYBPN0q51UfgFrd1LMz05GFxaWI/xkehDGIAEIqM3gyk0mTBd/aGdYdJKG3o6LXy9bKIdsbKkw8nZ3L+97jv/6O6C2VDUb6QS/KuG4Ckkyc2Ta54F3iAZ2WIj4QrDl8Irjo8GXLM5dNEd8QB1lFLRE/EsvFtrrWxrXqJvvaQWwfKNfzOdIQvTDSyEFBAknEMUaZp/v874+1/ClsgGMHOtagoQITEfrLKasoE8+iDoYoZGKF+imIiTv/vp9bMzRgMk6jetza8hRwUQD6X93aMM0PrgPXCa7q6s9VJctnrI4rDvc1gK4j236bB/wjQPPett8btt08BbwPwJX1CTGYYREdmBRPAAAAimVYSWZNTQAqAAAACAAEARoABQAAAAEAAAA+ARsABQAAAAEAAABGASgAAwAAAAEAAgAAh2kABAAAAAEAAABOAAAAAAAAAJAAAAABAAAAkAAAAAEAA5KGAAcAAAASAAAAeKACAAQAAAABAAAGeKADAAQAAAABAAABIgAAAABBU0NJSQAAAFNjcmVlbnNob3SEK++tAAAACXBIWXMAABYlAAAWJQFJUiTwAAAB12lUWHRYTUw6Y29tLmFkb2JlLnhtcAAAAAAAPHg6eG1wbWV0YSB4bWxuczp4PSJhZG9iZTpuczptZXRhLyIgeDp4bXB0az0iWE1QIENvcmUgNi4wLjAiPgogICA8cmRmOlJERiB4bWxuczpyZGY9Imh0dHA6Ly93d3cudzMub3JnLzE5OTkvMDIvMjItcmRmLXN5bnRheC1ucyMiPgogICAgICA8cmRmOkRlc2NyaXB0aW9uIHJkZjphYm91dD0iIgogICAgICAgICAgICB4bWxuczpleGlmPSJodHRwOi8vbnMuYWRvYmUuY29tL2V4aWYvMS4wLyI+CiAgICAgICAgIDxleGlmOlBpeGVsWURpbWVuc2lvbj4yOTA8L2V4aWY6UGl4ZWxZRGltZW5zaW9uPgogICAgICAgICA8ZXhpZjpQaXhlbFhEaW1lbnNpb24+MTY1NjwvZXhpZjpQaXhlbFhEaW1lbnNpb24+CiAgICAgICAgIDxleGlmOlVzZXJDb21tZW50PlNjcmVlbnNob3Q8L2V4aWY6VXNlckNvbW1lbnQ+CiAgICAgIDwvcmRmOkRlc2NyaXB0aW9uPgogICA8L3JkZjpSREY+CjwveDp4bXBtZXRhPgprcuJBAAAAHGlET1QAAAACAAAAAAAAAJEAAAAoAAAAkQAAAJEAAFLBRBC77gAAQABJREFUeAHsnQncVdP6+B/397+lRHMyJglXqERcY7eiKBo1Kc2l0lwqlBRNGjRrLiXNikLGCA1mCVFKRFQaNLru9T/rZbun0znnPcNea6+9z3d9PrX32Xvt9TzP91lr7b3W8669Tzpy+L+/CwkCEIAABCAAAQhAAAIQgAAEIAABCEAAAhCAAAQgAAEIQMA3BE4iwOMbX6EoBCAAAQhAAAIQgAAEIAABCEAAAhCAAAQgAAEIQAACEMgiQICHigABCEAAAhCAAAQgAAEIQAACEIAABCAAAQhAAAIQgAAEfEaAAI/PHIa6EIAABCAAAQhAAAIQgAAEIAABCEAAAhCAAAQgAAEIQIAAD3UAAhCAAAQgAAEIQAACEIAABCAAAQhAAAIQgAAEIAABCPiMAAEenzkMdSEAAQhAAAIQgAAEIAABCEAAAhCAAAQgAAEIQAACEIAAAR7qAAQgAAEIQAACEIAABCAAAQhAAAIQgAAEIAABCEAAAhDwGQECPD5zGOpCAAIQgAAEIAABCEAAAhCAAAQgAAEIQAACEIAABCAAAQI81AEIQAACEIAABCAAAQhAAAIQgAAEIAABCEAAAhCAAAQg4DMCBHh85jDUhQAEIAABCEAAAhCAAAQgAAEIQAACEIAABCAAAQhAAAIEeKgDEIAABCAAAQhAAAIQgAAEIAABCEAAAhCAAAQgAAEIQMBnBAjw+MxhqAsBCEAAAhCAAAQgAAEIQAACEIAABCAAAQhAAAIQgAAECPBQByAAAQhAAAIQgAAEIAABCEAAAhCAAAQgAAEIQAACEICAzwgQ4PGZw1AXAhCAAAQgAAEIQAACEIAABCAAAQhAAAIQgAAEIAABCBDgoQ5AAAIQgAAEIAABCEAAAhCAAAQgAAEIQAACEIAABCAAAZ8RIMDjM4ehLgQgAAEIQAACEIAABCAAAQhAAAIQgAAEIAABCEAAAhAgwEMdgAAEIAABCEAAAhCAAAQgAAEIQAACEIAABCAAAQhAAAI+I0CAx2cOQ10IQAACEIAABCAAAQhAAAIQgAAEIAABCEAAAhCAAAQgQICHOgABCEAAAhCAAAQgAAEIQAACEIAABCAAAQhAAAIQgAAEfEaAAI/PHIa6EIAABCAAAQhAAAIQgAAEIAABCEAAAhCAAAQgAAEIQIAAD3UAAhCAAAQgAAEIQAACEIAABCAAAQhAAAIQgAAEIAABCPiMAAEenzkMdSEAAQhAAAIQgAAEIAABCEAAAhCAAAQgAAEIQAACEIAAAR7qQFQCP+7eJd//uFP2/LxH9uzfJ3v37Ze9oe3P+/aG9vfJwSOH5cjh0L9jR+XI0T/+HQ3tH/v116jlcRACEPAPgdPynConn3yy5Ar9OznnH9tTcueW/HnzScF8+SX/aXklf768UiC0Xyh/ASla5HQ5+4wz/WMgmkIAAhCAAAQgAAEIQAACEIAABCAAAQhAIAAECPAEwImpmrDp682yZdtW+Xr7dvn2hx1ZAZ0dO3+Qb7/fkWqRXAcBCGQwgaKFi8hZRc+QM0P/zjnzLDnvrLOlZPHzpUSx4lnBogxGg+kQgAAEIAABCEAAAhCAAAQgAAEIQAACEHCdAAEe15HaV6BaYbP+4w/kg083yJdbQkGdb7bK1m+326coGkEAAoEloAI/Jc49T0qeX0LKlrpUri5bTvKFVgKRIAABCEAAAhCAAAQgAAEIQAACEIAABCAAgdQIEOBJjZvVVzkBnXUffiDrP/pANm76XH77z3+s1hnlIACBzCJw0kknyYXFS2QFeq4ue4WUL3MFAZ/MqgJYCwEIQAACEIAABCAAAQhAAAIQgAAEIJAmAQI8aQK04XIV0Hn/k49kbSiYs/aD9wjo2OAUdIAABJIikBXwOf8CuSYU7PnnFVdmBX7ynJInqTLIDAEIQAACEIAABCAAAQhAAAIQgAAEIACBTCJAgMen3lavWVv+6suy5v135f0NH/vUCtSGAAQgEJtAqQsvlmuvLC9VbqwgpS+5NHZGzkAAAhCAAAQgAAEIQAACEIAABCAAAQhAIAMJEODxkdN37PxBnnvlpVBg5yXZtOUrH2mOqhCAAATSI3DOmWdJ9Uq3SPXKt2S92i290rgaAhCAAAQgAAEIQAACEIAABCAAAQhAAAL+J0CAx3IfHjx0UBY+/5wsDwV2Pvl8o+Xaoh4EIAAB/QRKFDtPatx8q9S7vYYUzF9Av0AkQAACEIAABCAAAQhAAAIQgAAEIAABCEDAQgIEeCx0ilJJvXZt/nNL5YXXX5Gjx45ZqiVqQQACEPCOwP/7v/+TitfdKA1urynXl79G1Hd8SBCAAAQgAAEIQAACEIAABCAAAQhAAAIQyBQCBHgs8vShw4dk6UsvyJzFC2Vz6Bs7JAhAAAIQSIzAWUXPkPrVa7KqJzFc5IIABCAAAQhAAAIQgAAEIAABCEAAAhAIAAECPBY48afdu2Ta/Lmy4Nln5OCRwxZohAoQgAAE/EkgZ44cUqtKNWnVsLEUO/scfxqB1hCAAAQgAAEIQAACEIAABCAAAQhAAAIQSIAAAZ4EIOnKsunrzTLpqSflhddelt/+8x9dYigXAhCAQMYRUK9rqxR6fZsK9JS7rHTG2Y/BEIAABCAAAQhAAAIQgAAEIAABCEAAAsEnQIDHAx9/uulzGTFlory1fq0H0hEJAQhAILMIlL7kUunUorXcWP6fmWU41kIAAhCAAAQgAAEIQAACEIAABCAAAQgEmgABHoPu3fjVJnl8yhOyau3bBqUiCgIQgAAEFIFyl5eRnm3aZ20hAgEIQAACEIAABCAAAQhAAAIQgAAEIAABvxMgwGPAg5u/2SojJ0+Ul1evMiANERCAAAQgEI/AdVddLT1CgZ5LL/pHvGycgwAEIAABCEAAAhCAAAQgAAEIQAACEICA1QQI8Gh0z569P8vwyRNkyQvL5b///a9GSRQNAQhAAALJErit4s3Sp0NnKVq4SLKXkh8CEIAABCAAAQhAAAIQgAAEIAABCEAAAp4TIMCjwQW//fabzFgwVybMmi4HjxzWIIEiIQABCEDADQIn58wprRvdLW3vaio5c+Rwo0jKgAAEIAABCEAAAhCAAAQgAAEIQAACEICAEQIEeFzG/Nrbb8qg8aPlm+++dblkioMABCAAAV0EzihyuvRq11GqVbpFlwjKhQAEIAABCEAAAhCAAAQgAAEIQAACEICAqwQI8LiEc9ee3XLf4AHy1vq1LpVIMRCAAAQgYJrAlaXLyvAH+stZRc8wLRp5EIAABCAAAQhAAAIQgAAEIAABCEAAAhBIigABnqRwnZj5999/l7nLFsvwieN4HduJeDgCAQhAwHcEcp18snRp0Uaa1Wskf/vb33ynPwpDAAIQgAAEIAABCEAAAhCAAAQgAAEIZAYBAjxp+Hlb6DVsPR/tLx9t3JBGKVwKAQhAAAI2Erjkggtl5EMDpUSx4jaqh04QgAAEIAABCEAAAhCAAAQgAAEIQAACGU6AAE+KFWDq07Nl6MSxKV7NZRCAAAQg4BcCXVq0lQ7NWvpFXfSEAAQgAAEIQAACEIAABCAAAQhAAAIQyBACBHiSdPSevT9Lx3595N2PP0zySrJDAAIQgIBfCZS7vIyMfXiQFC5YyK8moDcEIAABCEAAAhCAAAQgAAEIQAACEIBAwAgQ4EnCoW+uXyPdB/STfQf2J3EVWSEAAQhAIAgE8p56mgzp/aBUvqFCEMzBBghAAAIQgAAEIAABCEAAAhCAAAQgAAGfEyDAk6ADB44eIU8unp9gbrJBAAIQgEBQCTS4vZYM7NknqOZhFwQgAAEIQAACEIAABCAAAQhAAAIQgIBPCBDgycZRu/bslta9u8vGTZ9nk5PTEIAABCCQKQQuLlFSpgwbJUULF8kUk7ETAhCAAAQgAAEIQAACEIAABCAAAQhAwDICBHjiOOSjjRukbZ8e8vO+vXFycQoCEIAABDKRQL7T8srER4fJlaXLZqL52AwBCEAAAhCAAAQgAAEIQAACEIAABCDgMQECPDEcMGvRPBkyfrT89p//xMjBYQhAAAIQyHQC//e3v0mv9p2keb1GmY4C+yEAAQhAAAIQgAAEIAABCEAAAhCAAAQMEyDAEwV4z0f7y9KVz0c5wyEIQAACEIDAiQTuuLmqjOg74MQTHIEABCAAAQhAAAIQgAAEIAABCEAAAhCAgCYCBHjCwO47sF9a9OgsG774LOwouxCAAAQgAIHsCVx28SUyZehIKZi/QPaZyQEBCEAAAhCAAAQgAAEIQAACEIAABCAAgTQJEOD5E+CXW7dIq55d5IeffkwTKZdDAAIQgECmEihSqLDMGDFGLixeIlMRYDcEIAABCEAAAhCAAAQgAAEIQAACEICAIQIEeEKgV619Wzr16yNHjh41hB0xEIAABCAQVAK5Tj5ZRvUbKJWuvymoJmIXBCAAAQhAAAIQgAAEIAABCEAAAhCAgAUEMj7AM3vJAhnw+HALXIEKEIAABCAQJAL9uvSQJrXrBckkbIEABCAAAQhAAAIQgAAEIAABCEAAAhCwiEBGB3gI7lhUE1EFAhCAQAAJ3N+xqzS/s2EALcMkCEAAAhCAAAQgAAEIQAACEIAABCAAAa8JZGyAZ9q8OTJkwhiv+SMfAhCAAAQCTqBHmw7StnHTgFuJeRCAAAQgAAEIQAACEIAABCAAAQhAAAKmCWRkgIfgjulqhjwIQAACmU2AIE9m+x/rIQABCEAAAhCAAAQgAAEIQAACEICADgIZF+AZN3OajJ4+SQdLyoQABCAAAQjEJNA9tJLnHlbyxOTDCQhAAAIQgAAEIAABCEAAAhCAAAQgAIHkCGRUgGfGwqdl0NhRyREiNwQgAAEIQMAlAr3bd5KWDRq7VBrFQAACEIAABCAAAQhAAAIQgAAEIAABCGQygYwJ8MxdukgeGjksk32N7RCAAAQgYAGBfl16SJPa9SzQBBUgAAEIQAACEIAABCAAAQhAAAIQgAAE/EwgIwI8c5ctlodGDPWzn6zRvXDBQlLs7HMk/2l5Je9pp8lpp54mOf7f/5MDv/wi+345IL8cPCg7dn4vX2//xhqdUQQCEICAbQQG93pQ6la7wza10AcCEIAABCAAAQhAAAIQgAAEIAABCEDARwQCH+BZ/Pxz0nvIQB+5xC5Vi59zrtS59Xa5vvzVUqJYcTk5Z86EFDx85Ih8/tUm2fDlF/L+Jx/Lmvfflf2hABAJAhCAAAT+IDCi7wC54+aq4IAABCAAAQhAAAIQgAAEIAABCEAAAhCAQEoEAh3geX3NW9KmV7eUwGT6RdUrV5G7atSWK0uXdQ3FxlDA551318nCFc/K1m+3u1YuBUEAAhDwK4GZI8bKdVdd7Vf10RsCEIAABCAAAQhAAAIQgAAEIAABCEDAQwKBDfBs+nqz1GvXUtRKElJiBE466SSpclNF6dyyjVwQWq2jM7378Yfy1NLF8tKbr8u///1vnaIoGwIQgIC1BPLkPkUWTZqetULSWiVRDAIQgAAEIAABCEAAAhCAAAQgAAEIQMBKAoEM8Py4e5fUaNlE9uz92UroNipVIF9+GTtgsJQvc4VR9ZSvJsyaLgtWLJPffvvNqGyEQQACELCBQNHCReSZKbOkUIGCNqiDDhCAAAQgAAEIQAACEIAABCAAAQhAAAI+IRC4AM/BQwelbmjlzpZtW33iAu/VLFvqMhk3cIgUKVTYM2V27PxBxsyYIkteWO6ZDgiGAAQg4BWBi0uUlPkTpkruXLm8UgG5EIAABCAAAQhAAAIQgAAEIAABCEAAAj4jELgAT7Nu98rb7633mRu8U/fqsuVkzuiJ3ikQIXn1ujXSbWA/2Xdgf8QZfkIAAhAINoGK194gk4aMCLaRWAcBCEAAAhCAAAQgAAEIQAACEIAABCDgGoFABXhGTJ4gT8yZ6RqcoBd0/rnFZHHotUB5cuW2ylT1ar0uDz8oaz94zyq9UAYCEICAbgLdWreXdk2a6RZD+RCAAAQgAAEIQAACEIAABCAAAQhAAAIBIBCYAM/ra96SNr26BcAlZkxQQZ0VT86TM08vakZgClIeHvWYzHlmYQpXcgkE3Ceg2kzJ80tI4dB3UgrmLyAFChSQv5100gmCDh48KDtD35b6ac9u2fnTj6JeP0iCQDIEnhw1Xv5Z7qpkLiEvBCAAAQhAAAIQgECACKz78P3jrFn30QfH/XZ+XB3lG7rqLR0kCEAAAhCAAAQyh0AgAjzbd3wnNVo2kYOHD2WO59K01C9/JT5u5jQZPX1SmtZyOQSSI3DJBRfKJRddLCWLnScXnn+BlDivuJxR5PTkCgnLvSsU7PkhFOz5LhTs2fHD97J9xw7Z/v13svmbbfJTKBjkp3Ryzpxy6cWXZH3nbO/+fX5S3Te65s+bT56dPkeKFi7iG51RFAIQgAAEIAABCEAgOQLqG7ROWv9nACcysOOcT2XrBHrKh4JATiDIOZZKeVwDAQjYT2DSnFly7N+/Sqfmre1XFg3TIuDm/SKaItwvolGx95jvAzxHjx2TOm2ayZdbt9hL2TLNCoVWIKxasExy5shhmWbR1Zm1aJ48MmZk9JMchYBLBEqVvEiqVKgkd9xcRc4qeoZLpWZfjAr8PPvSi7L63bWi+wadvTaxcyg+9WvUkjsqV5VTcv/xWsdR0ybJhFnTYl/EmZQJXP6PUrJ40oyUr+dC/xBQ7b5x53baFFbf2ePhXBteCoYABCAAAQgkREDd751VOGPDAjsJXexyJue5oGOzVjwjuMyW4iBgmsCb69fIex9/JF9u2SwXXlBSlr+yMkuFmlVuky2hPygtVfLCrLdDXBb6I00/JNVXjp05VZuqKuAdlOCXGkPqmkNS9wmbvteurUIEqGDfB3j6DH1EFq14NkAu0W9K/273yV016+oX5KKEgaNHyJOL57tYIkVBQKT4OedKrarVpVrFynLuWWd7jkQFrNd99L688uYb8szKFXLs11891SnXySdLtUq3SN1bq0u5y8tE1WXk1Cdk4pPTo57jYHoEWtS/S/p06JxeIVxtPQECPNa7CAUhAAEIQAACKRFQK3TUyhxdE3ApKRXlIgI+UaBwCAIWE1Bv0pg+f678/e9/z9Ly0JEjMn3enKga335zVTnv7HOyzhXKn18aWT4XqHtsFKTABQGeqFU+Yw/6OsCz4tWXpMvDD2as81I1/MMXXpM8p+RJ9XLPrmvW7V55+731nslHcHAIqGBOlxZtRD3s2JoO/HJA5ixZJFNCD2oHDx00qmbhgoWkdaMmUq9ajb9W68RToP0D98nLq1fFy8K5FAlMGz5abiz/zxSv5jI/ENA9iGEFjx9qATpCAAIQgEBQCPglqBOPt5oAZXVPPEKcg4B3BGYvWSAjJo0XFdRJJV1coqT0atdRri9/TSqXa79G99iIAE9iLgwSp8Qs9n8u3wZ4vgt9x+L2Zo3k4JHD/veCQQtuuvpamfrY4wYluidKTXLfencD2bnrJ/cKpaSMIqACm707dJL61Wv6xu59B/ZnBbLffneddp3LlrpMmtVrKLf9q3JSsr757lup3KhOUteQOTEC6ns8z896WtSrNUnBJKB7EEOAJ5j1BqsgAAEIQMAeAs63dLx+9ZrbRJxAjypX7ZMgAAHvCDj9jNIg3b6mzV1NRX1bVwVybUu6x0ZBClywgse22uutPr4N8NRp21w++Xyjt/R8KP3R++6Xej6a3I5EvOb9d+Xurh0iD/MbAtkSqB16zZh63VW+0/Jmm9fGDDq/d6PYNL2zgVxywYUpm17yxvIpX8uF8QlcW+4qmTVqfPxMnPUtAd2DGAI8vq0aKA4BCEAAApYTUBOu6U60Wm7iX+o5wR4CPX8hYQcCxgiovub9DR/LOy6/0aZlg8aSO1cuq75Jo3tsRIAnsWobJE6JWez/XL4M8DwWWo44+alZ/qfvgQXvPPO8qNcv+TnxPR4/e8+87iqgM27gkED81ZmbrylU/UCjGnVC7+CtLQXy5U/LMazgSQtfQherZfStGjZJKC+Z/EVA9yCGAI+/6gPaQgACEICA/QQyKbAT6Q0CPZFE+A0B/QRGT58s42ZO1SKoY/PWBHi0kNVfKCt49DP2kwTfBXg2fPGZ1G7TzE+MrdH17jr1pW/n7tbok6oi6sPz1Zs1lG2h10KRIBCPQKmSF8kTQ0ZI0cJF4mXzzblZi+bJI2NGpqWvWordrnFzad+0RVrlhF/csV8feXHVq+GH2NdAYOWchXL+ucU0lEyRXhIgwOMlfWRDAAIQgAAEEieQyYGdSEr8dXckEX5DQA+BoRPHytSnZ+spPFSqCvBcdH4JqXJTRW0ykilY99goSH0XAZ5kalbw8/ouwHNrk/qy+ZutwfeMyxY+0KmbNKvbwOVSvSvu3Y8/lEYd23qnAJKtJ3DHzVVlRN8B1uuZqILrP/pABjw+XDZ9vTnRS07Id8sNFaRf155yeqHCJ5xL9cCM+U/JoPGjU72c65IgUO6y0jJv/JQkriCrHwjoHsSwgscPtQAdIQABCEDAdgIEd6J7iOeM6Fw4CgE3CKz94D1ZH5r70v0qyDNPLyovP7VIcuTI4YbaaZWhe2xEgCcx9wSJU2IW+z+XrwI8j4eWJY7XtCzR/66MbkHeU0+TSaEVDGpiMGip64C+svyVlUEzC3tcINClRVvp0KylCyXpK+LQ4cNZ3xH7dNPn8tHGT+XHPbvlcOjY4aNHRJ3bd2B/lvD8efNJ/rx55evt36SsjFrBNKBHb/nXP69PuYxoF65et0Za9Owc7RTHNBHo3+0+uatmXU2lU6wXBHQPYph48cKryIQABCAAgaAQILCTvSfVRKD6WLvakiAAAfcImOx/bHlVm+6xUZACF6zgca+tBaEk3wR4vtr2tdx2d3BWoJioPBcUKy7TR4yRM4qcbkKccRm7QhPilRrWliNHjxqXjUB7CahVO2r1jm3p6LFj8s776+WNNe+IWo1jaiVik9r15L7Q91vUq9ncTOoVibVa3S0HDx9ys1jKyobAKblzy4uzFwTmtYPZmJsRp3UPYgjwZEQ1wkgIQAACENBAwOTkqgb1jRdpywSxccMRCAENBNRba9aEVvDoXr3jqG5L+9U9NiLA43g8/jZInOJbGpyzvgnw1GrdVNRfupMSI1DivOIyP/QqH7WCJ8hp0pxZMnzy+CCbiG0JEiiQL79MeGSolLu8TIJX6M+mgo/PvfKirFz1ury5fo1+gWES1GvYhj/4sFxzxZVhR93ZPXjooNQM9cnf8B0sd4AmWYpaiTV5aHrfYkpSJNk1EtA9iCHAo9F5FA0BCEAAAoEkoPveHEhofxplyyRxkBljW2YQeGjkMCmYP7/RAE/J0Dzirf+q7Clg3f1vkAIXrODxtKpaJ9wXAZ55zz0jfR8bbB08WxVSE7vPTJklhQsWslVF1/RSqyIq1Kshe/b+7FqZFOQ/AmVKXSYTHx0mhQoUtEJ59Z2cp5cukWdWrpDDR44Y1+mcM88SNamr3qWrIzXrdq+8/d56HUVTZoIEpgwbJRWuuS7B3GSzmYDuQQwBHpu9j24QgAAEIGAbAVbtpO+RIE2gpk+DEiCQGgE1z7Vj5w+pXZziVXWr3SGDez2Y4tXuXKZ7bBSk/okAjzt1LiilWB/gUd+i+Ff9mrJ3/76gMNdux8yR4+S6K8trl2OLgBkL5sqgcY/bog56GCagXkHWr0sPw1Kji9vyzVYZPG60vLHunegZDBwtdvY58vTYSdoCvIPGjpIZC582YAki4hFQfn5l7uJ4WTjnEwK6BzEEeHxSEVATAhCAAAQ8J0Bwx10X8AziLk9KyxwCP/z0o9xY93bjBqvPPLwwe75xueECdY+NCPCE0469HyROsa0M1hnrAzxDJ46VqU/PDhZ1jdaoj2+rj3BnUlKreG668w75ed/eTDIbW0MEHuzUTZrW9f7bXLt/3iMjpkyURSue9dQvRQsXyVq9p2sl05IXlkuvwQM8tRHh/yOgApsqwEnyNwHdgxgmV/xdP9AeAhCAAATMECC4o4czr2zTw5VSg03Aq/6obeNm0r11OznppJM8A6x7bBSkwAUreDyrplYKtjrA8+33O6Rig1pWgrNRqfx588lrC5ZKnly5bVRPq06s4tGK18rCxzw8yPP3wyowU+Y+KWNnThX1vR0vk/re1vyJU6XEuedpUeP9DR9Lgw6ttZRNoakROC3PqbIq1OefGtqS/EtA9yCGAI9/6waaQwACEICAGQJeTaaasc57KQR5vPcBGviLgJd9UrfW7aVdk2aeAdM9NiLAk5hrg8QpMYv9n8vqAE/7B+6Tl1ev8j9lQxYM6d1X6txmfhmnIfPiilGT62oJ674D++Pm46T/CZx9xpkybuAQKXXhxZ4a8/mWr6RT396y7btvPdXDET439Fq2q0qXdX66uv3+x51Ss9XdvCrTVaruFNb8zoZyf8eu7hRGKZ4Q0D2IIcDjiVsRCgEIQAACPiGg+z7sEwza1STIox0xAgJEYNzMaTJ6+iRPLPK6reruk4MUuGAFjydNxFqh1gZ4Ptq4Qe5s19JacLYpdlGJkrJ8xlO2qWVUnwmzpsuoaU8YlYkwswRq31pd+ne9T3KdfLJZwRHSbHtVWfc2HeSexk0jtHTnpwqe1gv1xV+EAlokOwm8sfBZOfP0onYqh1bZEtA9iCHAk60LyAABCEAAAhlKQPc9OEOxxjTb64njmIpxAgKWERgfmtt63KO5La/bqe5+mQBPYpU9SJwSs9j/uawN8LTo0VlWr1/jf8KGLBjc60GpW+0OQ9LsFHPglwNyY+hbPIcOH7ZTQbRKi8BDXXtK41p3plWGGxf3fWywzHvuGTeKcqWMK0Ordp4Ord7Rle4NrVJa+cZruoqnXBcINLyjtgzo0duFkijCCwK6BzEEeLzwKjIhAAEIQMAPBHT+9bMf7PdCR55LvKCOTL8R8OoVbTlz5JBPX3nLU1y6x0ZBClzovIcFiZOnFdqgcCsDPKzeSa4GnJI7t6xZ+qLnqxqS01pP7uGTJ8ikOTP1FE6pnhFQr2SrclNFz+Q7gj/5fKPUadvc+WnFdunUJ7W9rs7U0vA8uU+Rvp27S6Xrb5Tff/8969Wco6ZOkl17dlvB2A9KvL1khRQpVNgPqqJjBAHdgxgmUiKA8xMCEIAABCAQIqBzYgzA8QnwbBKfD2chsHf/Ppm9ZKGMnTHFKIxLL/qHPDNlllGZkcJ0j42CFLjQeR8LEqfIOhbU31YGeFi9k1x1q1+9pjxy3/3JXRTQ3Hv2/iwV6tWQo8eOBdTCzDNLrUxQKxRsSK++9Ybcc39PG1TJ0qFapVvk8Yce0aKP+v6Z+g6a7qT+SujpcZPlsosvOU6U+rZR/fat5Od9e487zo/oBNTqNrXKjeQ/AroHMUyi+K9OoDEEIAABCOgloPveq1d7/5fOxKH/fYgF+glUb9ZINn29Wb+gPyWoV7Opt+I82Km7MZnRBOnun4PU/xDgiVaDMveYdQEeVu8kXxlH9Rso1StXSf7CgF4xaOwombHw6YBal1lmVbz2Bpk0ZIQ1RqsA4jU1qlqjz9Jps6VUyYtc10d9b6duaKXSsV9/db3syALHDhgsVStUijyc9fuzzV9Ko3vb8NrFqHROPLh68XIpWrjIiSc4YjUB3YMYAjxWux/lIAABCEDAAwI6J8U8MMeXIr3+zocvoaF0RhEYEXo7zeEjR+TJxfON2K3a5BWlLpPry19jRF4sIbrHRgR4YpE//niQOB1vWXB/WRfgadWzi7yx7p3gEtdgGZN6x0P9afcuua52teMP8suXBJ6d8ZT8o0RJq3Tv+Wh/Wbryec91uuSCC2XZ9Dmu66GWg9dsdbd8/+NO18uOLLBLi7bSoVnLyMPH/Vbf/1HfASJlT6BJ7XrSr0uP7DOSwyoCugcxBHiscjfKQAACEICAxwS8+rZFMmariVYnXV3mCmdX1IRbeFLPECqt++gDWR/65yTnuPPb1i1BHls9g142EPhy6xZ5cdVrxl7TZkt71D02ClLgQucfKwSJkw3t2YQOVgV4VAdWrWlDE3YHRsbpoW8uvBX69gLpeAIPj3pM5jyz8PiD/PIVgSsuvVzmT5hqnc4bv/wiKwDitWL3d+wqze90v79s27u7vPbOau3m3X5zVRnZd0BCcm6oU1127vopobyZnOnknDmz7gd5Tz0tkzH4znbdgxgCPL6rEigMAQhAAAKaCOi+56aqtppIKx8K5KhgTmQQJ9Uyla1jZ04VtbU5ffXmepvVQzcIeEqg64C+Uvycc7UHeVRwp2D+/HJXzbqe2quE6+6ngxS4IMDjeXW1SgGrAjy9Bg+QJS8stwqQ7cpcVbqszB07yXY1jeu3++c9Wd/iMfGKKePGZYjAzqHVHfdms7rDKxT12rWUDzdu8Ep8ltznQqubLnZ5ddOhw4elTNUK2u0qG1r6vWDitITl1L2nhXz82acJ58/kjF1b3iPtm7bIZAS+s133IIYAj++qBApDAAIQgIAmAjonw5JV2Vml0ylstU6yZSSa3+Zgjy2rBhJlST4ImCSwZfs2qdq4nnaRZULj84VJjM91KqR7bESAJzHvBYlTYhb7P5c1AZ5de3bLtbVu8z9Rwxaob1eob1iQTiQwcspEmTh7xoknOOILAqP7Pyq3VbzZSl2ff+1l6dz/Ac90y50rl3y88g3X5auPKparVtn1csMLPKvoGfLMlFmSP2++8MNx98tWqSAHjxyOm4eTfxAokC+/rHt2JTh8RED3IIYAj48qA6pCAAIQgIBWAiVvLK+1/EQKNxnYiaaPjcEegjzRPMUxCPxBYNaiefLImJHacLRr0lwqXXeDlL7kUm0ykilY99goSIELnX+0ECROydQ/P+e1JsDz2KTxMvmpWX5m6Ynuagll/273eSLbdqEHDx0MreKpKftDk9Yk/xGYNHi4VLzuRmsVVwFpFZj2Il0UWrmzPLSCx+109NgxuezmG9wu9q/y8uTKLYsmz5ASxYr/dSy7nY2bPpearZtml43zYQQG9XpA7qxWI+wIuzYT0D2IIcBjs/fRDQIQgAAETBHQfb/Nzg6vAzuR+tn2LSJe1RbpIX5D4H8EdLZX296coruvDlLgggDP/9oIeyJWBHjUa4GuD31jQU3Ik5IjcHed+tK3c/fkLsqg3NPnzZHBE8ZkkMXBMVUFLm14B2wsohOfnCEjp06MdVrr8QrXXCdTho3SIkPnXzbOGD5Gri9/TVJ6Twu14SG04aSYlTivuLz45PykriGzdwR0D2II8HjnWyRDAAIQgIA9BHROhGVnpc33Yp0Tx9lxCT/PKp5wGuxD4HgCqp2qNPbP7fFnU/9lY7vTPTYiwJNYfQkSp8Qs9n8uKwI8s5cskAGPD/c/TQ8sqFnlNnnsgf4eSPaPyDptm8snn2/0j8JomkXg/g6dpXn9u6yl8fO+vXL1HVU80a9W1Woy7P6HtMi+/JYb5cjRo66X/XD3XtKoRp2ky23Zo7O8uX5N0tdl+gUzR46T6670/jUkme6HROzXPYixeVIpET7kgQAEIAABCKRLQPe9NpZ+fpkgU3zGzpya9XHzWLaYOM4qHhOUkeFnAuNnTZfHpz2Rtgmn5TlV1FsfqtxUMe2y3C5Ad3/tl345Ea46/3AhSJwSYRmEPFYEeG67u4F8te3rIPA0bkOla2+QJ4aMMC7XTwK37/hOqjdvpGXS2k8c/KbrqH4DpXplbwIoibLqOqCvLH/F/PdOWtRrJH3u7ZKomknl02FT07r15cFOqa00LF3lJjl85EhSNpBZ5NZ/VZYxDw8ChQ8I6B7EEODxQSVARQhAAAIQ0EpA5yRYLMVt/Mv4WLo6x71ezeNHZg47thAwReDt99bL+xs+zhK3e88eefrZJQmJbhT6vEPB/Pmz8ta97XY58/SiCV1nOpPusVGQAhc6721B4mS6Dnslz/MAz/uffCQN7m3jlf2+l1um1GWycOK0qHaoj7FdVeYKueSCC6Oez6SDC5YvlQeGMdlpi89z58ol15S9UtSrpP7vb3+T+c8tlb379/2lXpFCheWVuYsl18kn/3XMxp0Vr74kXR5+0Lhq7e5uId1a3aNNbr/hQxJ+UMxOiZuuvlamPvZ4dtminv9o4wa5s13LqOc4mD2BtcteDD3EF8g+Izk8JaB7EEOAx1P3IhwCEIAABCwgoHMSLJp5fg5UeB3kYRVPtBrFMQicSODZl1+URSuelTUfvCeqz4n1+jZ17onZM7L+ALDBHbXkqtJlTyzMoiO6x0ZBClzovLcFiZNF1VurKp4HeLoP7CeqYyKlTuCTl948YSI8fOJZfaNHfasn05OOlQmZzjRZ+/OckkfuuaupNK5dV07Jfcpfl6sVGvOWLZbVob9GKVKwkLRv0lyKnX3OX+dt3VHfDSt7q/llzV1b3iPtm7bQisWN71ddWLyELAgFoE/JnTslXSeElqCPcmEJekrCA3BRt9btpV2TZgGwJNgm6B7EEOAJdv3BOghAAAIQyJ6Azm9MRkr3c3DHscXLIE8Q+Dkc2ULABIGfdu+S90J/OL/5m21Z4jZt2Swli58vJ510Uta/MqUulWvKlJMcOXKYUCdtGbrHRkEKXBDgSbu6BaoATwM8+w7sl6uq3xwooF4YE+1bC1dWqyz7fznwlzqlSl4k94Qm+qpWqPTXsUR29uz9OTB/AX7s119FdYBqVQDJPIGyodVmk0KvE8yfN5954Rol1m/fSj749BONEk4sule7jtKqYZMTT7h85OXVq6Rb6DV0R48dS7rkAvnyyzNTZqW19Ltp1w7yzvvvJi2bC/4gcPYZZ8rr85eCw3ICugcxBHgsrwCoBwEIQAACWgnovs+GKx+kiUMvgzys4gmvVexDILMI6O6zg9RPE+DJrLaRnbWeBnhmzH9KBo0fnZ2OnM+GQMsGjaV3+05/5XolNCnb7oH7/vodvqNWRagPqf2zbLms17fljBHFXxta5rn8lZdkfujVZuMfGSq33Piv8GJ8u69eA1ardVPZsfMH39rgR8XVt6JGPvSIqFezBS15sTJMtXfV7k2kjZs+l2bdO4kKyCeTlkyeKZddfEkylxyXVwVkL618/XHH+JE8gRnDx8j15a9J/kKuMEZA9yCGAI8xVyIIAhCAAAQsJGAyUBG0e65JduFVh1U84TTYh0BmEdA9NiLAk1h9ChKnxCz2fy5PAzy12zSTDV985n+KHluQ99TTZPXi5X+9pq33kIGy+PnnEtLqohIlpcS5xeTsM8+S7Tu+k29D/zZ+tem4awuHXpn10txFkidXaq9ZOq4wC35s/mar3HlPS1Gv1yLpJ9Ci/l3Sp0Nn/YI8kjBkwhiZNm+OUen3d+wqze9saEzm9z/ulFY9u8hX275OSOaYhwdlveM3ocwxMul+sIshNnCHa99aXYb26Rc4u4JkkO66HrTJpiD5HlsgAAEIQEA/AZ1/4RyufVAnw7wI8gSVZXh9YR8CEIhOQPfYKEj9i877W5A4Ra9pwTvqWYBHBRMqNawdPKIeWfRQ157SuNadWdJrhlaoqL+6dzM1qlFHHu7ey80iPS3r488+labd7pVDhw97qkfQhas6o+pOkJMXKxFNruBxfHfo8CFp26eHqAeueKl7mw5yT+Om8bIkdG709MkybubUhPKSKTYBFZj/cOWq2Bk44zkB3YMYAjyeuxgFIAABCEDAQwKmvr8T5PutKYbh1YRVPOE02IdA5hDQPTYKUuCCAE/mtItELPUswDNx9kwZOWVCIjqSJwEC6lsLz82cm7XKpkzVCloCFy/Mni8XFCuegDb+yPJ+6EN0zXt0kiNHj/pDYR9peUru3DJmwGC5sfw/faR1aqrOXbZYHhoxNLWLU7zKiwCPo+rDox6TOc8szHrd3umFCkvRIqdL4QIFs761c+PV/5SrSpd1sqa1bdChtby/4eO0yuDiPwiob19VDL0mkWQnAd2DmCBPONnpUfu1ihaoV4Ndkv8J4Fv/+jCa78KtoY2G00hu30RwIkgThtHoerGKhwBPNE9wDALBJ6B7bBSk/joIAZ7I5591H32QVcmvLnPFX5WdZ6C/UMTd8SzAU71ZI9n09ea4ynEyOQJqYnXK0JFSpqqe7+XcVvFmGd3/0eSUsjz32++tl9a9usq///1vyzX1j3pq0n/mqHGBCgbGo//U0kXSf+SweFlcP9e15T3SvmkL18u1pcBfQ9/fKV3lJvntP/+xRSVf63H7zVVlZN8BvrYhyMrrHsQQ4Aly7TnRNmeQNDZsBaRz7MTcsY+ED6TK/znAUgOt8OOxr+aMLgLKl2rgu/7Pwa+Sk4x/w/3n+FWV0al5a7UhaSLg+M0pXvkvGb8516ltuA87NmuVdSr8WHhe9v9oH2oCTHfKhHutF0Ger95cr9t11pfv9BXOpKdSOPweEG5AeL+ujgfxvh3JIxqLaByyePDHLOHVxdp95WOd/ba6Z6o+OwjJTwEe5VfnGdZpx6n4IPKZRz0LRR5LpdwgXONJgGdL6BsoVZvUDwI/62xQH9N+a/1abXoFbRWPArVq7dvS+r6u2phlUsFFCxeRZdNmS4F8+TPGbC9W8HQI3cS6tGgTWMar162RFj2D+90m045Tr2lb+9xLkjNHDtOikZcAAd2DmEyYdEoAcyCzOIMjJ5jj/NZtrPqrapWCOHGkm10y5Tv+NOVfNTh2JsUI+CTjqRPzKt85k7FjZ0w5MYOGI87kBhMdx8NVvtA5UehIy5R7rYnVUA5Ttc0UruE2qzrrdr/v1/7d6UudII767UZynmO417lB0/0ydPfbqj0Q4Mneb+lyUn8UoJLJ5yD1HJvJ4xNPAjzjZ06Tx6dPyr5GkcM6AkH9S/CXV6+S9g/cZx1vvymkPuauPuqeScmLAE+rhk2kV7uOgcU8ZMIYmTZvTmDt88IwXtPmBfXEZOoexGTi5Ehi5P2ZK3yyw62JjnRJOBNHTJSkS/J/q3HU5J7X/nX8mskD5WQ8anoiIzvdlP8I9phbwZMpK01Mr+LJlNe0qf7eZL/v9O823rcdFqqPM3Uf9EPAR/cbZ/7+979nd1uJed50vxBTEZ+dcOO+YdsKHpuehZznIFUt1H4mJE8CPPXatZQPN27IBL6BtPGdZ56XwgULBc62xc8/J72HDAycXSYNenvJCikSekVbJiUvXtF2V8260r9bcAOSFerVkB07f8ikaqTd1kahOvNwgOuMdoAaBajBq86/LibAo9F5hop2JjhMTv6kapqaJPFTQEBn+0um7Sk9bPdvpky0JlP3ld/USh1Tf52ajG5OXmeCI5nJDV2TdUoH0381rbONO4zV1o2JuvDybN43uYrHrTqjqx6k43db+n3FWP3Vu9fBHl39TrJtydZ73S131ZWt325P1pyE8jeqUUce7t4robzRMtniu2i62Xwsnf7DscuWAI/tdUD1c5nwRy/GAzwHfjkg5apVduojWx8SuDf0eqjOAX091IyFT8ugsaN86BU7VHbjJmWHJYlrMTf0DZ6HDH+Dp2aV2+SxB/onrqSPcvJ6Nj3OOvuMM+X1+Uv1FE6paRHQNengKJXMJLNzDVs7CNgy+ZMKDT/8NayyS2f7S6Tt+dHHtk5+pVJPU71GTWSoZHNgJ5ptifpO10SNW5P10WyLdUyXLeHyvLArXL7pfRNMw21yY3ypq69PRTdb+30v7tu2slD1L9H+Mryu6twnwKOTrjdlp9J/RGrqdYDH9P0g0v5kfwc90GM8wPP8669I54fuT9YP5LeIQMH8BWTtshct0shdVR6fPlnGh32c2N3Sg13a6sXLRX2HJ5PSV9u+ltvubmDU5ErX3iBPDBlhVKYpYff27S0r33jNlLiMkvPK3MVS7OxzMspmPxira9LBsT2RSWYnL1s7CNg84ZEKIdsmScJt0Nn+4rW9IPjYZr+G+9jNfb9NZESzPZHJDV12ehEI0WVLJFs3Juoiy7T5t4lVPKq+uPU9BV19fTJ+90u/r/p2EytxTbXNdNuRLfc6AjzpetK+65PpP2Jp71WAxy/tNxa3RJ6FYl1r83HjAR71Ciz1KiySvwmMf2So3HLjv/xtRBzt+4dWZKhXb5GSI6BWlajVJZmW7undXV59Z7Uxsytff5NMHPSYMXmmBH29/Rup0vhOU+IyTs5DXXtK41rwtc3xuiYdHDvjTTI7edjaQcAvkz+p0LJ1IKWz/cVqezoH46n4Jt1rbJn8SteOeNeriQz1kW9VX4KS4vlN18QNAZ6g1B7JerWsm+3BCeYoQjqCC7r6+kQnaHW1KZ01Kl4fkY5c5QvbX0kazb5Y9/RoeXUcI8Cjg6q3ZSbaf8TTUuczZax7th/7s1gMY9kYK7/tx40HeP5Z81bZ/fMe27mgXzYEbrmhgox/dFg2ufx9+v5hj8rC5cv8bYRh7a+49HKZP2GqYanei/v4s0+l7j0tjCnS4PZaMrBnH2PyTAnqPrCfPPtycFcHmuIYS07F0MqvSQFd+RXLZj8c1zXp4Nju9YDU0YNtfAJBGizFs1TXhFE8mfHO6Wx/kW1Pp6x4Npo4Z5tf3bQ5yG0z1sSGLptjyXPTX5Fl6bIlUo4bE3WRZdr8O1Wuqg6oVTkq6QjkxGKmq//Nzu9Krh+DGQ5Ht/t2nZPRjs46t27zSEZXAjzJ0PJH3uz6j0Ss0NmmIu/ZuvrRROzUmUfZGZTv8xgN8HjxKiOdFSHTy/7g+Vfl1DynBhrDA8MGyYLlfLciGSdPGTZKKlxzXTKXBCJvm17d5PU1bxmxpVvr9tKuSTMjskwJ2bJ9m1RtXM+UuIyUkztXLvl45RsZabvNRut+WI6cZLaZRSbq5vfJn1R85uUESaS+OttfeNtLdTI0Ul+bfwdpgKw4Z4LPlJ3R/KbL9sjJIiVfd9JlS6TeNvVrkbrp+h3vNW3K114EcmLZqquvjzdBa6ruxbLZreNutFtd/N2yMZlyvGrrBHiS8ZI/8sbrPxK1wFSAJyj9WTyuXrXteDole85ogGfec89I38cGJ6sj+S0lMLjXg1K32h2WaueeWqzkSY7l+ecWk5VzFiZ3UQBy792/T2q3aSbf/fC9dmteemqRFD/nXO1yTApQ32ZT32gj6SWwdOqTUurCi/UKofSkCOge9IZPMielGJm1E9Dte+0GpCnAhoGUTh84bS8TBsXhVcEGv4brk8p+pvlMMXLqq9rXZb8bE8VKv2SSzjYerkcQ6n24PYnsq4lFlZxAjto3uSpHyUs06aoHsSZodU66Jmqz2/nC+4hkytbVnySjg9t5vWjvBHjc9qL35cXqP5LRTGdf49yzg9iGYzH2om3H0iWV40YDPD0f7S9LVz6fip5cYyGBTHhNm8L++++/iwryLFrxrIVesFOlFg0aS5/2nexUTqNWG7/8IivI89///leblMsuvkSWTJ6prXwvCv5w4wap166lF6IzTmbfzt3l7jr1M85umw3WNeng2JzqgNy5nq0eApk0WIpH0OuBlM72p9reutB3W8aGvt+Saclrv6bDW+dkSTp66b7WmchRcnT1T+EydNvjlK+zjTsynK0bk3VOWWzdJaCrHkTzeZD7kGSfKXX1Je7WjtRKM32fI8CTmp9svipa/5Gsvjr7G3XPVq8uUzIyKTl2q63fktEAT8UGteTb73f4jRH6xiCQJ1du+XDlqhhng3dYrT5Tq9BIiRGYNWq8XFvuqsQyu5Rr34H9WStoLr3oHy6VmHwxk+bMkuGTxyd/YYJXPDHoMal0/U0J5vZHtqp315ct27b6Q1mfa1m9chUZ1W+gz60Ilvq6Jh0cSskOxp3r2OojoHMwpk9rfSWbniQJt0Rn+1MDQ1V+piYv/ZoKc511IRV9vLjG8ZmuSVnVJtQ9yWQy6VeHn0n7kJUYAV31IHKCNhPu74k+V+rqRxLzuJlcJvs0AjxmfGpSSmT/kYrsTOhzUuHixjWJ9nVuyHKrDGMBnj17f5ZralR1S2/KsYTA3LGT5KrSZS3RRr8ag8c9LtMXzNUvKAASCuYvIM9NnyOFCxYyYs2Ro0dFPfjs3PWTXHHp5dKywV1yy43/MiI7Ukirnl3kjXXvRB5O+3fFa2+QSUNGpF2OTQU8Nmm8TH5qlk0qBVqXooWLyOrFywNto9+M0zXp4HDw48Opo3sQtwzEonvVq3qqu/1FtzZzjpqc/EqHKvXgf/RUkEIlHSvPvKoP8b4V8z/L3dnzqi9zR/vglqKrjYdP0GbK/T2RdpwJwR2ntZgK7BLgcYgHZxvef6RqVab0O6nySfc6v93TjQV4Vr7xmtzbt3e6fLneMgLt7m4h3VrdY5lWetUZO3OqjJk+Wa+QgJRe7rLSMm+8mVeTqICKCqyEJzWZ3bF5K6lXvWb4Ye37B345IHe0bCI7dv7gmqycOXKI+vbOmacXda1Mrwt65/13pWnXDl6rkXHy31qyQk4vVDjj7LbVYF2TDo69fnswdfQO4pZBWHyvelFXdbe/+BZnxllTk1+p0qQOnEhO+YwAz4lcEj3ixqRdorLIlxgBXe3c8XUmBTQU8XhBnkxjoXiYeH4hwKNIBys5/Uc6VjG2SIde9tfG6+uyv9p8DmMBnqETx8rUp2ebtxCJWgmYnMDXakiShc9aNE8eGTMyyasyM3uH0Hs7u7Roo934V1avknYP3BdVzim5c0vl0GvNGtxeU640tOLss81fSsMOreXwkSNRdUr2YI82HaRt46bJXmZt/u07vpNarZvKgYO/WKtjUBUb/8hQz1a3BZVpOnbpmnRwdDIx6HRksY1NIBMnPGLTiH3GjcFu7NJPPKO7/Z0oMTOP2NoP4X+z9dGriRLTE2Be2WnWm/6Spqutq3tWpt7fowXvM5WFiTZPgMdffU4i2rrxzGv6/paIXUHLE62vs9VGYwGeZt07ytvvrrOVA3qlQeDTV94Stbog09Li55+T3kP4lkUifn9qzBNSvswViWRNOc9r76yWtr27J3T9JRdcKHny5JG///3vck3ZK6XOrdW0vEruzfVrpGWPzgnpFC9TiWLnyYuzF8TL4qtz6jV6d3dpL1u/3e4rvYOirKmga1B46bZD16SDo7etE6uOfpmwzdQJj1R8a2KSJFwv3e0vXFam79vWF+F78zXSdPt2LPSqD7atzjs8MnGrq73rWu3mFx9F1nGTr0O0jZHuSWACPLZ5PH19CPCkz9BUCbrbt1t2GAvwlL/9Ftm7f59belOORQQib+wWqaZdlWdeXCH3DXpYuxy/CzDxPZ4XV70qHfv1SQlVvtPyyuiHB8m15a5K6fp4F81Y+LQMGjsqXpZsz80bN1nKXV4m23x+yPD19m+yXsumgjwkbwhUCn3L6YmAfcvJG5LuSNU16eBol8n3aIeBl1uvJha9tDld2SYngXW3v3RZBOl6k37Njht+z46QnvNe1QEv+2G/TArp8bg9pdLm9fgivE172c70WJd8qTqfuQnwJO8P268gwGO7h47Xzw/3cyMBnp9275Lralc7ng6/AkOgW6t20u7u5oGxJ1lDFq14VvoMfSTZyzIuf+lLLpVFT0zXZrcbr4Ec0ruv1Lntdtd17PBgL3npzddTKrf5nQ3l/o5dU7rWtos2fb1ZmnRuT7DfY8ecVfQMWbVgmcdaIN4hoHvSQedg07GBbXQCTHZE55LIUVP1Vnf7S8TWTMoTPhnopd280sQb+l7638uVBcrujqFXVqstyRsC9PX6uKv79bqPPtDy3S59Wusr2Y1J+2jaEeCJRsXfx9yoKzzPmK0DpsYnqVplJMCzau3b0vq+YExQpgo6yNfdfEMFmfDosCCbmK1tC1csk/uHPpptvkzP0OD2WjKwZ2qrbOKxO3L0qFRsUEt2/7wnXraEzin9lJ5upkOHD0mdts1lyzfbkiq2VMmLZOm0YHy77P1PPpK2fXrI/l8OJMWAzHoIfPjCa5LnlDx6CqfUpAjonnSw/UE0KVg+y+zlhKLPUJ2grqmJYGCODbcAABKBSURBVN3t7wTDOGDkY9TxMBN4jUdH7zlT7TqaFTZMgvnhr3+jsQvCMfp6fV5U7VrxJf1BQNdzNwGe4NUwAjz+9KkbftNluZEAz5S5T8qwJ8bpsoFyPSZwRpHT5c1Fz3mshffi5y9fKg8OG+S9IpZr0Kd9J2nRoLGrWj4yZqTMWjTPtTInhV5fVTH0Gis30/Yd30ntNs0SDnDkyZVblk2fI+eedbabanhS1oRZ02XUtCc8kY3Q6ATmjp0kV5UuG/0kR40S0D3poGugaRSSD4UxiZy+00zUXd3tL30KwSvBy0l+2qW39Qnf/8FfBXquDn2bVPEgmSFAX2+GM1Ikq12r5xe3EwEet4l6X54bgQIb/njBe5JmNbD5jzWMBHh6PPKQLHvpBbPUkWaUwLpnV0qBfPmNyrRR2OwlC2TA48NtVM0qnQb1ekDurFbDFZ1GTZskE2ZNc6Usp5CcOXLI5KGjXP8mTzKDiycGPSaVrr/JUcmX2/Wh5fqPhoJvn23+0pf6B1npAT16S8M7agfZRN/Ylky/kIpRJibJU9EryNcwieyOd01MButuf+6QCF4pXgyO8bX39chEm45npW2rKhUPXt0Wz2PunaP9u8eSkrInoOPZ2/YAjxr3u5lUm9WZbAiwuxEIJMCjs5bELtuN4Fzs0lM/YyTA06BDa3l/w8epa8mV1hOYMmyUVLjmOuv1NKHg6OmTZdzMqSZE+VrG0D79pPat1VO24dDhw3LP/T1k7QfvpVxGvAtPzplTZj8+QcqUuixetqTPqZVGasVRvNSzbQdpc1fTeFmsPvf6mrdkzuKF8ub6NVbrmcnKqfql6hnJewK6Jx10DDK9p2a3BrZNItpNK752uuuv7vYX37rMPmt6cMwkiPf1zesAj83Bd4I9euunX/r68Enn8qFVXuHJmUDXPfEdLtPrfb/y0NHX2Rzgcbue6G6vOvzjNoNEywvSs014e3fst7W/8+IPlRwm8bZGAjzX164mP+7eFU8PzvmcQLfW7aVdk2Y+t8I99R8aMVTmLlvsXoEBLemxB/pLzSq3JW2d6k/a9u4uG7/8Iulrk7lAfaNkwcSpUvK885O5LNu88VY1+rUt7dz1kyxa8ZwsCL2q8IeffsyWARm8JXBbxZtldH++G+atF/6QrnsQo3uC3AaGNulg2wSiM1hSfyUemZxz4YMn9aFkldREUvjxyGtN/dY9CNfd/nRyUmzUBKB61VN48oNflb4mB8e2tUvHX44Pnd9q6/jTL34M1z27fWWTG3+xnJ2ceOf9EIBXnFjZE8+LyZ+zua9P1d+qX7PlXp28R2JfkQoP5V/1/GITD7efvwnwxK4zyZ6x4V6UrM6x8vsxwKP4O8+vaj/RpNr52D//kF7te51M/6FSIvYaCfD44UEqEVjkiU3glhsqyPhHh8XOkIFnOvd/QJ5/7eUMtDw5k4c/+LDUuOXWhC9avW6NdB3QN+Fv2SRccIyM6htTSybPlEIFCsbIkfzhY7/+KnXaNpdNW7467uLzzj5HXp7rj8Dgt9/vkA2bPg8F2TbJRxs3ZD1QH2cMP6wmUPqSS2XRE9Ot1jFTlNM96eD2ADNT/JKqnV4/8zoDJbcmB51Jk7GhiSSvks46rLv9ucks1QFxNB1s8KvSy9Tg2Ot2Ge4DFdhSqdOf2/Bzye4rP6rJDrX1Q1J12OsAj63Bvlj+U8ycAL3Tv8fKy/HYBGzr6x2/uuVTv9XrSE8FkYeyyc3+jgBPZK1J/bfbvkldk/Sv9EuAx81nH4ea189AJv9QybE5u632AM+2776VmxvVyU4PzvucwFlFz5BVC5b53Ar31W/eo5O8tX6t+wUHrMSBPftIg9trZWuVWh3ywLBB2eZzO8PFJUrK/AlTJXeuXK4VrQIkd7RoLAcPHzquzB5tOkjbxt69nm3DF5/J4SNH/tLp11Aw6qc9u+Wn3btl245vZfO2rfJ16N/BI4f/ysOO/wgUzF9A1i570X+KB1Bj3ZMOOifHA+iOtEzycoLF7cmRaCC8sk/nQFx3+4vGMdljun3rlV8VBxODYxsmP5SdamWO8qWu5PVERyJ26WzLich38tgU8HN0SnSruz9IVA+/5bOpr9fZ73nZn6dSJ3TWZ8XC6xU9bv4RAwGeVGpY9GtsuRdF1y65ozY848TTWGd/58j18vnHzTbu2JPOVnuAR01uq0luUvAJfPjCa6JeaUX6HwE1UX5Xp3vk09BKB1J8AoN7PSh1q90RNZNa8TJy8gSZvmBu1PMmDla69gZ5YsgIV0W99s7qrFfNRRY6buAQqXJTxcjDWn5//+NOmTbvKfng00+op1oI21vohpdXi/rWFMlbAronHQjwmPOvF5OGOidHYpEzPYGkcyCuu/3FYpjIcRNBgXA9TPvVka1zcOy1f5UPVXJjtY7DK7ut1zbH009nW44nN/KcV3U9Uo90fyueKrm1YjNdfWy+3oZ2Yar+22BrInXBxMSv0sPL9u7mMzgBnkRqVWJ5TLXFxLRJL5etAR5T7Tucnhdt3Qs7w22O3Nce4Fm4YpncP5T3/EeCD+Lvp8dOkitLlw2iaWnZ9PO+vXJnu5ayfcd3aZWTCRfXq15T2jRqIsVCrypTSbF7cdWrMnnubNmx8wfPEbRr0ly6tW7nqh7RbkRq0n3euMlS6qJ/uCorsrBnXlwhfYcPFhVAI2UegZeeWiTFzzk38wy3zGLdA3E3B5eWobNKnWh9uW4FvfStaXt12aq7/aVSB7wcLHrBQ5dvFXsvJz689KOy3XQbVTKzSzZNqtnIJzt+2Z1XfHmdW3RKXvRt4ZqYrvte2xtue7R90/2jV+3dzfsbAZ5oNSm1Y6bbY2paJnaVl8850TQ03bYjdTDd93ltb6T92gM8k5+aJY9NGh8pl98BJNC/231yV826AbQsfZNUcKd2m2bGvhuTvsaUEIuA+jC9+kC9m6lt7+6iVvOEJ/UKLfXtnzNPLxp+2LX9gaNHyJOL57tWHgX5j8C88VOk3GWl/ad4wDTW/SDq5uAyYOhdNcfk6h1bBqa66264g3TVY5M2hNsTa9+GgaJiYvK7Lrrqs1e+tcGHTv0y7UtHbqytLl/HkpfdcZP9dna6uH1esVaJ1T1/kPWqP8jyQWgln8lVfH9Y/Mf/tk3+Kq103c/D7Y6270WQx80+jwBPNK+mdsxNv6SmgXtX2dTGbXn+Md3f61yJnmxN0R7gGTJhTOj1P3OS1Yv8PiRQP7T64pH77veh5mZU3hh6TVvDjm3lyNGjZgQiRQuBnDlyZH2Pp9SFF7tW/qHQd3hqtW4qW7/dflyZF51/QZasU3LnPu54uj/a3d9TXnnrjXSL4XqfE5g0eLhUvO5Gn1vhf/V1P4R6NZD2v2cSt8DkpIEtgyeHjinbdQ3Gdbc/h1N2W2WfbROxpiYNdPnWlP7hvrWtfTq6ecHCkR2+1eXrcBnJ7Jvqv5LRSVdep49R5av9TEte9fU29Am2tH9V57zm4UWbd2vylwCPe72WbfeidCyzoX079xeb7i0m+3yv+7Xw+qM9wNNr8ABZ8sLycJnsB5TAZRdfkrXiIKDmuWLWG+vekVY9u7hSFoV4R6BQgYLy3PQ5orZupW+++zZrldeBg78cV2SFa66TKcNGHXcsnR8PjRgqc5ctTqcIrg0IgSG9+0qd224PiDX+NUP3AygBHv11w9Rfgds0gAinamrCxK1JknDddbe/cFmx9m31q0k2Onxrql06frXVj45+tkwCqXuSTclU/2WTzc4knG1BZZ2MTPZn4Xbo6NvCy09k3yvbI3WzpY803Re69RxOgCeyRqX+mwBP6uwir7SZpan7uy19m/KN9gDPPX16yKtvvxlZD/gdQAJqZcOnr7wVQMvcNYnvUrnL06vS1Pdxlk6Z5ar4tR+8J026tD+hzKZ1G8iDnbqdcDzZA7MWzZNHxoxM9jLyB5RAr3YdpVXDJgG1zj9m6R54uzWw9A9Rs5rq9p9jjU2DB0en8K2JCRMdddmU/8JZhe/b7ldTg2O3fWvar7b70alzJtqpIyva1taJIFP1PBoTG44pv5Qvc4Vcrf4FdHWP6T5B+dWmfsGGOm5DsMtpbyb/AMCt+xsBHsd76W9tvRelYpmX93U/cDTV99nSv2kP8NRv30o++PSTVOoq1/iQwPNPzpOS553vQ83NqjzsiXEyZe6TZoUizXUCVStUkrEDBrta7tPPLpF+w4ecUObD3XtJoxp1Tjie6IFnX35Rug/sl2h28mUAgTZ3NZWebTtkgKV2m6h70sGtgaXdFL3TzsTAwQ8DKN31WHlYx2SZCb1j1U4/+FXpbmLywG0WJnR2/Oq3PtYkG4eRs3Xbz065bmxN9OVu6GmiDOWnoK3uMd3X67hfpet7L9u+bTxM1ge3+j0CPOm2gP9d75ZP/leid3tetmu/PP+YCOhmTICnapN6suWbbd7VeCQbJfDYA/2lZpXbjMr0q7B7+/aWlW+85lf10ftPAt1at5d2TZq5ymPQ2FEyY+HTJ5Q5c8RYue6qq084nt2B195ZLW17d88uG+czjADfTbPD4boHmX55+LbDG8lrYWLQ4Bcf6h5k6pgg0t3+YtUoP00umGDkJg8T+jp+1VEnnbJ1bU3yibTBTT9Hlu3Gb4I8J1JUPgtCsMd0vbdlsi/co6YZOLJt7Sd1P7M49rvV7xHgcYimv3XLJ+lrkn4JpupxpKZ+GZsovU3c223p57Sv4KncqI6ob0uQMoNA8zsbyv0du2aGsWlaefTYMWl4bxv5dNPnaZbE5V4SOOmkk2TCI0Ol8g0VXFPjv//9r7To2VnefnfdcWXmzpUr6ztXJYoVP+54vB+ffL5RGnVsK8d+/TVeNs5lIIEqN1WUcQNPXC2WgSg8NVn3gNtPD+CeOiIF4bp9p1SyZcCQCB7dAygdA3ITPozGzsbJv2h6OsdMTCC41VeZ0FVx0VEfHd66t7rbaiz9/cDMKzaxmNl0XPnPr8Eek329zfdtE3+UEllnbb3fmaoTbvV7BHgia1bqv93ySeoauHelqWeecI3del4LL1Pnvon7ui39vvYAz61315fN27bq9BdlW0TgqtJlZe7YSRZpZLcqe/fvk1qtm8qOnT/YrSjaxSWgvj+1ePJMuej8C+LmS+bk4SNHpF7oFZebtnx13GVnFT1Dngl9+yd/3nzHHY/2Y/M3W+XOe1rKwUMHo53mWIYTuLbcVTJr1PgMp+C9+boHmH57CPfeI8lroHPgYOvESDRKuuuyjgG5bp2jcbJlEBhNt1jHdNZxR6ZbfZWpCUy39HXsN731YlJIRxvWwc2LfkGHHTrLVL70U7DHpE9tvm+b6MvD653tbd5UP+hGnSDAE16z0tu3vV4mY52pOuzo5Fd2Jp4N3WjnDudUt9oDPNWaNpQvt25JVT+u8xmBU3Lnlo9eXOUzrb1Vd8MXn0ntNs28VQLpaRNQgZdl02ZL3lNPS7ssp4Cdu36Smq3ulj17f3YOZW0v/0cpWTxpxnHHIn+ooKH6BtqPu3dFnuI3BLIIXHbxJVkrwsDhLQHdkw5+n4T01juJS9cxaeLHQIDOAZSOQaXu9hdZg/zoU2WDCU5usDGhp+Lhhq6qHC+TKVbhNupow+Hlu71veuLMbf1NlKd86odAj6n6bnvfYIqDU/ds56Hj2c2xPXzrxsQvAZ5wount++1eFM9a0/cpv44rTbR1N9p5PF8nck57gKdmyyay8atNiehCnoAQeGXuYil29jkBscaMGbOXLJABjw83Iwwp2gjoeFj4bPOX0iAUqDly9Ohxet9W8WYZ3f/R4445P3bt2S31O7SWb7/f4RxiC4ETCJwX6qdfDvXXJG8J6B5s+/VB3FuvpC7dzQGEDQOFZEnoHmi6zUR3+4vkZ/tkV6S+4b91+9YNNm62v3Dbw/d1POuFl29y3wSvcHv8yM40o3BefttX/rU12GOqr3ejH9Ptd919ebj+bt+zw8t2Y99UvXCDAwEeNzz+Rxl+vBfFst5ke/ZD/xaLk4m27kY7j6V/ose1B3jU66f4xkii7ghGvqF9+kntW6sHwxiDVnR4sJe89ObrBiUiSgeBlg0aS+/2nVwt+rV3Vkvb3t1PKLNDs1bSpUWb447/vG9v1qvd+PbZcVj4EYVAgXz5Zd2zK6Oc4ZBJArofOAnwmPTmH7LcmBD06yBK90DT7cGT7vYXXvv86lPHBjfqtVNWtK0bEy6665/SO2h9qs5Vd5F+dsPHkWWa+K36ibEzp2atZDMhz+8ybAz0mOrr/dA/6O7Lnfrrl3ueiT7QjWcXAjxOzUp/69d7UTTLTTz3OHLdqMdOWV5sdbf155+cJyXPO98L0/6S+f8BAAD//3SPNhsAAEAASURBVO2dB7jVRNPHx/JKFUVBQJSmvKjYCygKKiKCgFTpvXdEqlQpIiC9SO9VRARFxAJiQQQFG6iICCooKlWp6qdf9vqGm3PuOTk5yc4mm/Pf54HkJJvdmd/MbpKZm+ScUyf//ocYS802zeizL3cw9oCmg0agduVq9FTPPkETK/DyHD91kio3qUf7D/wUeFkhoD2ByUNHUPky99tXSnLv3OVL6akJYzIcNab/YKryYIW07X/88QfV6dCKtu/8MkM9bACBaALnnnsu7dzwQfRm/FZMYPPHW6lhl3ZsvS4cP4VK3nIbW/toOD6BCXNm0ETjn5uy650tbg7z/RgvOjsRXjYX7vFn1Um27Na2VaxzsxLzlJivvJSiZUp4OdzRsbrbMVpJ7jFr7U+Gja3tqV4XY2Di3JkkliiJCXRq1oo6G/+CULjnL1NHHeYHVSyCZH/TPrGW4hqce0zLuBYv36AW7fnh+1gqeN5Wv2pNGtStl+d2ZDXA7aO6n4usnFX4r+hPl/FsZRO9zs1qzfylVLRQkehulf4+hzvBI4KN2z7/VKlS6MxfAsKphXOjJE/gi2++pqrNGyZ/II4IFIGsWbLQihnz6KoChaTKNXjcKFqwYlmGNp97dibdev2N1GnAE7R2w7oM+7EBBOIR0OFGNJ7sYdnOfRMj46YyLKz90MNN8FTnmyg3+iZjF9n+zD3+TN10tqmpAzcrrwEXbvkEB68ymiyDtOQes1Zdw8JP+BoSPVbLxl8XNu/UtKXvf2iiYn7QaZ5XkQyXfb6O72Xe9qiYA2WwQILHm52tR4flXCR04k5amNxk+LDZll9L7rGeEgmexl070KatH/plQ/TrE4EPV79BF+e4yKfe9e525pIFNGLKRL2VgPR0VcFCtGL6PBLJHpmly8A+tOatNyOavOjCHFSp7IO0eNULEdvxAwQSEUCCJxEh/v3cQYcwXJDzW4G/h2RuKnS2WTJ6uqEumw33+DN11CnwZ8oca8kZFPQacOH2PcFDtv/FYuzHNk67WvXxamNrW0FYR6LHuRX8tr2KuV6neV5FUFiX+VKFb8hggQSP8/kmUU2/56NE8iWzX8VYDgsv7uvE8YOG0cP3l0vGfNLrsj/B06J7F3pnyybpgqPBYBMIgnMHm5C9dA06t6Utn2yzr4S9gSdQvvR9NPmpkdLlROJcOtKUbDBL5sz02evvpKTuQVKa+8ZSxk1lkHjpLIu4sRDndmHzeEX3myjd/JlbXtPOYUmmcwcSvHDilk33sWn6Yqwld9DD7DPMDMVcgqd6TEvHX/qVBFEx1/ulW3za8fdwz5eiZy/zeXzJ5e9R4RsyrsWR4JFn+zCdi1SMZRn+K8967lviHutBiIGzJ3jaPtGd1m1EAMm9G+p5ZB3jOzxD8R0e18b76Zef6eFGdUh8lwdFbwJPtO9MzevKfe2e8IsGHVqTeKUfCgi4JZAj+4W0dQ1e6eeWn6zjuC82w3JRLot3ENqxC6bqFCCKxdJOt1j1k90m25+5x5/QT3ebWm3EHUjwEhDkfgpFtu9ZuQZhnZuf0DFMQbV4NhNziihI9sQj5M+cqGKu12mO4J7LhfW9zOfxvYdnD/f8J8M3kOCRZ/swnYtUjGUZ/ivPeu5b4j4PpESCp2P/3vTa2+vdWwFHakkgf958tGHZKi1lD4rQa9a/QV2e7BsUcSCHAwLC70+cPElHfzsWUZvjfZyHjhymR9u1oB9+3B/RF36AgFMCl+a8hD5YtdZpddRjIsB9sRmWi3Im/L41K+y+2XiaZ6LxVI+16BQQMeUWuogi9En0hJJ5jNulbH/mHn9CTyR4nFvbrX1V2FHHsemcvJr3+IcpqOaErTk3ItmTkZbqeVHFHOF2/spIh38L9x9j6DbWkeCpSYO69eJ3PIc9cI9X3fzTDht3gidMrARHzrGeEgmexwb1o1fWvW7nk9gXUgJrFy6T/pH5kKKKqxYSpHHRBG5HtqxZ6YVpc2jfgZ+oZY/HIuQrVuRqWj13ccQ2GT++37+PqrdqQr8d/11Gc2gjxQjkuywPvbP85RTTOnjqct/E6BRwCJ51+CWyBllUB7yS1c4MVpqJHHG8uS3ZttzWl+3P3ONP6BmmxIDVX93a0O44t/bltmPYAhyxbMBtW9FnKnCMxdbcJvwUyR6ThtrkN/ccIbRyO3+lE1G3xj3edRvrnEFfWb6BJ3jkjQ/d/NNOcyR47Ohk3Mc51oNwH8f+irZeTw+mFa+uzkgWW0JPoEebDtS6QZPQ68mp4K+HDtKDDWqlPRXC2Q/a9k5g0YSpVOLmW9MaGjFlIs1csiCi0UoPlKdxA4dGbJPx4+Mdn1Nt40keFBBIlkDhKwvQ64uWJ3sY6ksmwB100CngIBmtVs2JYIsonZu1CoTcwi/9TOTEgyDbn7nHn9ADCZ541sy43a19EazMyDLZLdwMhTxhCqolyze6vph7RLJHFLGeqkWVT2Cuj/Qw7vGuyq6RWrn/xRn0FVK5PbdZNUKCx0rD27pu/mmnLXeCR4bv2smveh/nWE+JBM/QCaNp3vLnVNsN/QWAwE3XXU/Lp84OgCR6i7Dwxedp0Nhn9FYi5NJPHPw0VbjvgQgta7ZpRp99uSNiG8f3eEQHazeso04DnojoCz9AIBGB64tdSy/OmJeoGvYzE+AOOoTtwpzZHCnXvBlY1CXQKNufucdfmIIIYnBwBwXd2hcBDjlTF2fgQ0gYtvEgh3p6gidVn+5R4Rfcc73wBZ2S+dxzuQqbyhp/oh0dziFI8MizuG7+aae5Dr5rJ7/qfZzXOSmR4Jk0dxaNnz1Ntd3QX0AIbFzxCl2WK3dApNFXjFptm9OnX2zXV4EQS96rXSdqWa9RBg33G69qq9y0Ph0/eSJi3yvzltB/C18VsU3Gj6kL59Ho6ZNlNIU2UoTAfXfeTTNGjk0RbYOrJnfQwW3ANLjEIJlbArolc2LpKdufucdfmIIIwh7cQUG39kWAI9ZoSX4bZ+BDSBO28ZA8YWdHiHlJl6S7M40S1+IOjHHP9UJDJHjS7azbWNfhHIIET7p/eV3TzT/t9NXBd+3kV72P8zqH+zzmhBX7K9rw9IETM4S3TvfWHahNQ7ymzauFv96zmyo1qee1GRwvmUCTWnWpX+fH47b6xrsbqH3fnhH7ry5YmF5dwPNUY9+Rw2jZ6pUR/eEHCMQjUO2hh+mZvk/G243tighwBx3cBkwVqY9uGAkI3xIlTH8VLtufucdfEG72ZLpYqiZ4dArcerE3t33DFFTzwjmZY8UcZb4u05zTkzlep7qc8yX3XC846zRPYKxHjgwdguRI8ETazMuvMJ2LuH1Xp3nNiU8gweOEkk2dl99YS48PGWBTA7vCTCB/3nz01nMr6Zxzzgmzmkp0e3rSOJq9bLGSvtBJYgIPl30w7Zs6iXx74OgRtHjVCxEN1q5cjZ7q2Sdim4wf//f339Sie2fa+NEWGc2hjZATaPZoPerTqWvItQy+etxBB9kB8eATTV0JzeBfmBI60daU7c/c448zYBnNRsVv7qCgW/ty3rCHKRCUyEe47ZtKLBOxdrtfzFlhnuO5goncc72wJ5fsbn3F7jiM9Ug63EFyt+c2q5RI8FhpeFsP07mI23d1mteceAXn9WIQrvnZn+B5d/Mmat6jixPWqBNSAgvGPUt33np7SLVTp9bxUyepXN0adOjIYXWdoqeYBB66tyxNGjI85r7ojWf++INqtGpC4iksaxneuz/VfLiKdZOU9ZOnTlH9jq1px66dUtpDI+El8Hir9tSuUdPwKqiJZtxBBxk3lZqgTEkxwx7sizaqbH/mHn9BuNmLZujlN3dQ0K19OW/YwxQISmR7bvumEstErGXsN+d/0ZZYD0Ph8hHuuV6w1ykQirEeOVq4g+Ruz21WKZHgsdLwts41z3iTyt3R3L6r07zmhCDn9WIQrvnZEzw7dn5J1YzgJkrqEkgmGJ66lJxp/sKal6n38CHOKqMWC4HSJe6i2aPGJ9X2t99/R1VbNKTTZ86cPS7TBRfQCuMD9xzf4zl4+BCJ7zaJ7wChgEA8AkN6PEF1q1SPtxvbFRHgDjrIuKlUhALdOCRgBvXCEtBzqHZaNdn+jPGXDP1gfoOH24ZBuGFPzkruayPo656d30ea54MwPN3DMea45wlhf50CoRjrkSOWO0gu49oFCZ5Im3n5hQSPM3ph4mRqjASPScLl8ueDv9I9NSq5PBqHhYXA64uWU+ErC4RFHV/1qNG6KX3+1Re+ypCqnYuT3IwRYylL5sxJI3hx7SvUc9igiOPE93hWzlpAItkju+z54Xuq1aYZ/Xb8d9lNo72QEJg2fDSVLVU6JNroqwZ30EHGTaW+dMMjufCTMATuvFpEtj9j/CVnEe6goBv7ctuQI9icHHV1tblZhjFYpM46yfWk+znDzVxgR4jbt0XfSPCkW0C3sY4ET00a1K1XugF9XuMer7r5p505OH03TJxMhkjwmCQ8LDkhehALhyok8GjlqjSsZ1+FPYa3q+3GU3HV8VSccgOXuu0Omjd2sqd+xffIxHfJrEU8QSGepOAoWz/7hOoar2tDAYFYBF6Zt4TlCbJYfWFbfALcNzGygyTxNcEe2QR0D9DJ5iHak+3PGH/JWQkJnuR46VabezyEMVikg43Nc4mQVazrUmQmTLh9WzCVKS+3jbjnct3GOmeQXNhSxrULnuCRNyp08087zTl9N0ycTIacuYkg/EEQ+yvaBMiydavTDz/uN5limYIEzj/vPHr7+Zfosly5U1B7+Sp3HdyfVr/5mvyG0WJMAnffUZKmPz2aLvD4pM2p06fpkeYNaO++HyL6GdN/MFV5sELENlk/Xnt7PXUa8AT9888/sppEOyEhsOPN9zz7dEhQ+KoGd9BBxk2lr4BSsHMzGKdTIE6VmWT7M8ZfcpbjDgq6sS9smJwN7WpzswxjsMiOZxD3mecVHZ4IlRks4/ZtYWskeNI9XrexzhkkF1TcnNvSaf67hgRPNBH3v3XzTztNOX03TJxMhkjwmCQ8LJt07UDvb/3QQws4NAwEqleoRCP7DAyDKr7rIBKmInGKwk/gAeMVVlONV1nJKl/u3kWPNGsQ0Zx4RduLM+dT0UJFIrbL+jF90Tx6Zpq3p49kyYJ2gkHgkotz0uaXkCQOgjW4gw4ybiqDwCkVZBC+oEPQzU9byPZnjL/krIkET3K8dKzNGfwIY7BIRxtbZQ7yeQcJHqul5K5zz+W6jXXOILmwnIxrFyR45I0B3fzTTnNO3w0TJ5Mh5zWOzHOWKW+ySyVP8PQZ+RQ9v3pVsrKhfggJLJ08g2674aYQaqZepYGjR9DiVS+o7ziFenzo3rI0achw6RovWrmcnhwzMqJd8T0ekeTJnClTxHZZP/qNHEbPrV4pqzm0ozmBG68tTi9Mm6O5FuEQHwHmcNjRixZBDrB50YvjWBlBEqtcGH9WGonXuYOCbuwbRJkSkwxuDc7gRxiDRcG1ZPKSBfFcJCtgxj3XC9p4gifd53Qb65xBckHFzbktnea/a0jwRBNx/1s3/7TTlNN3w8TJZMh5jSPrfGXK6mapJMEzee4sGjd7mhv5cEzICFxVsBC9Mm8pnXfuuSHTTL06Bw8fovtqV6Uzf/yhvvMU6LHSA+VptPHqNC5f7dC3J73+7oYIklXLV6RR/QZFbJP14//+/pta9+xK72zZJKtJtKMxgYr3l6MJg4ZprEF4ROcOOsi4qQwP7WBpEsRgWrAIZZRGtj9j/GVkbLcliMmUIMpkxzDo+ziDH2EMFgXdnm7kC9K5SVbAjHuuF5yR4En3Nt3GOmeQXFCRce2CBE+6f3ld080/7fTl9N0wcTIZcl7jyDpfmbK6WSpJ8KxZ/wZ1ebKvG/lwTAgJ9G7fmVrUbRhCzdSrNGLKRJq5ZIH6jkPeY7WHHqZn+j7JquXvx3+nysar2n78+UBEP0/17EO1K1eL2Cbrh0gGNn6sPW3b/pmsJtGOpgTaNWpGj7dqp6n04RKbO+gg46YyXMSDoQ13UDoYWsqXQrY/Y/wlZyNuv3VjX26ZdAraJmfN2LU5gx9hDBbFphiOrUFJ9MgYg9xzvbC4DDlVeQ73vKnbWOcMkgubujm3RfsCEjzRRNz/1s0/7TTl9N0wcTIZcl7jpEyC55vv9lDFRnVMplimOAHxCqq1C5ZR/rz5UpyEd/WP/f4blalVhU6eOuW9MbSQRqBGxco04okBSmh89uUOqtmmWURfWbNkoTXGU25c4+P4ieNUp30r+nrP7oh+8SO1CIw3nt552HiKB8V/AtxBBxk3lf5TCpcEnDdj4SKVURvZ/ozxl5Gx3RbuoKAb+wZRJjuGQd/HGfwIY7Ao6PaUIR/3PJlIRjfzQnSbKnRAgiedum5jnfu6TIYPI8GT7l9e13TzTzt9OX03TJxMhpzXOCmT4BEwry93D14lZXoVllS6xF00e9R4kJBAYMyMKTRlAb6lIQEl1a1SnYb0eEJGU47bmLF4Po2cOimi/l233UHzx06O2Cbzx6Ejh9MSS/sP/CSzWbSlEYHXFy2nwlcW0Eji8IrKHXSQcVMZXvpqNRO2njh3JoklijsCsv0Z4y85OwQxmRJEmZKjGqzanMGPMAaLgmU9Xmk4A4l2kssImnHP9UJ+JHjSrajbWOf2bRnXLkjwpPuX1zXd/NNOX07fDRMnkyHnNY6Mc5Upp9ulkle0CeGqtWpCO3Z+6VZOHBdCAmOM75tUebBCCDVTq9LR347RPTUqIYHqEXvXFm2pfZPmHltxd/gdlR8kYUdr4X6VoXiy8tHWzej4qZPWbrGeAgTEU5Sfv/FuCmiqh4rcQQcZN5V6kAy2lNxB6GBrL0862f6M8Zecbbj92I19YcPkbGhXm5tlGINFdjzDuI97DojFTIbfcPu2kBsJnnTrybBZemv8a5xBciG9m3NbtNZI8EQTcf9bN/+005TTd8PEyWSIBI9JwuOy9/Ah9MKalz22gsPDROCiC3PQawuX0aU5LwmTWr7o8sy0yTR90Txf+ta903PPPZee7tWPxKvZ/CjxnsA6/7zzaPn0uVS8aDE2sbZ8so2aPN6R/vrrL7Y+0HDwCNx03fW0fOrs4AmWohJxBx1k3FSmqGmkqe1HQEya8AFrSLY/Y/wlZ2BuX3ZjX24bBuEvMpOzkvva3CzDGCxyT1vfI7nngVhkvCZPuH1byOxVxlh6c23jtqFuY50zSC5s6ObcFm17JHiiibj/rZt/2mnK6bth4mQyRILHJOFxOW/5Uho6YYzHVnB42Ag8UKo0TR0+OmxqKdfnyLGjdO+jj9Cp06eV9617h4O796Z6j9TwRY03391A7fr2jNu3+A7Py7MX0oXZL4xbx+uOVa+/St2HDvTaDI7XiED9qjVpULdeGkkcblG5gw4ybirDbQFe7biDKLzSJ9e6uBEURfg0V5Htzxh/yVmK25/d2JfbhkjwJOcjdrXDGCyy0zfM+ziDirG4eU2ecM8TQmavMsbSm2sb91yu21jn9mc357Zo2yPBE03E/W/d/NNOU07fDRMnkyESPCYJj8utn31CdTu29tgKDg8jgZF9BlL1CpXCqJpSncR3XMT3XFCcExDf2xHf3fGj7P5+L9UwXl158tQp2+7vLVmKZj4zzraO153PzptNY2dN9doMjteEwFM9+1DtytU0kTb8YnIHHWTcVIbfCjwacgdQeKR21qq46ROlU9OWaUvzt27+rJu8abB9/I/bp93MV9w2RIJHnsOFMVgkj45+LXEGyqJpuJkbrG1wzxOiLyR40onrNtY5g+SCilf/FW0gwSMoyCm6+aed1py+GyZOJkPO81YQrheVfYPnzB9/0PXl7jG5YgkCZwlkuuACmj/uWbr1+hvPbsNK8gR+Ofgr3W18iwfFGYE+nbpSs0frOassudaJkyepRusm9O333zlqWcX3gfqOHEbLVq90JA8q6U3g1QXP0dUFC+utRIik5w46yLipDBFuZapwB8KVKWJ0JG7wRIlO5qRtjPpPN3/WTd4o3Mp/cvu1m/mK24ZBuGFXZWhulmEMFqmyTRD74Z4PrDp7HYfcvi1kRYIn3WK6jXXOILmg4ubclk7z3zUkeKKJuP+tm3/aacrpu2HiZDJEgsckIWH5aLsW9MmOzyW0hCbCRkB8j2f5tDlU6Iorw6aaUn3Eq7bEK7dQ7An4mdwRkrV9ojut2/iOvZBRe5dMnEa333RL1Fa5P1v17EobPtgot1G0FigCYq796JU3AyVTqgvDHXSQcVOZ6jZKVn+VQa9kZUtUX9zMieIkmROrLd38WTd5YzFXuY3bt93OV2G/YVdlY277hjFYpMo2Qe2Hc+xZdUaCx0rD+zrGeiRDziC56Mntuc0qJRI8Vhre1sN0LuL03TBxMj2G85zl9TxlyuhlqewJHiHk05PH0+znFnmRF8eGmMAV+S6nVTPnUw4jAInijsAX33xNVZs3dHdwihzl9+up5jy/hIZNHJs07Ty5ctPquYvp4hwXJX2s0wPE6+IadG5L23d+6fQQ1NOMQFnju2fT8N2zQFkNAeZAmUOKMJw3D1IE/F8jXpM5sWTRzZ91kzcWc5XbuIOCboNgnGMujAGOeD7DbV8dWYo5YvMn29KQbTGWwkdR0glw+4zZk9fAGfdcL+TEEzymtf598lenscIZJBdU3J7b0oniFW1WFjLWdRqvdvpy+q6O52w7VmIf5/Wi1/NUItmd7Fea4Hnt7fXUsX9vJ3KhTooSuO/Ou2nGyOSD3ymKK6bajR5rTx9s+yjmvlTeeP7559P4J5+i8mXu9w3Drr3fUtUWjejPP/90JcMDRnB+KnNw/sixo1Td+DbQ/gM/uZIRBwWbQLfWHahtwybBFjLFpOMOOsi4qUwxk3hSV1Wwy42QHAmdaDl082fd5I3mrfo3t3+7na84AxyCcVgCQYn8hZtjUINFYh4wkziCkUjkiG2xShACOLHk8msb95xg6uWVO/dcL+TUaZ7gtltQx7rpT9FL7rnP7bnNKiee4LHS8L6u03i105bTd3Ubx3aczH1I8JgkJCwPHj5Ed1WrKKElNBFmAk1q1aV+nR8Ps4qsuolXbIlXbaGkE8iSOTNNGTaK7r69RPpGxWsnTp6gqi0b03f7fvDU87BefenRSlU9tZHoYCFjjdZN6bfjvyeqiv2aEVDxqj/NkPguLnfQQcZNpe+QNBGA25ZuMIibM7evW3PTHzcD2f6sm7xubCLzGO6goFv7cgY4BD+3cslkr6ItzsCHkN/vYJEY72Yixy6JY8faa6LBrm1d93H7jeDilTv3XC9k1ClgzD2X+z3WhT2SKTqcQ5DgScaiievqNF7ttOH0Xd3GsR0ncx/n+crrecqU0ctS6RM8QtAH69ekvR4DnF4UxrF6ECh3z700ZsAQEoF5lOQJVGxUh775bk/yB4bwiBzZL6Q5oyfQjdcW91W7pt060cYPN3uWQYyJl2cvooLM36v62PheWmPjabDTZ854lhkNBINA5kyZ6PM33g2GMJDiLAHuoEOqBCbPAvVxhTtg4lQ1M6kjlqqLbv6sm7yq7RndH7ePu52vuOUKwk17tC1k/+YeC0JeFcEioYeZxBF9uk3kiGPjlbAEBuPpl+x2zgCjKYvXMajCv3XyC+45U8VYN31DxpLbh92e26y6IcFjpeF9Xafxaqctp+/qNo7tOJn7kOAxSUhaDh43ihasWCapNTQTZgI3XHMdzTRe13bJxTnDrCaLbi+seZl6Dx/C0rZOjQrfmT9uMhUrcrWvYj/97ASavXShNBmuu/q/tGq2vPbiCbbuvbepbZ8e8XZju2YE7i1ZimY+M04zqcMvLnfQQcZNZfit4F1D7mBJIgnFTZh4Ukcs/Sy6+bNu8vppW9E3t5+7na+45fIaXPbbbk765x4LQgbOYJEK+U2OqeAPpq5OlpwBRrN/r76jwj90Chhzz5le7WXaXdWS24fdntus+qdSgkfozRmIF+3rNF6FvPEKp+/qNo7jMbJu5/SrIFwbKH+C561N71HrXnj9ltXJsB6fQP68+dICklcXLBy/EvbEJFCq+sP066GDMfelwsbL8+Sl+WMnsz/pkojlm+9uoHZ9eyaqlvT+FnUbUu/2nZM+LtkDFq1cTk+OGZnsYagfQALi1ZfiFZgowSLAHXSQcVMZLGLBlIbzhsFOY3HzFYTEjimjbv6sm7wmZ7+W3EFBt/MVtx3DGOSI9iHOIJHZFzdHVfNwEII4JtMgLLnnBaGjV9/hniOEjDoFjLlt5tVegqfKwj3/uT23WRkgwWOl4X1dp/Fqpy2n7+o2ju04mfs4rxOCcG2gPMFz8tQpuumhe02+WIJAQgLZs2ajCYOGUemSdyWsiwrpBGYsnk8jp05K35BCa8WLFqNZo8bTpTkv8VXrH38+QJWa1KPjxvd3OMoM4wm3++68m6PpiDafnjSOZi9bHLENP/Qj8Pqi5VT4ygL6CR5yibmDDjJuKkNuAs/qcdswloDipitIiR1TRm4Wsv1ZN3lNzn4tuYOCXuzLedMueIclGBTPdziDRGaf3MEiFTqYuoTdH0w9nSxVcPcaOOOe6wUnnXyCey7nHutO/DKZOtw+7OXcZuqBBI9JQs5Sp/FqpzGn7+o2ju04mfs4rxW9nqdMGb0slSd4hLCNu3agTVs/9CI3jk1BAoMe70n1q9VKQc3dqXz8xHG6p2ZlOnHypLsGND3q7jtK0uQhIyhb1qy+a1CvUxv66NOP2eQQ3xd6yXhVm3jSjbu0N55CesN4GglFTwLCRzYsW6Wn8CGXmjvoIOOmMuQm8Kwed6AkWsAg3EBEy2T+1s2fdZPX5OzXktvXvcxXnDftgneQx50Mf+DmJ2TkDhZx+6eVc9j9wapronXOAKPZt1fe3HO9kFOngDH3WOEe66ZfyFpy+7CXc5upIxI8Jgk5S53Gq53GnL6r2zi242Tu47zW8XqeMmX0svQlwTNzyQIaMWWiF7lxbIoSUPVaqrDgHTX9WZq2cG5Y1EmoR/UKlWhkn4EJ66moMOe5RTRs8nj2rooXu5ZWzpjH3s/pM2eovpGw+vyrL9j7QgfyCYjkuEiSowSPAHfQQcZNZfCoBUsizpuraE2DcPMQLZP1t27+rJu8VtZ+rHMHBb3MV9yyBX3sefEH7nFgysYdLOL2AVMPcxmWAKGpj9ulinOg1/Gnwsd18gfuscI91t36arzjuH3Yy7nNlBkJHpOEnKVO49VOY07f1W0c23Ey9yHBY5KQuNz9/V6q0LC2xBbRVCoRqFzuIRo7YEgqqexa1yPHjlKZWlVIBOfDXto0bErdW7cPhJo//LifKjauQ2f++EOJPI1r1qH+Xbqx93X46BGq1rIx/fTLz+x9oQO5BFS9zk+u1KnRGnfQQcZNZWpYwr2WnDcLVqm8BrisbXGt6+bPusnLZTen7XIHBb3MV9yyCUZhCQhF25szQGTtS0WwSNV8LPTSYU628udaV8Hcy9wg9Oae60UfOs0P3POlirEumMsq3HOgV/8VeiLBI8va/7aj03i105zTd3Ubx3aczH2c56sgXBP48gSPgCu+S/H1nt0mZyxBICkCpW67g+aNnZzUMalaufvQgbTq9VdDrX6fjo9Rs9r1A6NjnfYtadv2z5TKM234aCpbqjR7n7v2fks1WzelU6dPs/eFDuQQEK/y27pmnZzG0Ip0AtxBBxk3ldKVDlGD3EESE1UQbhpMWeyWuvmzbvLasVexj9vfvcxX3LYUfHUZh8n4ggpupjwqgkWcwRtTD+syjD5h1S/Ruir/8TI3CB1UyKlTwJh7Llcx1hP5ZjL7OYPkQg6v/ivaQIJHUJBXdBqvdlpz+q5u49iOk7mP8xohCNcDviV4Js+dReNmTzM5YwkCSRNo17g5Pd6ybdLHpdoB6ze+Q22e6B5Ktc8991x6ulc/qlGxcmD0m7ZwHo2arj75eNGFOWjtguco1yWXsrPY+OFmat6jC/3999/sfaED7wQerVyVhvXs670htMBCgDvoIOOmkkXxkDTKHSQRmHS6wdLNn3WT1+9hw+3vXucrzht3k31YgkKmPpzBIbMPc6liLuP2UVMXcxmEgI4pix9L7jnU1Mnr3KBCTp3mBu5xomKsm74hY8k9D3r1X6EjEjwyLJ3ehk7jNV3qjGucvqvbOM5IJ+MWzuvEIFwP+Jbg+X7/PnqgXo2MxLEFBJIg8NrC56lIgYJJHJGaVW8sXyaUT1yoemrFqdfs/m4PVWhUx2l16fVuv+kWWjJRTeL8+VdWUZ8RT0nXAQ3KJzB3zCS6+/YS8htGi1IIcAcdZNxUSlE0pI1w3liZyHSyIXfQSDYLjD/Ty5wtg25fFeMxCDfwzqzlrBZnsCNaAhXBIu4xHa2T+B02n4ilY7xtKsac6NtrMFaFX3iVMR5jju3cc7mKsS6TC7cfy7h2QYJHpsXlPFUlVyJ3rXH6rm7j2AlBzmueIFwL+JbgEfCrtWhEO3btdGIH1AGBmASa1KpD/Trzf3skZucabWzTuxutf/9djSS2F/WSi3PSzJFj6YZrrrOvqHhvDePVZZ9/9YXiXiO769y8NXVq2jJyI9OvmUsW0IgpE5laR7MyCIixsvml12Q0hTaYCHAHHWTcVDKpHopmOW8UBKAg3CwkYyjuoJFsf8b4S8a6REG3L7d8glaYAh7c/h/tXarYcc/L0XqJ37rN1bF0SHabKv+R4TcqZEWCJ92DZNgsvTX+Nc4guZBexrULEjxy/UCGTeRK5K41Tt/VbRw7Ich5fRCE6wBfEzx+vcrIieFRRw8CD9xdhqY+PUoPYX2UctnqldR35DAfJZDX9cU5LqLnnp0ZuCe3gpTsEE/xiKd5VJTR05+lqQvnqugKfbgg0LD6ozSwaw8XR+IQVQS4gw5huYFRZY9k++G8URCyBOFmIRkm3AF22f6M8ZeMdYOf4BHacI9J0Ydu41LIHKuoYGXtV1WwiHsesupkXZc9P1nbDuI6Z2DRqq8Mv+Ge64W8SPCkW02GzdJb41/j9mUZcwMSPHL9ICzncU7f1W0cO/EQzuueIPiUrwmenw/+SvfUqOTEDqgDAjEJIMETE0uGjYePHqGSjzyUYbtuG7JnzUYLJ06l4kWLBUr0r3bvoirNGgRGpjy5ctOaeUsoh/FdHhVlwKjhtOSlFSq6Qh9JEnhxxjy6vti1SR6F6ioJcAcdZNxUquShW1+cNwqChU4BIyEvNw/Z/ozxJ6zmvHAHzmXYlzPYYSUlQ1Zre6rXVXGy6qUyWMQ9F1n1MtdV6mf26deSe+606iVjrKmQV6fzNfdcrttY4J4PZfgwEjzWWcH7ehCC8d61IOL0Xd3GsROenNcGQfApXxM8wgBtjY+/rzM+Ao8CAm4IIMHjnFq9Tm3oo08/dn5AwGpeZCQrZo8aTzdeWzxgkhFVNL67843x/Z0glfvuvJtmGK+xU1XaGq8BXBei1wCq4sbZT/H/XkMrZ87n7AJtSyDAHXSQcVMpQc1QNsFtOwENAaNI15Htz9w2lC1vJA31v7iDgjJ4cctoUtc58MHt9yaj6KVKZpxBr2i9rL+DEOCxysO1rpKvjPOgCp+XISeXvaLb5Z4nVY71aN3c/Ob2ZxnnNiR43Fg2/jG6+Wg8TTh9NyyMrOyQ4LHSYFjf8MFGatWzK0PLaDIVCJS7516aMuyZVFDVs45zli2mYZPGeW7HjwbyXZaH5o2dTIWvLOBH97Z9Dps4luY8v8S2jl87+3V+nJrUqquk+1OnT1N9I4m4feeXSvpDJ4kJPNWzD9WuXC1xRdTwlQB30EHGTaWvgALcObfthOoIGEU6gGx/5rahbHkjaaj/xR0UlMWL8wbeSl3XYL4qPlZWYl1lsIjbV6N1s/5Wqae1X1XrnAHFaB1kseSe64XcOF+nW0+W3dJb5F3j9mkZ5zYkeOT7gE5jNp72nL6r2ziOx8i6nfP6JwjXhL4/wSNg31e7Ku0/8JOVO9ZBwBGB8qXvo8lPjXRUN9UrHTl2lEpUKa8dBvGR+BXT51L+vPkCJ/uWT7ZRg85tAyeXVaBVsxfSdVf/17qJbV34WI3WTWnfTz+y9YGGnRHIljUrbVq5lrJkzuzsANTyjQB30EHGTaVvcALeMbfthPo63Xxy3jSZriDbn7ltKFtek4NfS+6guSxenAGPaPayZI5ul+s3tw3t5FYdLFIxJ8XTV+jaqWnLtKRWvDo6blftP7LGF/dcL2yp0/ma246qx7rXscR9zpDhx0jweLVyxuODEJDPKFVyWzh9V7dx7IQc53VBEPwpEAmeKfPn0JiZU5zYA3VAIIIAnuCJwJHwR7+Rw+i51SsT1gtKhaxZstDiSdMD980dwefEyZNUqWm9wCenC15xJb00ayEJlirK3n0/UK02zejY77+p6A59xCHQsPqjNLBrjzh7sTlIBLiDDjJuKoPEK0iycNtO6KpLwIg7WGTaXbY/c9tQtrwmB7+W3HaWxYtbzmj+suSOblf2b9VcouVXHSzyW1+hvy6+EW2rWL/94CmLH/dcL3jpcr4WsnLbUvVYFzp5KZxBciGXDD9OtQQPt01Mf9Fp3JoyW5ecnHQbx1Yu8daR4IlHRuL2g4cP0V3VKkpsEU2lCoH777qHpo8YI0XdEydPULas2aS0FdRGfjn4K5WtW53O/PFHUEWMkGuK8XRWOeMprSCWgWNG0uKVy4MoWgaZaj5chYb37p9hO9eGbds/o8aPtdfGz7g4+NnumvlLqWihIn6KgL4dEuAOOsi4qXSoSspV47adAKqD/bgDRVbHks2D24ay5bWy8GOd29YyeXHexMdiH4S/3Iwll7mN23ZmP3ZLP4JFqv0glv5B941YMlu3iXly4tyZJJYqi0x/4Z7rBRedAsXc84FM26nwOc4guZBfxrkt1RI83D5q+pXu8zOn7+o2jk2b2i05rwmC4EuBeIJHGKDX04Npxaur7WyBfSCQgcDdt5eguWMmZdjuZoPwwRFPDHBzqFbHzF66kJ5+dkLgZW7doAn1aNMhkHJ++OnHad+bCaRwcYQa/+RT9HDZB+Pslb/59Xfeog79eslvGC0mJFC6xF00e9T4hPVQIRgEuIMOMm4qg0EqeFJw205oHISbBTvyKhhY+5ftz9zyy5bXysKPde6Ai0xe3LLG4h/U8eoHi1h8/AgWBUl3HV/Z5ic/mfMB91wv/B0JnvRR78dYT+89+TXOILmQRoYvI8GTvF2dHhHUc7cT+Tl9V7dx7IQXEjxOKEmo8/We3VSpST0JLaGJVCJwfbFr6cUZ86SofMtD99Gw3v2o4v3lpLRnNvLelg+MJxnO0AP33Gtu8n3ZqmdX2vDBRt/liCeATLvG68Pt9pOnTqW9mk2378xkz5KVVs9bovRbRrOMZOJwDZKJbn0hqMeJpLdIfqPoQYA76CDjplIPkv5IyXmjIDQK8s0Vt+/Gsqhsf+bWQba8sZio3MYd7JXNi3t8xmIftEARt81iMYi3za/5zA8/iMcgaP4RT06x3U/fke0r3HO94IUEj6Dwb5FtP7NdriVnkFzILOPclmoJHhVj1upPMmxkbU/VOqfv6jaOnTDnvB4Iwvk9ME/wCGM07daJNn642YldUAcE0ghcke9yeus579+U2f3dHqrQqA6VuPlWWjRhqlS65hMzN15bnLq0aE1ljL+u97uI78c06NyWdnz9ld+iZOj/P//5D708eyFdVbBwhn1B2NDX+I7RMo2+Y2RlVrxoMVo+fS6df9551s2s672HD6EX1rzM2gcaTyfw38JX0StGIg9FHwLcNzC63rDoYkHOGyuTQRBtyO23pu7RS9ksuPWQLW80D9W/uQO+snlxyxuPvwiK+P20hl+6x2MitvsVLAoiC9m+bsc92X1B4CWbD/dcLxgjwZPuaX6N9XQJklvjvpaT4c9I8CRnUze1ZdjJTb9ejuH0Xd3GsROOSPA4oSSpjkjuiCQPCggkQ0DGxdTqN1+jroP//UbJ2oXL6KoChZIRwbbulPlzaMzMKWfrFDeeOnrMSPTcd+fdZ7f5sXL8xHFq2Lkd7di104/u4/YZ5FezvbXpPWrd6/G4suuwo23DptStdXulorbs8Ri9vfl9pX2mamej+w+mRx6skKrqa6k3d9BB/DVRSeOPF1DcExA3OPEK542V2WfQbrC4fdbUO9ZS9s03ty6y5Y3FROU27sAvBy/Om/lE7MXY9SPRw22nRHrH2+/nXBZEJoKH+ONCcY4W636XoDDi8BPuuV7YTkZMQpUPcNuaw4acbLiv5WSc21ItwSPs7cf5OwhPYSTj65y+q9s4dsKN06eC4DuBeoJHGES8pk28rg0FBJwS2LBslefXTj05ZiQtWrk8rctGNWrTgMe6O+0+Yb14F1B5c19G9R6pQbUqVaHLcuVO2A5HhWO//0ZNunYMzJM82bNlp7eXraQcF+bgUNdTmz8f/DXtKS+RGNO9zBs7mUrddocyNc788Qc1M5L34ttFKHwE8hjzyHsrXuHrAC2zEFARdGARPEUaTXSxHu8cLxtPIjlk9xevPc4byXh9WrfLCJJY2+Mef7Lltcruxzq3v3Pw4pbZiR3E+FURxA+CrnY8/A4WcQZ27PR2sk+w8SMZKObAzZ9so4lzZjgRU0kdjnmAe64XYJDgSXcPv8d6uiTO1rivbWT4dComeLjtEs87/JqP48ljt52TkW7j2I6TuY/zOiAI92qBS/C8su51emxQP5M/liCQkMDMZ8bRvSVLJaxnV6Fai0Znn2TJnCkTfbBqLWXLms3uEMf7xsycSlPmz7atX77M/VTz4cpUtlRp23ocO0+dPk0d+vWid7ds4mg+qTZb1mtEvdoF8ym++p3ahCZBcWnOS2iN8RqvSy7OmZR9vFQWfta4awf6ZMfnXprBsTYERGJaJKhR9CKgIuigF5FgSZvoYl2l/RLJwklOpZ52esgIkljb59ZLtrxW2f1Y504gcPHivKFPxg4iWCKKrEC+8F8RnN9i/BPrQS9+B4u4/VcGf6uPiPbM3zLaFm0E3We4fIR7rhdskeARFP4tXHY025e95AySC1llnNtSMcHj95wt/Fj2U5bmuVqcuzsbf/zhtXD6rm7j2AlLzutBP+/TTN0Dl+ARglVoVJt2f7fXlBFLELAl0Kp+Y+rZtqNtHbudp8+coRsejEys9O38ODWtVdfuMMf7xEfmxcfmnZQC+a+g5nXqU40KlSlL5sxODpFWp33fnvTGuxukteemoZfnLKJrrirq5lDWY8zvKLF2orjxu+8oSXNHT1Taq3j6qW7HNrRz9y6l/aZCZ7kvzUXvv7gmFVQNnY4qgg6hg6ZQIScX65w3V9GqOpEn+hgvv4V/Tpw7MzDBYxlBEisP7vEnW16r7H6scwdbuHhxy+3WFtbgkdmG2BZdzICQ2C6CQqIE6YmLNIEc/BeEYFFQfcEOXyw/EfVj+YrYbvqL6Stimy5JQK45gHuuF4yR4BEU/i1BGOumLE6W3NdxMvw6FRM8wnacAXknvmGtEz3niuSPXRHzrijmnBxdV8acwem7uo3jaL6xfnP6k+p7tFj6BTLBY/0eSiyhsQ0ErATEN21Wzphn3ZTUeqxvP12eJy+9/fxLSbUTr/LgcaNowYpl8XbH3J7deHqofvVa1KRmbaWvb2v7RHdat/GdmDJxbxRPlYgnp4JWdn+/lyo0DOdTESIxKhKkKsvR345RzTbN6Pv9+1R2G/q+8PSOviZWEXTQl47/kju5WOe8uYpHwIlc8Y5NtF34ZJCSOlZ5ZQRJrO1xjz/Z8lpl92OdOzjOyYtbdj/soVufQQkW+TFn62YrP+TlPq8Ju3MWGcFaTvmsbXPPh0EZ61ad7da55wQZ57ZUTfBw+6qdX3DvkzFncPqubuPYib2Q4HFCiaEOnuJhgBriJl9b+DwVKVDQlYaDxj5DC198PsOxo/oNoqrlK2bYnuyGXk8PphWvrk72sLP161erRe0bNyPxfQ3uIr6V0vix9rRt+2fcXWVo/wHj9XRTh4/OsN3c8Nam92jyvNn06RfbzU1003XXU+Vy5alO5WpsTzzVbteCPg7xa8WWTppOt91481mmKlZ2fvsN1WzdlIS/oXgnIL7htRHf3vEO0qcWuAPMPqkVmm6dBJz8tKET+RIZQ8gvikjqiGL+TvsRsP9kBEmsKnHbTra8Vtn9WOcOtHDz4ryx98MeuvUZpGARfCFY3iPjXGanEfdcL/qWEay100HmPu65PEhj3Qk3ziC56F/GuQ0JHieW1KuOjDmD03d1G8dOrM957uc+jznRL5BP8AjBV73+KnUfOtCJDqgDAlS3SnUa0uMJVyTurFqBDh05nOHYqwoWorULknvyJkMjxobm3btI+b5N45p10hI94kkXzvLb779RdSP4rvoJi2aP1qM+nbrGVE0kyESiLF7Jdcml1Lt9ZykJOWsfc5YtpmGTxlk3hW5dvNrr5dkLiduvosGNmTGFpiyYE70Zv10QwNM7LqAF6BAVQYcAqaudKE4v1jlvsJxCE7KaRXzQPVYxX9mT6LURsY4NwjYZQRKrHtzjT7a8Vtn9WOcOCnLz4pbfD5vo1GeQgkXcY18nu/gtqwq/UGFvGcFaVbbgngtV2FQmK+5rOBnntlRN8Ag7cwblZfpRsm3JmDM4fVe3ceyEP6cvOb1ndCKn2zqBTfAIhSo0rkO79+5xqxuOSzEC65e+SFdenj8prUWAo0HntnGP6dPxMWpWu37c/U52PNy4Lu3a+62TqgnrZLrgAurSvDX7a7W+3rM77QkL8X0iVeWx5m2oQ9MWMbu7q1pFOnj4UMx91o3lS99HYwYOJcHJaxFPCtVq29xrM1ocf+ett9OCcc8qlfXIsaNUumZlPMXjkXq+y/LQO8tf9tgKDveTgIqgg5/66d6304t12FGNpWUESayScttNtrxW2f1Y5w4KquDFrYMfdtGlz6AFi7jHvy528VtOFeNeha1lBGtV2YJ7HgzaWE/ElTNILvqW4eOpnODh9tdE/sG1X8acwem7uo1jJ3ZCgscJJaY6m7Z+SI27dmBqHc2GjYB4zZR43VQyJdE3Z7JlzUqvG69/E69AclPEK6iuL3ePm0Ntj1k2ZRbdUvwG2zpedw6dMIbmLV/qtRnHx/do04FaN2iSob54kuiBejUybI+3oUyJu2jWqPHxdjvafvzUSXq4UR366ZefHdUPQ6W2DZtSt9btlarSrHtnem/LB0r7DFtnk4YMp4fuLRs2tVJKHxVBh5QCKllZpwke0S3nTZZktbRtTkaQxKo89/iTLa9Vdj/WuYMsqnhx6+GHbXToM4jBIviCv56jasxzz/WCooxgrSprcPt9EMe6HVvu6zcZfp7KCR5hO87AvJ1vcO6TMWdw+q5u49iJrTj9KJl7RieyuqkT6Cd4hEKdB/ahV996041uOCYFCQzv3Z9qPlzFkeYbP9xMTbt1SlhXfOdl+dTZCevFqrD1s0+obsfWsXZ52lasyNW0eu5iT20kOnjjR1uo6eMdE1WTtr99kxbUtUWbDO0dM14Zd3ulchm2223o1roDtW2YMVlkd4x1n9fvJlnb0ml9/tjJdNdtdygTeerCeTR6+mRl/YWto7tvL0Fzx0wKm1opp4+KoEPKQZWocDIX67ClRPBxmpIRJLE2zW0z2fJaZfdjnTsoqJIX502+H7bRoc+gBou4/VoH2/ghYzLnV6/ycc/1Qj4ZwVqvejo9ntvngzrW4/HhDJKLPmWc21I9wcPts/F8g3O7jDmD03d1G8dObMV57afynBZP18AneA78+gs9WL8mqXxVVDxY2B58AqWNpzdmO3x6o2zd6vTDj/sdKfVo5ao0rGdfR3WtlQaOGUmLVy63bpK2zv3Exfr336U2vbtJkzdRQ7UrV6OnevaJWS3ZE1f2LFnp3ZVrSCyTLWvWv0Fdnkze1sn2E8T6eXNfRq/OX0rZs2VXIt7aDeuo0wB3385SImDAO3l90XIqfGWBgEsJ8RIRUBF0SCQD9scnkOzFerLnq/g9Y08sAjKCJNZ2ucefbHmtsvuxzh1gUcmL2/Z+2CfofQY5WAR/UOs9yZ5bvUqnwr4ygrVe9XR6PPdcHuSxHosR97WbjHNbqid4hN04g/Ox/IJ7m4w5g9N3dRvHTuzF6UOqz2ux9A18gkcIjb/yjmU6bItF4KpChWnt/Odi7Tq7Tbx+q3P/J+jdLZvObnOy0sZ4hVX3JF5hdeLkCbqzagXW5KSMiwU73bsO7k+r33zNroq0fTcbr5x73nj1XKzi5nWNI54YQDUqVo7VXNxtvxlPC5WrX4vE92FStVQu9xCNHTBEifpcT7gpEd7nTrgTvD6rl1Ldqwg6pBRQycome7EOe0o2QFRzsq97uO0lW94oHMp/cgcFVfPitr9yAwW8w6AHi+APahwo2fOqDKlU2FZGsFaGrk7a4J7Lgz7WoxlxBslFXzLObUjwEHH7bbRfcP+WMWdw+q5u49iJvZDgcUJJQZ1yxlM83+37QUFP6EJnAuL1UuI1U/HK9p1f0mOD+rn2pS7N21DHpi3iNR+xXcU3bLJnzUbLps6iooWKRPQt88fkubNo3OxpMpuM29a2NevowuwXxtw/ZPxomv+CffLOemCr+o2pZ9vkXjHXutfj9Nam96zNpOT6hEHDqOL9yb0Wzw2oL775mqo2b+jm0JQ+Jt9leUg8vZM5U6aU5hAW5VUEHcLCyg893ASiwnYD6gf3eH3KCJJY2+Yef7Lltcruxzq3b/vBi9sH/LCTlz7FnDdxzgwvTcQ9VpdgEWfALC6cFNnh5pwqA42KcS4jWCtDVydtcM/luox1kxX3mJdxbkOC519rcfuu6RMqljLmDE7f1W0cO7EZEjxOKCmoo+KkrEANdMFMYGSfgVS9QqWIXj789GP64OOttP2rL0m8dsxrERPd07360ZWX54/b1Lbtn1Gd9i3j7pe5QwR7V0yfS7kuuVRmsxFtffrFdurYvzeJVyZylj6dulKzR+vF7WLQ2Gdo4YvPx91v3ZHsDcSKV1eT+PYOClEOI8m2atYCuiLf5aw4dnz9FVVr2Zi1jzA2Pm34aCpbqnQYVUtJnXB9E2yzJ3suMbXhvOEy+wj6kiNQLCNIYuXGPf5ky2uV3Y917sCKX7y4/cAPW7npU4zZkjffSmL+4ig6BYswh8v1AL9tr2KMywjWyqUevzXuudxve8fXPPYe7vEu49yGBE+67bj9N70n3jUZcwan7+o2jp1YCwkeJ5QU1ek2ZAC99MZaRb2hG90I3Hnr7bRg3LMZxK7VtjmJBIXMkjVLFvr0tbdjNvmO8eq3zsZ3RU6cPBlzP8fG4v+9hpZMmk5ZMmfmaD6tzYOHD1FL4wmXHcZTUFzlsly5af3SFynTBRfE7WLe8qUkno6yK4LDqlkLHX+f5NdDB6lyswZ0+OgRu2ZTal+xq4rS8qmzWZ8SeW/LB9Sse+eU4upV2QeMxM5UI8GDEh4CKoIO4aGlXhO3CR7Y9d9XksgOFMsIkli9iNtOsuW1yu7HOndQxU9ewhcmzp1JYpmKxZzrOG2sW7CIk0Uq+ZjpW37qzD3XC91kBGtVMeL2bd3GOmeQXNhUxrkNCZ7I0cFts8jeeH7JmDM4Oeg2jp1YCQkeJ5QU1Tl05DCVq1uDxDdUUPQnUCD/FZTbeOrkoGHXQ4cOebLrHTfdQtOeHhXz9V5NH+9IGz/aIhWYCH6vnrMoQ5vHTxynWyqWzbBdxYZSxuvpJg0ZHpOBzP7FUy7iaReu0qNNB2rdoIlt87v2fkvPTJlEmz/ZSidPnYqoe9N111M/40kg8U0fJ0UcX79TGxJPk6BEEnjkwQo0uj/fU02LVy6ngWNGRnaKX3EJiMSleDVb3tyXxa2DHfoRUBF00I9KcCT2EphKZdua3GTfSMkIkli9i9tGsuW1yu7HOndQMAi8uHX0w26J+jTHq6jHqb+OwSIxR6Ry4i+R7yTab/WtRHWJ0PToAAAhWUlEQVQ593PP9UJ2GcFaTgbWtjnHuehHt7HOGSQXPGSc25DgESQjC7fdInuT/0vGnMHJQLdx7MRCsu9LrH0G4Xx3zqmTf/9jFSro64tXvUADR48IupiQLw4B8dH7auUrkvhWTnQRCbwPtn1k/OXcNvp4x+f01e5d0VUy/L48T15q07AJ1a9aM8M+c8Oat96kLgP7mD+lLPt06ELN6jSI2RbnpBGzQ8tG8UqtqUaiq1iRqy1bE6+KhEk+I2icPVv2xJWNGu369KA334v9BJOjBmwqie8KbXh+FV10YQ6bWum71hly7Nj1NWU3nqq6w3itxA3XXJe+08GaeIJEPEmCEpvAgMe6U6MatWPv9Li1y5N9ac36Nzy2kjqH2807qUMhfJqqCDqEj5o6jbxerHMHUdSRcN6TlZnsayIZQRKrJtzjT7a8Vtn9WOf256Dw4vYLP2wXr0/reBV1ECyKTYrb92P3qu/WaL/yWxMVY1pGsFYVJ25/1i0wzDnvCZvKOLchwRN7dHD7cuxe5WyVMWdw+q5u49iJVWTfl1j7DMJ5T7sEjwBYs00z+uzLHVaWWA8ggRuvLU7iqZKLc+Sg64oWS/ueh913a2KpsPu7PfTjgQP0i/EKLZEAOv3HH2nVcuXMSeK1ZOJpDSdl2eqVNP+F52nn/5JGYrJqXrse/d/ffxuv/XuN1m5Y56SZtDrXF7uWXpwxL2598aovs5+4lZh3tGnYlDo1bRnzVWcvrn2F7rvrbsp50cVpUnz7/XfU9oluaSwmDBqWxjWReCKp0tZI8nCVEkaiZsaIsSRehcdZOBNVnHKrbnvZlFl0i8MnopzKdur0aSpVrSIdP3nC6SEpXe+6q/9Lq2YvTGkGYVVeRdAhrOxU6CXjYl3nm89kGUffDMq+kZIRJLHqxD3+ZMtrld2PdW5fDhovzsCJH/aL7jPW/Mapc/T8EC1P0H+L+QJP89hbKZZP2R+hZi/3XC+0kBGsVUOD90k9oYNuY51z3hM8ZJzbkOARJGMX7muT2L163ypjzuD0Xd3GsROLyL4vsfYZhPOflgme7/b9QFWaNyARIEQJJoEuzdtQx6YtgilcDKnEEz7iSZ9E5apChWmh8Z2fXMar5eKVucY3Yp5K8I2YeMfK3J4j+4VU8b4HqPx999OV+fJTvsvy0LvG94Ha9+1p2434llH1hx6mMiXvyqCnGHP7DvxI42dNp9feXm/bjtedt91wE816Zjxly5rVa1MZjhffR+rQvxdt/HBzhn3YkJFAHuPbSC8ZyYVLLs6ZcafLLUteWkEDRg13eXRqHZY5UyZaOXM+XVWwcGopniLaqgg6pAhKFjVlXayngp1jsZJ9IyUjSGJ1FG67yJbXKrsf69xBlCDy4tbZDzuKPmONV7Fd9pgVbZolXp/mfl2WYt5AoifSWsK2onT+3zJyr/+/uOd6oaGMYK0qUtzzmm6BYc4gubCpjHMbEjz2o0PHeVnGnMHpu7qNY3sP+Xdv2K9xtEzwCNOIpxB6DhvkxIaoo5hAoidcFIvjqLsjx45S+QaP0tHfjsWtX6dyNXqi42OOEg7dhgwwngxaG7ctXXaI16SJp67+MJ6c+vGXn0l8Y0hlKW48+TV64BC6qkAhad2KJ5Y6GEmub4ynw1CcE7j1+htpvpHczHTBBc4PilNz/4GfqHLT+nh6Jw6f6M1De/YhMf+ghJOAiqBDOMmp0UpmQDLMto7HSfaNlIwgidVzuG0iW16r7H6scwcFg8pLx8BRPP8QARvxlL9Yxiqyx6y1j3jzhLWOTuth8gsv3HWwK/dcL/jJCNZ6sUMyx3LP5boFhjmD5MIuMs5tSPA483Cd5mUZcwan7+o2jp14SNivcbRN8AjjPW4E0V8OQRDdiSPqUkc8NfLG4uVS/9Jfle6zli6k4c9OONudSG4ULXIVlSlxFz3y4EOUP2++s/ucrLzx7gZ67qWVad8T+u34704OQZ04BHq370wt6jaMs9f5ZvGqvmGTxpF4ggcleQLlS99Hk58amfyBliNOnzlDTbp2oG3bP7NsxWo8Ag/dW5YmDcGTTvH4hGG7iqBDGDj5pQNH4Io7sKKalV3gQvaNlF1fbvTmHn+y5XWjo8xjuH036Lx0ChzFsnui+Yx7PCTqP5bMOmzT3S/cMBa2FCWoT+xE68Tt26I/GcHaaLm5fnPP5boFhjmD5MKGMs5tSPAkNxp0mJdlzBmcvqvbOHbiIbLvS6x9BuEaR+sEz/FTJ6mK8Vfg+3760coV6z4SGNLjCapbpXra93KmL15AIsnxw4/7qWfbjtSqfmMWyT7e8TntM/r4+eCvdNJ4hdh/zjufSt56G4knDtyUz7/6ggrkv4JEgkdWEd8P2mu8WvCvv/6K2eTfxreAdu7ZTR9v/5zWb3yHRBAcJZKA+OZSq3oNqdID5SN3OPi1aeuH9NTEsbTz228c1EYVOwJiXD1rJHkuzXmJXbWY+84YT4K17tWV3jfsgZKYgEgqvzJ3sfHUYLbElVFDWwIqgg7awgmA4FwX69zBFRXoxI2f3ZMAQgbZN1IygiRWNtzjT7a8Vtn9WOf2W114Cb/Z/Mk2mjhnhh9mSLpPp8F4jIek0UYcIPiF/dVtXOfECJAMP7h9W4gsI1jLoHrMJrnnct0Cw5xBcmEAGec2JHhiunLCjea8LCqK9SAVGXMGp+/qNo6d2Fb2fYm1zyCcH7VO8AiY23d+SdVbNbFyxbqPBCYPHUHnn3ee8fq8wXTs99/OSiL7r9DXblhHc5c/R1s/++RsH9Er2Y2gaKnb7qBalR+h+++6J3p3YH8fPnqE2vXpgScc4lhIJBZqV65KFcuWo2uvKhqn1r+bV7y6mhavWkGffrHdth52JkdAJD87NWtJTWrVdXygSMT2HfEU7dr7reNjUr3i81Nm0c3Fb0h1DKHXX0XQIfQQGRXkvljnDrJwoHGS2DH7lX0jJSNIYsomltzjT7a8Vtn9WOf2Vx15mcGjoAWOTP9IZg6DfU1q3pdB94tkNBQ+VPLmW+O+1i+ZtvyqK+whkrKcRZenmQQDbh66+YuY+ziLDN9Agse7hUy/32LMBWLdryKuo0UR1zxeCxI8yRGUfV9i7T2Z6y3rcTLXtU/wCBiLVy6ngWO8vTZIJtRUbksEfq2JHSsL8QRP45q1KW/uy6ybk1p/7e31NG7mNEffT7nthpuohDF5ioTTrUaQ9J4SdybVl6j8k/HdmYOHD9Ep48kg8W2hrFmyJN2GmwPEN4HK1atJeLWbPb0smTPTDddcR5fnyUv5jH8njVevCXZHjx2jT7/cEdcX7VvFXqcEsmfLTiVvusW44buV7il5FxUtVCTiUPHEztsfbKSX33ydRFIWxTmBAY91p0Y1ajs/ADW1JsB9Y6k1HJ+FVxWk4A6sysCYTGLH7E/2DbR5U2y273Vp3ux7bSfe8TKCOvHa9mM7eMWnLtiIpzdEke338XuNvUeMkxJGQD5Z/+MMFAlJdUzgxSac3FbTN/z2i2SkFoEqUZL1oWT6QF0QAAHnBKYsmOu8soua7Ro1dXGU3oeYc7J57hbamNu8amaeh812uO4nZMlryhm9lH3dHd2+6t+cvC7JmTNDPEy1fqFI8Aho3YcOpFWvv6qaH/pLkoB45dCGZavOHvXqW2+m/TXQJRfnPLst1srK19bQ3GVLaMeunbF2R2wTr/B6vGXbtNesRexw+OPtze/T86tfIpFMEqVyuYeoV7tOnhJTDruOqPa08a2Y2csWR2zDDxAAgfATEHPO2AFDwq8oNAQBEMhAIIiJHnFzl+hVbBkUwQYQSHECIohgBo04AwpWzF7/epQ7wSPjdTRWfXVcN30hSK9yswYikdDR0asgMwiAgGwC5lzttN2wJUKc6o16wSIQmgSP+GZJzdZN6WvjOyYowSVQusRdNHvU+DQBGxsfWhffRilW5GqaZWzLkyt3BsFff+ctGjJ+NB349ZcM+2Jt6NK8DXVs2iLWroTbXn5jLYnAivhWjllaN2hCPdp0MH8mXJ4wniBZ+foa42mF9bT9yy/oXOPpoXyX5SHxNFHT2vWo8JUFbNsQ3yZZ9OJyOvrbsbTvGO3+bq9tfewEARAIFwHxFNQL0+eSeDoNBQRAILUJmE92qfzOh3mDKhI6opi/U9sS0B4EvBMQwSLxiijxahizJBtAMo8TS46gPOerS4TMSPAICpHF9AGrb5jbImvK+cXhN3IkQysgAAIgAAIgAAJeCIQmwSMgfL9/H1Vt3pCOnzrphQmOZSTwyIMVaHT/wdRtyAB6yUiomOXiHBelJWauMb6p8svBX2n71zvpzffeTrOpWSfR8sHS96V9/P3347/T8jUv0xzjiR/xirUr8l1O9915N3Vp0ZpEP9FFPKkzdtY02r13T8Su6hUq0cg+AyO22f2Y89wietZ4dFYkZ+IV8Zq4KsYTRg/de3/Eh9NPnjpFs59bTONnT4t3KLaDAAiEnED2LFlp5awFVPCKK0OuKdQDARBIloAZHBbHyXp3uJm8Ea9y4np1RLJ6oj4IpCoBa1Df+q0QMTajizl2o7d7+S36F0/wcBUhs4zvDXDJF8R24/mEKas4F4j5O7pYfYbDV6L7w28QAAEQAAEQAAH/CYQqwSNwbjC+99CqZ1f/yUKCmAQuzXkJPVTmfuPD9y/E3O9l45233k7F/3sNLVyxjMS3P6JL5kyZ6JEHKxpP09xI4lVxe/Z9T0tXroj52jcRaH3nhZfpwuwXRjeT4ffGj7ZQv2eG0b6ffsywz25D7ktzpclx7jnn0Lbtn9lVxT4QAIEUIDBj5Ni0ZHQKqAoVQQAEJBGwBgDNJu2Cwwj2mZSwBAEQsBLgfj0bEjxW2lgHARAAARAAARAAAbkEQpfgEXhE8mDg6BFySaG1lCLQv0s3alyzjq3OIok0ZNwoem71Stt62AkCIAACiQgM7t6b6j1SI1E17AcBEAABEAABEAABqQS4n94Rwoqnd5Bglmo2NAYCIAACIAACIAACZwmEMsEjtHv62Qk0e+nCs4piBQScEhDfy1k6eYZt9c+/+iLtNXN7fvjeth52ggAIgEAiAi3qNqTe7Tsnqob9IAACIAACIAACICCdABI80pGiQRAAARAAARAAARBQSiC0CR5BsUO/XvT6O28pBYrO9CewbskKKpD/ipiKHPj1F5q+aD4tMF4DhwICIAACXgk8dG9ZmjRkuNdmcDwIgAAIgAAIgAAIuCLA/Xo2IdSud7a4kg0HgQAIgAAIgAAIgAAIJCYQ6gTP6TNn0j4W+ekX2xOTQA0QMAh0a92B2jZskoGF+LbT8ldeptfeXp9hHzaAAAiAgBsC4mnBeWMnU6YLLnBzOI4BARAAARAAARBQREA85RLGV4ypeHoH399R5KToBgRAAARAAARAIGUJhDrBI6x6/MRxati5He3YtTNljQzFnRMY/+RTVKRgIdq9dw/t3PMtfbrjc/rsyy/o+MkTzhtBTRAAARBIQKB4sWtpkfE++mxZsyaoid0gAAIgAAIgAAJ+EJgw599XNk/83zKMT6GoeHqnU7NW1Nn4hwICIAACIAACIAACIMBDIPQJHoHt2O+/UZ0OrdKC9jwY0SoIgAAIgAAIOCNQrMjVxne+plP2bNmdHYBaIAACIAACIAACSghEJ3WsnYYtUSF0NZNXVj1lry80/qAljE8/yeaE9kAABEAABEAABEDALYGUSPAIOIePHqE67VvS3n0/uGWF40AABEAABEDAE4GrjCcEn3t2Jl10YQ5P7eBgEAABEAABEAAB7wTEK8o2f7KNthj/xLpdCVuCp2iZEnbqStmH17NJwYhGQAAEQAAEQAAEQMCWQMokeASFXw8dpNpGkmffTz/aQsFOEAABEAABEJBNoOAVV9IyI7lzycU5ZTeN9kAABEAABEAABBwSsHtKJ1ETYXlNm4pXswmWSPAk8ijsBwEQAAEQAAEQAAHvBFIqwSNwHfj1F6prvK5t/4GfvNNDCyAAAiAAAiDggMCVl+en56fMoktzXuKgNqqAAAiAAAiAAAjIJOAlqWOVIwxP8ah6NZvghtezWb0H6yAAAiAAAiAAAiDAQyDlEjwCo0jyiL9a+g6va+PxKrQKAiAAAiBwlkCRAgVp8cRpSO6cJYIVEAABEAABEOAlkMyr15KVROekhcrkjuAalieekvUR1AcBEAABEAABEAABlQRSMsEjAB88fIjqdmyNJI9Kb0NfIAACIJBiBIoWKkKLJk6lnBddnGKaQ10QAAEQAAEQUE9ARQJD19eOqWBjtbiunKw6YB0EQAAEQAAEQAAEdCCQsgkeYRyR5BFP8uz+bq8OtoKMIAACIAACGhEQyZ2lk6dTjgtzaCQ1RAUBEAABEAABfQng2zKxbac6uSOk0PlJp9gUsRUEQAAEQAAEQAAEgkkgpRM8wiSHjx6hVr0ep8++3BFMC0EqEAABEAAB7QjccdMtNHXYM0juaGc5CAwCIAACIKAzAZWJDF2+x6OSiek7eHrHJIElCIAACIAACIAACPATSPkEj0D8559/UrehA+nVt97kJ44eQAAEQAAEQk2g5sNVaGiPPnT+eeeFWk8oBwIgAAIgAAJBJFC0TAllYolERqemLUksg1j8SO4IDnh6J4jeAJlAAARAAARAAATCSgAJHotlpy6cR2NmPEv//POPZStWQQAEQAAEQCAxgfPOPZd6te9MzWrXT1wZNUAABEAABEAABFgIqHpNm1X4oD3N41diRzDB0ztWz8A6CIAACIAACIAACPATQIInivG6996mroP706nTp6P24CcIgAAIgAAIxCaQPWs2mjR0BN19u7q/Go4tCbaCAAiAAAiAQGoT8Cu5EYSnefzS3epxeHrHSgPrIAACIAACIAACIMBPAAmeGIx37f2WWvXsSvsP/BRjLzaBAAiAAAiAQDqBIgUK0owRY6lA/ivSN2INBEAABEAABEDAFwKbP95K4ikeP4vKZI9I6ogy8X9Lv/UWCR4UEAABEAABEAABEAABdQSQ4InD+vfjv1OH/r1p09YP49TAZhAAARAAgVQnULZUaRo7cChlzZIl1VFAfxAAARAAARAIDAGV3+FJpLSZ7BH1xLrXIhJYmz/ZltZMEJI6Vn3w9I6VBtZBAARAAARAAARAQA0BJHhsOP/999/0zLTJNHPJApta2AUCIAACIJBqBM41vrfTuWkr6tC0RaqpDn1BAARAAARAIPAEgvCqMjtIZqKnxM23RlQr+b/fZgLH3LnlfwkdkdwJagnad4iCyglygQAIgAAIgAAIgIBsAkjwOCC6dsM66vX0YDp56pSD2qgCAiAAAiAQZgI5sl9IY58cSmVK3BVmNaEbCIAACIAACGhNIOhJHq3hRgkvElZ4NVsUFPwEARAAARAAARAAAUUEkOBxCPr7/fuoQ79e9NXuXQ6PQDUQAAEQAIGwEbj1+htpwuCnKU+u3GFTDfqAAAiAAAiAQKgIBOFbPKECaqMMXs1mAwe7QAAEQAAEQAAEQICZABI8SQD+66+/aPSMKTRr6UL6559/kjgSVUEABEAABHQmcP5551En45VsbRs1JfF6NhQQAAEQAAEQAIHgE8BTPPw2wqvZ+BmjBxAAARAAARAAARCwI4AEjx2dOPs+2PYRPTaoHx06cjhODWwGARAAARAIC4H8efPR5KdGUvGixcKiEvQAARAAARAAgZQhULRMiZTRVbWieDWbauLoDwRAAARAAARAAAQyEkCCJyMTR1uOHDtKQyeMoZfeWOuoPiqBAAiAAAjoR6B+tVrUo11Hyp4lq37CQ2IQAAEQAAEQAAHCUzw8ToDkDg9XtAoCIAACIAACIAACyRJAgidZYlH139r0HvUdOYx+PXQwag9+ggAIgAAI6Ergysvz05j+g+nm4jfoqgLkBgEQAAEQAAEQ+B8BJHnkuwK+uyOfKVoEARAAARAAARAAATcEkOBxQy3qmOOnTtLIyRNo6csv4ts8UWzwEwRAAAR0IiC+tdO8bkPq0qwVXXDBBTqJDllBAARAAARAAARsCCDJYwMnyV1I7iQJDNVBAARAAARAAARAgJEAEjwS4X746cfU75lh9O3330lsFU2BAAiAAAioICCe1hna4wkqVuRqFd2hDxAAARAAARAAAcUEGnZpR5s/3qq413B1h+ROuOwJbUAABEAABEAABPQngASPZBv+399/05JVL9C4mdPo2O+/SW4dzYEACIAACMgmkCdXburRtiNVLV9RdtNoDwRAAARAAARAIGAEipYpETCJ9BEHyR19bAVJQQAEQAAEQAAEUocAEjxMthbJHZHkEckekfRBAQEQAAEQCBaBTMYr2FrUa0RtGzShLJkzB0s4SAMCIAACIAACIMBCQDzBI57kQXFOoOQtt1Gnpi1JLFFAAARAAARAAARAAASCRQAJHmZ77P5+L40wvs/z1qb3mHtC8yAAAiAAAk4JVHmwAvU0ntrJm/syp4egHgiAAAiAAAiAQIgI4HVtzowpkjriyR0UEAABEAABEAABEACBYBJAgkeRXT7Z8TmNmTmVNm39UFGP6AYEQAAEQMBK4JxzzqHyZe6nx1q2oasLFrbuwjoIgAAIgAAIgEAKEpgwZwZNNP6hxCbQqVkr6mz8QwEBEAABEAABEAABEAguASR4FNtm62ef0PApE0kkfFBAAARAAATUEChbqjQ93rodFStytZoO0QsIgAAIgAAIgIAWBPDKtthmQnInNhdsBQEQAAEQAAEQAIGgEUCCxyeLvLNlE81aspDexxM9PlkA3YIACKQCgYr3l6PW9RvR9cWuTQV1oSMIgAAIgAAIgIALAiLJM3HuTBLLVC9I7KS6B0B/EAABEAABEAAB3QggweOzxXZ++w1NXzSf1qx/g/76v//zWRp0DwIgAAL6E8iSOTPVrFiFWtZrSPnz5tNfIWgAAiAAAiAAAiCghEAqJ3pEYkcUvJJNiauhExAAARAAARAAARCQRgAJHmkovTX00y8/04zFC2jF2tV04uRJb43haBAAARBIQQK5L81FDarWpIY1H6WLLsyRggSgMgiAAAiAAAiAgAwCqfZtHjy1I8Nr0AYIgAAIgAAIgAAI+EMACR5/uMft9fSZM2lP8yx56UV8pycuJewAARAAgX8JnHvuuVT6jjup7iPV6P67y9B5xm8UEAABEAABEAABEJBBIMyJnpK33EYlbr4VT+zIcBS0AQIgAAIgAAIgAAI+EkCCx0f4ibr+5rs9tPjFF+jF19bQ8RPHE1XHfhAAARBIGQKX5cpNtSo9QvWr1qA8xjoKCIAACIAACIAACHARCNOr28TTOiWNxI5I8KCAAAiAAAiAAAiAAAjoTwAJHg1s+Oeff9Kmjz+ide+9S+s3vkMHfv1FA6khIgiAAAjIJXBVocJUtlRpeqDUPXTL9TeSeHoHBQRAAARAAARAAARUERCJHlEmzp1J5rqqvr30g+/reKGHY0EABEAABEAABEAg2ASQ4Am2fWJKt33nl7T+/ffoLeOfWEcBARAAgbASuPPW2+n+O0tRudL3UYH8V4RVTegFAiAAAiAAAiCgGQEzwRPUZA+SOpo5FMQFARAAARAAARAAAZcEkOBxCS4ohx06cpjeNJ7qect4uuf9bR/SqdOngyIa5AABEACBpAlcnOMiutdI6JQ1ntIRy2xZsyXdBg4AARAAARAAARAAAdUErAkf0bf5W4UcZjIHr15TQRt9gAAIgAAIgAAIgECwCCDBEyx7eJbmrU3v0XtbNtOmrR/Srr3fem4PDYAACIAAN4Gbi99ApW4vQWXuKEm33Xgzd3doHwRAAARAAARAAASUEDCTPJs/2Xa2vy2WdXOjWc/8bS6t38kpYXw3xywikSOKdb+5D0sQAAEQAAEQAAEQAIHUIoAET4jtffS3Y2l/Obb5421pS5Hw+eeff0KsMVQDARAIOoHzzz+fbrzmurSARImbbqHbjX+ZM2UKutiQDwRAAARAAARAAARAAARAAARAAARAAARAAAQCRwAJnsCZhE+gEydP0u7v9tA3e/cYT/fsod1py29p/4GfkPjhw46WQSAlCfznP/+hQvmvpKsLF6GrCxWmqwsWoquMZZErC5LYhwICIAACIAACIAACIAACIAACIAACIAACIAACIOCNABI83viF5ui9+36gn34+QPsO/Ej7f/6ZfjSSPgd+/YV+PXiQjhhPAolv/aCAAAiAgEkgT67clPOiiyn3pbno8svyUP68+ejyvHnpCmOZL09eutz4hwICIAACIAACIAACIAACIAACIAACIAACIAACIMBHAAkePrZoGQRAAARAAARAAARAAARAAARAAARAAARAAARAAARAAARAAARYCCDBw4IVjYIACIAACIAACIAACIAACIAACIAACIAACIAACIAACIAACIAAHwEkePjYomUQAAEQAAEQAAEQAAEQAAEQAAEQAAEQAAEQAAEQAAEQAAEQYCGABA8LVjQKAiAAAiAAAiAAAiAAAiAAAiAAAiAAAiAAAiAAAiAAAiAAAnwEkODhY4uWQQAEQAAEQAAEQAAEQAAEQAAEQAAEQAAEQAAEQAAEQAAEQICFABI8LFjRKAiAAAiAAAiAAAiAAAiAAAiAAAiAAAiAAAiAAAiAAAiAAAjwEUCCh48tWgYBEAABEAABEAABEAABEAABEAABEAABEAABEAABEAABEAABFgJI8LBgRaMgAAIgAAIgAAIgAAIgAAIgAAIgAAIgAAIgAAIgAAIgAAIgwEcACR4+tmgZBEAABEAABEAABEAABEAABEAABEAABEAABEAABEAABEAABFgIIMHDghWNggAIgAAIgAAIgAAIgAAIgAAIgAAIgAAIgAAIgAAIgAAIgAAfASR4+NiiZRAAARAAARAAARAAARAAARAAARAAARAAARAAARAAARAAARBgIYAEDwtWNAoCIAACIAACIAACIAACIAACIAACIAACIAACIAACIAACIAACfASQ4OFji5ZBAARAAARAAARAAARAAARAAARAAARAAARAAARAAARAAARAgIUAEjwsWNEoCIAACIAACIAACIAACIAACIAACIAACIAACIAACIAACIAACPARQIKHjy1aBgEQAAEQAAEQAAEQAAEQAAEQAAEQAAEQAAEQAAEQAAEQAAEWAkjwsGBFoyAAAiAAAiAAAiAAAiAAAiAAAiAAAiAAAiAAAiAAAiAAAiDARwAJHj62aBkEQAAEQAAEQAAEQAAEQAAEQAAEQAAEQAAEQAAEQAAEQAAEWAggwcOCFY2CAAiAAAiAAAiAAAiAAAiAAAiAAAiAAAiAAAiAAAiAAAiAAB8BJHj42KJlEAABEAABEAABEAABEAABEAABEAABEAABEAABEAABEAABEGAhgAQPC1Y0CgIgAAIgAAIgAAIgAAIgAAIgAAIgAAIgAAIgAAIgAAIgAAJ8BP4f0AZwjaUE7qMAAAAASUVORK5CYII=;imageBorder=default;sketch=1;curveFitting=1;jiggle=2;" parent="1" vertex="1">
                    <mxGeometry x="772.83" y="513.0899999999999" width="250.55" height="43.88" as="geometry"/>
                </mxCell>
                <mxCell id="6" style="edgeStyle=none;html=1;entryX=0;entryY=0.5;entryDx=0;entryDy=0;flowAnimation=1;" edge="1" parent="1" source="4" target="8_lOqyAqj8u2YSckU1qC-59">
                    <mxGeometry relative="1" as="geometry"/>
                </mxCell>
                <mxCell id="4" value="&lt;b&gt;&lt;font style=&quot;font-size: 12px;&quot;&gt;Google Embeddings&lt;/font&gt;&lt;/b&gt;" style="shape=process;whiteSpace=wrap;html=1;backgroundOutline=1;rounded=1;fillColor=#d5e8d4;strokeColor=#1c3c3c;sketch=1;curveFitting=1;jiggle=2;sketchStyle=rough;" vertex="1" parent="1">
                    <mxGeometry x="519" y="134.00000000000003" width="120" height="60" as="geometry"/>
                </mxCell>
            </root>
        </mxGraphModel>
    </diagram>
</mxfile>